<svg xmlns="http://www.w3.org/2000/svg" xmlns:xlink="http://www.w3.org/1999/xlink"><symbol viewBox="0 0 1792 1792" id="bars" xmlns="http://www.w3.org/2000/svg"><path d="M1664 1344v128q0 26-19 45t-45 19H192q-26 0-45-19t-19-45v-128q0-26 19-45t45-19h1408q26 0 45 19t19 45zm0-512v128q0 26-19 45t-45 19H192q-26 0-45-19t-19-45V832q0-26 19-45t45-19h1408q26 0 45 19t19 45zm0-512v128q0 26-19 45t-45 19H192q-26 0-45-19t-19-45V320q0-26 19-45t45-19h1408q26 0 45 19t19 45z"/></symbol><symbol viewBox="0 0 1792 1792" id="bell" xmlns="http://www.w3.org/2000/svg"><path d="M912 1696q0-16-16-16-59 0-101.5-42.5T752 1536q0-16-16-16t-16 16q0 73 51.5 124.5T896 1712q16 0 16-16zm816-288q0 52-38 90t-90 38h-448q0 106-75 181t-181 75-181-75-75-181H192q-52 0-90-38t-38-90q50-42 91-88t85-119.5 74.5-158.5 50-206T384 576q0-152 117-282.5T808 135q-8-19-8-39 0-40 28-68t68-28 68 28 28 68q0 20-8 39 190 28 307 158.5T1408 576q0 139 19.5 260t50 206 74.5 158.5 85 119.5 91 88z"/></symbol><symbol viewBox="0 0 1792 1792" id="calendar" xmlns="http://www.w3.org/2000/svg"><path d="M2.286 29.714h5.143v-5.143H2.286v5.143zm6.285 0h5.714v-5.143H8.571v5.143zm-6.285-6.285h5.143v-5.714H2.286v5.714zm6.285 0h5.714v-5.714H8.571v5.714zm-6.285-6.858h5.143v-5.143H2.286v5.143zm13.143 13.143h5.714v-5.143h-5.714v5.143zM8.571 16.571h5.714v-5.143H8.571v5.143zm13.715 13.143h5.143v-5.143h-5.143v5.143zm-6.857-6.285h5.714v-5.714h-5.714v5.714zM9.143 8V2.857q0-.232-.17-.402t-.402-.17H7.428q-.232 0-.402.17t-.17.402V8q0 .232.17.402t.402.17h1.143q.232 0 .402-.17T9.143 8zm13.143 15.429h5.143v-5.714h-5.143v5.714zm-6.857-6.858h5.714v-5.143h-5.714v5.143zm6.857 0h5.143v-5.143h-5.143v5.143zM22.857 8V2.857q0-.232-.17-.402t-.402-.17h-1.143q-.232 0-.402.17t-.17.402V8q0 .232.17.402t.402.17h1.143q.232 0 .402-.17t.17-.402zm6.857-1.143v22.857q0 .929-.679 1.607T27.428 32H2.285q-.929 0-1.607-.679t-.679-1.607V6.857q0-.929.679-1.607t1.607-.679h2.286V2.857q0-1.179.839-2.018T7.428 0h1.143q1.179 0 2.018.839t.839 2.018v1.714h6.857V2.857q0-1.179.839-2.018T21.142 0h1.143q1.179 0 2.018.839t.839 2.018v1.714h2.286q.929 0 1.607.679t.679 1.607z"/></symbol><symbol viewBox="0 0 1792 1792" id="check" xmlns="http://www.w3.org/2000/svg"><path d="M1671 566q0 40-28 68l-724 724-136 136q-28 28-68 28t-68-28l-136-136-362-362q-28-28-28-68t28-68l136-136q28-28 68-28t68 28l294 295 656-657q28-28 68-28t68 28l136 136q28 28 28 68z"/></symbol><symbol viewBox="0 0 1792 1792" id="chevron-down" xmlns="http://www.w3.org/2000/svg"><path d="M1683 808l-742 741q-19 19-45 19t-45-19L109 808q-19-19-19-45.5t19-45.5l166-165q19-19 45-19t45 19l531 531 531-531q19-19 45-19t45 19l166 165q19 19 19 45.5t-19 45.5z"/></symbol><symbol viewBox="0 0 1792 1792" id="chevron-left" xmlns="http://www.w3.org/2000/svg"><path d="M1427 301L896 832l531 531q19 19 19 45t-19 45l-166 166q-19 19-45 19t-45-19L429 877q-19-19-19-45t19-45l742-742q19-19 45-19t45 19l166 166q19 19 19 45t-19 45z"/></symbol><symbol viewBox="0 0 1792 1792" id="chevron-right" xmlns="http://www.w3.org/2000/svg"><path d="M1363 877l-742 742q-19 19-45 19t-45-19l-166-166q-19-19-19-45t19-45l531-531-531-531q-19-19-19-45t19-45L531 45q19-19 45-19t45 19l742 742q19 19 19 45t-19 45z"/></symbol><symbol viewBox="0 0 1792 1792" id="chevron-up" xmlns="http://www.w3.org/2000/svg"><path d="M1683 1331l-166 165q-19 19-45 19t-45-19L896 965l-531 531q-19 19-45 19t-45-19l-166-165q-19-19-19-45.5t19-45.5l742-741q19-19 45-19t45 19l742 741q19 19 19 45.5t-19 45.5z"/></symbol><symbol viewBox="0 0 1792 1792" id="exclamation" xmlns="http://www.w3.org/2000/svg"><path d="M1088 1248v224q0 26-19 45t-45 19H768q-26 0-45-19t-19-45v-224q0-26 19-45t45-19h256q26 0 45 19t19 45zm30-1056l-28 768q-1 26-20.5 45t-45.5 19H768q-26 0-45.5-19T702 960l-28-768q-1-26 17.5-45t44.5-19h320q26 0 44.5 19t17.5 45z"/></symbol><symbol viewBox="0 0 1792 1792" id="question" xmlns="http://www.w3.org/2000/svg"><path d="M1088 1256v240q0 16-12 28t-28 12H808q-16 0-28-12t-12-28v-240q0-16 12-28t28-12h240q16 0 28 12t12 28zm316-600q0 54-15.5 101t-35 76.5-55 59.5-57.5 43.5-61 35.5q-41 23-68.5 65t-27.5 67q0 17-12 32.5t-28 15.5H804q-15 0-25.5-18.5T768 1096v-45q0-83 65-156.5T976 786q59-27 84-56t25-76q0-42-46.5-74T931 548q-65 0-108 29-35 25-107 115-13 16-31 16-12 0-25-8L496 575q-13-10-15.5-25t5.5-28q160-266 464-266 80 0 161 31t146 83 106 127.5 41 158.5z"/></symbol><symbol viewBox="0 0 1792 1792" id="times" xmlns="http://www.w3.org/2000/svg"><path d="M1490 1322q0 40-28 68l-136 136q-28 28-68 28t-68-28l-294-294-294 294q-28 28-68 28t-68-28l-136-136q-28-28-28-68t28-68l294-294-294-294q-28-28-28-68t28-68l136-136q28-28 68-28t68 28l294 294 294-294q28-28 68-28t68 28l136 136q28 28 28 68t-28 68l-294 294 294 294q28 28 28 68z"/></symbol></svg>