<svg width="0" height="0" style="position:absolute"><symbol viewBox="0 0 100 100" style="max-height:100px;max-width:100px" id="bars" xmlns="http://www.w3.org/2000/svg"><path d="M100 85v10c0 1.4-.4 2.5-1.2 3.5-.8 1-1.8 1.5-2.9 1.5H4.2c-1.1 0-2.1-.5-2.9-1.5S0 96.4 0 95V85c0-1.4.4-2.5 1.2-3.5S3 80 4.2 80h91.7c1.1 0 2.1.5 2.9 1.5.8 1 1.2 2.1 1.2 3.5zm0-40v10c0 1.4-.4 2.5-1.2 3.5-.8 1-1.8 1.5-2.9 1.5H4.2c-1.1 0-2.1-.5-2.9-1.5S0 56.4 0 55V45c0-1.4.4-2.5 1.2-3.5S3 40 4.2 40h91.7c1.1 0 2.1.5 2.9 1.5.8 1 1.2 2.1 1.2 3.5zm0-40v10c0 1.4-.4 2.5-1.2 3.5-.8 1-1.8 1.5-2.9 1.5H4.2c-1.1 0-2.1-.5-2.9-1.5S0 16.4 0 15V5c0-1.4.4-2.5 1.2-3.5S3 0 4.2 0h91.7c1.1 0 2.1.5 2.9 1.5.8 1 1.2 2.1 1.2 3.5z"/></symbol><symbol viewBox="0 0 1792 1792" id="bell" xmlns="http://www.w3.org/2000/svg"><path d="M912 1696q0-16-16-16-59 0-101.5-42.5T752 1536q0-16-16-16t-16 16q0 73 51.5 124.5T896 1712q16 0 16-16zm816-288q0 52-38 90t-90 38h-448q0 106-75 181t-181 75-181-75-75-181H192q-52 0-90-38t-38-90q50-42 91-88t85-119.5 74.5-158.5 50-206T384 576q0-152 117-282.5T808 135q-8-19-8-39 0-40 28-68t68-28 68 28 28 68q0 20-8 39 190 28 307 158.5T1408 576q0 139 19.5 260t50 206 74.5 158.5 85 119.5 91 88z"/></symbol><symbol viewBox="0 0 1792 1792" id="calculator" xmlns="http://www.w3.org/2000/svg"><path d="M384 1536q0-53-37.5-90.5T256 1408t-90.5 37.5T128 1536t37.5 90.5T256 1664t90.5-37.5T384 1536zm384 0q0-53-37.5-90.5T640 1408t-90.5 37.5T512 1536t37.5 90.5T640 1664t90.5-37.5T768 1536zm-384-384q0-53-37.5-90.5T256 1024t-90.5 37.5T128 1152t37.5 90.5T256 1280t90.5-37.5T384 1152zm768 384q0-53-37.5-90.5T1024 1408t-90.5 37.5T896 1536t37.5 90.5 90.5 37.5 90.5-37.5 37.5-90.5zm-384-384q0-53-37.5-90.5T640 1024t-90.5 37.5T512 1152t37.5 90.5T640 1280t90.5-37.5T768 1152zM384 768q0-53-37.5-90.5T256 640t-90.5 37.5T128 768t37.5 90.5T256 896t90.5-37.5T384 768zm768 384q0-53-37.5-90.5T1024 1024t-90.5 37.5T896 1152t37.5 90.5 90.5 37.5 90.5-37.5 37.5-90.5zM768 768q0-53-37.5-90.5T640 640t-90.5 37.5T512 768t37.5 90.5T640 896t90.5-37.5T768 768zm768 768v-384q0-52-38-90t-90-38-90 38-38 90v384q0 52 38 90t90 38 90-38 38-90zm-384-768q0-53-37.5-90.5T1024 640t-90.5 37.5T896 768t37.5 90.5T1024 896t90.5-37.5T1152 768zm384-320V192q0-26-19-45t-45-19H192q-26 0-45 19t-19 45v256q0 26 19 45t45 19h1280q26 0 45-19t19-45zm0 320q0-53-37.5-90.5T1408 640t-90.5 37.5T1280 768t37.5 90.5T1408 896t90.5-37.5T1536 768zm128-640v1536q0 52-38 90t-90 38H128q-52 0-90-38t-38-90V128q0-52 38-90t90-38h1408q52 0 90 38t38 90z"/></symbol><symbol viewBox="0 0 1792 1792" id="calendar" xmlns="http://www.w3.org/2000/svg"><path d="M192 1664h288v-288H192v288zm352 0h320v-288H544v288zm-352-352h288V992H192v320zm352 0h320V992H544v320zM192 928h288V640H192v288zm736 736h320v-288H928v288zM544 928h320V640H544v288zm768 736h288v-288h-288v288zm-384-352h320V992H928v320zM576 448V160q0-13-9.5-22.5T544 128h-64q-13 0-22.5 9.5T448 160v288q0 13 9.5 22.5T480 480h64q13 0 22.5-9.5T576 448zm736 864h288V992h-288v320zM928 928h320V640H928v288zm384 0h288V640h-288v288zm32-480V160q0-13-9.5-22.5T1312 128h-64q-13 0-22.5 9.5T1216 160v288q0 13 9.5 22.5t22.5 9.5h64q13 0 22.5-9.5t9.5-22.5zm384-64v1280q0 52-38 90t-90 38H192q-52 0-90-38t-38-90V384q0-52 38-90t90-38h128v-96q0-66 47-113T480 0h64q66 0 113 47t47 113v96h384v-96q0-66 47-113t113-47h64q66 0 113 47t47 113v96h128q52 0 90 38t38 90z"/></symbol><symbol viewBox="0 0 1792 1792" id="chat" xmlns="http://www.w3.org/2000/svg"><path d="M1792 896q0 174-120 321.5t-326 233-450 85.5q-70 0-145-8-198 175-460 242-49 14-114 22-17 2-30.5-9t-17.5-29v-1q-3-4-.5-12t2-10 4.5-9.5l6-9 7-8.5 8-9q7-8 31-34.5t34.5-38 31-39.5 32.5-51 27-59 26-76q-157-89-247.5-220T0 896q0-130 71-248.5T262 443t286-136.5T896 256q244 0 450 85.5t326 233T1792 896z"/></symbol><symbol viewBox="0 0 1792 1792" id="check" xmlns="http://www.w3.org/2000/svg"><path d="M1671 566q0 40-28 68l-724 724-136 136q-28 28-68 28t-68-28l-136-136-362-362q-28-28-28-68t28-68l136-136q28-28 68-28t68 28l294 295 656-657q28-28 68-28t68 28l136 136q28 28 28 68z"/></symbol><symbol viewBox="0 0 1792 1792" id="chevron-down" xmlns="http://www.w3.org/2000/svg"><path d="M1683 808l-742 741q-19 19-45 19t-45-19L109 808q-19-19-19-45.5t19-45.5l166-165q19-19 45-19t45 19l531 531 531-531q19-19 45-19t45 19l166 165q19 19 19 45.5t-19 45.5z"/></symbol><symbol viewBox="0 0 1792 1792" id="chevron-left" xmlns="http://www.w3.org/2000/svg"><path d="M1427 301L896 832l531 531q19 19 19 45t-19 45l-166 166q-19 19-45 19t-45-19L429 877q-19-19-19-45t19-45l742-742q19-19 45-19t45 19l166 166q19 19 19 45t-19 45z"/></symbol><symbol viewBox="0 0 1792 1792" id="chevron-right" xmlns="http://www.w3.org/2000/svg"><path d="M1363 877l-742 742q-19 19-45 19t-45-19l-166-166q-19-19-19-45t19-45l531-531-531-531q-19-19-19-45t19-45L531 45q19-19 45-19t45 19l742 742q19 19 19 45t-19 45z"/></symbol><symbol viewBox="0 0 1792 1792" id="chevron-up" xmlns="http://www.w3.org/2000/svg"><path d="M1683 1331l-166 165q-19 19-45 19t-45-19L896 965l-531 531q-19 19-45 19t-45-19l-166-165q-19-19-19-45.5t19-45.5l742-741q19-19 45-19t45 19l742 741q19 19 19 45.5t-19 45.5z"/></symbol><symbol viewBox="0 0 1792 1792" id="exclamation" xmlns="http://www.w3.org/2000/svg"><path d="M1088 1248v224q0 26-19 45t-45 19H768q-26 0-45-19t-19-45v-224q0-26 19-45t45-19h256q26 0 45 19t19 45zm30-1056l-28 768q-1 26-20.5 45t-45.5 19H768q-26 0-45.5-19T702 960l-28-768q-1-26 17.5-45t44.5-19h320q26 0 44.5 19t17.5 45z"/></symbol><symbol viewBox="0 0 1792 1792" id="question" xmlns="http://www.w3.org/2000/svg"><path d="M1088 1256v240q0 16-12 28t-28 12H808q-16 0-28-12t-12-28v-240q0-16 12-28t28-12h240q16 0 28 12t12 28zm316-600q0 54-15.5 101t-35 76.5-55 59.5-57.5 43.5-61 35.5q-41 23-68.5 65t-27.5 67q0 17-12 32.5t-28 15.5H804q-15 0-25.5-18.5T768 1096v-45q0-83 65-156.5T976 786q59-27 84-56t25-76q0-42-46.5-74T931 548q-65 0-108 29-35 25-107 115-13 16-31 16-12 0-25-8L496 575q-13-10-15.5-25t5.5-28q160-266 464-266 80 0 161 31t146 83 106 127.5 41 158.5z"/></symbol><symbol viewBox="0 0 1792 1792" id="times" xmlns="http://www.w3.org/2000/svg"><path d="M1490 1322q0 40-28 68l-136 136q-28 28-68 28t-68-28l-294-294-294 294q-28 28-68 28t-68-28l-136-136q-28-28-28-68t28-68l294-294-294-294q-28-28-28-68t28-68l136-136q28-28 68-28t68 28l294 294 294-294q28-28 68-28t68 28l136 136q28 28 28 68t-28 68l-294 294 294 294q28 28 28 68z"/></symbol></svg>