<svg width="0" height="0" style="position:absolute"><symbol viewBox="0 0 100 100" style="max-height:100px;max-width:100px" id="bars" xmlns="http://www.w3.org/2000/svg"><path d="M100 85v10c0 1.4-.4 2.5-1.2 3.5-.8 1-1.8 1.5-2.9 1.5H4.2c-1.1 0-2.1-.5-2.9-1.5S0 96.4 0 95V85c0-1.4.4-2.5 1.2-3.5S3 80 4.2 80h91.7c1.1 0 2.1.5 2.9 1.5.8 1 1.2 2.1 1.2 3.5zm0-40v10c0 1.4-.4 2.5-1.2 3.5-.8 1-1.8 1.5-2.9 1.5H4.2c-1.1 0-2.1-.5-2.9-1.5S0 56.4 0 55V45c0-1.4.4-2.5 1.2-3.5S3 40 4.2 40h91.7c1.1 0 2.1.5 2.9 1.5.8 1 1.2 2.1 1.2 3.5zm0-40v10c0 1.4-.4 2.5-1.2 3.5-.8 1-1.8 1.5-2.9 1.5H4.2c-1.1 0-2.1-.5-2.9-1.5S0 16.4 0 15V5c0-1.4.4-2.5 1.2-3.5S3 0 4.2 0h91.7c1.1 0 2.1.5 2.9 1.5.8 1 1.2 2.1 1.2 3.5z"/></symbol><symbol viewBox="0 0 1792 1792" id="bell" xmlns="http://www.w3.org/2000/svg"><path d="M912 1696q0-16-16-16-59 0-101.5-42.5T752 1536q0-16-16-16t-16 16q0 73 51.5 124.5T896 1712q16 0 16-16zm816-288q0 52-38 90t-90 38h-448q0 106-75 181t-181 75-181-75-75-181H192q-52 0-90-38t-38-90q50-42 91-88t85-119.5 74.5-158.5 50-206T384 576q0-152 117-282.5T808 135q-8-19-8-39 0-40 28-68t68-28 68 28 28 68q0 20-8 39 190 28 307 158.5T1408 576q0 139 19.5 260t50 206 74.5 158.5 85 119.5 91 88z"/></symbol><symbol viewBox="0 0 1792 1792" id="calculator" xmlns="http://www.w3.org/2000/svg"><path d="M384 1536q0-53-37.5-90.5T256 1408t-90.5 37.5T128 1536t37.5 90.5T256 1664t90.5-37.5T384 1536zm384 0q0-53-37.5-90.5T640 1408t-90.5 37.5T512 1536t37.5 90.5T640 1664t90.5-37.5T768 1536zm-384-384q0-53-37.5-90.5T256 1024t-90.5 37.5T128 1152t37.5 90.5T256 1280t90.5-37.5T384 1152zm768 384q0-53-37.5-90.5T1024 1408t-90.5 37.5T896 1536t37.5 90.5 90.5 37.5 90.5-37.5 37.5-90.5zm-384-384q0-53-37.5-90.5T640 1024t-90.5 37.5T512 1152t37.5 90.5T640 1280t90.5-37.5T768 1152zM384 768q0-53-37.5-90.5T256 640t-90.5 37.5T128 768t37.5 90.5T256 896t90.5-37.5T384 768zm768 384q0-53-37.5-90.5T1024 1024t-90.5 37.5T896 1152t37.5 90.5 90.5 37.5 90.5-37.5 37.5-90.5zM768 768q0-53-37.5-90.5T640 640t-90.5 37.5T512 768t37.5 90.5T640 896t90.5-37.5T768 768zm768 768v-384q0-52-38-90t-90-38-90 38-38 90v384q0 52 38 90t90 38 90-38 38-90zm-384-768q0-53-37.5-90.5T1024 640t-90.5 37.5T896 768t37.5 90.5T1024 896t90.5-37.5T1152 768zm384-320V192q0-26-19-45t-45-19H192q-26 0-45 19t-19 45v256q0 26 19 45t45 19h1280q26 0 45-19t19-45zm0 320q0-53-37.5-90.5T1408 640t-90.5 37.5T1280 768t37.5 90.5T1408 896t90.5-37.5T1536 768zm128-640v1536q0 52-38 90t-90 38H128q-52 0-90-38t-38-90V128q0-52 38-90t90-38h1408q52 0 90 38t38 90z"/></symbol><symbol viewBox="0 0 1792 1792" id="calendar" xmlns="http://www.w3.org/2000/svg"><path d="M192 1664h288v-288H192v288zm352 0h320v-288H544v288zm-352-352h288V992H192v320zm352 0h320V992H544v320zM192 928h288V640H192v288zm736 736h320v-288H928v288zM544 928h320V640H544v288zm768 736h288v-288h-288v288zm-384-352h320V992H928v320zM576 448V160q0-13-9.5-22.5T544 128h-64q-13 0-22.5 9.5T448 160v288q0 13 9.5 22.5T480 480h64q13 0 22.5-9.5T576 448zm736 864h288V992h-288v320zM928 928h320V640H928v288zm384 0h288V640h-288v288zm32-480V160q0-13-9.5-22.5T1312 128h-64q-13 0-22.5 9.5T1216 160v288q0 13 9.5 22.5t22.5 9.5h64q13 0 22.5-9.5t9.5-22.5zm384-64v1280q0 52-38 90t-90 38H192q-52 0-90-38t-38-90V384q0-52 38-90t90-38h128v-96q0-66 47-113T480 0h64q66 0 113 47t47 113v96h384v-96q0-66 47-113t113-47h64q66 0 113 47t47 113v96h128q52 0 90 38t38 90z"/></symbol><symbol viewBox="0 0 1792 1792" id="chat" xmlns="http://www.w3.org/2000/svg"><path d="M1792 896q0 174-120 321.5t-326 233-450 85.5q-70 0-145-8-198 175-460 242-49 14-114 22-17 2-30.5-9t-17.5-29v-1q-3-4-.5-12t2-10 4.5-9.5l6-9 7-8.5 8-9q7-8 31-34.5t34.5-38 31-39.5 32.5-51 27-59 26-76q-157-89-247.5-220T0 896q0-130 71-248.5T262 443t286-136.5T896 256q244 0 450 85.5t326 233T1792 896z"/></symbol><symbol viewBox="0 0 1792 1792" id="check" xmlns="http://www.w3.org/2000/svg"><path d="M1671 566q0 40-28 68l-724 724-136 136q-28 28-68 28t-68-28l-136-136-362-362q-28-28-28-68t28-68l136-136q28-28 68-28t68 28l294 295 656-657q28-28 68-28t68 28l136 136q28 28 28 68z"/></symbol><symbol viewBox="0 0 1792 1792" id="chevron-down" xmlns="http://www.w3.org/2000/svg"><path d="M1683 808l-742 741q-19 19-45 19t-45-19L109 808q-19-19-19-45.5t19-45.5l166-165q19-19 45-19t45 19l531 531 531-531q19-19 45-19t45 19l166 165q19 19 19 45.5t-19 45.5z"/></symbol><symbol viewBox="0 0 1792 1792" id="chevron-left" xmlns="http://www.w3.org/2000/svg"><path d="M1427 301L896 832l531 531q19 19 19 45t-19 45l-166 166q-19 19-45 19t-45-19L429 877q-19-19-19-45t19-45l742-742q19-19 45-19t45 19l166 166q19 19 19 45t-19 45z"/></symbol><symbol viewBox="0 0 1792 1792" id="chevron-right" xmlns="http://www.w3.org/2000/svg"><path d="M1363 877l-742 742q-19 19-45 19t-45-19l-166-166q-19-19-19-45t19-45l531-531-531-531q-19-19-19-45t19-45L531 45q19-19 45-19t45 19l742 742q19 19 19 45t-19 45z"/></symbol><symbol viewBox="0 0 1792 1792" id="chevron-up" xmlns="http://www.w3.org/2000/svg"><path d="M1683 1331l-166 165q-19 19-45 19t-45-19L896 965l-531 531q-19 19-45 19t-45-19l-166-165q-19-19-19-45.5t19-45.5l742-741q19-19 45-19t45 19l742 741q19 19 19 45.5t-19 45.5z"/></symbol><symbol viewBox="0 0 1792 1792" id="clock" xmlns="http://www.w3.org/2000/svg"><path d="M1024 544v448q0 14-9 23t-23 9H672q-14 0-23-9t-9-23v-64q0-14 9-23t23-9h224V544q0-14 9-23t23-9h64q14 0 23 9t9 23zm416 352q0-148-73-273t-198-198-273-73-273 73-198 198-73 273 73 273 198 198 273 73 273-73 198-198 73-273zm224 0q0 209-103 385.5T1281.5 1561 896 1664t-385.5-103T231 1281.5 128 896t103-385.5T510.5 231 896 128t385.5 103T1561 510.5 1664 896z"/></symbol><symbol viewBox="0 0 2048 1792" id="cloud-download" xmlns="http://www.w3.org/2000/svg"><path d="M1344 928q0-14-9-23t-23-9h-224V544q0-13-9.5-22.5T1056 512H864q-13 0-22.5 9.5T832 544v352H608q-13 0-22.5 9.5T576 928q0 14 9 23l352 352q9 9 23 9t23-9l351-351q10-12 10-24zm640 224q0 159-112.5 271.5T1600 1536H512q-185 0-316.5-131.5T64 1088q0-130 70-240t188-165q-2-30-2-43 0-212 150-362t362-150q156 0 285.5 87T1306 446q71-62 166-62 106 0 181 75t75 181q0 76-41 138 130 31 213.5 135.5T1984 1152z"/></symbol><symbol viewBox="0 0 2048 1792" id="computer-screen" xmlns="http://www.w3.org/2000/svg"><path d="M1856 992V160q0-13-9.5-22.5T1824 128H224q-13 0-22.5 9.5T192 160v832q0 13 9.5 22.5t22.5 9.5h1600q13 0 22.5-9.5t9.5-22.5zm128-832v1088q0 66-47 113t-113 47h-544q0 37 16 77.5t32 71 16 43.5q0 26-19 45t-45 19H768q-26 0-45-19t-19-45q0-14 16-44t32-70 16-78H224q-66 0-113-47t-47-113V160q0-66 47-113T224 0h1600q66 0 113 47t47 113z"/></symbol><symbol viewBox="0 0 1792 1792" id="download" xmlns="http://www.w3.org/2000/svg"><path d="M1344 1344q0-26-19-45t-45-19-45 19-19 45 19 45 45 19 45-19 19-45zm256 0q0-26-19-45t-45-19-45 19-19 45 19 45 45 19 45-19 19-45zm128-224v320q0 40-28 68t-68 28H160q-40 0-68-28t-28-68v-320q0-40 28-68t68-28h465l135 136q58 56 136 56t136-56l136-136h464q40 0 68 28t28 68zm-325-569q17 41-14 70l-448 448q-18 19-45 19t-45-19L403 621q-31-29-14-70 17-39 59-39h256V64q0-26 19-45t45-19h256q26 0 45 19t19 45v448h256q42 0 59 39z"/></symbol><symbol viewBox="0 0 1792 1792" id="exclamation" xmlns="http://www.w3.org/2000/svg"><path d="M1088 1248v224q0 26-19 45t-45 19H768q-26 0-45-19t-19-45v-224q0-26 19-45t45-19h256q26 0 45 19t19 45zm30-1056l-28 768q-1 26-20.5 45t-45.5 19H768q-26 0-45.5-19T702 960l-28-768q-1-26 17.5-45t44.5-19h320q26 0 44.5 19t17.5 45z"/></symbol><symbol viewBox="0 0 1792 1792" id="home" xmlns="http://www.w3.org/2000/svg"><path d="M1472 992v480q0 26-19 45t-45 19h-384v-384H768v384H384q-26 0-45-19t-19-45V992q0-1 .5-3t.5-3l575-474 575 474q1 2 1 6zm223-69l-62 74q-8 9-21 11h-3q-13 0-21-7L896 424l-692 577q-12 8-24 7-13-2-21-11l-62-74q-8-10-7-23.5t11-21.5l719-599q32-26 76-26t76 26l244 204V288q0-14 9-23t23-9h192q14 0 23 9t9 23v408l219 182q10 8 11 21.5t-7 23.5z"/></symbol><symbol viewBox="0 0 1792 1792" id="info" xmlns="http://www.w3.org/2000/svg"><path d="M1152 1376v-160q0-14-9-23t-23-9h-96V672q0-14-9-23t-23-9H672q-14 0-23 9t-9 23v160q0 14 9 23t23 9h96v320h-96q-14 0-23 9t-9 23v160q0 14 9 23t23 9h448q14 0 23-9t9-23zm-128-896V320q0-14-9-23t-23-9H800q-14 0-23 9t-9 23v160q0 14 9 23t23 9h192q14 0 23-9t9-23zm640 416q0 209-103 385.5T1281.5 1561 896 1664t-385.5-103T231 1281.5 128 896t103-385.5T510.5 231 896 128t385.5 103T1561 510.5 1664 896z"/></symbol><symbol viewBox="0 0 1792 1792" id="lock" xmlns="http://www.w3.org/2000/svg"><path d="M640 768h512V576q0-106-75-181t-181-75-181 75-75 181v192zm832 96v576q0 40-28 68t-68 28H416q-40 0-68-28t-28-68V864q0-40 28-68t68-28h32V576q0-184 132-316t316-132 316 132 132 316v192h32q40 0 68 28t28 68z"/></symbol><symbol viewBox="0 0 1792 1792" id="paper-plane" xmlns="http://www.w3.org/2000/svg"><path d="M1764 11q33 24 27 64l-256 1536q-5 29-32 45-14 8-31 8-11 0-24-5l-453-185-242 295q-18 23-49 23-13 0-22-4-19-7-30.5-23.5T640 1728v-349l864-1059-1069 925-395-162q-37-14-40-55-2-40 32-59L1696 9q15-9 32-9 20 0 36 11z"/></symbol><symbol viewBox="0 0 1792 1792" id="pencil" xmlns="http://www.w3.org/2000/svg"><path d="M491 1536l91-91-235-235-91 91v107h128v128h107zm523-928q0-22-22-22-10 0-17 7l-542 542q-7 7-7 17 0 22 22 22 10 0 17-7l542-542q7-7 7-17zm-54-192l416 416-832 832H128v-416zm683 96q0 53-37 90l-166 166-416-416 166-165q36-38 90-38 53 0 91 38l235 234q37 39 37 91z"/></symbol><symbol viewBox="0 0 1792 1792" id="phone" xmlns="http://www.w3.org/2000/svg"><path d="M1600 1240q0 27-10 70.5t-21 68.5q-21 50-122 106-94 51-186 51-27 0-53-3.5t-57.5-12.5-47-14.5-55.5-20.5-49-18q-98-35-175-83-127-79-264-216T344 904q-48-77-83-175-3-9-18-49t-20.5-55.5-14.5-47-12.5-57.5-3.5-53q0-92 51-186 56-101 106-122 25-11 68.5-21t70.5-10q14 0 21 3 18 6 53 76 11 19 30 54t35 63.5 31 53.5q3 4 17.5 25t21.5 35.5 7 28.5q0 20-28.5 50t-62 55-62 53-28.5 46q0 9 5 22.5t8.5 20.5 14 24 11.5 19q76 137 174 235t235 174q2 1 19 11.5t24 14 20.5 8.5 22.5 5q18 0 46-28.5t53-62 55-62 50-28.5q14 0 28.5 7t35.5 21.5 25 17.5q25 15 53.5 31t63.5 35 54 30q70 35 76 53 3 7 3 21z"/></symbol><symbol viewBox="0 0 1792 1792" id="play" xmlns="http://www.w3.org/2000/svg"><path d="M1576 927L248 1665q-23 13-39.5 3t-16.5-36V160q0-26 16.5-36t39.5 3l1328 738q23 13 23 31t-23 31z"/></symbol><symbol viewBox="0 0 1792 1792" id="plus" xmlns="http://www.w3.org/2000/svg"><path d="M1600 736v192q0 40-28 68t-68 28h-416v416q0 40-28 68t-68 28H800q-40 0-68-28t-28-68v-416H288q-40 0-68-28t-28-68V736q0-40 28-68t68-28h416V224q0-40 28-68t68-28h192q40 0 68 28t28 68v416h416q40 0 68 28t28 68z"/></symbol><symbol viewBox="0 0 1792 1792" id="print" xmlns="http://www.w3.org/2000/svg"><path d="M448 1536h896v-256H448v256zm0-640h896V512h-160q-40 0-68-28t-28-68V256H448v640zm1152 64q0-26-19-45t-45-19-45 19-19 45 19 45 45 19 45-19 19-45zm128 0v416q0 13-9.5 22.5t-22.5 9.5h-224v160q0 40-28 68t-68 28H416q-40 0-68-28t-28-68v-160H96q-13 0-22.5-9.5T64 1376V960q0-79 56.5-135.5T256 768h64V224q0-40 28-68t68-28h672q40 0 88 20t76 48l152 152q28 28 48 76t20 88v256h64q79 0 135.5 56.5T1728 960z"/></symbol><symbol viewBox="0 0 1792 1792" id="question" xmlns="http://www.w3.org/2000/svg"><path d="M1088 1256v240q0 16-12 28t-28 12H808q-16 0-28-12t-12-28v-240q0-16 12-28t28-12h240q16 0 28 12t12 28zm316-600q0 54-15.5 101t-35 76.5-55 59.5-57.5 43.5-61 35.5q-41 23-68.5 65t-27.5 67q0 17-12 32.5t-28 15.5H804q-15 0-25.5-18.5T768 1096v-45q0-83 65-156.5T976 786q59-27 84-56t25-76q0-42-46.5-74T931 548q-65 0-108 29-35 25-107 115-13 16-31 16-12 0-25-8L496 575q-13-10-15.5-25t5.5-28q160-266 464-266 80 0 161 31t146 83 106 127.5 41 158.5z"/></symbol><symbol viewBox="0 0 1792 1792" id="rocket" xmlns="http://www.w3.org/2000/svg"><path d="M1504 448q0-40-28-68t-68-28-68 28-28 68 28 68 68 28 68-28 28-68zm224-288q0 249-75.5 430.5T1399 951q-81 80-195 176l-20 379q-2 16-16 26l-384 224q-7 4-16 4-12 0-23-9l-64-64q-13-14-8-32l85-276-281-281-276 85q-3 1-9 1-14 0-23-9l-64-64q-17-19-5-39l224-384q10-14 26-16l379-20q96-114 176-195 188-187 358-258t431-71q14 0 24 9.5t10 22.5z"/></symbol><symbol viewBox="0 0 1792 1792" id="search" xmlns="http://www.w3.org/2000/svg"><path d="M1216 832q0-185-131.5-316.5T768 384 451.5 515.5 320 832t131.5 316.5T768 1280t316.5-131.5T1216 832zm512 832q0 52-38 90t-90 38q-54 0-90-38l-343-342q-179 124-399 124-143 0-273.5-55.5t-225-150-150-225T64 832t55.5-273.5 150-225 225-150T768 128t273.5 55.5 225 150 150 225T1472 832q0 220-124 399l343 343q37 37 37 90z"/></symbol><symbol viewBox="0 0 1792 1792" id="times" xmlns="http://www.w3.org/2000/svg"><path d="M1490 1322q0 40-28 68l-136 136q-28 28-68 28t-68-28l-294-294-294 294q-28 28-68 28t-68-28l-136-136q-28-28-28-68t28-68l294-294-294-294q-28-28-28-68t28-68l136-136q28-28 68-28t68 28l294 294 294-294q28-28 68-28t68 28l136 136q28 28 28 68t-28 68l-294 294 294 294q28 28 28 68z"/></symbol></svg>