<svg width="0" height="0" style="position:absolute"><symbol viewBox="0 0 448 512" id="bars" xmlns="http://www.w3.org/2000/svg"><path d="M433.884 366.059C411.634 343.809 384 316.118 384 208c0-79.394-57.831-145.269-133.663-157.83A31.845 31.845 0 0 0 256 32c0-17.673-14.327-32-32-32s-32 14.327-32 32c0 6.75 2.095 13.008 5.663 18.17C121.831 62.731 64 128.606 64 208c0 108.118-27.643 135.809-49.893 158.059C-16.042 396.208 5.325 448 48.048 448H160c0 35.346 28.654 64 64 64s64-28.654 64-64h111.943c42.638 0 64.151-51.731 33.941-81.941zM224 472a8 8 0 0 1 0 16c-22.056 0-40-17.944-40-40h16c0 13.234 10.766 24 24 24z"/></symbol><symbol viewBox="0 0 448 512" id="bell" xmlns="http://www.w3.org/2000/svg"><path d="M433.884 366.059C411.634 343.809 384 316.118 384 208c0-79.394-57.831-145.269-133.663-157.83A31.845 31.845 0 0 0 256 32c0-17.673-14.327-32-32-32s-32 14.327-32 32c0 6.75 2.095 13.008 5.663 18.17C121.831 62.731 64 128.606 64 208c0 108.118-27.643 135.809-49.893 158.059C-16.042 396.208 5.325 448 48.048 448H160c0 35.346 28.654 64 64 64s64-28.654 64-64h111.943c42.638 0 64.151-51.731 33.941-81.941zM224 472a8 8 0 0 1 0 16c-22.056 0-40-17.944-40-40h16c0 13.234 10.766 24 24 24z"/></symbol><symbol viewBox="0 0 448 512" id="calculator" xmlns="http://www.w3.org/2000/svg"><path d="M0 464V48C0 21.49 21.49 0 48 0h352c26.51 0 48 21.49 48 48v416c0 26.51-21.49 48-48 48H48c-26.51 0-48-21.49-48-48zm384-284V76c0-6.627-5.373-12-12-12H76c-6.627 0-12 5.373-12 12v104c0 6.627 5.373 12 12 12h296c6.627 0 12-5.373 12-12zM128 308v-40c0-6.627-5.373-12-12-12H76c-6.627 0-12 5.373-12 12v40c0 6.627 5.373 12 12 12h40c6.627 0 12-5.373 12-12zm256 128V268c0-6.627-5.373-12-12-12h-40c-6.627 0-12 5.373-12 12v168c0 6.627 5.373 12 12 12h40c6.627 0 12-5.373 12-12zm-256 0v-40c0-6.627-5.373-12-12-12H76c-6.627 0-12 5.373-12 12v40c0 6.627 5.373 12 12 12h40c6.627 0 12-5.373 12-12zm128-128v-40c0-6.627-5.373-12-12-12h-40c-6.627 0-12 5.373-12 12v40c0 6.627 5.373 12 12 12h40c6.627 0 12-5.373 12-12zm0 128v-40c0-6.627-5.373-12-12-12h-40c-6.627 0-12 5.373-12 12v40c0 6.627 5.373 12 12 12h40c6.627 0 12-5.373 12-12z"/></symbol><symbol viewBox="0 0 448 512" id="calendar" xmlns="http://www.w3.org/2000/svg"><path d="M148 288h-40c-6.6 0-12-5.4-12-12v-40c0-6.6 5.4-12 12-12h40c6.6 0 12 5.4 12 12v40c0 6.6-5.4 12-12 12zm108-12v-40c0-6.6-5.4-12-12-12h-40c-6.6 0-12 5.4-12 12v40c0 6.6 5.4 12 12 12h40c6.6 0 12-5.4 12-12zm96 0v-40c0-6.6-5.4-12-12-12h-40c-6.6 0-12 5.4-12 12v40c0 6.6 5.4 12 12 12h40c6.6 0 12-5.4 12-12zm-96 96v-40c0-6.6-5.4-12-12-12h-40c-6.6 0-12 5.4-12 12v40c0 6.6 5.4 12 12 12h40c6.6 0 12-5.4 12-12zm-96 0v-40c0-6.6-5.4-12-12-12h-40c-6.6 0-12 5.4-12 12v40c0 6.6 5.4 12 12 12h40c6.6 0 12-5.4 12-12zm192 0v-40c0-6.6-5.4-12-12-12h-40c-6.6 0-12 5.4-12 12v40c0 6.6 5.4 12 12 12h40c6.6 0 12-5.4 12-12zm96-260v352c0 26.5-21.5 48-48 48H48c-26.5 0-48-21.5-48-48V112c0-26.5 21.5-48 48-48h48V12c0-6.6 5.4-12 12-12h40c6.6 0 12 5.4 12 12v52h128V12c0-6.6 5.4-12 12-12h40c6.6 0 12 5.4 12 12v52h48c26.5 0 48 21.5 48 48zm-48 346V160H48v298c0 3.3 2.7 6 6 6h340c3.3 0 6-2.7 6-6z"/></symbol><symbol viewBox="0 0 576 512" id="chat" xmlns="http://www.w3.org/2000/svg"><path d="M224 358.857c-37.599 0-73.027-6.763-104.143-18.7-31.375 24.549-69.869 39.508-110.764 43.796a8.632 8.632 0 0 1-.89.047c-3.736 0-7.111-2.498-8.017-6.061-.98-3.961 2.088-6.399 5.126-9.305 15.017-14.439 33.222-25.79 40.342-74.297C17.015 266.886 0 232.622 0 195.429 0 105.16 100.297 32 224 32s224 73.159 224 163.429c-.001 90.332-100.297 163.428-224 163.428zm347.067 107.174c-13.944-13.127-30.849-23.446-37.46-67.543 68.808-64.568 52.171-156.935-37.674-207.065.031 1.334.066 2.667.066 4.006 0 122.493-129.583 216.394-284.252 211.222 38.121 30.961 93.989 50.492 156.252 50.492 34.914 0 67.811-6.148 96.704-17 29.134 22.317 64.878 35.916 102.853 39.814 3.786.395 7.363-1.973 8.27-5.467.911-3.601-1.938-5.817-4.759-8.459z"/></symbol><symbol viewBox="0 0 512 512" id="check" xmlns="http://www.w3.org/2000/svg"><path d="M504 256c0 136.967-111.033 248-248 248S8 392.967 8 256 119.033 8 256 8s248 111.033 248 248zM227.314 387.314l184-184c6.248-6.248 6.248-16.379 0-22.627l-22.627-22.627c-6.248-6.249-16.379-6.249-22.628 0L216 308.118l-70.059-70.059c-6.248-6.248-16.379-6.248-22.628 0l-22.627 22.627c-6.248 6.248-6.248 16.379 0 22.627l104 104c6.249 6.249 16.379 6.249 22.628.001z" class="afst1"/></symbol><symbol viewBox="0 0 448 512" id="chevron-down" xmlns="http://www.w3.org/2000/svg"><path d="M207.029 381.476L12.686 187.132c-9.373-9.373-9.373-24.569 0-33.941l22.667-22.667c9.357-9.357 24.522-9.375 33.901-.04L224 284.505l154.745-154.021c9.379-9.335 24.544-9.317 33.901.04l22.667 22.667c9.373 9.373 9.373 24.569 0 33.941L240.971 381.476c-9.373 9.372-24.569 9.372-33.942 0z"/></symbol><symbol viewBox="0 0 320 512" id="chevron-left" xmlns="http://www.w3.org/2000/svg"><path d="M34.52 239.03L228.87 44.69c9.37-9.37 24.57-9.37 33.94 0l22.67 22.67c9.36 9.36 9.37 24.52.04 33.9L131.49 256l154.02 154.75c9.34 9.38 9.32 24.54-.04 33.9l-22.67 22.67c-9.37 9.37-24.57 9.37-33.94 0L34.52 272.97c-9.37-9.37-9.37-24.57 0-33.94z"/></symbol><symbol viewBox="0 0 320 512" id="chevron-right" xmlns="http://www.w3.org/2000/svg"><path d="M285.476 272.971L91.132 467.314c-9.373 9.373-24.569 9.373-33.941 0l-22.667-22.667c-9.357-9.357-9.375-24.522-.04-33.901L188.505 256 34.484 101.255c-9.335-9.379-9.317-24.544.04-33.901l22.667-22.667c9.373-9.373 24.569-9.373 33.941 0L285.475 239.03c9.373 9.372 9.373 24.568.001 33.941z"/></symbol><symbol viewBox="0 0 448 512" id="chevron-up" xmlns="http://www.w3.org/2000/svg"><path d="M240.971 130.524l194.343 194.343c9.373 9.373 9.373 24.569 0 33.941l-22.667 22.667c-9.357 9.357-24.522 9.375-33.901.04L224 227.495 69.255 381.516c-9.379 9.335-24.544 9.317-33.901-.04l-22.667-22.667c-9.373-9.373-9.373-24.569 0-33.941L207.03 130.525c9.372-9.373 24.568-9.373 33.941-.001z"/></symbol><symbol viewBox="0 0 512 512" id="clock" xmlns="http://www.w3.org/2000/svg"><path d="M256 8C119 8 8 119 8 256s111 248 248 248 248-111 248-248S393 8 256 8zm57.1 350.1L224.9 294c-3.1-2.3-4.9-5.9-4.9-9.7V116c0-6.6 5.4-12 12-12h48c6.6 0 12 5.4 12 12v137.7l63.5 46.2c5.4 3.9 6.5 11.4 2.6 16.8l-28.2 38.8c-3.9 5.3-11.4 6.5-16.8 2.6z"/></symbol><symbol viewBox="0 0 640 512" id="cloud-download" xmlns="http://www.w3.org/2000/svg"><path d="M640 352c0 70.692-57.308 128-128 128H144C64.471 480 0 415.529 0 336c0-62.773 40.171-116.155 96.204-135.867A163.68 163.68 0 0 1 96 192c0-88.366 71.634-160 160-160 59.288 0 111.042 32.248 138.684 80.159C409.935 101.954 428.271 96 448 96c53.019 0 96 42.981 96 96 0 12.184-2.275 23.836-6.415 34.56C596.017 238.414 640 290.07 640 352zm-246.627-64H328V176c0-8.837-7.164-16-16-16h-48c-8.836 0-16 7.163-16 16v112h-65.373c-14.254 0-21.393 17.234-11.314 27.314l105.373 105.373c6.248 6.248 16.379 6.248 22.627 0l105.373-105.373c10.08-10.08 2.941-27.314-11.313-27.314z"/></symbol><symbol viewBox="0 0 512 512" id="cog" xmlns="http://www.w3.org/2000/svg"><path d="M444.788 291.1l42.616 24.599c4.867 2.809 7.126 8.618 5.459 13.985-11.07 35.642-29.97 67.842-54.689 94.586a12.016 12.016 0 0 1-14.832 2.254l-42.584-24.595a191.577 191.577 0 0 1-60.759 35.13v49.182a12.01 12.01 0 0 1-9.377 11.718c-34.956 7.85-72.499 8.256-109.219.007-5.49-1.233-9.403-6.096-9.403-11.723v-49.184a191.555 191.555 0 0 1-60.759-35.13l-42.584 24.595a12.016 12.016 0 0 1-14.832-2.254c-24.718-26.744-43.619-58.944-54.689-94.586-1.667-5.366.592-11.175 5.459-13.985L67.212 291.1a193.48 193.48 0 0 1 0-70.199l-42.616-24.599c-4.867-2.809-7.126-8.618-5.459-13.985 11.07-35.642 29.97-67.842 54.689-94.586a12.016 12.016 0 0 1 14.832-2.254l42.584 24.595a191.577 191.577 0 0 1 60.759-35.13V25.759a12.01 12.01 0 0 1 9.377-11.718c34.956-7.85 72.499-8.256 109.219-.007 5.49 1.233 9.403 6.096 9.403 11.723v49.184a191.555 191.555 0 0 1 60.759 35.13l42.584-24.595a12.016 12.016 0 0 1 14.832 2.254c24.718 26.744 43.619 58.944 54.689 94.586 1.667 5.366-.592 11.175-5.459 13.985L444.788 220.9a193.485 193.485 0 0 1 0 70.2zM336 256c0-44.112-35.888-80-80-80s-80 35.888-80 80 35.888 80 80 80 80-35.888 80-80z"/></symbol><symbol viewBox="0 0 576 512" id="computer-screen" xmlns="http://www.w3.org/2000/svg"><path d="M528 0H48C21.5 0 0 21.5 0 48v320c0 26.5 21.5 48 48 48h192l-16 48h-72c-13.3 0-24 10.7-24 24s10.7 24 24 24h272c13.3 0 24-10.7 24-24s-10.7-24-24-24h-72l-16-48h192c26.5 0 48-21.5 48-48V48c0-26.5-21.5-48-48-48zm-16 352H64V64h448v288z"/></symbol><symbol viewBox="0 0 512 512" id="download" xmlns="http://www.w3.org/2000/svg"><path d="M216 0h80c13.3 0 24 10.7 24 24v168h87.7c17.8 0 26.7 21.5 14.1 34.1L269.7 378.3c-7.5 7.5-19.8 7.5-27.3 0L90.1 226.1c-12.6-12.6-3.7-34.1 14.1-34.1H192V24c0-13.3 10.7-24 24-24zm296 376v112c0 13.3-10.7 24-24 24H24c-13.3 0-24-10.7-24-24V376c0-13.3 10.7-24 24-24h146.7l49 49c20.1 20.1 52.5 20.1 72.6 0l49-49H488c13.3 0 24 10.7 24 24zm-124 88c0-11-9-20-20-20s-20 9-20 20 9 20 20 20 20-9 20-20zm64 0c0-11-9-20-20-20s-20 9-20 20 9 20 20 20 20-9 20-20z"/></symbol><symbol viewBox="0 0 1792 1792" id="envelope" xmlns="http://www.w3.org/2000/svg"><path d="M1792 710v794q0 66-47 113t-113 47H160q-66 0-113-47T0 1504V710q44 49 101 87 362 246 497 345 57 42 92.5 65.5t94.5 48 110 24.5h2q51 0 110-24.5t94.5-48 92.5-65.5q170-123 498-345 57-39 100-87zm0-294q0 79-49 151t-122 123q-376 261-468 325-10 7-42.5 30.5t-54 38-52 32.5-57.5 27-50 9h-2q-23 0-50-9t-57.5-27-52-32.5-54-38T639 1015q-91-64-262-182.5T172 690q-62-42-117-115.5T0 438q0-78 41.5-130T160 256h1472q65 0 112.5 47t47.5 113z"/></symbol><symbol viewBox="0 0 576 512" id="exclamation" xmlns="http://www.w3.org/2000/svg"><path d="M569.517 440.013C587.975 472.007 564.806 512 527.94 512H48.054c-36.937 0-59.999-40.055-41.577-71.987L246.423 23.985c18.467-32.009 64.72-31.951 83.154 0l239.94 416.028zM288 354c-25.405 0-46 20.595-46 46s20.595 46 46 46 46-20.595 46-46-20.595-46-46-46zm-43.673-165.346l7.418 136c.347 6.364 5.609 11.346 11.982 11.346h48.546c6.373 0 11.635-4.982 11.982-11.346l7.418-136c.375-6.874-5.098-12.654-11.982-12.654h-63.383c-6.884 0-12.356 5.78-11.981 12.654z"/></symbol><symbol viewBox="0 0 1792 1792" id="facebook" xmlns="http://www.w3.org/2000/svg"><path d="M1579 128q35 0 60 25t25 60v1366q0 35-25 60t-60 25h-391v-595h199l30-232h-229V689q0-56 23.5-84t91.5-28l122-1V369q-63-9-178-9-136 0-217.5 80T948 666v171H748v232h200v595H213q-35 0-60-25t-25-60V213q0-35 25-60t60-25h1366z"/></symbol><symbol viewBox="0 0 384 512" id="file-alt" xmlns="http://www.w3.org/2000/svg"><path d="M224 136V0H24C10.7 0 0 10.7 0 24v464c0 13.3 10.7 24 24 24h336c13.3 0 24-10.7 24-24V160H248c-13.2 0-24-10.8-24-24zm64 236c0 6.6-5.4 12-12 12H108c-6.6 0-12-5.4-12-12v-8c0-6.6 5.4-12 12-12h168c6.6 0 12 5.4 12 12v8zm0-64c0 6.6-5.4 12-12 12H108c-6.6 0-12-5.4-12-12v-8c0-6.6 5.4-12 12-12h168c6.6 0 12 5.4 12 12v8zm0-72v8c0 6.6-5.4 12-12 12H108c-6.6 0-12-5.4-12-12v-8c0-6.6 5.4-12 12-12h168c6.6 0 12 5.4 12 12zm96-114.1v6.1H256V0h6.1c6.4 0 12.5 2.5 17 7l97.9 98c4.5 4.5 7 10.6 7 16.9z"/></symbol><symbol viewBox="0 0 1792 1792" id="home" xmlns="http://www.w3.org/2000/svg"><path d="M1472 992v480q0 26-19 45t-45 19h-384v-384H768v384H384q-26 0-45-19t-19-45V992q0-1 .5-3t.5-3l575-474 575 474q1 2 1 6zm223-69l-62 74q-8 9-21 11h-3q-13 0-21-7L896 424l-692 577q-12 8-24 7-13-2-21-11l-62-74q-8-10-7-23.5t11-21.5l719-599q32-26 76-26t76 26l244 204V288q0-14 9-23t23-9h192q14 0 23 9t9 23v408l219 182q10 8 11 21.5t-7 23.5z"/></symbol><symbol viewBox="0 0 1792 1792" id="info" xmlns="http://www.w3.org/2000/svg"><path d="M1152 1376v-160q0-14-9-23t-23-9h-96V672q0-14-9-23t-23-9H672q-14 0-23 9t-9 23v160q0 14 9 23t23 9h96v320h-96q-14 0-23 9t-9 23v160q0 14 9 23t23 9h448q14 0 23-9t9-23zm-128-896V320q0-14-9-23t-23-9H800q-14 0-23 9t-9 23v160q0 14 9 23t23 9h192q14 0 23-9t9-23zm640 416q0 209-103 385.5T1281.5 1561 896 1664t-385.5-103T231 1281.5 128 896t103-385.5T510.5 231 896 128t385.5 103T1561 510.5 1664 896z"/></symbol><symbol viewBox="0 0 1792 1792" id="instagram" xmlns="http://www.w3.org/2000/svg"><path d="M1152 896q0-106-75-181t-181-75-181 75-75 181 75 181 181 75 181-75 75-181zm138 0q0 164-115 279t-279 115-279-115-115-279 115-279 279-115 279 115 115 279zm108-410q0 38-27 65t-65 27-65-27-27-65 27-65 65-27 65 27 27 65zM896 266q-7 0-76.5-.5t-105.5 0-96.5 3-103 10T443 297q-50 20-88 58t-58 88q-11 29-18.5 71.5t-10 103-3 96.5 0 105.5.5 76.5-.5 76.5 0 105.5 3 96.5 10 103T297 1349q20 50 58 88t88 58q29 11 71.5 18.5t103 10 96.5 3 105.5 0 76.5-.5 76.5.5 105.5 0 96.5-3 103-10 71.5-18.5q50-20 88-58t58-88q11-29 18.5-71.5t10-103 3-96.5 0-105.5-.5-76.5.5-76.5 0-105.5-3-96.5-10-103T1495 443q-20-50-58-88t-88-58q-29-11-71.5-18.5t-103-10-96.5-3-105.5 0-76.5.5zm768 630q0 229-5 317-10 208-124 322t-322 124q-88 5-317 5t-317-5q-208-10-322-124t-124-322q-5-88-5-317t5-317q10-208 124-322t322-124q88-5 317-5t317 5q208 10 322 124t124 322q5 88 5 317z"/></symbol><symbol viewBox="0 0 1792 1792" id="lock" xmlns="http://www.w3.org/2000/svg"><path d="M640 768h512V576q0-106-75-181t-181-75-181 75-75 181v192zm832 96v576q0 40-28 68t-68 28H416q-40 0-68-28t-28-68V864q0-40 28-68t68-28h32V576q0-184 132-316t316-132 316 132 132 316v192h32q40 0 68 28t28 68z"/></symbol><symbol viewBox="0 0 1792 1792" id="paper-plane" xmlns="http://www.w3.org/2000/svg"><path d="M1764 11q33 24 27 64l-256 1536q-5 29-32 45-14 8-31 8-11 0-24-5l-453-185-242 295q-18 23-49 23-13 0-22-4-19-7-30.5-23.5T640 1728v-349l864-1059-1069 925-395-162q-37-14-40-55-2-40 32-59L1696 9q15-9 32-9 20 0 36 11z"/></symbol><symbol viewBox="0 0 1792 1792" id="pencil" xmlns="http://www.w3.org/2000/svg"><path d="M491 1536l91-91-235-235-91 91v107h128v128h107zm523-928q0-22-22-22-10 0-17 7l-542 542q-7 7-7 17 0 22 22 22 10 0 17-7l542-542q7-7 7-17zm-54-192l416 416-832 832H128v-416zm683 96q0 53-37 90l-166 166-416-416 166-165q36-38 90-38 53 0 91 38l235 234q37 39 37 91z"/></symbol><symbol viewBox="0 0 1792 1792" id="phone" xmlns="http://www.w3.org/2000/svg"><path d="M1600 1240q0 27-10 70.5t-21 68.5q-21 50-122 106-94 51-186 51-27 0-53-3.5t-57.5-12.5-47-14.5-55.5-20.5-49-18q-98-35-175-83-127-79-264-216T344 904q-48-77-83-175-3-9-18-49t-20.5-55.5-14.5-47-12.5-57.5-3.5-53q0-92 51-186 56-101 106-122 25-11 68.5-21t70.5-10q14 0 21 3 18 6 53 76 11 19 30 54t35 63.5 31 53.5q3 4 17.5 25t21.5 35.5 7 28.5q0 20-28.5 50t-62 55-62 53-28.5 46q0 9 5 22.5t8.5 20.5 14 24 11.5 19q76 137 174 235t235 174q2 1 19 11.5t24 14 20.5 8.5 22.5 5q18 0 46-28.5t53-62 55-62 50-28.5q14 0 28.5 7t35.5 21.5 25 17.5q25 15 53.5 31t63.5 35 54 30q70 35 76 53 3 7 3 21z"/></symbol><symbol viewBox="0 0 1792 1792" id="play" xmlns="http://www.w3.org/2000/svg"><path d="M1576 927L248 1665q-23 13-39.5 3t-16.5-36V160q0-26 16.5-36t39.5 3l1328 738q23 13 23 31t-23 31z"/></symbol><symbol viewBox="0 0 1792 1792" id="plus" xmlns="http://www.w3.org/2000/svg"><path d="M1600 736v192q0 40-28 68t-68 28h-416v416q0 40-28 68t-68 28H800q-40 0-68-28t-28-68v-416H288q-40 0-68-28t-28-68V736q0-40 28-68t68-28h416V224q0-40 28-68t68-28h192q40 0 68 28t28 68v416h416q40 0 68 28t28 68z"/></symbol><symbol viewBox="0 0 1792 1792" id="print" xmlns="http://www.w3.org/2000/svg"><path d="M448 1536h896v-256H448v256zm0-640h896V512h-160q-40 0-68-28t-28-68V256H448v640zm1152 64q0-26-19-45t-45-19-45 19-19 45 19 45 45 19 45-19 19-45zm128 0v416q0 13-9.5 22.5t-22.5 9.5h-224v160q0 40-28 68t-68 28H416q-40 0-68-28t-28-68v-160H96q-13 0-22.5-9.5T64 1376V960q0-79 56.5-135.5T256 768h64V224q0-40 28-68t68-28h672q40 0 88 20t76 48l152 152q28 28 48 76t20 88v256h64q79 0 135.5 56.5T1728 960z"/></symbol><symbol viewBox="0 0 1792 1792" id="question" xmlns="http://www.w3.org/2000/svg"><path d="M1088 1256v240q0 16-12 28t-28 12H808q-16 0-28-12t-12-28v-240q0-16 12-28t28-12h240q16 0 28 12t12 28zm316-600q0 54-15.5 101t-35 76.5-55 59.5-57.5 43.5-61 35.5q-41 23-68.5 65t-27.5 67q0 17-12 32.5t-28 15.5H804q-15 0-25.5-18.5T768 1096v-45q0-83 65-156.5T976 786q59-27 84-56t25-76q0-42-46.5-74T931 548q-65 0-108 29-35 25-107 115-13 16-31 16-12 0-25-8L496 575q-13-10-15.5-25t5.5-28q160-266 464-266 80 0 161 31t146 83 106 127.5 41 158.5z"/></symbol><symbol viewBox="0 0 1792 1792" id="rocket" xmlns="http://www.w3.org/2000/svg"><path d="M1504 448q0-40-28-68t-68-28-68 28-28 68 28 68 68 28 68-28 28-68zm224-288q0 249-75.5 430.5T1399 951q-81 80-195 176l-20 379q-2 16-16 26l-384 224q-7 4-16 4-12 0-23-9l-64-64q-13-14-8-32l85-276-281-281-276 85q-3 1-9 1-14 0-23-9l-64-64q-17-19-5-39l224-384q10-14 26-16l379-20q96-114 176-195 188-187 358-258t431-71q14 0 24 9.5t10 22.5z"/></symbol><symbol viewBox="0 0 1792 1792" id="search" xmlns="http://www.w3.org/2000/svg"><path d="M1216 832q0-185-131.5-316.5T768 384 451.5 515.5 320 832t131.5 316.5T768 1280t316.5-131.5T1216 832zm512 832q0 52-38 90t-90 38q-54 0-90-38l-343-342q-179 124-399 124-143 0-273.5-55.5t-225-150-150-225T64 832t55.5-273.5 150-225 225-150T768 128t273.5 55.5 225 150 150 225T1472 832q0 220-124 399l343 343q37 37 37 90z"/></symbol><symbol viewBox="0 0 1792 1792" id="times" xmlns="http://www.w3.org/2000/svg"><path d="M1490 1322q0 40-28 68l-136 136q-28 28-68 28t-68-28l-294-294-294 294q-28 28-68 28t-68-28l-136-136q-28-28-28-68t28-68l294-294-294-294q-28-28-28-68t28-68l136-136q28-28 68-28t68 28l294 294 294-294q28-28 68-28t68 28l136 136q28 28 28 68t-28 68l-294 294 294 294q28 28 28 68z"/></symbol><symbol viewBox="0 0 1792 1792" id="twitter" xmlns="http://www.w3.org/2000/svg"><path d="M1684 408q-67 98-162 167 1 14 1 42 0 130-38 259.5T1369.5 1125 1185 1335.5t-258 146-323 54.5q-271 0-496-145 35 4 78 4 225 0 401-138-105-2-188-64.5T285 1033q33 5 61 5 43 0 85-11-112-23-185.5-111.5T172 710v-4q68 38 146 41-66-44-105-115t-39-154q0-88 44-163 121 149 294.5 238.5T884 653q-8-38-8-74 0-134 94.5-228.5T1199 256q140 0 236 102 109-21 205-78-37 115-142 178 93-10 186-50z"/></symbol><symbol viewBox="0 0 1792 1792" id="update" xmlns="http://www.w3.org/2000/svg"><path d="M1664 256v448q0 26-19 45t-45 19h-448q-42 0-59-40-17-39 14-69l138-138q-148-137-349-137-104 0-198.5 40.5T534 534 424.5 697.5 384 896t40.5 198.5T534 1258t163.5 109.5T896 1408q119 0 225-52t179-147q7-10 23-12 14 0 25 9l137 138q9 8 9.5 20.5t-7.5 22.5q-109 132-264 204.5T896 1664q-156 0-298-61t-245-164-164-245-61-298 61-298 164-245 245-164 298-61q147 0 284.5 55.5T1425 340l130-129q29-31 70-14 39 17 39 59z"/></symbol><symbol viewBox="0 0 30 32" id="upload" xmlns="http://www.w3.org/2000/svg"><path d="M22.857 26.571q0-.464-.339-.804t-.804-.339-.804.339-.339.804.339.804.804.339.804-.339.339-.804zm4.572 0q0-.464-.339-.804t-.804-.339-.804.339-.339.804.339.804.804.339.804-.339.339-.804zm2.285-4v5.714q0 .714-.5 1.214t-1.214.5H1.714q-.714 0-1.214-.5T0 28.285v-5.714q0-.714.5-1.214t1.214-.5h7.625q.375 1 1.259 1.643t1.973.643h4.571q1.089 0 1.973-.643t1.259-1.643h7.625q.714 0 1.214.5t.5 1.214zM23.911 11q-.304.714-1.054.714h-4.571v8q0 .464-.339.804t-.804.339h-4.571q-.464 0-.804-.339t-.339-.804v-8H6.858q-.75 0-1.054-.714-.304-.696.25-1.232l8-8q.321-.339.804-.339t.804.339l8 8q.554.536.25 1.232z"/></symbol><symbol viewBox="0 0 1792 1792" id="youtube" xmlns="http://www.w3.org/2000/svg"><path d="M1099 1244v211q0 67-39 67-23 0-45-22v-301q22-22 45-22 39 0 39 67zm338 1v46h-90v-46q0-68 45-68t45 68zm-966-218h107v-94H266v94h105v569h100v-569zm288 569h89v-494h-89v378q-30 42-57 42-18 0-21-21-1-3-1-35v-364h-89v391q0 49 8 73 12 37 58 37 48 0 102-61v54zm429-148v-197q0-73-9-99-17-56-71-56-50 0-93 54V933h-89v663h89v-48q45 55 93 55 54 0 71-55 9-27 9-100zm338-10v-13h-91q0 51-2 61-7 36-40 36-46 0-46-69v-87h179v-103q0-79-27-116-39-51-106-51-68 0-107 51-28 37-28 116v173q0 79 29 116 39 51 108 51 72 0 108-53 18-27 21-54 2-9 2-58zM918 525V315q0-69-43-69t-43 69v210q0 70 43 70t43-70zm719 751q0 234-26 350-14 59-58 99t-102 46q-184 21-555 21t-555-21q-58-6-102.5-46t-57.5-99q-26-112-26-350 0-234 26-350 14-59 58-99t103-47q183-20 554-20t555 20q58 7 102.5 47t57.5 99q26 112 26 350zM639 0h102L620 399v271H520V399q-14-74-61-212Q422 84 394 0h106l71 263zm370 333v175q0 81-28 118-38 51-106 51-67 0-105-51-28-38-28-118V333q0-80 28-117 38-51 105-51 68 0 106 51 28 37 28 117zm335-162v499h-91v-55q-53 62-103 62-46 0-59-37-8-24-8-75V171h91v367q0 33 1 35 3 22 21 22 27 0 57-43V171h91z"/></symbol></svg>