<svg width="0" height="0" style="position:absolute"><symbol viewBox="0 0 100 100" style="max-height:100px;max-width:100px" id="bars" xmlns="http://www.w3.org/2000/svg"><path d="M100 85v10c0 1.4-.4 2.5-1.2 3.5-.8 1-1.8 1.5-2.9 1.5H4.2c-1.1 0-2.1-.5-2.9-1.5S0 96.4 0 95V85c0-1.4.4-2.5 1.2-3.5S3 80 4.2 80h91.7c1.1 0 2.1.5 2.9 1.5.8 1 1.2 2.1 1.2 3.5zm0-40v10c0 1.4-.4 2.5-1.2 3.5-.8 1-1.8 1.5-2.9 1.5H4.2c-1.1 0-2.1-.5-2.9-1.5S0 56.4 0 55V45c0-1.4.4-2.5 1.2-3.5S3 40 4.2 40h91.7c1.1 0 2.1.5 2.9 1.5.8 1 1.2 2.1 1.2 3.5zm0-40v10c0 1.4-.4 2.5-1.2 3.5-.8 1-1.8 1.5-2.9 1.5H4.2c-1.1 0-2.1-.5-2.9-1.5S0 16.4 0 15V5c0-1.4.4-2.5 1.2-3.5S3 0 4.2 0h91.7c1.1 0 2.1.5 2.9 1.5.8 1 1.2 2.1 1.2 3.5z"/></symbol><symbol viewBox="0 0 1792 1792" id="bell" xmlns="http://www.w3.org/2000/svg"><path d="M912 1696q0-16-16-16-59 0-101.5-42.5T752 1536q0-16-16-16t-16 16q0 73 51.5 124.5T896 1712q16 0 16-16zm816-288q0 52-38 90t-90 38h-448q0 106-75 181t-181 75-181-75-75-181H192q-52 0-90-38t-38-90q50-42 91-88t85-119.5 74.5-158.5 50-206T384 576q0-152 117-282.5T808 135q-8-19-8-39 0-40 28-68t68-28 68 28 28 68q0 20-8 39 190 28 307 158.5T1408 576q0 139 19.5 260t50 206 74.5 158.5 85 119.5 91 88z"/></symbol><symbol viewBox="0 0 1792 1792" id="calculator" xmlns="http://www.w3.org/2000/svg"><path d="M384 1536q0-53-37.5-90.5T256 1408t-90.5 37.5T128 1536t37.5 90.5T256 1664t90.5-37.5T384 1536zm384 0q0-53-37.5-90.5T640 1408t-90.5 37.5T512 1536t37.5 90.5T640 1664t90.5-37.5T768 1536zm-384-384q0-53-37.5-90.5T256 1024t-90.5 37.5T128 1152t37.5 90.5T256 1280t90.5-37.5T384 1152zm768 384q0-53-37.5-90.5T1024 1408t-90.5 37.5T896 1536t37.5 90.5 90.5 37.5 90.5-37.5 37.5-90.5zm-384-384q0-53-37.5-90.5T640 1024t-90.5 37.5T512 1152t37.5 90.5T640 1280t90.5-37.5T768 1152zM384 768q0-53-37.5-90.5T256 640t-90.5 37.5T128 768t37.5 90.5T256 896t90.5-37.5T384 768zm768 384q0-53-37.5-90.5T1024 1024t-90.5 37.5T896 1152t37.5 90.5 90.5 37.5 90.5-37.5 37.5-90.5zM768 768q0-53-37.5-90.5T640 640t-90.5 37.5T512 768t37.5 90.5T640 896t90.5-37.5T768 768zm768 768v-384q0-52-38-90t-90-38-90 38-38 90v384q0 52 38 90t90 38 90-38 38-90zm-384-768q0-53-37.5-90.5T1024 640t-90.5 37.5T896 768t37.5 90.5T1024 896t90.5-37.5T1152 768zm384-320V192q0-26-19-45t-45-19H192q-26 0-45 19t-19 45v256q0 26 19 45t45 19h1280q26 0 45-19t19-45zm0 320q0-53-37.5-90.5T1408 640t-90.5 37.5T1280 768t37.5 90.5T1408 896t90.5-37.5T1536 768zm128-640v1536q0 52-38 90t-90 38H128q-52 0-90-38t-38-90V128q0-52 38-90t90-38h1408q52 0 90 38t38 90z"/></symbol><symbol viewBox="0 0 1792 1792" id="calendar" xmlns="http://www.w3.org/2000/svg"><path d="M192 1664h288v-288H192v288zm352 0h320v-288H544v288zm-352-352h288V992H192v320zm352 0h320V992H544v320zM192 928h288V640H192v288zm736 736h320v-288H928v288zM544 928h320V640H544v288zm768 736h288v-288h-288v288zm-384-352h320V992H928v320zM576 448V160q0-13-9.5-22.5T544 128h-64q-13 0-22.5 9.5T448 160v288q0 13 9.5 22.5T480 480h64q13 0 22.5-9.5T576 448zm736 864h288V992h-288v320zM928 928h320V640H928v288zm384 0h288V640h-288v288zm32-480V160q0-13-9.5-22.5T1312 128h-64q-13 0-22.5 9.5T1216 160v288q0 13 9.5 22.5t22.5 9.5h64q13 0 22.5-9.5t9.5-22.5zm384-64v1280q0 52-38 90t-90 38H192q-52 0-90-38t-38-90V384q0-52 38-90t90-38h128v-96q0-66 47-113T480 0h64q66 0 113 47t47 113v96h384v-96q0-66 47-113t113-47h64q66 0 113 47t47 113v96h128q52 0 90 38t38 90z"/></symbol><symbol viewBox="0 0 1792 1792" id="chat" xmlns="http://www.w3.org/2000/svg"><path d="M1792 896q0 174-120 321.5t-326 233-450 85.5q-70 0-145-8-198 175-460 242-49 14-114 22-17 2-30.5-9t-17.5-29v-1q-3-4-.5-12t2-10 4.5-9.5l6-9 7-8.5 8-9q7-8 31-34.5t34.5-38 31-39.5 32.5-51 27-59 26-76q-157-89-247.5-220T0 896q0-130 71-248.5T262 443t286-136.5T896 256q244 0 450 85.5t326 233T1792 896z"/></symbol><symbol viewBox="0 0 1792 1792" id="check" xmlns="http://www.w3.org/2000/svg"><path d="M1671 566q0 40-28 68l-724 724-136 136q-28 28-68 28t-68-28l-136-136-362-362q-28-28-28-68t28-68l136-136q28-28 68-28t68 28l294 295 656-657q28-28 68-28t68 28l136 136q28 28 28 68z"/></symbol><symbol viewBox="0 0 1792 1792" id="chevron-down" xmlns="http://www.w3.org/2000/svg"><path d="M1683 808l-742 741q-19 19-45 19t-45-19L109 808q-19-19-19-45.5t19-45.5l166-165q19-19 45-19t45 19l531 531 531-531q19-19 45-19t45 19l166 165q19 19 19 45.5t-19 45.5z"/></symbol><symbol viewBox="0 0 1792 1792" id="chevron-left" xmlns="http://www.w3.org/2000/svg"><path d="M1427 301L896 832l531 531q19 19 19 45t-19 45l-166 166q-19 19-45 19t-45-19L429 877q-19-19-19-45t19-45l742-742q19-19 45-19t45 19l166 166q19 19 19 45t-19 45z"/></symbol><symbol viewBox="0 0 1792 1792" id="chevron-right" xmlns="http://www.w3.org/2000/svg"><path d="M1363 877l-742 742q-19 19-45 19t-45-19l-166-166q-19-19-19-45t19-45l531-531-531-531q-19-19-19-45t19-45L531 45q19-19 45-19t45 19l742 742q19 19 19 45t-19 45z"/></symbol><symbol viewBox="0 0 1792 1792" id="chevron-up" xmlns="http://www.w3.org/2000/svg"><path d="M1683 1331l-166 165q-19 19-45 19t-45-19L896 965l-531 531q-19 19-45 19t-45-19l-166-165q-19-19-19-45.5t19-45.5l742-741q19-19 45-19t45 19l742 741q19 19 19 45.5t-19 45.5z"/></symbol><symbol viewBox="0 0 1792 1792" id="clock" xmlns="http://www.w3.org/2000/svg"><path d="M1024 544v448q0 14-9 23t-23 9H672q-14 0-23-9t-9-23v-64q0-14 9-23t23-9h224V544q0-14 9-23t23-9h64q14 0 23 9t9 23zm416 352q0-148-73-273t-198-198-273-73-273 73-198 198-73 273 73 273 198 198 273 73 273-73 198-198 73-273zm224 0q0 209-103 385.5T1281.5 1561 896 1664t-385.5-103T231 1281.5 128 896t103-385.5T510.5 231 896 128t385.5 103T1561 510.5 1664 896z"/></symbol><symbol viewBox="0 0 2048 1792" id="cloud-download" xmlns="http://www.w3.org/2000/svg"><path d="M1344 928q0-14-9-23t-23-9h-224V544q0-13-9.5-22.5T1056 512H864q-13 0-22.5 9.5T832 544v352H608q-13 0-22.5 9.5T576 928q0 14 9 23l352 352q9 9 23 9t23-9l351-351q10-12 10-24zm640 224q0 159-112.5 271.5T1600 1536H512q-185 0-316.5-131.5T64 1088q0-130 70-240t188-165q-2-30-2-43 0-212 150-362t362-150q156 0 285.5 87T1306 446q71-62 166-62 106 0 181 75t75 181q0 76-41 138 130 31 213.5 135.5T1984 1152z"/></symbol><symbol viewBox="0 0 1792 1792" id="cog" xmlns="http://www.w3.org/2000/svg"><path d="M1152 896q0-106-75-181t-181-75-181 75-75 181 75 181 181 75 181-75 75-181zm512-109v222q0 12-8 23t-20 13l-185 28q-19 54-39 91 35 50 107 138 10 12 10 25t-9 23q-27 37-99 108t-94 71q-12 0-26-9l-138-108q-44 23-91 38-16 136-29 186-7 28-36 28H785q-14 0-24.5-8.5T749 1634l-28-184q-49-16-90-37l-141 107q-10 9-25 9-14 0-25-11-126-114-165-168-7-10-7-23 0-12 8-23 15-21 51-66.5t54-70.5q-27-50-41-99l-183-27q-13-2-21-12.5t-8-23.5V783q0-12 8-23t19-13l186-28q14-46 39-92-40-57-107-138-10-12-10-24 0-10 9-23 26-36 98.5-107.5T465 263q13 0 26 10l138 107q44-23 91-38 16-136 29-186 7-28 36-28h222q14 0 24.5 8.5T1043 158l28 184q49 16 90 37l142-107q9-9 24-9 13 0 25 10 129 119 165 170 7 8 7 22 0 12-8 23-15 21-51 66.5t-54 70.5q26 50 41 98l183 28q13 2 21 12.5t8 23.5z"/></symbol><symbol viewBox="0 0 2048 1792" id="computer-screen" xmlns="http://www.w3.org/2000/svg"><path d="M1856 992V160q0-13-9.5-22.5T1824 128H224q-13 0-22.5 9.5T192 160v832q0 13 9.5 22.5t22.5 9.5h1600q13 0 22.5-9.5t9.5-22.5zm128-832v1088q0 66-47 113t-113 47h-544q0 37 16 77.5t32 71 16 43.5q0 26-19 45t-45 19H768q-26 0-45-19t-19-45q0-14 16-44t32-70 16-78H224q-66 0-113-47t-47-113V160q0-66 47-113T224 0h1600q66 0 113 47t47 113z"/></symbol><symbol viewBox="0 0 1792 1792" id="download" xmlns="http://www.w3.org/2000/svg"><path d="M1344 1344q0-26-19-45t-45-19-45 19-19 45 19 45 45 19 45-19 19-45zm256 0q0-26-19-45t-45-19-45 19-19 45 19 45 45 19 45-19 19-45zm128-224v320q0 40-28 68t-68 28H160q-40 0-68-28t-28-68v-320q0-40 28-68t68-28h465l135 136q58 56 136 56t136-56l136-136h464q40 0 68 28t28 68zm-325-569q17 41-14 70l-448 448q-18 19-45 19t-45-19L403 621q-31-29-14-70 17-39 59-39h256V64q0-26 19-45t45-19h256q26 0 45 19t19 45v448h256q42 0 59 39z"/></symbol><symbol viewBox="0 0 1792 1792" id="envelope" xmlns="http://www.w3.org/2000/svg"><path d="M1792 710v794q0 66-47 113t-113 47H160q-66 0-113-47T0 1504V710q44 49 101 87 362 246 497 345 57 42 92.5 65.5t94.5 48 110 24.5h2q51 0 110-24.5t94.5-48 92.5-65.5q170-123 498-345 57-39 100-87zm0-294q0 79-49 151t-122 123q-376 261-468 325-10 7-42.5 30.5t-54 38-52 32.5-57.5 27-50 9h-2q-23 0-50-9t-57.5-27-52-32.5-54-38T639 1015q-91-64-262-182.5T172 690q-62-42-117-115.5T0 438q0-78 41.5-130T160 256h1472q65 0 112.5 47t47.5 113z"/></symbol><symbol viewBox="0 0 1792 1792" id="exclamation" xmlns="http://www.w3.org/2000/svg"><path d="M1088 1248v224q0 26-19 45t-45 19H768q-26 0-45-19t-19-45v-224q0-26 19-45t45-19h256q26 0 45 19t19 45zm30-1056l-28 768q-1 26-20.5 45t-45.5 19H768q-26 0-45.5-19T702 960l-28-768q-1-26 17.5-45t44.5-19h320q26 0 44.5 19t17.5 45z"/></symbol><symbol viewBox="0 0 1792 1792" id="facebook" xmlns="http://www.w3.org/2000/svg"><path d="M1579 128q35 0 60 25t25 60v1366q0 35-25 60t-60 25h-391v-595h199l30-232h-229V689q0-56 23.5-84t91.5-28l122-1V369q-63-9-178-9-136 0-217.5 80T948 666v171H748v232h200v595H213q-35 0-60-25t-25-60V213q0-35 25-60t60-25h1366z"/></symbol><symbol viewBox="0 0 1792 1792" id="home" xmlns="http://www.w3.org/2000/svg"><path d="M1472 992v480q0 26-19 45t-45 19h-384v-384H768v384H384q-26 0-45-19t-19-45V992q0-1 .5-3t.5-3l575-474 575 474q1 2 1 6zm223-69l-62 74q-8 9-21 11h-3q-13 0-21-7L896 424l-692 577q-12 8-24 7-13-2-21-11l-62-74q-8-10-7-23.5t11-21.5l719-599q32-26 76-26t76 26l244 204V288q0-14 9-23t23-9h192q14 0 23 9t9 23v408l219 182q10 8 11 21.5t-7 23.5z"/></symbol><symbol viewBox="0 0 1792 1792" id="info" xmlns="http://www.w3.org/2000/svg"><path d="M1152 1376v-160q0-14-9-23t-23-9h-96V672q0-14-9-23t-23-9H672q-14 0-23 9t-9 23v160q0 14 9 23t23 9h96v320h-96q-14 0-23 9t-9 23v160q0 14 9 23t23 9h448q14 0 23-9t9-23zm-128-896V320q0-14-9-23t-23-9H800q-14 0-23 9t-9 23v160q0 14 9 23t23 9h192q14 0 23-9t9-23zm640 416q0 209-103 385.5T1281.5 1561 896 1664t-385.5-103T231 1281.5 128 896t103-385.5T510.5 231 896 128t385.5 103T1561 510.5 1664 896z"/></symbol><symbol viewBox="0 0 1792 1792" id="instagram" xmlns="http://www.w3.org/2000/svg"><path d="M1152 896q0-106-75-181t-181-75-181 75-75 181 75 181 181 75 181-75 75-181zm138 0q0 164-115 279t-279 115-279-115-115-279 115-279 279-115 279 115 115 279zm108-410q0 38-27 65t-65 27-65-27-27-65 27-65 65-27 65 27 27 65zM896 266q-7 0-76.5-.5t-105.5 0-96.5 3-103 10T443 297q-50 20-88 58t-58 88q-11 29-18.5 71.5t-10 103-3 96.5 0 105.5.5 76.5-.5 76.5 0 105.5 3 96.5 10 103T297 1349q20 50 58 88t88 58q29 11 71.5 18.5t103 10 96.5 3 105.5 0 76.5-.5 76.5.5 105.5 0 96.5-3 103-10 71.5-18.5q50-20 88-58t58-88q11-29 18.5-71.5t10-103 3-96.5 0-105.5-.5-76.5.5-76.5 0-105.5-3-96.5-10-103T1495 443q-20-50-58-88t-88-58q-29-11-71.5-18.5t-103-10-96.5-3-105.5 0-76.5.5zm768 630q0 229-5 317-10 208-124 322t-322 124q-88 5-317 5t-317-5q-208-10-322-124t-124-322q-5-88-5-317t5-317q10-208 124-322t322-124q88-5 317-5t317 5q208 10 322 124t124 322q5 88 5 317z"/></symbol><symbol viewBox="0 0 1792 1792" id="lock" xmlns="http://www.w3.org/2000/svg"><path d="M640 768h512V576q0-106-75-181t-181-75-181 75-75 181v192zm832 96v576q0 40-28 68t-68 28H416q-40 0-68-28t-28-68V864q0-40 28-68t68-28h32V576q0-184 132-316t316-132 316 132 132 316v192h32q40 0 68 28t28 68z"/></symbol><symbol viewBox="0 0 1792 1792" id="paper-plane" xmlns="http://www.w3.org/2000/svg"><path d="M1764 11q33 24 27 64l-256 1536q-5 29-32 45-14 8-31 8-11 0-24-5l-453-185-242 295q-18 23-49 23-13 0-22-4-19-7-30.5-23.5T640 1728v-349l864-1059-1069 925-395-162q-37-14-40-55-2-40 32-59L1696 9q15-9 32-9 20 0 36 11z"/></symbol><symbol viewBox="0 0 1792 1792" id="pencil" xmlns="http://www.w3.org/2000/svg"><path d="M491 1536l91-91-235-235-91 91v107h128v128h107zm523-928q0-22-22-22-10 0-17 7l-542 542q-7 7-7 17 0 22 22 22 10 0 17-7l542-542q7-7 7-17zm-54-192l416 416-832 832H128v-416zm683 96q0 53-37 90l-166 166-416-416 166-165q36-38 90-38 53 0 91 38l235 234q37 39 37 91z"/></symbol><symbol viewBox="0 0 1792 1792" id="phone" xmlns="http://www.w3.org/2000/svg"><path d="M1600 1240q0 27-10 70.5t-21 68.5q-21 50-122 106-94 51-186 51-27 0-53-3.5t-57.5-12.5-47-14.5-55.5-20.5-49-18q-98-35-175-83-127-79-264-216T344 904q-48-77-83-175-3-9-18-49t-20.5-55.5-14.5-47-12.5-57.5-3.5-53q0-92 51-186 56-101 106-122 25-11 68.5-21t70.5-10q14 0 21 3 18 6 53 76 11 19 30 54t35 63.5 31 53.5q3 4 17.5 25t21.5 35.5 7 28.5q0 20-28.5 50t-62 55-62 53-28.5 46q0 9 5 22.5t8.5 20.5 14 24 11.5 19q76 137 174 235t235 174q2 1 19 11.5t24 14 20.5 8.5 22.5 5q18 0 46-28.5t53-62 55-62 50-28.5q14 0 28.5 7t35.5 21.5 25 17.5q25 15 53.5 31t63.5 35 54 30q70 35 76 53 3 7 3 21z"/></symbol><symbol viewBox="0 0 1792 1792" id="play" xmlns="http://www.w3.org/2000/svg"><path d="M1576 927L248 1665q-23 13-39.5 3t-16.5-36V160q0-26 16.5-36t39.5 3l1328 738q23 13 23 31t-23 31z"/></symbol><symbol viewBox="0 0 1792 1792" id="plus" xmlns="http://www.w3.org/2000/svg"><path d="M1600 736v192q0 40-28 68t-68 28h-416v416q0 40-28 68t-68 28H800q-40 0-68-28t-28-68v-416H288q-40 0-68-28t-28-68V736q0-40 28-68t68-28h416V224q0-40 28-68t68-28h192q40 0 68 28t28 68v416h416q40 0 68 28t28 68z"/></symbol><symbol viewBox="0 0 1792 1792" id="print" xmlns="http://www.w3.org/2000/svg"><path d="M448 1536h896v-256H448v256zm0-640h896V512h-160q-40 0-68-28t-28-68V256H448v640zm1152 64q0-26-19-45t-45-19-45 19-19 45 19 45 45 19 45-19 19-45zm128 0v416q0 13-9.5 22.5t-22.5 9.5h-224v160q0 40-28 68t-68 28H416q-40 0-68-28t-28-68v-160H96q-13 0-22.5-9.5T64 1376V960q0-79 56.5-135.5T256 768h64V224q0-40 28-68t68-28h672q40 0 88 20t76 48l152 152q28 28 48 76t20 88v256h64q79 0 135.5 56.5T1728 960z"/></symbol><symbol viewBox="0 0 1792 1792" id="question" xmlns="http://www.w3.org/2000/svg"><path d="M1088 1256v240q0 16-12 28t-28 12H808q-16 0-28-12t-12-28v-240q0-16 12-28t28-12h240q16 0 28 12t12 28zm316-600q0 54-15.5 101t-35 76.5-55 59.5-57.5 43.5-61 35.5q-41 23-68.5 65t-27.5 67q0 17-12 32.5t-28 15.5H804q-15 0-25.5-18.5T768 1096v-45q0-83 65-156.5T976 786q59-27 84-56t25-76q0-42-46.5-74T931 548q-65 0-108 29-35 25-107 115-13 16-31 16-12 0-25-8L496 575q-13-10-15.5-25t5.5-28q160-266 464-266 80 0 161 31t146 83 106 127.5 41 158.5z"/></symbol><symbol viewBox="0 0 1792 1792" id="rocket" xmlns="http://www.w3.org/2000/svg"><path d="M1504 448q0-40-28-68t-68-28-68 28-28 68 28 68 68 28 68-28 28-68zm224-288q0 249-75.5 430.5T1399 951q-81 80-195 176l-20 379q-2 16-16 26l-384 224q-7 4-16 4-12 0-23-9l-64-64q-13-14-8-32l85-276-281-281-276 85q-3 1-9 1-14 0-23-9l-64-64q-17-19-5-39l224-384q10-14 26-16l379-20q96-114 176-195 188-187 358-258t431-71q14 0 24 9.5t10 22.5z"/></symbol><symbol viewBox="0 0 1792 1792" id="search" xmlns="http://www.w3.org/2000/svg"><path d="M1216 832q0-185-131.5-316.5T768 384 451.5 515.5 320 832t131.5 316.5T768 1280t316.5-131.5T1216 832zm512 832q0 52-38 90t-90 38q-54 0-90-38l-343-342q-179 124-399 124-143 0-273.5-55.5t-225-150-150-225T64 832t55.5-273.5 150-225 225-150T768 128t273.5 55.5 225 150 150 225T1472 832q0 220-124 399l343 343q37 37 37 90z"/></symbol><symbol viewBox="0 0 1792 1792" id="times" xmlns="http://www.w3.org/2000/svg"><path d="M1490 1322q0 40-28 68l-136 136q-28 28-68 28t-68-28l-294-294-294 294q-28 28-68 28t-68-28l-136-136q-28-28-28-68t28-68l294-294-294-294q-28-28-28-68t28-68l136-136q28-28 68-28t68 28l294 294 294-294q28-28 68-28t68 28l136 136q28 28 28 68t-28 68l-294 294 294 294q28 28 28 68z"/></symbol><symbol viewBox="0 0 1792 1792" id="twitter" xmlns="http://www.w3.org/2000/svg"><path d="M1684 408q-67 98-162 167 1 14 1 42 0 130-38 259.5T1369.5 1125 1185 1335.5t-258 146-323 54.5q-271 0-496-145 35 4 78 4 225 0 401-138-105-2-188-64.5T285 1033q33 5 61 5 43 0 85-11-112-23-185.5-111.5T172 710v-4q68 38 146 41-66-44-105-115t-39-154q0-88 44-163 121 149 294.5 238.5T884 653q-8-38-8-74 0-134 94.5-228.5T1199 256q140 0 236 102 109-21 205-78-37 115-142 178 93-10 186-50z"/></symbol><symbol viewBox="0 0 1792 1792" id="update" xmlns="http://www.w3.org/2000/svg"><path d="M1664 256v448q0 26-19 45t-45 19h-448q-42 0-59-40-17-39 14-69l138-138q-148-137-349-137-104 0-198.5 40.5T534 534 424.5 697.5 384 896t40.5 198.5T534 1258t163.5 109.5T896 1408q119 0 225-52t179-147q7-10 23-12 14 0 25 9l137 138q9 8 9.5 20.5t-7.5 22.5q-109 132-264 204.5T896 1664q-156 0-298-61t-245-164-164-245-61-298 61-298 164-245 245-164 298-61q147 0 284.5 55.5T1425 340l130-129q29-31 70-14 39 17 39 59z"/></symbol><symbol viewBox="0 0 30 32" id="upload" xmlns="http://www.w3.org/2000/svg"><path d="M22.857 26.571q0-.464-.339-.804t-.804-.339-.804.339-.339.804.339.804.804.339.804-.339.339-.804zm4.572 0q0-.464-.339-.804t-.804-.339-.804.339-.339.804.339.804.804.339.804-.339.339-.804zm2.285-4v5.714q0 .714-.5 1.214t-1.214.5H1.714q-.714 0-1.214-.5T0 28.285v-5.714q0-.714.5-1.214t1.214-.5h7.625q.375 1 1.259 1.643t1.973.643h4.571q1.089 0 1.973-.643t1.259-1.643h7.625q.714 0 1.214.5t.5 1.214zM23.911 11q-.304.714-1.054.714h-4.571v8q0 .464-.339.804t-.804.339h-4.571q-.464 0-.804-.339t-.339-.804v-8H6.858q-.75 0-1.054-.714-.304-.696.25-1.232l8-8q.321-.339.804-.339t.804.339l8 8q.554.536.25 1.232z"/></symbol><symbol viewBox="0 0 1792 1792" id="youtube" xmlns="http://www.w3.org/2000/svg"><path d="M1099 1244v211q0 67-39 67-23 0-45-22v-301q22-22 45-22 39 0 39 67zm338 1v46h-90v-46q0-68 45-68t45 68zm-966-218h107v-94H266v94h105v569h100v-569zm288 569h89v-494h-89v378q-30 42-57 42-18 0-21-21-1-3-1-35v-364h-89v391q0 49 8 73 12 37 58 37 48 0 102-61v54zm429-148v-197q0-73-9-99-17-56-71-56-50 0-93 54V933h-89v663h89v-48q45 55 93 55 54 0 71-55 9-27 9-100zm338-10v-13h-91q0 51-2 61-7 36-40 36-46 0-46-69v-87h179v-103q0-79-27-116-39-51-106-51-68 0-107 51-28 37-28 116v173q0 79 29 116 39 51 108 51 72 0 108-53 18-27 21-54 2-9 2-58zM918 525V315q0-69-43-69t-43 69v210q0 70 43 70t43-70zm719 751q0 234-26 350-14 59-58 99t-102 46q-184 21-555 21t-555-21q-58-6-102.5-46t-57.5-99q-26-112-26-350 0-234 26-350 14-59 58-99t103-47q183-20 554-20t555 20q58 7 102.5 47t57.5 99q26 112 26 350zM639 0h102L620 399v271H520V399q-14-74-61-212Q422 84 394 0h106l71 263zm370 333v175q0 81-28 118-38 51-106 51-67 0-105-51-28-38-28-118V333q0-80 28-117 38-51 105-51 68 0 106 51 28 37 28 117zm335-162v499h-91v-55q-53 62-103 62-46 0-59-37-8-24-8-75V171h91v367q0 33 1 35 3 22 21 22 27 0 57-43V171h91z"/></symbol></svg>