<svg enable-background="new 0 0 432 288" viewBox="0 0 432 288" xmlns="http://www.w3.org/2000/svg"><path d="m245.36 265.87c-13.3 0-24.08-10.86-24.08-24.26 0-1.02.08-2.02.2-3h-153.03c.71 15.56 14.01 27.34 29.77 27.34h146.59c.18 0 .37-.01.55-.02" fill="#246281"/><path d="m313.73 47.37c-1.26-20.02-11.31-26.22-22.52-26.35-10.58 2.15-17.23 11.59-17.23 23.22 0 6.32-.07 23.87.08 23.93.03.01.06.02.1.03l39.64.06c-.19-.38.29-15.14-.07-20.89z" fill="#246281"/><path d="m291.21 21.02c-.01.02-152.21-.28-152.21-.28-14.94 0-27.25 10.9-29.07 25.34l-.51 191.68c0 .28.02.55.03.83h112.05c-.12.99-.2 1.98-.2 3 0 13.4 10.78 24.26 24.08 24.26.2 0 .39-.02.59-.02-.13 0-.26.02-.39.02l-.2.06c30.03-1.12 28.46-29.49 28.48-33.23l.11-164.5h.2c-.03-.01-.06-.02-.1-.03-.15-.06-.08-17.6-.08-23.93-.01-11.61 6.64-21.04 17.22-23.2z" fill="#007dbb"/><g fill="#fff"><path d="m254.7 112.04h-1.54l-.02-2.38-.47-60.26h-127.22v178.16h128.62l-.48-61.26v-.3h1.12zm-3.41 112.77h-123.09v-172.65h121.73l.47 59.89h-1.31v53.95h1.74z"/><path d="m143.89 49.69h2.25v177.45h-2.25z"/><path d="m161.39 49.69h2.25v177.45h-2.25z"/><path d="m178.88 49.69h2.25v177.45h-2.25z"/><path d="m196.38 172.46h2.25v54.68h-2.25z"/><path d="m194.83 108.18h5.37v64.28h-5.37z"/><path d="m196.38 49.69h2.25v58.49h-2.25z"/><path d="m213.88 179.85h2.25v47.29h-2.25z"/><path d="m212.33 99.56h5.37v80.29h-5.37z"/><path d="m213.88 49.69h2.25v49.87h-2.25z"/><path d="m231.37 181.08h2.26v46.06h-2.26z"/><path d="m229.82 100.79h5.37v80.29h-5.37z"/><path d="m231.37 49.69h2.26v51.1h-2.26z"/><path d="m127.03 67.8h124.71v2.25h-124.71z"/><path d="m127.03 88h124.71v2.25h-124.71z"/><path d="m195.31 106.66h56.43v5.37h-56.43z"/><path d="m127.03 108.21h68.28v2.25h-68.28z"/><path d="m182.26 126.87h69.48v5.37h-69.48z"/><path d="m127.03 128.42h55.23v2.25h-55.23z"/><path d="m183 147.08h68.74v5.37h-68.74z"/><path d="m127.03 148.63h55.97v2.26h-55.97z"/><path d="m196.3 167.29h55.44v5.37h-55.44z"/><path d="m127.03 168.84h69.27v2.26h-69.27z"/><path d="m127.03 189.05h124.71v2.26h-124.71z"/><path d="m127.03 209.26h124.71v2.26h-124.71z"/></g><g enable-background="new" opacity=".74"><circle cx="222.58" cy="140.38" fill="#a4c7e1" r="41.09"/><path d="m222.58 182.81c-23.4 0-42.43-19.04-42.43-42.43 0-23.4 19.03-42.43 42.43-42.43s42.43 19.03 42.43 42.43-19.03 42.43-42.43 42.43zm0-82.18c-21.92 0-39.75 17.83-39.75 39.75s17.83 39.75 39.75 39.75 39.75-17.83 39.75-39.75-17.83-39.75-39.75-39.75z" fill="#fff"/></g><path d="m299.67 213.17-43.6-42.32c7.34-8.06 11.86-18.74 11.86-30.47 0-25.01-20.35-45.35-45.35-45.35-25.01 0-45.36 20.35-45.36 45.35s20.35 45.36 45.36 45.36c10.16 0 19.51-3.4 27.08-9.06l39.62 46.26c.14.16.29.33.45.48 2.83 2.75 7.35 2.68 10.1-.15 2.74-2.83 2.67-7.35-.16-10.1zm-113.91-72.79c0-20.3 16.52-36.82 36.82-36.82s36.82 16.52 36.82 36.82-16.52 36.82-36.82 36.82-36.82-16.51-36.82-36.82z" fill="#404040"/></svg>