<svg width="432" height="199" xmlns="http://www.w3.org/2000/svg" xmlns:xlink="http://www.w3.org/1999/xlink"><defs><filter x="-.4%" y="-.6%" width="100.7%" height="102.3%" filterUnits="objectBoundingBox" id="a"><feOffset dy="1" in="SourceAlpha" result="shadowOffsetOuter1"/><feColorMatrix values="0 0 0 0 0 0 0 0 0 0 0 0 0 0 0 0 0 0 0.5 0" in="shadowOffsetOuter1"/></filter><filter x="-.8%" y="-1.2%" width="102.5%" height="104.7%" filterUnits="objectBoundingBox" id="c"><feOffset dx="1" dy="2" in="SourceAlpha" result="shadowOffsetOuter1"/><feColorMatrix values="0 0 0 0 0 0 0 0 0 0 0 0 0 0 0 0 0 0 0.5 0" in="shadowOffsetOuter1"/></filter><path id="b" d="M.902 19.848l129.17-7.734 4.806 80.243-129.17 7.735L.901 19.848"/><path d="M21.792 102.714v-.046c-8.467-.599-15.22-7.754-15.22-16.33V18.107h121.793v84.608H21.792" id="d"/><linearGradient x1="99.62%" y1="55.886%" x2="13.883%" y2="55.886%" id="e"><stop stop-color="#007DBA" offset="0%"/><stop stop-color="#006FA5" offset="100%"/></linearGradient></defs><g fill="none" fill-rule="evenodd"><path fill="#FFF" d="M0 0h432v199H0z"/><path d="M155.508 142.138l-.085-1.413.187-.012 5.488-.328c.486.474 1.003.918 1.547 1.325l-7.137.428m122.71-7.348v-1.419l4.673-.28.084 1.414-4.758.285" fill="#7B7B7B"/><g transform="translate(149 41)"><use fill="#000" filter="url(#a)" xlink:href="#b"/><use fill="#007DBA" xlink:href="#b"/></g><path d="M162.645 142.89a15.564 15.564 0 01-1.547-1.326l1.039-.062a17.11 17.11 0 002.18 1.288l-1.672.1" fill="#CAC9C4"/><path d="M159.654 139.942a15.561 15.561 0 01-1.376-2.116 17.284 17.284 0 001.893 2.085l-.517.03m-4.935-12.924l-.009-.146V61.415h.01v65.602" fill="#467FAC"/><g transform="translate(149 41)"><use fill="#000" filter="url(#c)" xlink:href="#d"/><use fill="#007DBA" xlink:href="#d"/></g><path stroke="#76ACD2" stroke-width="1.179" stroke-linecap="square" d="M272.231 63.995v74.293"/><path d="M173.2 137.38h-1.136l-.312-.008h-.002c-5.42-.1-9.848-4.613-9.844-10.033V65.44H173.2v71.94M173.676 76.715h11.771V65.44h-11.77z" fill="#007DBA"/><path fill="#69A1CA" d="M173.676 65.44h11.771v-.476h-11.77z"/><path fill="#619AC6" d="M173.2 77.191v-11.75h.476v11.274h11.771V65.44v11.275H173.2v.476"/><path fill="#7FAFD1" d="M185.447 65.44v-.476h-11.77v.476h-.477v-.953h12.724-.477v.953"/><path stroke="#76ACD2" stroke-width="1.179" stroke-linecap="square" d="M170.816 63.995h101.415"/><path fill="#007DBA" d="M185.924 76.715h11.77V65.44h-11.77z"/><path fill="#69A1CA" d="M185.924 65.44h11.77v-.476h-11.77z"/><path fill="#7FAFD1" d="M198.025 65.44h-.33v-.476h-11.771v.476-.953h12.247-.146v.953"/><path fill="#8CB6D5" d="M185.447 65.44h.477v-.953h-.477z"/><path fill="#007DBA" d="M198.501 76.715h11.77V65.44h-11.77z"/><path fill="#69A1CA" d="M198.501 65.44h11.77v-.476h-11.77z"/><path fill="#7FAFD1" d="M210.271 65.44v-.476h-11.77v.476h-.33v-.953h12.577-.477v.953"/><path fill="#70A5CC" d="M198.025 76.715h.146V65.44h-.146z"/><path fill="#8CB6D5" d="M198.025 65.44h.146v-.953h-.146z"/><path fill="#007DBA" d="M210.748 76.715h11.77V65.44h-11.77z"/><path fill="#69A1CA" d="M210.748 65.44h11.77v-.476h-11.77z"/><path fill="#7FAFD1" d="M222.519 65.44v-.476h-11.771v.476-.953h12.247-.476v.953"/><path fill="#8CB6D5" d="M210.271 65.44h.477v-.953h-.477z"/><path fill="#007DBA" d="M222.995 76.715h11.77V65.44h-11.77z"/><path fill="#69A1CA" d="M222.995 65.44h11.77v-.476h-11.77z"/><path fill="#5C97C4" d="M222.995 76.715V65.44v11.275"/><path fill="#7FAFD1" d="M234.765 65.44v-.476h-11.77v-.477h12.247-.477v.953"/><path fill="#8CB6D5" d="M222.519 65.44h.476v-.953h-.476z"/><path fill="#007DBA" d="M235.242 76.715h11.77V65.44h-11.77z"/><path fill="#69A1CA" d="M235.242 65.44h11.77v-.476h-11.77z"/><path fill="#7FAFD1" d="M247.013 65.44v-.476h-11.77v.476-.953h12.246-.476v.953"/><path fill="#8CB6D5" d="M234.765 65.44h.477v-.953h-.477z"/><path fill="#007DBA" d="M259.26 76.715h-11.771V65.44h11.77v11.275"/><path fill="#69A1CA" d="M247.49 65.44h11.77v-.476h-11.77z"/><path fill="#5C97C4" d="M247.489 76.715V65.44v11.275"/><path fill="#76AACE" d="M247.49 65.44v-.476.476"/><path fill="#7FAFD1" d="M259.26 65.44v-.476h-11.77v-.477h12.246-.476v.953"/><path fill="#8CB6D5" d="M247.013 65.44h.476v-.953h-.476z"/><path fill="#007DBA" d="M259.736 76.715h11.294V65.44h-11.294z"/><path fill="#69A1CA" d="M271.507 76.715h-.477V65.44h-11.294v-.476h11.771v11.75"/><path fill="#7FAFD1" d="M271.984 76.715h-.954.477V64.964h-11.77v.476-.953h12.247v12.228"/><path fill="#007DBA" d="M173.676 88.943h11.771V77.191h-11.77z"/><path d="M173.2 89.42V77.19h12.247v11.752H173.2v.477zm.476-.477h11.771V77.191h-11.77v11.752z" fill="#619AC6"/><path fill="#70A5CC" d="M173.2 77.191h12.247v-.476H173.2z"/><path fill="#007DBA" d="M185.924 88.943h11.77V77.191h-11.77z"/><path fill="#70A5CC" d="M185.924 77.191h12.1v-.476h-12.1z"/><path fill="#89B5D4" d="M185.447 77.191h.477v-.476h-.477z"/><path fill="#007DBA" d="M198.501 88.943h11.77V77.191h-11.77z"/><path fill="#70A5CC" d="M198.171 77.191h12.1v-.476h-12.1zM198.025 88.943h.146V77.191h-.146z"/><path fill="#89B5D4" d="M198.025 77.191h.146v-.476h-.146z"/><path fill="#007DBA" d="M210.748 88.943h11.77V77.191h-11.77z"/><path fill="#70A5CC" d="M210.748 77.191h11.77v-.476h-11.77z"/><path fill="#89B5D4" d="M210.271 77.191h.477v-.476h-.477z"/><path fill="#007DBA" d="M222.995 88.943h11.77V77.191h-11.77z"/><path fill="#70A5CC" d="M222.995 77.191h11.77v-.476h-11.77z"/><path fill="#89B5D4" d="M222.519 77.191h.476v-.476h-.476z"/><path fill="#007DBA" d="M235.242 88.943h11.77V77.191h-11.77z"/><path fill="#70A5CC" d="M235.242 77.191h11.77v-.476h-11.77z"/><path fill="#89B5D4" d="M234.765 77.191h.477v-.476h-.477z"/><path fill="#007DBA" d="M247.49 88.943h11.77V77.191h-11.77z"/><path fill="#70A5CC" d="M247.49 77.191h11.77v-.476h-11.77z"/><path fill="#89B5D4" d="M247.013 77.191h.476v-.476h-.476z"/><path fill="#007DBA" d="M259.736 88.943h11.294V77.191h-11.294z"/><path fill="#69A1CA" d="M271.03 88.943h.477V77.191h-.477z"/><path fill="#7FAFD1" d="M271.984 88.943h-.954.477V77.191h-.477.954v-.476 12.228"/><path fill="#70A5CC" d="M259.736 77.191h11.294v-.476h-11.294z"/><path fill="#8CB6D5" d="M271.03 77.191h.954v-.476h-.954z"/><path fill="#89B5D4" d="M259.26 77.191h.476v-.476h-.476z"/><path fill="#007DBA" d="M173.676 101.17h11.771V89.42h-11.77z"/><path d="M173.2 101.647V89.42h12.247v11.75H173.2v.477zm.476-.476h11.771V89.42h-11.77v11.75z" fill="#619AC6"/><path fill="#70A5CC" d="M173.2 89.42h12.247v-.477H173.2z"/><path fill="#007DBA" d="M185.924 101.17h11.77V89.42h-11.77z"/><path fill="#70A5CC" d="M185.924 89.42h12.1v-.477h-12.1z"/><path fill="#89B5D4" d="M185.447 89.42h.477v-.477h-.477z"/><path fill="#007DBA" d="M198.501 101.17h11.77V89.42h-11.77z"/><path fill="#70A5CC" d="M198.171 89.42h12.1v-.477h-12.1zM198.025 101.17h.146V89.42h-.146z"/><path fill="#89B5D4" d="M198.025 89.42h.146v-.477h-.146z"/><path fill="#007DBA" d="M210.748 101.17h11.77V89.42h-11.77z"/><path fill="#70A5CC" d="M210.748 89.42h11.77v-.477h-11.77z"/><path fill="#89B5D4" d="M210.271 89.42h.477v-.477h-.477z"/><path fill="#007DBA" d="M222.995 101.17h11.77V89.42h-11.77z"/><path fill="#70A5CC" d="M222.995 89.42h11.77v-.477h-11.77z"/><path fill="#89B5D4" d="M222.519 89.42h.476v-.477h-.476z"/><path fill="#007DBA" d="M235.242 101.17h11.77V89.42h-11.77z"/><path fill="#70A5CC" d="M235.242 89.42h11.77v-.477h-11.77z"/><path fill="#89B5D4" d="M234.765 89.42h.477v-.477h-.477z"/><path fill="#007DBA" d="M259.26 101.17h-11.771V89.42h11.77v11.75"/><path fill="#5C97C4" d="M247.489 101.17V89.42v11.75"/><path fill="#70A5CC" d="M247.49 89.42h11.77v-.477h-11.77z"/><path fill="#89B5D4" d="M247.013 89.42h.476v-.477h-.476z"/><path fill="#007DBA" d="M259.736 101.17h11.294V89.42h-11.294z"/><path fill="#69A1CA" d="M271.03 101.17h.477V89.42h-.477z"/><path fill="#7FAFD1" d="M271.984 101.17h-.954.477V89.42h-.477.954v-.477 12.228"/><path fill="#70A5CC" d="M259.736 89.42h11.294v-.477h-11.294z"/><path fill="#8CB6D5" d="M271.03 89.42h.954v-.477h-.954z"/><path fill="#89B5D4" d="M259.26 89.42h.476v-.477h-.476z"/><path fill="#007DBA" d="M173.676 113.4h11.771v-11.753h-11.77z"/><path d="M173.2 113.876v-12.229h12.247V113.4H173.2v.477zm.476-.477h11.771v-11.752h-11.77V113.4z" fill="#619AC6"/><path fill="#70A5CC" d="M173.2 101.647h12.247v-.476H173.2z"/><path fill="#007DBA" d="M185.924 113.4h11.77v-11.753h-11.77z"/><path fill="#70A5CC" d="M185.924 101.647h12.1v-.476h-12.1z"/><path fill="#89B5D4" d="M185.447 101.647h.477v-.476h-.477z"/><path fill="#007DBA" d="M198.501 113.4h11.77v-11.753h-11.77z"/><path fill="#70A5CC" d="M198.171 101.647h12.1v-.476h-12.1zM198.025 113.4h.146v-11.753h-.146z"/><path fill="#89B5D4" d="M198.025 101.647h.146v-.476h-.146z"/><path fill="#007DBA" d="M210.748 113.4h11.77v-11.753h-11.77z"/><path fill="#70A5CC" d="M210.748 101.647h11.77v-.476h-11.77z"/><path fill="#89B5D4" d="M210.271 101.647h.477v-.476h-.477z"/><path fill="#007DBA" d="M222.995 113.4h11.77v-11.753h-11.77z"/><path fill="#70A5CC" d="M222.995 101.647h11.77v-.476h-11.77z"/><path fill="#89B5D4" d="M222.519 101.647h.476v-.476h-.476z"/><path fill="#007DBA" d="M235.242 113.4h11.77v-11.753h-11.77z"/><path fill="#70A5CC" d="M235.242 101.647h11.77v-.476h-11.77z"/><path fill="#89B5D4" d="M234.765 101.647h.477v-.476h-.477z"/><path fill="#007DBA" d="M247.49 113.4h11.77v-11.753h-11.77z"/><path fill="#70A5CC" d="M247.49 101.647h11.77v-.476h-11.77z"/><path fill="#89B5D4" d="M247.013 101.647h.476v-.476h-.476z"/><path fill="#007DBA" d="M259.736 113.4h11.294v-11.753h-11.294z"/><path fill="#69A1CA" d="M271.03 113.4h.477v-11.753h-.477z"/><path fill="#7FAFD1" d="M271.984 113.4h-.954.477v-11.753h-.477.954v-.476 12.228"/><path fill="#70A5CC" d="M259.736 101.647h11.294v-.476h-11.294z"/><path fill="#8CB6D5" d="M271.03 101.647h.954v-.476h-.954z"/><path fill="#89B5D4" d="M259.26 101.647h.476v-.476h-.476z"/><path fill="#007DBA" d="M173.676 125.627h11.771v-11.751h-11.77z"/><path d="M173.2 126.104v-12.228h12.247v11.751H173.2v.477zm.476-.477h11.771v-11.751h-11.77v11.751z" fill="#619AC6"/><path fill="#70A5CC" d="M173.2 113.876h12.247v-.477H173.2z"/><path fill="#007DBA" d="M185.924 125.627h11.77v-11.751h-11.77z"/><path fill="#70A5CC" d="M185.924 113.876h12.1v-.477h-12.1z"/><path fill="#89B5D4" d="M185.447 113.876h.477v-.477h-.477z"/><path fill="#007DBA" d="M198.501 125.627h11.77v-11.751h-11.77z"/><path fill="#70A5CC" d="M198.171 113.876h12.1v-.477h-12.1zM198.025 125.627h.146v-11.751h-.146z"/><path fill="#89B5D4" d="M198.025 113.876h.146v-.477h-.146z"/><path fill="#007DBA" d="M210.748 125.627h11.77v-11.751h-11.77z"/><path fill="#70A5CC" d="M210.748 113.876h11.77v-.477h-11.77z"/><path fill="#89B5D4" d="M210.271 113.876h.477v-.477h-.477z"/><path fill="#007DBA" d="M222.995 125.627h11.77v-11.751h-11.77z"/><path fill="#5C97C4" d="M222.995 125.627v-11.751 11.751"/><path fill="#70A5CC" d="M222.995 113.876h11.77v-.477h-11.77z"/><path fill="#89B5D4" d="M222.519 113.876h.476v-.477h-.476z"/><path d="M235.667 125.627h-.425v-11.751h11.77v1.162a18.377 18.377 0 00-6.905 4.112 18.359 18.359 0 00-4.44 6.477" fill="#007DBA"/><path fill="#70A5CC" d="M235.242 113.876h11.77v-.477h-11.77z"/><path fill="#89B5D4" d="M234.765 113.876h.477v-.477h-.477z"/><path d="M259.26 115.324a18.407 18.407 0 00-11.77-.435v-1.013h11.77v1.448" fill="#4E8EBF"/><path fill="#5C97C4" d="M247.49 114.889v-1.013 1.013"/><path fill="#70A5CC" d="M247.49 113.876h11.77v-.477h-11.77z"/><path fill="#89B5D4" d="M247.013 113.876h.476v-.477h-.476z"/><path d="M271.03 125.627h-1.21a18.327 18.327 0 00-3.675-5.721 18.438 18.438 0 00-6.409-4.394v-1.636h11.294v11.751" fill="#007DBA"/><path fill="#69A1CA" d="M271.03 125.627h.477v-11.751h-.477z"/><path fill="#7FAFD1" d="M271.984 125.627h-.954.477v-11.751h-.477.954v-.477 12.228"/><path fill="#70A5CC" d="M259.736 113.876h11.294v-.477h-11.294z"/><path fill="#8CB6D5" d="M271.03 113.876h.954v-.477h-.954z"/><path fill="#89B5D4" d="M259.26 113.876h.476v-.477h-.476z"/><path fill="#007DBA" d="M173.676 137.38h11.771v-11.276h-11.77z"/><path fill="#69A1CA" d="M173.676 137.856h11.771v-.477h-11.77z"/><path fill="#619AC6" d="M185.447 137.38v-11.276h-11.77v11.275h-.477v-11.275h12.247v11.275"/><path fill="#7FAFD1" d="M185.447 138.332H173.2v-.953h.476v.477h11.771v-.477.953"/><path fill="#70A5CC" d="M173.2 126.104h12.247v-.477H173.2z"/><path fill="#007DBA" d="M185.924 137.38h11.77v-11.276h-11.77z"/><path fill="#69A1CA" d="M185.924 137.856h11.77v-.477h-11.77z"/><path fill="#619AC6" d="M198.025 137.38h-.33v-11.276h-11.771v11.275-11.275h12.1v11.275"/><path fill="#7FAFD1" d="M198.025 138.332h-12.578.477v-.953.477h11.77v-.477h.33v.953"/><path fill="#70A5CC" d="M185.924 126.104h12.1v-.477h-12.1z"/><path fill="#8CB6D5" d="M185.447 138.332h.477v-.953h-.477z"/><path fill="#89B5D4" d="M185.447 126.104h.477v-.477h-.477z"/><path fill="#007DBA" d="M198.501 137.38h11.77v-11.276h-11.77z"/><path fill="#69A1CA" d="M198.501 137.856h11.77v-.477h-11.77z"/><path fill="#619AC6" d="M210.271 137.38v-11.276h-11.77v11.275h-.33v-11.275h12.1v11.275"/><path fill="#7FAFD1" d="M210.271 138.332h-12.246.146v-.953h.33v.477h11.77v-.477.953"/><path fill="#70A5CC" d="M198.171 126.104h12.1v-.477h-12.1zM198.025 137.38h.146v-11.276h-.146z"/><path fill="#8CB6D5" d="M198.025 138.332h.146v-.953h-.146z"/><path fill="#89B5D4" d="M198.025 126.104h.146v-.477h-.146z"/><path fill="#007DBA" d="M210.748 137.38h11.77v-11.276h-11.77z"/><path fill="#69A1CA" d="M210.748 137.856h11.77v-.477h-11.77z"/><path fill="#7FAFD1" d="M222.519 138.332H210.27h.477v-.953.477h11.77v-.477.953"/><path fill="#70A5CC" d="M210.748 126.104h11.77v-.477h-11.77z"/><path fill="#8CB6D5" d="M210.271 138.332h.477v-.953h-.477z"/><path fill="#89B5D4" d="M210.271 126.104h.477v-.477h-.477z"/><path d="M234.765 137.38h-11.77v-11.276h11.77v2.43a18.622 18.622 0 00-.43 3.478 18.56 18.56 0 00.43 4.558v.81" fill="#007DBA"/><path fill="#69A1CA" d="M222.995 137.877h21.227v-.496h-21.227z"/><path fill="#7FAFD1" d="M244.924 138.332H221.34h.918v-.953.477h22.667v-.477.953"/><path fill="#70A5CC" d="M222.995 126.104h11.77v-.477h-11.77z"/><path fill="#8CB6D5" d="M222.519 138.332h.476v-.953h-.476z"/><path fill="#89B5D4" d="M222.519 126.104h.476v-.477h-.476z"/><path d="M235.242 126.79v-.686h.24c-.085.227-.165.456-.24.686" fill="#4E8EBF"/><path d="M235.25 138.332h-.485.477v-.024a.406.406 0 01.008.024" fill="#7FAFD1"/><path d="M235.482 126.104h-.24v-.477h.425c-.064.158-.125.317-.185.477" fill="#70A5CC"/><path fill="#89B5D4" d="M234.765 126.104h.477v-.477h-.477z"/><path d="M271.03 137.38h-.512c.236-.873.407-1.76.512-2.652v2.651m0-7.022a18.4 18.4 0 00-1.026-4.253h1.026v4.253" fill="#007DBA"/><path d="M271.507 137.856h-1.124c.047-.159.092-.318.135-.477h.512v-2.65a18.6 18.6 0 000-4.372v-4.253h.477v11.752" fill="#69A1CA"/><path d="M271.984 138.332h-1.751c.052-.158.102-.317.15-.476h1.124v-11.752h-.477.954v-.477 12.705" fill="#7FAFD1"/><path d="M271.03 126.104h-1.026c-.06-.16-.121-.319-.185-.477h1.211v.477" fill="#70A5CC"/><path fill="#8CB6D5" d="M271.03 126.104h.954v-.477h-.954z"/><path d="M266.334 145.987h-.99l.045-.042c.468-.442.908-.902 1.32-1.379h.365c-.275.458-.575.906-.898 1.341.053.025.106.052.158.08m-26.18 0h-.779c-.347-.46-.666-.935-.959-1.421h.373a19.344 19.344 0 001.365 1.421" fill="#CAC9C4"/><path d="M267.074 144.566h-.366a18.45 18.45 0 001.174-1.515c-.242.516-.51 1.021-.808 1.515m-28.285 0h-.373c-.3-.5-.572-1.01-.815-1.532.367.528.763 1.039 1.188 1.532" fill="#3B3B3A"/><path d="M279.515 164.64a3.903 3.903 0 01-2.828-1.22l-14.646-15.522a3.891 3.891 0 01.16-5.495 3.871 3.871 0 012.667-1.06 3.9 3.9 0 012.827 1.22l14.647 15.522a3.862 3.862 0 011.057 2.78 3.86 3.86 0 01-1.217 2.714 3.874 3.874 0 01-2.667 1.061" fill="gray"/><path fill="#C8102E" d="M262.293 151.095l8.634-8.147 13.24 14.033-8.633 8.147-13.241-14.033"/><path d="M252.75 142.645c-2.81 0-5.42-1.124-7.346-3.168a9.989 9.989 0 01-.578-.668h15.847c-.302.381-.635.743-.995 1.083a10.058 10.058 0 01-6.928 2.753M258.463 125.627H247.49v-.24a11.795 11.795 0 015.257-1.232c1.975 0 3.947.493 5.717 1.472" fill="#007DBA"/><path fill="#5C9BC8" d="M247.489 125.627v-.24z"/><path d="M247.49 125.627h-.456c.15-.083.302-.163.455-.24v.24" fill="#6CA7CE"/><path d="M247.013 137.38h-3.133a10.142 10.142 0 01-.496-8.61c.378-.491.799-.958 1.263-1.396.505-.477 1.04-.9 1.6-1.27h.766v11.275" fill="#007DBA"/><path d="M247.013 137.856h-2.856c-.097-.157-.19-.316-.277-.477h3.133v.477" fill="#67A4CD"/><path d="M247.013 138.332h-2.543c-.11-.157-.214-.315-.313-.476h2.856v-.477.953" fill="#77AFD3"/><path d="M247.013 126.104h-.765c.25-.166.506-.32.765-.465v.465" fill="#6CA7CE"/><path d="M259.26 137.38h-11.77v-11.276h11.76l.01.006v11.27" fill="#007DBA"/><path fill="#67A4CD" d="M247.49 137.856h11.77v-.477h-11.77z"/><path fill="#77AFD3" d="M259.26 138.332h-12.247.476v-.953.477h11.77v-.477.953"/><path d="M259.25 126.104h-11.76v-.477h10.973c.267.148.53.307.786.477" fill="#6CA7CE"/><path fill="#81B5D6" d="M247.013 138.332h.476v-.953h-.476z"/><path d="M247.49 126.104h-.477v-.465a.393.393 0 00.02-.012h.456v.477" fill="#7EB4D6"/><path d="M261.621 137.38h-1.885v-10.936a11.896 11.896 0 012.392 2.347c.508 1.27.755 2.641.714 4.05a10.047 10.047 0 01-1.22 4.538" fill="#007DBA"/><path fill="#81B5D6" d="M259.26 138.332h.476v-.953h-.476z"/><path d="M247.013 125.627h-1.619a10.153 10.153 0 011.619-1.392v1.392M259.26 125.627h-.797a11.811 11.811 0 00-5.717-1.472c-1.8 0-3.603.41-5.257 1.233v-1.463c1.571-.96 3.381-1.476 5.257-1.476 2.423 0 4.698.837 6.514 2.378v.8" fill="#4888B8"/><path fill="#548FBA" d="M247.489 125.388v-1.463z"/><path d="M247.034 125.627h-.021v-1.392c.156-.108.315-.212.476-.31v1.463c-.153.076-.305.156-.455.239" fill="#6198BF"/><path d="M260.102 125.627h-.366v-.37c.121.117.24.237.357.36l.009.01" fill="#4888B8"/><path d="M259.736 125.627h-.476v-.8c.163.138.321.28.476.43v.37" fill="#6198BF"/><path d="M243.384 128.77c.38-.948.91-1.85 1.588-2.666h1.276c-.56.37-1.096.793-1.6 1.27-.465.438-.886.905-1.264 1.396" fill="#4888B8"/><path d="M246.248 126.104h-1.276c.135-.163.275-.321.422-.477h1.619v.012c-.26.144-.515.3-.765.465" fill="#6198BF"/><path d="M259.26 126.11l-.01-.006h.01v.006" fill="#4888B8"/><path d="M259.26 126.104h-.01c-.258-.17-.52-.33-.787-.477h.797v.477" fill="#6198BF"/><path d="M247.013 125.639v-.012h.02a.393.393 0 01-.02.012" fill="#73A4C4"/><path d="M262.128 128.791a11.896 11.896 0 00-2.392-2.347v-.34h.788a10.069 10.069 0 011.604 2.687" fill="#4888B8"/><path d="M260.524 126.104h-.788v-.477h.366c.146.156.287.314.422.477M259.736 126.444a11.806 11.806 0 00-.476-.334v-.006h.476v.34" fill="#6198BF"/><path fill="#73A4C4" d="M259.26 126.104h.476v-.477h-.476z"/><path stroke="#76ACD2" stroke-width="1.179" stroke-linecap="square" d="M259.259 65.175v73.113M247.467 65.175v73.113M235.675 65.175v73.113M222.703 65.175v73.113M210.91 65.175v73.113M197.939 65.175v73.113M186.146 65.175v73.113M173.175 65.175v73.113M170.816 76.967h101.415M170.816 88.759h101.415M170.816 101.731h101.415M170.816 113.524h101.415M170.816 125.316h101.415M170.816 138.288h101.415"/><path d="M252.746 121.596a10.91 10.91 0 00-7.513 2.986c-4.392 4.144-4.594 11.089-.45 15.48a10.851 10.851 0 007.967 3.436c2.805 0 5.473-1.06 7.513-2.985a10.879 10.879 0 003.432-7.648 10.879 10.879 0 00-2.982-7.833 10.85 10.85 0 00-7.967-3.436m.005 28.518c-4.888 0-9.427-1.958-12.78-5.51-6.648-7.046-6.324-18.186.721-24.834a17.497 17.497 0 0112.053-4.79c4.888 0 9.427 1.958 12.78 5.511a17.452 17.452 0 014.783 12.566 17.446 17.446 0 01-5.504 12.267 17.494 17.494 0 01-12.052 4.79h-.001" fill="#404040"/><path d="M159.567 137.924c.728-3.197 1.508-5.464 2.34-6.8 4.134-6.65 8.877-9.36 11.77-10.387.042-3.555.042-4.418 0-2.59-5.933 2.764-9.856 5.72-11.77 8.87-.635 1.043-1.884 3.04-2.34 4.106-.377.885-1.152 3.593-1.065 5.108.037.63.392 1.194 1.065 1.693z" fill-opacity=".629" fill="#333" opacity=".382"/><path d="M5.924 17.559c0-9.03 7.346-16.374 16.375-16.374h.853v79.072h-.853c-8.09 0-15.825 7.378-15.825 15.466l-.735-1.46.185-76.704z" fill="url(#e)" transform="rotate(-4 675.988 -2064.447)"/></g></svg>