<?xml version="1.0" encoding="utf-8"?>
<!-- Generator: Adobe Illustrator 24.0.3, SVG Export Plug-In . SVG Version: 6.00 Build 0)  -->
<svg version="1.1" id="Layer_1" xmlns="http://www.w3.org/2000/svg" xmlns:xlink="http://www.w3.org/1999/xlink" x="0px" y="0px"
	 viewBox="0 0 432 288" style="enable-background:new 0 0 432 288;" xml:space="preserve">
<style type="text/css">
	.st0{display:none;}
	.st1{fill:#EDA302;}
	.st2{fill:#246281;}
	.st3{fill:#007DBB;}
	.st4{fill:#FFFFFF;}
	.st5{opacity:0.74;enable-background:new    ;}
	.st6{fill:#A4C7E1;}
	.st7{fill:#404040;}
</style>
<g>
	<g id="Components">
		<g>
			<path class="st2" d="M245.36,265.87c-13.3,0-24.08-10.86-24.08-24.26c0-1.02,0.08-2.02,0.2-3H68.45
				c0.71,15.56,14.01,27.34,29.77,27.34h146.59c0.18,0,0.37-0.01,0.55-0.02"/>
			<path class="st2" d="M313.73,47.37c-1.26-20.02-11.31-26.22-22.52-26.35c-10.58,2.15-17.23,11.59-17.23,23.22
				c0,6.32-0.07,23.87,0.08,23.93c0.03,0.01,0.06,0.02,0.1,0.03l39.64,0.06C313.61,67.88,314.09,53.12,313.73,47.37z"/>
		</g>
		<path class="st3" d="M291.21,21.02C291.2,21.04,139,20.74,139,20.74c-14.94,0-27.25,10.9-29.07,25.34l-0.51,191.68
			c0,0.28,0.02,0.55,0.03,0.83H221.5c-0.12,0.99-0.2,1.98-0.2,3c0,13.4,10.78,24.26,24.08,24.26c0.2,0,0.39-0.02,0.59-0.02
			c-0.13,0-0.26,0.02-0.39,0.02l-0.2,0.06c30.03-1.12,28.46-29.49,28.48-33.23l0.11-164.5h0.2c-0.03-0.01-0.06-0.02-0.1-0.03
			c-0.15-0.06-0.08-17.6-0.08-23.93C273.98,32.61,280.63,23.18,291.21,21.02z"/>
		<g>
			<path class="st4" d="M254.7,112.04h-1.54l-0.02-2.38l-0.47-60.26H125.45v178.16h128.62l-0.48-61.26V166h1.12L254.7,112.04
				L254.7,112.04z M251.29,224.81H128.2V52.16h121.73l0.47,59.89h-1.31V166h1.74L251.29,224.81z"/>
			<g>
				<rect x="143.89" y="49.69" class="st4" width="2.25" height="177.45"/>
				<rect x="161.39" y="49.69" class="st4" width="2.25" height="177.45"/>
				<rect x="178.88" y="49.69" class="st4" width="2.25" height="177.45"/>
				<rect x="196.38" y="172.46" class="st4" width="2.25" height="54.68"/>
				<rect x="194.83" y="108.18" class="st4" width="5.37" height="64.28"/>
				<rect x="196.38" y="49.69" class="st4" width="2.25" height="58.49"/>
				<rect x="213.88" y="179.85" class="st4" width="2.25" height="47.29"/>
				<rect x="212.33" y="99.56" class="st4" width="5.37" height="80.29"/>
				<rect x="213.88" y="49.69" class="st4" width="2.25" height="49.87"/>
				<rect x="231.37" y="181.08" class="st4" width="2.26" height="46.06"/>
				<rect x="229.82" y="100.79" class="st4" width="5.37" height="80.29"/>
				<rect x="231.37" y="49.69" class="st4" width="2.26" height="51.1"/>
			</g>
			<g>
				<rect x="127.03" y="67.8" class="st4" width="124.71" height="2.25"/>
				<rect x="127.03" y="88" class="st4" width="124.71" height="2.25"/>
				<rect x="195.31" y="106.66" class="st4" width="56.43" height="5.37"/>
				<rect x="127.03" y="108.21" class="st4" width="68.28" height="2.25"/>
				<rect x="182.26" y="126.87" class="st4" width="69.48" height="5.37"/>
				<rect x="127.03" y="128.42" class="st4" width="55.23" height="2.25"/>
				<rect x="183" y="147.08" class="st4" width="68.74" height="5.37"/>
				<rect x="127.03" y="148.63" class="st4" width="55.97" height="2.26"/>
				<rect x="196.3" y="167.29" class="st4" width="55.44" height="5.37"/>
				<rect x="127.03" y="168.84" class="st4" width="69.27" height="2.26"/>
				<rect x="127.03" y="189.05" class="st4" width="124.71" height="2.26"/>
				<rect x="127.03" y="209.26" class="st4" width="124.71" height="2.26"/>
			</g>
		</g>
		<g class="st5">
			<circle class="st6" cx="222.58" cy="140.38" r="41.09"/>
			<path class="st4" d="M222.58,182.81c-23.4,0-42.43-19.04-42.43-42.43c0-23.4,19.03-42.43,42.43-42.43
				c23.4,0,42.43,19.03,42.43,42.43C265.01,163.78,245.98,182.81,222.58,182.81z M222.58,100.63c-21.92,0-39.75,17.83-39.75,39.75
				s17.83,39.75,39.75,39.75s39.75-17.83,39.75-39.75S244.5,100.63,222.58,100.63z"/>
		</g>
		<path class="st7" d="M299.67,213.17l-43.6-42.32c7.34-8.06,11.86-18.74,11.86-30.47c0-25.01-20.35-45.35-45.35-45.35
			c-25.01,0-45.36,20.35-45.36,45.35s20.35,45.36,45.36,45.36c10.16,0,19.51-3.4,27.08-9.06l39.62,46.26
			c0.14,0.16,0.29,0.33,0.45,0.48c2.83,2.75,7.35,2.68,10.1-0.15C302.57,220.44,302.5,215.92,299.67,213.17z M185.76,140.38
			c0-20.3,16.52-36.82,36.82-36.82s36.82,16.52,36.82,36.82s-16.52,36.82-36.82,36.82C202.28,177.2,185.76,160.69,185.76,140.38z"/>
	</g>
</g>
</svg>
