<svg width="432" height="199" xmlns="http://www.w3.org/2000/svg" xmlns:xlink="http://www.w3.org/1999/xlink"><defs><linearGradient x1="616.895%" y1="17.022%" x2="-2363.36%" y2="76.615%" id="b"><stop stop-color="#AA5482" offset="0%"/><stop stop-color="#AB7D40" offset="100%"/></linearGradient><path d="M22.887 1.77L22.83.66l.057 1.11m-22.879 0L.066.66.008 1.77" id="a"/></defs><g fill="none" fill-rule="evenodd"><path d="M0 0h432v199H0z" fill="#FFF"/><path fill="#DEDED9" d="M212.289 159.388h24.757l-1.236-23.993h-22.286l-1.235 23.993"/><path d="M212.289 155.627l12.378.688 12.38-.688c0 2.23 3.325 5.29 5.912 6.654.936.494 1.54 1.446 1.54 2.505v.084h-39.664v-.084c0-1.06.604-2.011 1.54-2.505 2.588-1.364 5.914-4.424 5.914-6.654" fill="#DEDED9"/><g transform="matrix(-1 0 0 1 220.115 139.375)"><mask id="c" fill="#fff"><use xlink:href="#a"/></mask><path d="M22.887 1.77L22.83.66l.057 1.11m-22.879 0L.066.66.008 1.77" fill="url(#b)" mask="url(#c)"/></g><path fill="#989995" d="M213.114 143.347h23.106l-.17-3.312h-22.765l-.057 1.11-.114 2.202"/><path d="M304.013 117.818v13.973a8.243 8.243 0 01-8.244 8.244H153.566a8.243 8.243 0 01-8.244-8.244v-13.973h158.69" fill="#DEDED9"/><path d="M153.52 35h142.294a8.198 8.198 0 018.199 8.198v74.62h-158.69v-74.62A8.198 8.198 0 01153.52 35" fill="#1B1A19"/><path fill="#FFF" d="M298.07 111.454H151.264v-70.09H298.07z"/><path d="M229.009 128.926a3.364 3.364 0 10-6.728.002 3.364 3.364 0 006.728-.002" fill="#B1B1AD"/><path fill="#6C4589" d="M135.265 100.98V79.868v21.112M255.684 111.454h26.385-26.385M255.684 111.454h-96.16 96.16zM135.265 111.454h24.26-24.26v-10.475 10.475"/><path d="M225.241 177.63c35.61 0 64.476-.662 64.476-1.478 0-.079-.265-.156-.776-.23a3.124 3.124 0 01-.112.102H161.827a3.198 3.198 0 01-.133-.123c-.61.081-.928.165-.928.25 0 .817 28.866 1.478 64.475 1.478" fill="#171615"/><path fill="#DEDED9" d="M169.149 168.085h112.36l8.208 6.201H160.94l8.209-6.201M288.83 176.024H161.826c-.558-.49-.887-1.092-.887-1.738h128.777c0 .646-.328 1.248-.888 1.738"/><path fill="#1B1A19" d="M253.587 171.003h-4.383l-.853-1.824h4.213l1.023 1.824M258.372 171.003h-4.366l-1.024-1.824h4.196l1.194 1.824M229.841 169.18h4.254l.34 1.823h-4.424l-.17-1.824M248.8 171.003h-4.396l-.682-1.824h4.226l.853 1.824M244.014 171.003h-4.41l-.51-1.824h4.238l.682 1.824M234.467 169.18h4.248l.511 1.823h-4.419l-.34-1.824M267.94 171.003h-4.329l-1.365-1.824h4.158l1.535 1.824M277.504 171.003h-4.283l-1.706-1.824h4.111l1.878 1.824M263.156 171.003h-4.348l-1.194-1.824h4.177l1.365 1.824M279.756 173.192h-4.487l-1.707-1.824h4.317l1.877 1.824M229.644 171.003h-4.428l.001-1.824h4.258l.17 1.824M272.722 171.003h-4.306l-1.535-1.824h4.134l1.707 1.824M205.726 171.003h-4.397l.852-1.824h4.227l-.682 1.824M191.322 171.003h-4.348l1.365-1.824h4.177l-1.194 1.824M186.518 171.003h-4.327l1.535-1.824h4.157l-1.365 1.824M181.714 171.003h-4.306l1.707-1.824h4.134l-1.535 1.824M196.124 171.003h-4.366l1.194-1.824h4.195l-1.023 1.824M172.626 171.003l1.878-1.824h4.111l-1.707 1.824h-4.282M220.119 171.003h-4.425l.34-1.824h4.255l-.17 1.824M215.323 171.003h-4.419l.511-1.824h4.249l-.34 1.824M224.851 171.003h-4.365l.17-1.824h4.197l-.002 1.824M210.525 171.003h-4.409l.682-1.824h4.238l-.51 1.824M200.926 171.003h-4.383l1.023-1.824h4.212l-.852 1.824M268.723 171.368h4.34l1.706 1.824h-4.51l-1.536-1.824M177.067 171.368h4.34l-1.536 1.824h-4.51l1.706-1.824M191.519 171.368h4.4l-1.023 1.824h-4.571l1.194-1.824M186.7 171.368h4.383l-1.194 1.824h-4.553l1.365-1.824M196.338 171.368h4.417l-.852 1.824h-4.588l1.023-1.824M201.158 171.368h4.432l-.682 1.824h-4.602l.852-1.824M181.884 171.368h4.361l-1.364 1.824h-4.533l1.536-1.824M166.646 171.347v.02h5.082l-1.877 1.825h-5.647l2.442-1.845M278.027 171.003l-1.877-1.824h4.992l2.414 1.824h-5.53M278.402 171.368h5.636l2.415 1.824h-6.173l-1.878-1.824M205.98 171.368h4.443l-.511 1.824h-4.614l.682-1.824M172.251 171.368h4.316l-1.706 1.824h-4.487l1.877-1.824M172.103 171.003h-5.002l2.414-1.824h4.465l-1.877 1.824M263.885 171.368h4.361l1.536 1.824h-4.533l-1.364-1.824M244.54 171.368h4.431l.853 1.824h-4.602l-.682-1.824M249.374 171.368h4.418l1.023 1.824h-4.588l-.853-1.824M239.707 171.368h4.443l.682 1.824h-4.614l-.511-1.824M254.21 171.368h4.401l1.195 1.824h-4.573l-1.022-1.824M259.047 171.368h4.382l1.365 1.824h-4.553l-1.194-1.824M234.875 171.368h4.453l.511 1.824h-4.624l-.34-1.824M215.626 171.368h4.46l-.17 1.824h-4.63l.34-1.824M220.452 171.368h4.4l-.002 1.824h-4.568l.17-1.824M230.045 171.368h4.46l.34 1.824h-4.63l-.17-1.824M210.802 171.368h4.453l-.34 1.824h-4.624l.511-1.824M225.216 171.368h4.462l.17 1.824h-4.633l.001-1.824"/><path d="M161.827 176.024H288.83c.56-.49.888-1.092.888-1.738H160.94c0 .646.329 1.248.887 1.738" fill="#989995"/><path d="M135.915 172.27c4.911 0 8.892-.426 8.892-.952s-3.981-.951-8.892-.951c-4.91 0-8.892.425-8.892.951s3.981.952 8.892.952" fill="#171615"/><path d="M135.467 162.153h.895a8.445 8.445 0 018.445 8.445v.641h-17.784v-.641a8.445 8.445 0 018.444-8.445" fill="#DEDED9"/><g fill-rule="nonzero"><path d="M227.429 84.865c2.793 2.796 1.27 12.135-5.651 14.486-5.016 1.715-20.254 2.604-21.207-.509-1.142-3.812 1.016 6.798 14.985-12.261 3.11-4.32 9.079-4.51 11.873-1.716z" fill="#D64C62"/><path d="M227.69 85.502c2.868 2.854 1.76 11.416-5.41 13.816-5.148 1.751-20.79 2.66-21.768-.52-1.173-3.89 4.171 8.952 18.51-10.572 3.259-4.346 5.8-5.578 8.668-2.724z" fill="#C8102E"/><g><path d="M263.901 48.294h-5.333L225.905 81.18a1.496 1.496 0 000 2.096l2.285 2.35a1.494 1.494 0 002.096 0L263.9 54.076v-5.781z" fill="#2E9BCC"/><path d="M228.254 85.5c.571.573 1.524.636 2.095.064l33.552-31.489v-5.781" fill="#0E6BAA"/><path fill="#F5BE40" d="M226.476 80.613l4.49 4.491-2.469 2.471-4.49-4.491z"/><path fill="#EDA302" d="M227.408 81.58l3.501 3.505-2.47 2.47-3.5-3.504z"/></g></g></g></svg>