<svg enable-background="new 0 0 432 288" viewBox="0 0 432 288" xmlns="http://www.w3.org/2000/svg"><path d="m253.04 241.37-115.82-86.87c-2.38-1.79-2.87-5.17-1.08-7.55l61.5-82c1.79-2.38 5.17-2.87 7.55-1.08l115.82 86.86c2.38 1.79 2.87 5.17 1.08 7.55l-61.5 82c-1.78 2.39-5.16 2.87-7.55 1.09z" fill="#404040"/><path d="m251.33 233.47-106.48-79.86c-2.62-1.96-3.15-5.68-1.19-8.3l54.64-72.85c1.96-2.62 5.68-3.15 8.3-1.19l106.48 79.86c2.62 1.96 3.15 5.68 1.19 8.3l-54.64 72.85c-1.97 2.62-5.68 3.16-8.3 1.19z" fill="#808080"/><path d="m148.15 113.61h53.89v2.81h-53.89z" fill="#d0d0d0" transform="matrix(.598 -.8015 .8015 .598 -21.8009 186.5622)"/><path d="m189.98 101.32h79.32v104.49h-79.32z" fill="#fbfafb" transform="matrix(.598 -.8015 .8015 .598 -30.768 245.777)"/><path d="m168.8 167.33c2.06-1.97 56.05-75.11 56.05-75.11" fill="none" stroke="#007dba" stroke-miterlimit="10" stroke-width="1.505"/><path d="m233.81 213.55c2.06-1.97 56.05-75.11 56.05-75.11" fill="none" stroke="#007dba" stroke-miterlimit="10" stroke-width="1.505"/><path d="m167.23 142.36 91 67.9" fill="none" stroke="#007dba" stroke-miterlimit="10" stroke-width="1.5157"/><path d="m199.5 98.34 91 67.9" fill="none" stroke="#007dba" stroke-miterlimit="10" stroke-width="1.5157"/><path d="m231.37 142.53c-1.12-2.22-2.85-4.14-4.93-5.35-2.13-1.24-4.63-1.84-7.08-1.7-4.94.18-9.57 3.58-11.09 8.22-.79 2.28-.85 4.78-.2 7.03.63 2.26 2.03 4.23 3.77 5.6-2.73-3.54-3.47-8.47-1.82-12.13 1.6-3.66 5.72-6.4 9.65-6.52 3.93-.17 7.96 2.1 9.76 5.59 1.58 3.06 1.19 6.67-.09 9.77-1.34 3.24-3.69 6.18-3.63 9.85.05 3.37 1.85 6.63 4.43 8.75.67.55 1.39 1.03 2.17 1.41 3.17 1.64 7.01 1.63 10.12.25 3.13-1.36 5.54-4.06 6.53-7.16-1.31 2.98-3.96 5.23-6.92 6.11-2.97.91-6.19.44-8.72-1.06-2.72-1.62-4.6-4.4-5.09-7.53-.29-1.89-.02-3.79.71-5.56 1.06-2.57 2.92-4.88 3.55-7.65.62-2.67.1-5.51-1.12-7.92z" fill="#c8102e"/><path d="m283.55 125.06c-.01 0-.02.01-.02.01-.52.04-1.03.17-1.51.42l-20.52 8.25c-.04.02-.07.05-.1.07-1.53.55-2.7 1.73-3.11 3.2l-8.54 13.84c-1.26 2.04-.62 4.74 1.42 6s4.74.62 6-1.42l3.2-5.18c-.2 3.76-.41 7.39-.41 7.39l-10.11 9.24s3.54 4.84 8.12 1.98c0 0 3.53 2.28 6.87-.72s10.91-11.21 10.91-11.21l23.48-18.78c-.02-.01-9.08-14.67-15.68-13.09z" fill="#956841"/><path d="m261.65 146.16c.47-.33.98-.77 1.33-1.26.37-.49.61-1.06.74-1.68.1-.63.05-1.29-.07-1.96-.07-.33-.19-.65-.27-1l-.38-.99c.22.28.42.57.64.86.18.31.35.63.51.96.29.67.46 1.42.45 2.2-.02.78-.28 1.56-.72 2.22-.45.66-1.02 1.18-1.78 1.53-.25.12-.55.01-.67-.24-.11-.22-.03-.49.17-.62z" fill="#704c32"/><path d="m275.19 132.39c-.53 1.01-.84 2.12-.86 3.21-.01.54.02 1.08.15 1.6.1.52.31 1.01.52 1.5l.14.35-.26.23c-.74.64-1.5 1.18-2.31 1.68-.81.49-1.66.92-2.55 1.27-.89.34-1.83.58-2.8.71-.97.11-1.96.06-2.92-.14-.27-.05-.45-.32-.39-.59.05-.27.32-.45.59-.39l.03.01c.84.17 1.71.22 2.58.12.87-.12 1.72-.34 2.55-.65.83-.33 1.63-.73 2.39-1.19s1.51-1 2.16-1.56l-.12.57c-.46-1.13-.59-2.4-.36-3.57.22-1.19.71-2.29 1.46-3.16z" fill="#704c32"/><path d="m312.98 114.19-54.32 46.99c-.97.85-11.86 7.34-11.9 7.29.04-.06 7.72-10.13 8.7-10.97l54.32-46.99c.97-.85 2.49-.71 3.37.31.88 1 .81 2.52-.17 3.37z" fill="#cfcfcf"/><path d="m319.45 155.83c-13.55-6.09-20.24-17.69-20.24-17.69l-16.12 1.62c-2.62 7.55-18.1 8.95-18.1 8.95-11.05-.59-19.48.4-19.17 6.2.19 3.47 7.54 3.99 18.59 4.57.34.02.67.03 1 .04h-.02c9.79.07 13.49 5.31 13.49 5.31l-.01-.1c1.86 1.77 4.19 3.32 6.87 4.47 4.58 1.95 9.28 2.33 13.08 1.38 6.51 2.94 11.39 8.17 11.39 8.17l.02-.04c6.33 6.79 28.53 30.71 28.59 32.35 0 0 17.67-8.05 20.69-31.92z" fill="#956841"/><ellipse cx="249.05" cy="154.52" fill="#c8102e" rx="2.89" ry="4.77" transform="matrix(.0201 -.9998 .9998 .0201 89.5606 400.4149)"/><path d="m261.97 159.41c.78-.01 1.55-.03 2.32-.06.76-.02 1.56-.04 2.34-.01.78.05 1.56.1 2.34.21.77.11 1.55.24 2.3.44.18.05.29.23.24.41-.04.16-.19.26-.35.25-1.54-.1-3.06-.31-4.59-.44l-2.31-.22c-.78-.11-1.56-.23-2.31-.49-.03-.01-.04-.04-.03-.07.01 0 .03-.02.05-.02z" fill="#704c32"/><path d="m261.02 162.76c.66-.57 1.35-1.07 2-1.6l1-.77c.34-.25.66-.52 1-.76.12-.08.28-.05.36.06.07.1.06.23-.01.31-.57.67-1.28 1.19-2 1.66-.75.44-1.51.86-2.35 1.1z" fill="#704c32"/><path d="m357.23 177.66 13.25 6.75c2.27 7.7-6.88 33.35-23.87 33.64l-10.28-10.57c.01 0 20.45-8.86 20.9-29.82z" fill="#c61833"/><path d="m252.17 149.08c.59-.21 1.08-.28 1.63-.38.54-.09 1.08-.15 1.62-.2 1.08-.07 2.18-.1 3.27.05.08.01.14.09.13.17-.01.07-.08.13-.15.13-1.07.02-2.14.07-3.21.17-.53.04-1.07.09-1.6.15-.52.06-1.1.11-1.55.19l-.07.01c-.08.01-.16-.04-.18-.12 0-.08.04-.15.11-.17z" fill="#704c32"/><path d="m75.7 229.83s-13.56 10.14-14.44 9.62c-16.49-7.37-17.37-32.29-17.37-32.29l15.53-6.37z" fill="#c61833"/><path d="m59.03 200.89s-3.86 23.49 16.61 28.89l40.06-33.1s21.31-6.49 32.34-19.03c0 0 14.8-11.49 14.85-11.75-.4-1.31-6.44-4.36-20.37 3.33-9.71 5.36-11.88-2.94-10.82-6.86s5.54-19.16 12.94-26.64c7.56-7.64 2.8-10.87 2.8-10.87s.59-3.14-2.35-3.97l-6.27 5.19s.67-2.72-1.48-4.08l-12.46 11.61s.77-2.69-1.5-3.95l-10.73 11.28c-.72.94-1.47 1.93-1.72 3.12-1.06 5.05-2.01 20.54-11.02 33.48-7.65 11.03-22.04 17.03-40.88 23.35z" fill="#956841"/><path d="m163.68 165.33c-.23-.42-2.88-.9-5.22 1.01-1.93 1.57-2.71 3.74-2.01 4.74.15.2 7.47-5.33 7.23-5.75z" fill="#c8102e"/><g fill="#704c32"><path d="m142.94 128.52c-1.88 1.62-3.68 3.32-5.4 5.09-1.73 1.76-3.36 3.61-4.89 5.54s-2.87 4-4.09 6.13c-1.16 2.17-2.09 4.45-2.76 6.85 0 0-.01.01-.01.01s-.01-.01-.01-.01c.41-2.45 1.23-4.83 2.32-7.08 1.12-2.23 2.52-4.32 4.02-6.31 1.54-1.96 3.24-3.79 5.04-5.52 1.81-1.71 3.72-3.32 5.78-4.7z"/><path d="m138.3 127.01c-1.96 1.69-3.87 3.42-5.74 5.2-1.85 1.8-3.7 3.59-5.41 5.52-1.71 1.92-3.38 3.88-4.78 6.04-1.4 2.13-2.68 4.43-2.99 7.02-.01-2.63 1.17-5.11 2.47-7.35.67-1.12 1.43-2.19 2.22-3.22.79-1.04 1.62-2.05 2.5-3.01 1.75-1.92 3.58-3.78 5.52-5.5 1.93-1.74 3.93-3.4 6.04-4.92.06-.04.15-.03.19.03s.03.14-.02.19z"/><path d="m124.26 134.12c-1.16 1-2.2 2.11-3.17 3.28-.95 1.18-1.86 2.39-2.61 3.71-.77 1.3-1.48 2.64-2.04 4.05-.61 1.39-1.04 2.84-1.49 4.3-.01.03-.04.05-.06.04-.03-.01-.04-.03-.04-.06.14-.75.26-1.51.45-2.26.21-.74.41-1.48.69-2.2.52-1.45 1.22-2.83 2.01-4.16.81-1.31 1.73-2.56 2.78-3.69 1.04-1.12 2.19-2.17 3.48-3.01z"/><path d="m132.49 140.69c.57.38 1.12.58 1.72.73.59.15 1.2.24 1.87.42-.31.15-.65.25-1 .27-.34.02-.7 0-1.04-.1s-.67-.24-.94-.48c-.27-.22-.52-.5-.61-.84z"/><path d="m127.49 138.32c.12.24.34.38.54.5.2.14.43.2.66.27.24.08.49.08.74.13.26.02.52.03.8.06-.5.22-1.07.31-1.63.19-.28-.04-.56-.18-.78-.37-.21-.21-.4-.49-.33-.78z"/><path d="m148.74 172.58c-.14.62-.18 1.28-.05 1.88.07.3.18.58.34.81.17.23.39.39.64.51l.02.01c.16.08.22.27.15.43-.08.16-.27.22-.43.15-.01 0-.02-.01-.02-.01-.33-.2-.62-.46-.81-.79-.18-.33-.28-.68-.32-1.03-.07-.7.04-1.38.25-2.02.02-.07.09-.11.16-.08.06.02.1.09.09.15z"/><path d="m120.38 138.77c.18.2.35.33.53.4.18.08.37.12.58.15s.43.02.67.04c.23 0 .47-.01.74.02-.4.32-.91.51-1.46.47-.27-.01-.56-.12-.78-.31-.21-.21-.34-.5-.28-.77z"/><path d="m112.45 142.67c.15.08.4.14.64.16s.5.01.75 0c.52-.05 1.05-.14 1.59-.23.05-.01.11.03.12.08.01.04-.02.09-.05.11-.49.26-1.02.46-1.59.55-.29.05-.58.06-.88.01-.3-.07-.62-.16-.82-.52-.04-.07-.01-.15.05-.18.04-.02.09-.02.13 0z"/></g><path d="m148.92 123.29c-.48-.44-4.33 3.45-4.08 3.76.4.5 1.77-.05 2.9-1.09s1.66-2.23 1.18-2.67z" fill="#c8102e"/><path d="m146.46 119.77c-.6-.55-4.79 3.88-4.48 4.16.6.55 2.1.07 3.33-1.08s1.76-2.53 1.15-3.08z" fill="#c8102e"/><path d="m138.09 121.73c-.6-.56-4.56 3.66-4.34 3.88.58.58 2 .16 3.13-.87s1.81-2.45 1.21-3.01z" fill="#c8102e"/><path d="m124.15 129.13c-.6-.56-3.94 3.7-3.88 3.79.46.66 1.87.08 2.98-.94 1.1-1.02 1.51-2.29.9-2.85z" fill="#c8102e"/><path d="m352.5 85.12c-3.07-1.13-6.04-2.39-8.97-3.79-2.93-1.37-5.82-2.84-8.66-4.42-5.66-3.16-11.15-6.7-16.21-10.84-2.52-2.08-4.97-4.25-7.26-6.61-2.27-2.38-4.41-4.89-6.28-7.65-1.85-2.76-3.42-5.79-4.28-9.15-.88-3.35-.81-7.04.16-10.55l.02-.07c.31-1.14 1.49-1.81 2.63-1.49 1.14.31 1.81 1.49 1.49 2.63-.05.16-.11.33-.19.47-1.38 2.49-1.79 5.48-1.27 8.4.51 2.93 1.9 5.74 3.65 8.28 3.52 5.12 8.41 9.25 13.47 12.99 5.12 3.7 10.46 7.12 15.94 10.34 2.74 1.61 5.5 3.19 8.29 4.73 2.8 1.51 5.62 3.04 8.43 4.49l.02.01c.6.31.84 1.04.53 1.64-.29.56-.94.8-1.51.59z" fill="#c8102e"/><path d="m289.46 47.07c2.71 1.64 5.5 3.24 8.25 4.84 2.78 1.57 5.58 3.1 8.39 4.59 5.63 2.98 11.36 5.74 17.2 8.16 5.85 2.35 11.95 4.35 18.17 4.67 3.08.16 6.21-.12 8.99-1.21 2.78-1.07 5.13-2.97 6.57-5.44.59-1.02 1.9-1.37 2.92-.78s1.37 1.9.78 2.92c-.08.15-.18.28-.29.4l-.06.06c-2.51 2.63-5.64 4.59-8.96 5.58-3.32 1.02-6.73 1.26-10.06 1.13-3.33-.15-6.6-.66-9.82-1.35-3.21-.71-6.36-1.67-9.45-2.72-6.19-2.14-12.1-4.96-17.77-8.13-2.84-1.59-5.61-3.28-8.32-5.07-2.73-1.77-5.37-3.63-7.94-5.66-.53-.42-.62-1.18-.2-1.71.39-.49 1.07-.6 1.59-.29z" fill="#c8102e"/><ellipse cx="340.38" cy="75.67" fill="#a4c7e1" opacity=".61" rx="15.45" ry="15.67" transform="matrix(.279 -.9603 .9603 .279 172.771 381.4304)"/><ellipse cx="302.83" cy="54.19" fill="#a4c7e1" opacity=".61" rx="15.45" ry="15.67" transform="matrix(.279 -.9603 .9603 .279 166.3207 329.8838)"/><ellipse cx="340.38" cy="75.67" fill="none" rx="15.45" ry="15.67" stroke="#c8102e" stroke-linecap="round" stroke-miterlimit="10" stroke-width="2.4372" transform="matrix(.279 -.9603 .9603 .279 172.771 381.4304)"/><ellipse cx="302.83" cy="54.19" fill="none" rx="15.45" ry="15.67" stroke="#c8102e" stroke-linecap="round" stroke-miterlimit="10" stroke-width="2.4372" transform="matrix(.279 -.9603 .9603 .279 166.3207 329.8838)"/></svg>