<?xml version="1.0" encoding="utf-8"?>
<!-- Generator: Adobe Illustrator 24.0.3, SVG Export Plug-In . SVG Version: 6.00 Build 0)  -->
<svg version="1.1" xmlns="http://www.w3.org/2000/svg" xmlns:xlink="http://www.w3.org/1999/xlink" x="0px" y="0px"
	 viewBox="0 0 432 288" style="enable-background:new 0 0 432 288;" xml:space="preserve">
<style type="text/css">
	.st0{display:none;}
	.st1{fill:#FFFFFF;}
	.st2{fill:none;stroke:#8A8F91;stroke-width:5.486;stroke-linecap:round;stroke-miterlimit:10;}
	.st3{fill:none;stroke:#8A8F91;stroke-width:5.486;stroke-linecap:round;stroke-miterlimit:10;stroke-dasharray:16.4149,16.4149;}
	.st4{fill:#90374E;}
	.st5{fill:#C8102E;}
	.st6{fill:#A4C7E1;}
	.st7{fill:#F7F7F7;}
	.st8{fill:none;stroke:#75ABD2;stroke-width:2.8499;stroke-linecap:round;stroke-miterlimit:10;}
	.st9{fill:none;stroke:#BED6E5;stroke-width:2.9507;stroke-linecap:round;stroke-miterlimit:10;}
	.st10{fill:none;stroke:#8A8F91;stroke-width:5.486;stroke-linecap:round;stroke-miterlimit:10;stroke-dasharray:16.621,16.621;}
	.st11{opacity:0.62;fill:#808080;}
	.st12{fill:#EDA302;}
	.st13{fill:#246281;}
	.st14{fill:#007DBB;}
	.st15{fill:none;stroke:#FFFFFF;stroke-width:2.255;stroke-miterlimit:10;}
	.st16{fill:none;stroke:#FFFFFF;stroke-width:5.3676;stroke-miterlimit:10;}
	.st17{opacity:0.74;fill:#A4C7E1;stroke:#FFFFFF;stroke-width:2.6838;stroke-miterlimit:10;}
	.st18{fill:#404040;}
	.st19{opacity:0.67;fill:none;stroke:#FFFFFF;stroke-width:5.3676;stroke-linecap:round;stroke-miterlimit:10;}
	.st20{opacity:0.68;fill:#E8E7E5;}
	.st21{fill:#808080;}
	.st22{fill:#BEBEBE;}
	.st23{fill:#CFCFCF;}
	.st24{fill:none;stroke:#F7DA9A;stroke-width:2.3278;stroke-miterlimit:10;}
	.st25{fill:none;stroke:#C8102E;stroke-width:2.3278;stroke-linecap:round;stroke-miterlimit:10;}
	.st26{fill:none;stroke:#C8102E;stroke-width:3.0641;stroke-linecap:round;stroke-miterlimit:10;}
	.st27{fill:none;stroke:#808080;stroke-width:2.3278;stroke-linecap:round;stroke-miterlimit:10;}
	.st28{fill:none;stroke:#007DBA;stroke-width:2.3278;stroke-linecap:round;stroke-miterlimit:10;}
	.st29{fill:none;stroke:#C8102E;stroke-width:2.4803;stroke-linecap:round;stroke-miterlimit:10;}
	.st30{fill:#F8DA96;}
	.st31{fill:#770A1A;}
	.st32{fill:#8E4F16;}
	.st33{fill:#8C0727;}
	.st34{fill:#EDA102;}
	.st35{fill:#F8DB9A;}
	.st36{fill:#333333;}
	.st37{fill:none;stroke:#BD7F00;stroke-width:0.5102;stroke-linecap:round;stroke-miterlimit:10;}
	.st38{fill:#E38796;}
	.st39{opacity:0.54;fill:none;stroke:#808080;stroke-width:0.3492;stroke-linecap:round;stroke-miterlimit:10;}
	.st40{fill:none;stroke:#333333;stroke-width:0.5919;stroke-linecap:round;stroke-miterlimit:10;}
	.st41{fill:#EACA8B;}
	.st42{fill:#E5B75C;}
	.st43{fill:#814B1C;}
	.st44{fill:#F3F3F3;}
	.st45{fill:none;stroke:#BEBEBE;stroke-width:2.498;stroke-linecap:round;stroke-miterlimit:10;}
	.st46{fill:none;stroke:#BEBEBE;stroke-width:2.6366;stroke-linecap:round;stroke-miterlimit:10;}
	.st47{fill:none;stroke:#BEBEBE;stroke-width:2.3274;stroke-linecap:round;stroke-miterlimit:10;}
	.st48{fill:none;stroke:#C8102E;stroke-width:2.2127;stroke-linecap:round;stroke-linejoin:round;stroke-miterlimit:10;}
	.st49{fill:none;stroke:#C8102E;stroke-width:2.3598;stroke-linecap:round;stroke-linejoin:round;stroke-miterlimit:10;}
	.st50{fill:none;stroke:#C8102E;stroke-width:2.2212;stroke-linecap:round;stroke-linejoin:round;stroke-miterlimit:10;}
	.st51{fill:none;stroke:#BEBEBE;stroke-width:1.2696;stroke-miterlimit:10;}
	.st52{fill:#76ACD2;}
	.st53{fill:#4990C3;}
	.st54{fill:#007DBA;}
	.st55{fill:#F4C766;}
	.st56{fill:#F5BE40;}
	.st57{fill:#F7DA9A;}
	.st58{fill:none;}
	.st59{fill:#D64C62;}
	.st60{fill:#F1C3CB;}
	.st61{clip-path:url(#SVGID_2_);fill:#C8102E;}
	.st62{opacity:0.54;fill:none;stroke:#808080;stroke-width:0.4206;stroke-linecap:round;stroke-miterlimit:10;}
	.st63{fill:none;stroke:#BD7F00;stroke-width:0.6145;stroke-linecap:round;stroke-miterlimit:10;}
	.st64{fill:none;stroke:#BD7F00;stroke-width:0.6283;stroke-linecap:round;stroke-miterlimit:10;}
	.st65{fill:#F3C766;}
	.st66{clip-path:url(#SVGID_4_);fill:#F3C766;}
	.st67{clip-path:url(#SVGID_4_);fill:#404040;}
	.st68{fill:none;stroke:#808080;stroke-width:2.6723;stroke-linecap:round;stroke-miterlimit:10;}
	.st69{fill:none;stroke:#BEBEBE;stroke-width:2.6723;stroke-linecap:round;stroke-miterlimit:10;}
	.st70{fill:none;stroke:#F5BE40;stroke-width:2.6723;stroke-miterlimit:10;}
	.st71{fill:#40C6B2;}
	.st72{fill:none;stroke:#C8102E;stroke-width:2.0043;stroke-linecap:round;stroke-linejoin:round;stroke-miterlimit:10;}
	.st73{fill:none;stroke:#808080;stroke-width:1.3362;stroke-linecap:round;stroke-miterlimit:10;}
	.st74{opacity:0.54;fill:none;stroke:#808080;stroke-width:0.4873;stroke-linecap:round;stroke-miterlimit:10;}
	.st75{fill:none;stroke:#BD7F00;stroke-width:0.712;stroke-linecap:round;stroke-miterlimit:10;}
	.st76{fill:none;stroke:#BD7F00;stroke-width:0.728;stroke-linecap:round;stroke-miterlimit:10;}
	.st77{fill:#A00523;}
	.st78{fill:#D0D0D0;}
	.st79{fill:#FBFAFB;}
	.st80{fill:none;stroke:#007DBA;stroke-width:1.505;stroke-miterlimit:10;}
	.st81{fill:none;stroke:#007DBA;stroke-width:1.5157;stroke-miterlimit:10;}
	.st82{fill:#956841;}
	.st83{fill:#704C32;}
	.st84{fill:#C61833;}
	.st85{opacity:0.61;fill:#A4C7E1;}
	.st86{fill:none;stroke:#C8102E;stroke-width:2.4372;stroke-linecap:round;stroke-miterlimit:10;}
	.st87{fill:none;stroke:#D64C62;stroke-width:4.4275;stroke-linecap:square;stroke-miterlimit:10;}
	.st88{fill:#9B122C;}
	.st89{fill:#EAE8E8;}
	.st90{fill:#F2F2F2;}
	.st91{opacity:0.97;fill:#EAE8E8;}
	.st92{fill:#EAEAEA;}
	.st93{fill:#FFFDFD;}
	.st94{fill:#01947E;}
	.st95{opacity:0.35;fill:#8CB5AD;}
	.st96{fill:#A3CEC6;}
	.st97{fill:none;stroke:#CFCFCF;stroke-width:0.5;stroke-miterlimit:10;}
</style>
<g id="Layer_17" class="st0">
</g>
<g id="Layer_19">
</g>
<g id="Layer_1" class="st0">
</g>
<g id="News_And_Updates">
	<g id="Layer_2">
	</g>
</g>
<g id="Components">
	<g id="Layer_5">
	</g>
</g>
<g id="Developer_Basics">
</g>
<g id="Foundations">
</g>
<g id="Utilities">
	<g id="Layer_9">
		<g id="Layer_12">
		</g>
	</g>
</g>
<g id="Designer_Basics">
	<g>
		<path class="st18" d="M253.04,241.37L137.22,154.5c-2.38-1.79-2.87-5.17-1.08-7.55l61.5-82c1.79-2.38,5.17-2.87,7.55-1.08
			l115.82,86.86c2.38,1.79,2.87,5.17,1.08,7.55l-61.5,82C258.81,242.67,255.43,243.15,253.04,241.37z"/>
		<path class="st21" d="M251.33,233.47l-106.48-79.86c-2.62-1.96-3.15-5.68-1.19-8.3l54.64-72.85c1.96-2.62,5.68-3.15,8.3-1.19
			l106.48,79.86c2.62,1.96,3.15,5.68,1.19,8.3l-54.64,72.85C257.66,234.9,253.95,235.44,251.33,233.47z"/>
		
			<rect x="148.15" y="113.61" transform="matrix(0.598 -0.8015 0.8015 0.598 -21.8009 186.5622)" class="st78" width="53.89" height="2.81"/>
		
			<rect x="189.98" y="101.32" transform="matrix(0.598 -0.8015 0.8015 0.598 -30.768 245.777)" class="st79" width="79.32" height="104.49"/>
		<path class="st80" d="M168.8,167.33c2.06-1.97,56.05-75.11,56.05-75.11"/>
		<path class="st80" d="M233.81,213.55c2.06-1.97,56.05-75.11,56.05-75.11"/>
		<line class="st81" x1="167.23" y1="142.36" x2="258.23" y2="210.26"/>
		<line class="st81" x1="199.5" y1="98.34" x2="290.5" y2="166.24"/>
		<path class="st5" d="M231.37,142.53c-1.12-2.22-2.85-4.14-4.93-5.35c-2.13-1.24-4.63-1.84-7.08-1.7
			c-4.94,0.18-9.57,3.58-11.09,8.22c-0.79,2.28-0.85,4.78-0.2,7.03c0.63,2.26,2.03,4.23,3.77,5.6c-2.73-3.54-3.47-8.47-1.82-12.13
			c1.6-3.66,5.72-6.4,9.65-6.52c3.93-0.17,7.96,2.1,9.76,5.59c1.58,3.06,1.19,6.67-0.09,9.77c-1.34,3.24-3.69,6.18-3.63,9.85
			c0.05,3.37,1.85,6.63,4.43,8.75c0.67,0.55,1.39,1.03,2.17,1.41c3.17,1.64,7.01,1.63,10.12,0.25c3.13-1.36,5.54-4.06,6.53-7.16
			c-1.31,2.98-3.96,5.23-6.92,6.11c-2.97,0.91-6.19,0.44-8.72-1.06c-2.72-1.62-4.6-4.4-5.09-7.53c-0.29-1.89-0.02-3.79,0.71-5.56
			c1.06-2.57,2.92-4.88,3.55-7.65C233.11,147.78,232.59,144.94,231.37,142.53z"/>
	</g>
	<g>
		<path class="st82" d="M283.55,125.06c-0.01,0-0.02,0.01-0.02,0.01c-0.52,0.04-1.03,0.17-1.51,0.42l-20.52,8.25
			c-0.04,0.02-0.07,0.05-0.1,0.07c-1.53,0.55-2.7,1.73-3.11,3.2l-8.54,13.84c-1.26,2.04-0.62,4.74,1.42,6
			c2.04,1.26,4.74,0.62,6-1.42l3.2-5.18c-0.2,3.76-0.41,7.39-0.41,7.39l-10.11,9.24c0,0,3.54,4.84,8.12,1.98
			c0,0,3.53,2.28,6.87-0.72c3.34-3,10.91-11.21,10.91-11.21l23.48-18.78C299.21,138.14,290.15,123.48,283.55,125.06z"/>
		<g>
			<path class="st83" d="M261.65,146.16c0.47-0.33,0.98-0.77,1.33-1.26c0.37-0.49,0.61-1.06,0.74-1.68c0.1-0.63,0.05-1.29-0.07-1.96
				c-0.07-0.33-0.19-0.65-0.27-1l-0.38-0.99c0.22,0.28,0.42,0.57,0.64,0.86c0.18,0.31,0.35,0.63,0.51,0.96
				c0.29,0.67,0.46,1.42,0.45,2.2c-0.02,0.78-0.28,1.56-0.72,2.22c-0.45,0.66-1.02,1.18-1.78,1.53c-0.25,0.12-0.55,0.01-0.67-0.24
				c-0.11-0.22-0.03-0.49,0.17-0.62L261.65,146.16z"/>
		</g>
		<g>
			<path class="st83" d="M275.19,132.39c-0.53,1.01-0.84,2.12-0.86,3.21c-0.01,0.54,0.02,1.08,0.15,1.6c0.1,0.52,0.31,1.01,0.52,1.5
				l0,0l0.14,0.35l-0.26,0.23c-0.74,0.64-1.5,1.18-2.31,1.68c-0.81,0.49-1.66,0.92-2.55,1.27c-0.89,0.34-1.83,0.58-2.8,0.71
				c-0.97,0.11-1.96,0.06-2.92-0.14c-0.27-0.05-0.45-0.32-0.39-0.59c0.05-0.27,0.32-0.45,0.59-0.39l0.03,0.01
				c0.84,0.17,1.71,0.22,2.58,0.12c0.87-0.12,1.72-0.34,2.55-0.65c0.83-0.33,1.63-0.73,2.39-1.19c0.76-0.46,1.51-1,2.16-1.56
				l-0.12,0.57l0,0c-0.46-1.13-0.59-2.4-0.36-3.57C273.95,134.36,274.44,133.26,275.19,132.39z"/>
		</g>
		<path class="st23" d="M312.98,114.19l-54.32,46.99c-0.97,0.85-11.86,7.34-11.9,7.29v0c0.04-0.06,7.72-10.13,8.7-10.97l54.32-46.99
			c0.97-0.85,2.49-0.71,3.37,0.31v0C314.03,111.82,313.96,113.34,312.98,114.19z"/>
		<path class="st82" d="M319.45,155.83L319.45,155.83c-13.55-6.09-20.24-17.69-20.24-17.69l-16.12,1.62
			c-2.62,7.55-18.1,8.95-18.1,8.95c-11.05-0.59-19.48,0.4-19.17,6.2c0.19,3.47,7.54,3.99,18.59,4.57c0.34,0.02,0.67,0.03,1,0.04
			l-0.02,0c9.79,0.07,13.49,5.31,13.49,5.31l-0.01-0.1c1.86,1.77,4.19,3.32,6.87,4.47c4.58,1.95,9.28,2.33,13.08,1.38
			c6.51,2.94,11.39,8.17,11.39,8.17l0.02-0.04c6.33,6.79,28.53,30.71,28.59,32.35c0,0,17.67-8.05,20.69-31.92L319.45,155.83z"/>
		
			<ellipse transform="matrix(0.0201 -0.9998 0.9998 0.0201 89.5606 400.4149)" class="st5" cx="249.05" cy="154.52" rx="2.89" ry="4.77"/>
		<g>
			<path class="st83" d="M261.97,159.41c0.78-0.01,1.55-0.03,2.32-0.06c0.76-0.02,1.56-0.04,2.34-0.01c0.78,0.05,1.56,0.1,2.34,0.21
				c0.77,0.11,1.55,0.24,2.3,0.44c0.18,0.05,0.29,0.23,0.24,0.41c-0.04,0.16-0.19,0.26-0.35,0.25c-1.54-0.1-3.06-0.31-4.59-0.44
				l-2.31-0.22c-0.78-0.11-1.56-0.23-2.31-0.49c-0.03-0.01-0.04-0.04-0.03-0.07C261.93,159.43,261.95,159.41,261.97,159.41z"/>
		</g>
		<g>
			<path class="st83" d="M261.02,162.76c0.66-0.57,1.35-1.07,2-1.6l1-0.77c0.34-0.25,0.66-0.52,1-0.76l0,0
				c0.12-0.08,0.28-0.05,0.36,0.06c0.07,0.1,0.06,0.23-0.01,0.31c-0.57,0.67-1.28,1.19-2,1.66
				C262.62,162.1,261.86,162.52,261.02,162.76z"/>
		</g>
		<path class="st84" d="M357.23,177.66l13.25,6.75c2.27,7.7-6.88,33.35-23.87,33.64l-10.28-10.57
			C336.34,207.48,356.78,198.62,357.23,177.66z"/>
	</g>
	<g>
		<path class="st83" d="M252.17,149.08c0.59-0.21,1.08-0.28,1.63-0.38c0.54-0.09,1.08-0.15,1.62-0.2c1.08-0.07,2.18-0.1,3.27,0.05
			c0.08,0.01,0.14,0.09,0.13,0.17c-0.01,0.07-0.08,0.13-0.15,0.13c-1.07,0.02-2.14,0.07-3.21,0.17c-0.53,0.04-1.07,0.09-1.6,0.15
			c-0.52,0.06-1.1,0.11-1.55,0.19l-0.07,0.01c-0.08,0.01-0.16-0.04-0.18-0.12C252.06,149.17,252.1,149.1,252.17,149.08z"/>
	</g>
	<path class="st84" d="M75.7,229.83c0,0-13.56,10.14-14.44,9.62c-16.49-7.37-17.37-32.29-17.37-32.29l15.53-6.37L75.7,229.83z"/>
	<g id="Layer_13">
		<g>
			<path class="st82" d="M59.03,200.89c0,0-3.86,23.49,16.61,28.89l40.06-33.1c0,0,21.31-6.49,32.34-19.03
				c0,0,14.8-11.49,14.85-11.75c-0.4-1.31-6.44-4.36-20.37,3.33c-9.71,5.36-11.88-2.94-10.82-6.86s5.54-19.16,12.94-26.64
				c7.56-7.64,2.8-10.87,2.8-10.87s0.59-3.14-2.35-3.97l-6.27,5.19c0,0,0.67-2.72-1.48-4.08l-12.46,11.61c0,0,0.77-2.69-1.5-3.95
				l-10.73,11.28c-0.72,0.94-1.47,1.93-1.72,3.12c-1.06,5.05-2.01,20.54-11.02,33.48C92.26,188.57,77.87,194.57,59.03,200.89z"/>
			<path class="st5" d="M163.68,165.33c-0.23-0.42-2.88-0.9-5.22,1.01c-1.93,1.57-2.71,3.74-2.01,4.74
				C156.6,171.28,163.92,165.75,163.68,165.33z"/>
			<g>
				<path class="st83" d="M142.94,128.52c-1.88,1.62-3.68,3.32-5.4,5.09c-1.73,1.76-3.36,3.61-4.89,5.54
					c-1.53,1.93-2.87,4-4.09,6.13c-1.16,2.17-2.09,4.45-2.76,6.85c0,0-0.01,0.01-0.01,0.01c0,0-0.01-0.01-0.01-0.01
					c0.41-2.45,1.23-4.83,2.32-7.08c1.12-2.23,2.52-4.32,4.02-6.31c1.54-1.96,3.24-3.79,5.04-5.52
					C138.97,131.51,140.88,129.9,142.94,128.52z"/>
			</g>
			<g>
				<path class="st83" d="M138.3,127.01c-1.96,1.69-3.87,3.42-5.74,5.2c-1.85,1.8-3.7,3.59-5.41,5.52
					c-1.71,1.92-3.38,3.88-4.78,6.04c-1.4,2.13-2.68,4.43-2.99,7.02c-0.01-2.63,1.17-5.11,2.47-7.35c0.67-1.12,1.43-2.19,2.22-3.22
					c0.79-1.04,1.62-2.05,2.5-3.01c1.75-1.92,3.58-3.78,5.52-5.5c1.93-1.74,3.93-3.4,6.04-4.92c0.06-0.04,0.15-0.03,0.19,0.03
					C138.36,126.88,138.35,126.96,138.3,127.01z"/>
			</g>
			<g>
				<path class="st83" d="M124.26,134.12c-1.16,1-2.2,2.11-3.17,3.28c-0.95,1.18-1.86,2.39-2.61,3.71c-0.77,1.3-1.48,2.64-2.04,4.05
					c-0.61,1.39-1.04,2.84-1.49,4.3c-0.01,0.03-0.04,0.05-0.06,0.04c-0.03-0.01-0.04-0.03-0.04-0.06c0.14-0.75,0.26-1.51,0.45-2.26
					c0.21-0.74,0.41-1.48,0.69-2.2c0.52-1.45,1.22-2.83,2.01-4.16c0.81-1.31,1.73-2.56,2.78-3.69
					C121.82,136.01,122.97,134.96,124.26,134.12z"/>
			</g>
			<g>
				<path class="st83" d="M132.49,140.69c0.57,0.38,1.12,0.58,1.72,0.73c0.59,0.15,1.2,0.24,1.87,0.42c-0.31,0.15-0.65,0.25-1,0.27
					c-0.34,0.02-0.7,0-1.04-0.1c-0.34-0.1-0.67-0.24-0.94-0.48C132.83,141.31,132.58,141.03,132.49,140.69z"/>
			</g>
			<g>
				<path class="st83" d="M127.49,138.32c0.12,0.24,0.34,0.38,0.54,0.5c0.2,0.14,0.43,0.2,0.66,0.27c0.24,0.08,0.49,0.08,0.74,0.13
					c0.26,0.02,0.52,0.03,0.8,0.06c-0.5,0.22-1.07,0.31-1.63,0.19c-0.28-0.04-0.56-0.18-0.78-0.37
					C127.61,138.89,127.42,138.61,127.49,138.32z"/>
			</g>
			<g>
				<path class="st83" d="M148.74,172.58c-0.14,0.62-0.18,1.28-0.05,1.88c0.07,0.3,0.18,0.58,0.34,0.81
					c0.17,0.23,0.39,0.39,0.64,0.51l0.02,0.01c0.16,0.08,0.22,0.27,0.15,0.43c-0.08,0.16-0.27,0.22-0.43,0.15
					c-0.01,0-0.02-0.01-0.02-0.01c-0.33-0.2-0.62-0.46-0.81-0.79c-0.18-0.33-0.28-0.68-0.32-1.03c-0.07-0.7,0.04-1.38,0.25-2.02
					c0.02-0.07,0.09-0.11,0.16-0.08c0.06,0.02,0.1,0.09,0.09,0.15L148.74,172.58z"/>
			</g>
			<g>
				<path class="st83" d="M120.38,138.77c0.18,0.2,0.35,0.33,0.53,0.4c0.18,0.08,0.37,0.12,0.58,0.15c0.21,0.03,0.43,0.02,0.67,0.04
					c0.23,0,0.47-0.01,0.74,0.02c-0.4,0.32-0.91,0.51-1.46,0.47c-0.27-0.01-0.56-0.12-0.78-0.31
					C120.45,139.33,120.32,139.04,120.38,138.77z"/>
			</g>
			<g>
				<path class="st83" d="M112.45,142.67c0.15,0.08,0.4,0.14,0.64,0.16c0.24,0.02,0.5,0.01,0.75,0c0.52-0.05,1.05-0.14,1.59-0.23
					c0.05-0.01,0.11,0.03,0.12,0.08c0.01,0.04-0.02,0.09-0.05,0.11c-0.49,0.26-1.02,0.46-1.59,0.55c-0.29,0.05-0.58,0.06-0.88,0.01
					c-0.3-0.07-0.62-0.16-0.82-0.52c-0.04-0.07-0.01-0.15,0.05-0.18c0.04-0.02,0.09-0.02,0.13,0L112.45,142.67z"/>
			</g>
			<path class="st5" d="M148.92,123.29c-0.48-0.44-4.33,3.45-4.08,3.76c0.4,0.5,1.77-0.05,2.9-1.09S149.4,123.73,148.92,123.29z"/>
			<path class="st5" d="M146.46,119.77c-0.6-0.55-4.79,3.88-4.48,4.16c0.6,0.55,2.1,0.07,3.33-1.08S147.07,120.32,146.46,119.77z"/>
			<path class="st5" d="M138.09,121.73c-0.6-0.56-4.56,3.66-4.34,3.88c0.58,0.58,2,0.16,3.13-0.87S138.69,122.29,138.09,121.73z"/>
			<path class="st5" d="M124.15,129.13c-0.6-0.56-3.94,3.7-3.88,3.79c0.46,0.66,1.87,0.08,2.98-0.94
				C124.35,130.96,124.76,129.69,124.15,129.13z"/>
		</g>
	</g>
	<g>
		<g>
			<path class="st5" d="M352.5,85.12c-3.07-1.13-6.04-2.39-8.97-3.79c-2.93-1.37-5.82-2.84-8.66-4.42
				c-5.66-3.16-11.15-6.7-16.21-10.84c-2.52-2.08-4.97-4.25-7.26-6.61c-2.27-2.38-4.41-4.89-6.28-7.65
				c-1.85-2.76-3.42-5.79-4.28-9.15c-0.88-3.35-0.81-7.04,0.16-10.55l0.02-0.07c0.31-1.14,1.49-1.81,2.63-1.49
				c1.14,0.31,1.81,1.49,1.49,2.63c-0.05,0.16-0.11,0.33-0.19,0.47c-1.38,2.49-1.79,5.48-1.27,8.4c0.51,2.93,1.9,5.74,3.65,8.28
				c3.52,5.12,8.41,9.25,13.47,12.99c5.12,3.7,10.46,7.12,15.94,10.34c2.74,1.61,5.5,3.19,8.29,4.73c2.8,1.51,5.62,3.04,8.43,4.49
				l0.02,0.01c0.6,0.31,0.84,1.04,0.53,1.64C353.72,85.09,353.07,85.33,352.5,85.12z"/>
		</g>
		<g>
			<path class="st5" d="M289.46,47.07c2.71,1.64,5.5,3.24,8.25,4.84c2.78,1.57,5.58,3.1,8.39,4.59c5.63,2.98,11.36,5.74,17.2,8.16
				c5.85,2.35,11.95,4.35,18.17,4.67c3.08,0.16,6.21-0.12,8.99-1.21c2.78-1.07,5.13-2.97,6.57-5.44c0.59-1.02,1.9-1.37,2.92-0.78
				c1.02,0.59,1.37,1.9,0.78,2.92c-0.08,0.15-0.18,0.28-0.29,0.4l-0.06,0.06c-2.51,2.63-5.64,4.59-8.96,5.58
				c-3.32,1.02-6.73,1.26-10.06,1.13c-3.33-0.15-6.6-0.66-9.82-1.35c-3.21-0.71-6.36-1.67-9.45-2.72
				c-6.19-2.14-12.1-4.96-17.77-8.13c-2.84-1.59-5.61-3.28-8.32-5.07c-2.73-1.77-5.37-3.63-7.94-5.66c-0.53-0.42-0.62-1.18-0.2-1.71
				c0.39-0.49,1.07-0.6,1.59-0.29L289.46,47.07z"/>
		</g>
		
			<ellipse transform="matrix(0.279 -0.9603 0.9603 0.279 172.771 381.4304)" class="st85" cx="340.38" cy="75.67" rx="15.45" ry="15.67"/>
		
			<ellipse transform="matrix(0.279 -0.9603 0.9603 0.279 166.3207 329.8838)" class="st85" cx="302.83" cy="54.19" rx="15.45" ry="15.67"/>
		
			<ellipse transform="matrix(0.279 -0.9603 0.9603 0.279 172.771 381.4304)" class="st86" cx="340.38" cy="75.67" rx="15.45" ry="15.67"/>
		
			<ellipse transform="matrix(0.279 -0.9603 0.9603 0.279 166.3207 329.8838)" class="st86" cx="302.83" cy="54.19" rx="15.45" ry="15.67"/>
	</g>
</g>
<g id="Guides">
</g>
<g id="Layer_14">
</g>
<g id="Layer_18">
</g>
<g id="Layer_15">
</g>
<g id="Layer_20">
</g>
<g id="Layer_16">
</g>
<g id="Layer_21">
</g>
<g id="Layer_22">
</g>
</svg>
