<svg enable-background="new 0 0 432 288" viewBox="0 0 432 288" xmlns="http://www.w3.org/2000/svg"><path d="m-1.13 176.38h433.01v66.01h-433.01z" fill="#e8e7e5" opacity=".68"/><path d="m205.77 155.11c0 .53 10.7 36.14-23.51 42.46l42.64 2.28s22.02-11.59 14.47-45.28z" fill="#808080"/><path d="m203.38 154.84c0 .53 7.22 34.62-24 42.27l38.57 2.03s22.02-11.59 14.47-45.28z" fill="#bebebe"/><path d="m284.83 156.98-139.99-.9c-10.9 0-18.92-7.32-18.92-18.22v-87.77c0-10.9 8.91-19.81 19.81-19.81l136.81-.8c10.9 0 21.91 6.82 21.91 17.71l.38 91.76c0 10.9-9.1 18.03-20 18.03z" fill="#bebebe"/><path d="m280.53 156.89h-140.9c-10.9 0-19.81-8.91-19.81-19.81v-87.78c0-10.9 8.91-19.81 19.81-19.81h140.9c10.9 0 19.81 8.91 19.81 19.81v87.78c0 10.9-8.91 19.81-19.81 19.81z" fill="#cfcfcf"/><circle cx="210.03" cy="150.32" fill="#404040" r="2.61"/><path d="m241.1 200.07-56.51-.09c0-4.52 4-8.19 8.93-8.18l38.65.06c4.93.01 8.93 3.69 8.93 8.21z" fill="#808080"/><path d="m132.24 41.06h155.02v102.48h-155.02z" fill="#808080"/><path d="m135.75 44.03h151.51v99.52h-151.51z" fill="#fff"/><path d="m233.78 200.26-53.15-.09c0-4.74 3.76-8.59 8.4-8.58l36.35.06c4.65.01 8.4 3.86 8.4 8.61z" fill="#bebebe"/><g fill="none" stroke-miterlimit="10"><path d="m139.95 58.28h20.46v78.09h-20.46z" stroke="#f7da9a" stroke-width="2.3278"/><path d="m168 66.59h68.53v32.03h-68.53z" stroke="#f7da9a" stroke-width="2.3278"/><path d="m168.58 104.06h111.62v32.22h-111.62z" stroke="#f7da9a" stroke-width="2.3278"/><path d="m240.21 66.79h41.35v31.25h-41.35z" stroke="#f7da9a" stroke-width="2.3278"/><path d="m204.49 47.18h75.71v14.37h-75.71z" stroke="#f7da9a" stroke-width="2.3278"/><path d="m173.24 74.55h58.82" stroke="#c8102e" stroke-linecap="round" stroke-width="2.3278"/><path d="m205.5 111.05h68.88" stroke="#c8102e" stroke-linecap="round" stroke-width="3.0641"/><path d="m172.46 111.05h23.2" stroke="#c8102e" stroke-linecap="round" stroke-width="3.0641"/><path d="m171.88 119.78h101.91" stroke="#808080" stroke-linecap="round" stroke-width="2.3278"/><path d="m240.89 128.68h33.1" stroke="#007dba" stroke-linecap="round" stroke-width="2.3278"/><path d="m172.08 128.68h62.28" stroke="#007dba" stroke-linecap="round" stroke-width="2.3278"/><path d="m209.54 51.65h66.78" stroke="#c8102e" stroke-linecap="round" stroke-width="2.4803"/><path d="m246.81 56.5h29.31" stroke="#007dba" stroke-linecap="round" stroke-width="2.3278"/><path d="m246.62 74.94h29.31" stroke="#c8102e" stroke-linecap="round" stroke-width="2.3278"/><path d="m264.35 83.48h11.77" stroke="#808080" stroke-linecap="round" stroke-width="2.3278"/><path d="m246.81 83.48h12.73" stroke="#808080" stroke-linecap="round" stroke-width="2.3278"/><path d="m246.62 92.8h29.31" stroke="#007dba" stroke-linecap="round" stroke-width="2.3278"/><path d="m209.34 56.5h29.51" stroke="#808080" stroke-linecap="round" stroke-width="2.3278"/><path d="m172.66 91.25h58.82" stroke="#808080" stroke-linecap="round" stroke-width="2.3278"/><path d="m208.38 82.71h23.68" stroke="#007dba" stroke-linecap="round" stroke-width="2.3278"/><path d="m173.24 82.71h21.84" stroke="#007dba" stroke-linecap="round" stroke-width="2.3278"/><path d="m143.55 65.25h13.65" stroke="#808080" stroke-linecap="round" stroke-width="2.3278"/><path d="m143.23 77.43h13.64" stroke="#c8102e" stroke-linecap="round" stroke-width="2.3278"/><path d="m143.72 91.39h13.64" stroke="#808080" stroke-linecap="round" stroke-width="2.3278"/><path d="m143.39 105.52h13.64" stroke="#007dba" stroke-linecap="round" stroke-width="2.3278"/><path d="m143.39 118.35h13.64" stroke="#808080" stroke-linecap="round" stroke-width="2.3278"/><path d="m143.72 130.7h13.64" stroke="#808080" stroke-linecap="round" stroke-width="2.3278"/></g><path d="m256.76 150.06c.01-.17 22.34 0 22.34 0s1.51 16.1-7.95 20.26h-23.67c.01 0 8.77-4.88 9.28-20.26z" fill="#f8da96"/><text fill="#c8102e" font-family="'RocketSans-Bold'" font-size="17.36" transform="translate(169.4453 60.7676)">&lt;/&gt;</text><path d="m293.05 227.5v-.01s0-.01 0-.01v-29.82h-35.32v29.86h.14c.07 1.68 7.96 4.02 17.63 4.02s17.47-2.34 17.54-4.02v-.02z" fill="#c8102e"/><path d="m293.06 197.79c0-1.68-7.92-3.04-17.7-3.04s-17.7 1.36-17.7 3.04c0 .51.73.98 2.01 1.4 1.53-1.37 7.8-2.39 15.31-2.39 7.83 0 14.3 1.11 15.47 2.57 1.65-.46 2.61-1 2.61-1.58z" fill="#770a1a"/><path d="m274.99 196.8c-7.51 0-13.78 1.02-15.31 2.39 2.95.97 8.86 1.64 15.69 1.64 6.4 0 11.98-.59 15.09-1.46-1.17-1.45-7.64-2.57-15.47-2.57z" fill="#8e4f16"/><path d="m306.56 205.99c-.05 1.54-.36 2.85-.72 4.17-.37 1.31-.81 2.58-1.32 3.82-1.03 2.49-2.41 4.88-4.34 6.95-1.88 2.08-4.48 3.78-7.45 4.4-.37.08-.74.13-1.11.19l-.03.01c-.31.41-2.41-.91-2.17-1.36l-.06-.18-.04-.18-.01-.06-.02-.1-.03-.22-.03-.29-.04-.51-.11-1.93c-.06-1.27-.13-2.54-.15-3.81l-.16-7.61v-.24-.12-.07c0-.17.03-.35.07-.52.02-.09.04-.17.07-.25l.03-.07.03-.08c.16-.37.23-.47.32-.65.18-.33.36-.62.54-.92.36-.59.74-1.15 1.13-1.7.78-1.11 1.64-2.17 2.63-3.17.99-.99 2.07-1.95 3.43-2.73.68-.38 1.44-.72 2.3-.92.83-.19 1.78-.29 2.8-.06 1.02.22 1.99.83 2.63 1.57s1.03 1.54 1.28 2.3c.48 1.51.55 2.95.53 4.34zm-3.5 0c-.04-1.13-.2-2.25-.54-3.11-.17-.43-.39-.77-.6-.97s-.38-.26-.61-.29-.57.01-.96.14c-.37.12-.77.32-1.17.59-.81.53-1.62 1.3-2.37 2.14-.74.86-1.45 1.79-2.12 2.75-.33.48-.65.98-.94 1.48-.15.25-.29.5-.41.73-.05.09-.13.27-.1.19l.01-.02.01-.04c.03-.07.05-.15.06-.22.03-.15.05-.31.05-.46 0-.05 0-.01 0-.01v.12.24l.02 7.58-.01 3.78.01 1.86.01.44.01.18c0 .03 0 .04 0 .02l-.01-.04-.04-.18-.05-.15c.24-.45-1.86-1.76-2.15-1.34h.02c.25-.03.51-.05.77-.09 2.03-.31 3.97-1.34 5.58-2.91s2.9-3.57 3.9-5.71c.49-1.08.89-2.2 1.18-3.34.28-1.17.47-2.36.45-3.36z" fill="#c8102e"/><path d="m144.97 160.61c-.2-1.33-8.44-2.41-18.59-2.41-10.28 0-18.61 1.1-18.61 2.46 0 .09.04.18.11.26l-.07-.31z" fill="#8c0727"/><path d="m144.93 160.43c0-.02-.02-.03-.02-.05h-37.16l.07.31c.99 1.23 8.89 2.19 18.5 2.19 10.28 0 18.61-1.1 18.61-2.45z" fill="#8c0727"/><path d="m277.45 204.59v8.78l7.06-.04-11.95 14.6 3.53-10.67-6.61.09z" fill="#fff"/><path d="m122.85 143.14h4.9v22.45h-4.9z" fill="#eda102" transform="matrix(1 .00302368 -.00302368 1 .4673 -.3782)"/><path d="m126.15 135.49-.02.02-.89-1.63-2.36 9.25 2.32 3.82 2.59-3.82z" fill="#f8db9a"/><path d="m126.15 135.49-.61-2.81-.36 1.44.97 1.44z" fill="#333"/><path d="m125.21 149.01-.04 13.11" fill="none" stroke="#bd7f00" stroke-linecap="round" stroke-miterlimit="10" stroke-width=".5102"/><path d="m148.51 143.04-2.15-.64c-.77-.23-1.21-1.04-.99-1.81l.36-1.22c.23-.77 1.04-1.21 1.81-.99l2.15.64c.77.23 1.21 1.04.99 1.81l-.36 1.22c-.23.77-1.04 1.21-1.81.99z" fill="#e38796"/><path d="m144.67 141.24h5.16v4.19h-5.16z" fill="#bebebe" transform="matrix(.9591 .2831 -.2831 .9591 46.6002 -35.821)"/><path d="m140.72 143.33h5.1v26.96h-5.1z" fill="#eda102" transform="matrix(.9591 .2831 -.2831 .9591 50.2518 -34.1451)"/><path d="m145.55 141.85c.13.04 3.93 1.18 3.93 1.18" style="opacity:.54;fill:none;stroke:#808080;stroke-width:.3492;stroke-linecap:round;stroke-miterlimit:10"/><path d="m146.07 147.5-5.35 18.01" fill="none" stroke="#bd7f00" stroke-linecap="round" stroke-miterlimit="10" stroke-width=".5102"/><path d="m126.57 193.57-11.02-37.61c-.56-1.92-2.41-3.08-4.1-2.58l-.25.07c-1.69.5-2.62 2.47-2.06 4.39l11.02 37.61c-.01.06 6.37-1.62 6.41-1.88z" fill="#404040"/><path d="m102.91 139.39c-.71-2.42.49-4.9 2.69-5.54 2.19-.64 4.54.8 5.25 3.22.06.21 3.12 10.81 4.85 16.78.64 2.21-.6 4.5-2.76 5.13-2.17.64-4.45-.63-5.1-2.84-1.77-6.01-4.91-16.69-4.93-16.75z" fill="#404040"/><path d="m104.99 160.46.01-.03c.69-1.39.59-3.02.25-4.63-.37-1.61-.96-3.23-1.64-4.82-.69-1.59-1.46-3.17-2.2-4.8s-1.78-4.69-1.87-5.24c-.18-.93-.07-2.38.73-3.36.46-.57 1.33-1.2 2.88-.99.51.07.88.55.81 1.08-.06.52-.54.89-1.05.82-.84-.12-1.1.21-1.18.31-.4.5-.39 1.47-.22 1.94 0 .01 1.02 3.08 1.68 4.63.71 1.6 1.47 3.2 2.16 4.86.68 1.66 1.34 3.38 1.63 5.24.32 1.81.23 3.98-.95 5.61-.17.24-.49.32-.76.18-.3-.13-.42-.5-.28-.8z" fill="#333"/><path d="m114.88 156.83s-1.71 2.63-4.95 1.42" fill="none" stroke="#333" stroke-linecap="round" stroke-miterlimit="10" stroke-width=".5919"/><path d="m144.91 160.38c0 .02.02.03.02.05 0 1.36-8.33 2.46-18.61 2.46-9.61 0-17.51-.96-18.5-2.19l7.68 45.81s6.95 3.06 11.51 3.11c5.32.06 10.36-2.09 10.36-2.09l7.63-47.14h-.09z" fill="#c8102e"/><path d="m145.65 220.74-19.2-7.18v-6.47l19 6.3z" fill="#eaca8b"/><path d="m145.63 220.76 18.69-6.24-.14-6.54-18.75 5.43z" fill="#f8da96"/><path d="m164.18 207.98-18.75 6.38-18.98-7.27 17.87-4.66z" fill="#e5b75c"/><path d="m144.33 202.41c2.59.25 9.61 4.71 20.7 2.95l-18.25 7.42s-8.77-1-20.33-5.69z" fill="#eaca8b"/><path d="m144.32 202.43s9.68 2.81 21.27.56l-17.93 7.34s-7.07 1.37-21.21-3.24z" fill="#f8da96"/></svg>