<svg enable-background="new 0 0 432 288" viewBox="0 0 432 288" xmlns="http://www.w3.org/2000/svg"><path d="m-1.1 211.4h433v82h-433z" fill="#e8e7e5" opacity=".68"/><path d="m205.8 190.1c0 .5 10.7 36.1-23.5 42.5l42.6 2.3s22-11.6 14.5-45.3z" fill="#808080"/><path d="m203.4 189.8c0 .5 7.2 34.6-24 42.3l38.6 2s22-11.6 14.5-45.3z" fill="#bebebe"/><path d="m284.8 192-140-.9c-10.9 0-18.9-7.3-18.9-18.2v-87.8c0-10.9 8.9-19.8 19.8-19.8l136.8-.8c10.9 0 21.9 6.8 21.9 17.7l.4 91.8c0 10.9-9.1 18-20 18z" fill="#bebebe"/><path d="m280.5 191.9h-140.9c-10.9 0-19.8-8.9-19.8-19.8v-87.8c0-10.9 8.9-19.8 19.8-19.8h140.9c10.9 0 19.8 8.9 19.8 19.8v87.8c0 10.9-8.9 19.8-19.8 19.8z" fill="#cfcfcf"/><circle cx="210" cy="185.3" fill="#404040" r="2.6"/><path d="m241.1 235.1-56.5-.1c0-4.5 4-8.2 8.9-8.2l38.6.1c5 0 9 3.7 9 8.2z" fill="#808080"/><path d="m132.2 76.1h155v102.5h-155z" fill="#808080"/><path d="m135.8 79h151.5v99.5h-151.5z" fill="#fff"/><path d="m233.8 235.3-53.1-.1c0-4.7 3.8-8.6 8.4-8.6l36.4.1c4.5 0 8.3 3.8 8.3 8.6z" fill="#bebebe"/><g fill="none" stroke-miterlimit="10"><path d="m139.9 93.3h20.5v78.1h-20.5z" stroke="#f7da9a" stroke-width="2.3278"/><path d="m168 101.6h68.5v32h-68.5z" stroke="#f7da9a" stroke-width="2.3278"/><path d="m168.6 139.1h111.6v32.2h-111.6z" stroke="#f7da9a" stroke-width="2.3278"/><path d="m240.2 101.8h41.3v31.2h-41.3z" stroke="#f7da9a" stroke-width="2.3278"/><path d="m204.5 82.2h75.7v14.4h-75.7z" stroke="#f7da9a" stroke-width="2.3278"/><path d="m173.2 109.6h58.9" stroke="#c8102e" stroke-linecap="round" stroke-width="2.3278"/><path d="m205.5 146.1h68.9" stroke="#c8102e" stroke-linecap="round" stroke-width="3.0641"/><path d="m172.5 146.1h23.2" stroke="#c8102e" stroke-linecap="round" stroke-width="3.0641"/><path d="m171.9 154.8h101.9" stroke="#808080" stroke-linecap="round" stroke-width="2.3278"/><path d="m240.9 163.7h33.1" stroke="#007dba" stroke-linecap="round" stroke-width="2.3278"/><path d="m172.1 163.7h62.3" stroke="#007dba" stroke-linecap="round" stroke-width="2.3278"/><path d="m209.5 86.7h66.8" stroke="#c8102e" stroke-linecap="round" stroke-width="2.4803"/><path d="m246.8 91.5h29.3" stroke="#007dba" stroke-linecap="round" stroke-width="2.3278"/><path d="m246.6 109.9h29.3" stroke="#c8102e" stroke-linecap="round" stroke-width="2.3278"/><path d="m264.4 118.5h11.7" stroke="#808080" stroke-linecap="round" stroke-width="2.3278"/><path d="m246.8 118.5h12.7" stroke="#808080" stroke-linecap="round" stroke-width="2.3278"/><path d="m246.6 127.8h29.3" stroke="#007dba" stroke-linecap="round" stroke-width="2.3278"/><path d="m209.3 91.5h29.6" stroke="#808080" stroke-linecap="round" stroke-width="2.3278"/><path d="m172.7 126.2h58.8" stroke="#808080" stroke-linecap="round" stroke-width="2.3278"/><path d="m208.4 117.7h23.7" stroke="#007dba" stroke-linecap="round" stroke-width="2.3278"/><path d="m173.2 117.7h21.9" stroke="#007dba" stroke-linecap="round" stroke-width="2.3278"/><path d="m143.6 100.2h13.6" stroke="#808080" stroke-linecap="round" stroke-width="2.3278"/><path d="m143.2 112.4h13.7" stroke="#c8102e" stroke-linecap="round" stroke-width="2.3278"/><path d="m143.7 126.4h13.7" stroke="#808080" stroke-linecap="round" stroke-width="2.3278"/><path d="m143.4 140.5h13.6" stroke="#007dba" stroke-linecap="round" stroke-width="2.3278"/><path d="m143.4 153.4h13.6" stroke="#808080" stroke-linecap="round" stroke-width="2.3278"/><path d="m143.7 165.7h13.7" stroke="#808080" stroke-linecap="round" stroke-width="2.3278"/></g><path d="m256.8 185.1c0-.2 22.3 0 22.3 0s1.5 16.1-8 20.3h-23.7c.1-.1 8.8-5 9.4-20.3z" fill="#f8da96"/><text fill="#c8102e" font-family="'RocketSans-Bold'" font-size="17.36" transform="translate(169.4453 95.7676)">&lt;/&gt;</text><path d="m293 262.5v-29.8h-35.3v29.9h.1c.1 1.7 8 4 17.6 4s17.6-2.4 17.6-4.1z" fill="#c8102e"/><path d="m293.1 232.8c0-1.7-7.9-3-17.7-3s-17.7 1.4-17.7 3c0 .5.7 1 2 1.4 1.5-1.4 7.8-2.4 15.3-2.4 7.8 0 14.3 1.1 15.5 2.6 1.6-.5 2.6-1 2.6-1.6z" fill="#770a1a"/><path d="m275 231.8c-7.5 0-13.8 1-15.3 2.4 3 1 8.9 1.6 15.7 1.6 6.4 0 12-.6 15.1-1.5-1.2-1.4-7.7-2.5-15.5-2.5z" fill="#8e4f16"/><path d="m306.6 241c0 1.5-.4 2.9-.7 4.2-.4 1.3-.8 2.6-1.3 3.8-1 2.5-2.4 4.9-4.3 6.9-1.9 2.1-4.5 3.8-7.5 4.4-.4.1-.7.1-1.1.2-.3.4-2.4-.9-2.2-1.4l-.1-.2v-.2-.1-.1-.2-.3-.5l-.1-1.9c-.1-1.3-.1-2.5-.1-3.8l-.2-7.6v-.2-.1-.1c0-.2 0-.4.1-.5 0-.1 0-.2.1-.2v-.1-.1c.2-.4.2-.5.3-.6.2-.3.4-.6.5-.9.4-.6.7-1.1 1.1-1.7.8-1.1 1.6-2.2 2.6-3.2s2.1-1.9 3.4-2.7c.7-.4 1.4-.7 2.3-.9.8-.2 1.8-.3 2.8-.1s2 .8 2.6 1.6 1 1.5 1.3 2.3c.4 1.5.5 2.9.5 4.3zm-3.5 0c0-1.1-.2-2.2-.5-3.1-.2-.4-.4-.8-.6-1s-.4-.3-.6-.3-.6 0-1 .1-.8.3-1.2.6c-.8.5-1.6 1.3-2.4 2.1-.7.9-1.5 1.8-2.1 2.8-.3.5-.6 1-.9 1.5-.1.2-.3.5-.4.7 0 .1-.1.3-.1.2 0-.1 0-.1.1-.2 0-.1 0-.3 0-.5 0-.1 0 0 0 0v.1.2 7.6 3.8 1.9.4.2-.2-.1c.2-.4-1.9-1.8-2.1-1.3.2 0 .5 0 .8-.1 2-.3 4-1.3 5.6-2.9s2.9-3.6 3.9-5.7c.5-1.1.9-2.2 1.2-3.3.1-1.3.3-2.5.3-3.5z" fill="#c8102e"/><path d="m145 195.6c-.2-1.3-8.4-2.4-18.6-2.4-10.3 0-18.6 1.1-18.6 2.5 0 .1 0 .2.1.3l-.1-.3h37.2z" fill="#8c0727"/><path d="m144.9 195.4-37.2-.1.1.3c1 1.2 8.9 2.2 18.5 2.2 10.3.1 18.6-1 18.6-2.4z" fill="#8c0727"/><path d="m277.5 239.6v8.8l7-.1-11.9 14.6 3.5-10.6-6.6.1z" fill="#fff"/><path d="m114.1 186.9h22.5v4.9h-22.5z" fill="#eda102" transform="matrix(.00302366 -1 1 .00302366 -64.4431 314.0931)"/><path d="m126.2 170.5h-.1l-.9-1.6-2.3 9.2 2.3 3.8 2.6-3.8z" fill="#f8db9a"/><path d="m126.2 170.5-.7-2.8-.3 1.4 1 1.5z" fill="#333"/><path d="m125.2 184v13.1" fill="none" stroke="#bd7f00" stroke-linecap="round" stroke-miterlimit="10" stroke-width=".5102"/><path d="m148.5 178-2.1-.6c-.8-.2-1.2-1-1-1.8l.4-1.2c.2-.8 1-1.2 1.8-1l2.1.6c.8.2 1.2 1 1 1.8l-.4 1.2c-.2.8-1 1.3-1.8 1z" fill="#e38796"/><path d="m145.2 175.8h4.2v5.2h-4.2z" fill="#bebebe" transform="matrix(.2831 -.9591 .9591 .2831 -65.4789 269.0768)"/><path d="m129.8 189.3h27v5.1h-27z" fill="#eda102" transform="matrix(.2831 -.9591 .9591 .2831 -81.2543 274.9181)"/><path d="m145.6 176.9c.1 0 3.9 1.2 3.9 1.2" style="opacity:.54;fill:none;stroke:#808080;stroke-width:.3492;stroke-linecap:round;stroke-miterlimit:10"/><path d="m146.1 182.5-5.4 18" fill="none" stroke="#bd7f00" stroke-linecap="round" stroke-miterlimit="10" stroke-width=".5102"/><path d="m126.6 228.6-11-37.6c-.6-1.9-2.4-3.1-4.1-2.6l-.2.1c-1.7.5-2.6 2.5-2.1 4.4l11 37.6s6.3-1.7 6.4-1.9z" fill="#404040"/><path d="m102.9 174.4c-.7-2.4.5-4.9 2.7-5.5s4.5.8 5.2 3.2c.1.2 3.1 10.8 4.8 16.8.6 2.2-.6 4.5-2.8 5.1-2.2.6-4.4-.6-5.1-2.8-1.6-6.1-4.8-16.8-4.8-16.8z" fill="#404040"/><path d="m105 195.5c.7-1.4.6-3.1.3-4.7-.4-1.6-1-3.2-1.6-4.8-.7-1.6-1.5-3.2-2.2-4.8s-1.8-4.7-1.9-5.2c-.2-.9-.1-2.4.7-3.4.5-.6 1.3-1.2 2.9-1 .5.1.9.6.8 1.1s-.5.9-1.1.8c-.8-.1-1.1.2-1.2.3-.4.5-.4 1.5-.2 1.9 0 0 1 3.1 1.7 4.6.7 1.6 1.5 3.2 2.2 4.9s1.3 3.4 1.6 5.2.2 4-.9 5.6c-.2.2-.5.3-.8.2s-.5-.4-.3-.7z" fill="#333"/><path d="m114.9 191.8s-1.7 2.6-4.9 1.4" fill="none" stroke="#333" stroke-linecap="round" stroke-miterlimit="10" stroke-width=".5919"/><path d="m144.9 195.4c0 1.4-8.3 2.5-18.6 2.5-9.6 0-17.5-1-18.5-2.2l7.7 45.8s6.9 3.1 11.5 3.1c5.3.1 10.4-2.1 10.4-2.1z" fill="#c8102e"/><path d="m145.6 255.7-19.2-7.1v-6.5l19 6.3z" fill="#eaca8b"/><path d="m145.6 255.8 18.7-6.3-.1-6.5-18.8 5.4z" fill="#f8da96"/><path d="m164.2 243-18.8 6.4-19-7.3 17.9-4.7z" fill="#e5b75c"/><path d="m144.3 237.4c2.6.2 9.6 4.7 20.7 2.9l-18.2 7.4s-8.8-1-20.3-5.7z" fill="#eaca8b"/><path d="m144.3 237.4s9.7 2.8 21.3.6l-17.9 7.3s-7.1 1.4-21.2-3.2z" fill="#f8da96"/></svg>