<?xml version="1.0" encoding="utf-8"?>
<!-- Generator: Adobe Illustrator 24.0.3, SVG Export Plug-In . SVG Version: 6.00 Build 0)  -->
<svg version="1.1" xmlns="http://www.w3.org/2000/svg" xmlns:xlink="http://www.w3.org/1999/xlink" x="0px" y="0px"
	 viewBox="0 0 432 288" style="enable-background:new 0 0 432 288;" xml:space="preserve">
<style type="text/css">
	.st0{display:none;}
	.st1{fill:#FFFFFF;}
	.st2{fill:none;stroke:#8A8F91;stroke-width:5.486;stroke-linecap:round;stroke-miterlimit:10;}
	.st3{fill:none;stroke:#8A8F91;stroke-width:5.486;stroke-linecap:round;stroke-miterlimit:10;stroke-dasharray:16.4149,16.4149;}
	.st4{fill:#90374E;}
	.st5{fill:#C8102E;}
	.st6{fill:#A4C7E1;}
	.st7{fill:#F7F7F7;}
	.st8{fill:none;stroke:#75ABD2;stroke-width:2.8499;stroke-linecap:round;stroke-miterlimit:10;}
	.st9{fill:none;stroke:#BED6E5;stroke-width:2.9507;stroke-linecap:round;stroke-miterlimit:10;}
	.st10{fill:none;stroke:#8A8F91;stroke-width:5.486;stroke-linecap:round;stroke-miterlimit:10;stroke-dasharray:16.621,16.621;}
	.st11{opacity:0.62;fill:#808080;}
	.st12{fill:#EDA302;}
	.st13{fill:#246281;}
	.st14{fill:#007DBB;}
	.st15{fill:none;stroke:#FFFFFF;stroke-width:2.255;stroke-miterlimit:10;}
	.st16{fill:none;stroke:#FFFFFF;stroke-width:5.3676;stroke-miterlimit:10;}
	.st17{opacity:0.74;fill:#A4C7E1;stroke:#FFFFFF;stroke-width:2.6838;stroke-miterlimit:10;}
	.st18{fill:#404040;}
	.st19{opacity:0.67;fill:none;stroke:#FFFFFF;stroke-width:5.3676;stroke-linecap:round;stroke-miterlimit:10;}
	.st20{opacity:0.68;fill:#E8E7E5;}
	.st21{fill:#808080;}
	.st22{fill:#BEBEBE;}
	.st23{fill:#CFCFCF;}
	.st24{fill:none;stroke:#F7DA9A;stroke-width:2.3278;stroke-miterlimit:10;}
	.st25{fill:none;stroke:#C8102E;stroke-width:2.3278;stroke-linecap:round;stroke-miterlimit:10;}
	.st26{fill:none;stroke:#C8102E;stroke-width:3.0641;stroke-linecap:round;stroke-miterlimit:10;}
	.st27{fill:none;stroke:#808080;stroke-width:2.3278;stroke-linecap:round;stroke-miterlimit:10;}
	.st28{fill:none;stroke:#007DBA;stroke-width:2.3278;stroke-linecap:round;stroke-miterlimit:10;}
	.st29{fill:none;stroke:#C8102E;stroke-width:2.4803;stroke-linecap:round;stroke-miterlimit:10;}
	.st30{fill:#F8DA96;}
	.st31{font-family:'RocketSans-Bold';}
	.st32{font-size:17.36px;}
	.st33{fill:#770A1A;}
	.st34{fill:#8E4F16;}
	.st35{fill:#8C0727;}
	.st36{fill:#EDA102;}
	.st37{fill:#F8DB9A;}
	.st38{fill:#333333;}
	.st39{fill:none;stroke:#BD7F00;stroke-width:0.5102;stroke-linecap:round;stroke-miterlimit:10;}
	.st40{fill:#E38796;}
	.st41{opacity:0.54;fill:none;stroke:#808080;stroke-width:0.3492;stroke-linecap:round;stroke-miterlimit:10;}
	.st42{fill:none;stroke:#333333;stroke-width:0.5919;stroke-linecap:round;stroke-miterlimit:10;}
	.st43{fill:#EACA8B;}
	.st44{fill:#E5B75C;}
	.st45{fill:#814B1C;}
	.st46{fill:#F3F3F3;}
	.st47{fill:none;stroke:#BEBEBE;stroke-width:2.498;stroke-linecap:round;stroke-miterlimit:10;}
	.st48{fill:none;stroke:#BEBEBE;stroke-width:2.6366;stroke-linecap:round;stroke-miterlimit:10;}
	.st49{fill:none;stroke:#BEBEBE;stroke-width:2.3274;stroke-linecap:round;stroke-miterlimit:10;}
	.st50{fill:none;stroke:#C8102E;stroke-width:2.2127;stroke-linecap:round;stroke-linejoin:round;stroke-miterlimit:10;}
	.st51{fill:none;stroke:#C8102E;stroke-width:2.3598;stroke-linecap:round;stroke-linejoin:round;stroke-miterlimit:10;}
	.st52{fill:none;stroke:#C8102E;stroke-width:2.2212;stroke-linecap:round;stroke-linejoin:round;stroke-miterlimit:10;}
	.st53{fill:none;stroke:#BEBEBE;stroke-width:1.2696;stroke-miterlimit:10;}
	.st54{fill:#76ACD2;}
	.st55{fill:#4990C3;}
	.st56{fill:#007DBA;}
	.st57{fill:#F4C766;}
	.st58{fill:#F5BE40;}
	.st59{fill:#F7DA9A;}
	.st60{fill:none;}
	.st61{fill:#D64C62;}
	.st62{fill:#F1C3CB;}
	.st63{clip-path:url(#SVGID_2_);fill:#C8102E;}
	.st64{opacity:0.54;fill:none;stroke:#808080;stroke-width:0.4206;stroke-linecap:round;stroke-miterlimit:10;}
	.st65{fill:none;stroke:#BD7F00;stroke-width:0.6145;stroke-linecap:round;stroke-miterlimit:10;}
	.st66{fill:none;stroke:#BD7F00;stroke-width:0.6283;stroke-linecap:round;stroke-miterlimit:10;}
	.st67{fill:#F3C766;}
	.st68{clip-path:url(#SVGID_4_);fill:#F3C766;}
	.st69{clip-path:url(#SVGID_4_);fill:#404040;}
	.st70{fill:none;stroke:#808080;stroke-width:2.6723;stroke-linecap:round;stroke-miterlimit:10;}
	.st71{fill:none;stroke:#BEBEBE;stroke-width:2.6723;stroke-linecap:round;stroke-miterlimit:10;}
	.st72{fill:none;stroke:#F5BE40;stroke-width:2.6723;stroke-miterlimit:10;}
	.st73{fill:#40C6B2;}
	.st74{fill:none;stroke:#C8102E;stroke-width:2.0043;stroke-linecap:round;stroke-linejoin:round;stroke-miterlimit:10;}
	.st75{fill:none;stroke:#808080;stroke-width:1.3362;stroke-linecap:round;stroke-miterlimit:10;}
	.st76{opacity:0.54;fill:none;stroke:#808080;stroke-width:0.4873;stroke-linecap:round;stroke-miterlimit:10;}
	.st77{fill:none;stroke:#BD7F00;stroke-width:0.712;stroke-linecap:round;stroke-miterlimit:10;}
	.st78{fill:none;stroke:#BD7F00;stroke-width:0.728;stroke-linecap:round;stroke-miterlimit:10;}
	.st79{fill:#A00523;}
	.st80{fill:#D0D0D0;}
	.st81{fill:#FBFAFB;}
	.st82{fill:none;stroke:#007DBA;stroke-width:1.505;stroke-miterlimit:10;}
	.st83{fill:none;stroke:#007DBA;stroke-width:1.5157;stroke-miterlimit:10;}
	.st84{fill:#956841;}
	.st85{fill:#704C32;}
	.st86{fill:#C61833;}
	.st87{opacity:0.61;fill:#A4C7E1;}
	.st88{fill:none;stroke:#C8102E;stroke-width:2.4372;stroke-linecap:round;stroke-miterlimit:10;}
	.st89{fill:none;stroke:#D64C62;stroke-width:4.4275;stroke-linecap:square;stroke-miterlimit:10;}
	.st90{fill:#9B122C;}
	.st91{fill:#EAE8E8;}
	.st92{fill:#F2F2F2;}
	.st93{opacity:0.97;fill:#EAE8E8;}
	.st94{fill:#EAEAEA;}
	.st95{fill:#FFFDFD;}
	.st96{fill:#01947E;}
	.st97{opacity:0.35;fill:#8CB5AD;}
	.st98{fill:#A3CEC6;}
	.st99{fill:none;stroke:#CFCFCF;stroke-width:0.5;stroke-miterlimit:10;}
</style>
<g id="Layer_17" class="st0">
</g>
<g id="Layer_19">
</g>
<g id="Layer_1" class="st0">
</g>
<g id="News_And_Updates">
	<g id="Layer_2">
	</g>
</g>
<g id="Components">
	<g id="Layer_5">
	</g>
</g>
<g id="Developer_Basics">
	<rect x="-1.13" y="176.38" class="st20" width="433.01" height="66.01"/>
	<path class="st21" d="M205.77,155.11c0,0.53,10.7,36.14-23.51,42.46l42.64,2.28c0,0,22.02-11.59,14.47-45.28L205.77,155.11z"/>
	<path class="st22" d="M203.38,154.84c0,0.53,7.22,34.62-24,42.27l38.57,2.03c0,0,22.02-11.59,14.47-45.28L203.38,154.84z"/>
	<path class="st22" d="M284.83,156.98l-139.99-0.9c-10.9,0-18.92-7.32-18.92-18.22V50.09c0-10.9,8.91-19.81,19.81-19.81l136.81-0.8
		c10.9,0,21.91,6.82,21.91,17.71l0.38,91.76C304.83,149.85,295.73,156.98,284.83,156.98z"/>
	<path class="st23" d="M280.53,156.89h-140.9c-10.9,0-19.81-8.91-19.81-19.81V49.3c0-10.9,8.91-19.81,19.81-19.81h140.9
		c10.9,0,19.81,8.91,19.81,19.81v87.78C300.34,147.98,291.43,156.89,280.53,156.89z"/>
	<circle class="st18" cx="210.03" cy="150.32" r="2.61"/>
	<path class="st21" d="M241.1,200.07l-56.51-0.09v0c0-4.52,4-8.19,8.93-8.18l38.65,0.06C237.1,191.87,241.1,195.55,241.1,200.07
		L241.1,200.07z"/>
	<rect x="132.24" y="41.06" class="st21" width="155.02" height="102.48"/>
	<rect x="135.75" y="44.03" class="st1" width="151.51" height="99.52"/>
	<path class="st22" d="M233.78,200.26l-53.15-0.09l0,0c0-4.74,3.76-8.59,8.4-8.58l36.35,0.06
		C230.03,191.66,233.78,195.51,233.78,200.26L233.78,200.26z"/>
	<rect x="139.95" y="58.28" class="st24" width="20.46" height="78.09"/>
	<rect x="168" y="66.59" class="st24" width="68.53" height="32.03"/>
	<rect x="168.58" y="104.06" class="st24" width="111.62" height="32.22"/>
	<rect x="240.21" y="66.79" class="st24" width="41.35" height="31.25"/>
	<rect x="204.49" y="47.18" class="st24" width="75.71" height="14.37"/>
	<line class="st25" x1="173.24" y1="74.55" x2="232.06" y2="74.55"/>
	<line class="st26" x1="205.5" y1="111.05" x2="274.38" y2="111.05"/>
	<line class="st26" x1="172.46" y1="111.05" x2="195.66" y2="111.05"/>
	<line class="st27" x1="171.88" y1="119.78" x2="273.79" y2="119.78"/>
	<line class="st28" x1="240.89" y1="128.68" x2="273.99" y2="128.68"/>
	<line class="st28" x1="172.08" y1="128.68" x2="234.36" y2="128.68"/>
	<line class="st29" x1="209.54" y1="51.65" x2="276.32" y2="51.65"/>
	<line class="st28" x1="246.81" y1="56.5" x2="276.12" y2="56.5"/>
	<line class="st25" x1="246.62" y1="74.94" x2="275.93" y2="74.94"/>
	<line class="st27" x1="264.35" y1="83.48" x2="276.12" y2="83.48"/>
	<line class="st27" x1="246.81" y1="83.48" x2="259.54" y2="83.48"/>
	<line class="st28" x1="246.62" y1="92.8" x2="275.93" y2="92.8"/>
	<line class="st27" x1="209.34" y1="56.5" x2="238.85" y2="56.5"/>
	<line class="st27" x1="172.66" y1="91.25" x2="231.48" y2="91.25"/>
	<line class="st28" x1="208.38" y1="82.71" x2="232.06" y2="82.71"/>
	<line class="st28" x1="173.24" y1="82.71" x2="195.08" y2="82.71"/>
	<line class="st27" x1="143.55" y1="65.25" x2="157.2" y2="65.25"/>
	<line class="st25" x1="143.23" y1="77.43" x2="156.87" y2="77.43"/>
	<line class="st27" x1="143.72" y1="91.39" x2="157.36" y2="91.39"/>
	<line class="st28" x1="143.39" y1="105.52" x2="157.03" y2="105.52"/>
	<line class="st27" x1="143.39" y1="118.35" x2="157.03" y2="118.35"/>
	<line class="st27" x1="143.72" y1="130.7" x2="157.36" y2="130.7"/>
	<path class="st30" d="M256.76,150.06c0.01-0.17,22.34,0,22.34,0s1.51,16.1-7.95,20.26h-23.67
		C247.49,170.32,256.25,165.44,256.76,150.06z"/>
	<text transform="matrix(1 0 0 1 169.4453 60.7676)" class="st5 st31 st32">&lt;/&gt;</text>
	<path class="st5" d="M293.05,227.5c0,0,0-0.01,0-0.01s0-0.01,0-0.01v-29.82h-35.32v29.86h0.14c0.07,1.68,7.96,4.02,17.63,4.02
		s17.47-2.34,17.54-4.02h0V227.5z"/>
	<g>
		<path class="st33" d="M293.06,197.79c0-1.68-7.92-3.04-17.7-3.04s-17.7,1.36-17.7,3.04c0,0.51,0.73,0.98,2.01,1.4
			c1.53-1.37,7.8-2.39,15.31-2.39c7.83,0,14.3,1.11,15.47,2.57C292.1,198.91,293.06,198.37,293.06,197.79z"/>
		<path class="st34" d="M274.99,196.8c-7.51,0-13.78,1.02-15.31,2.39c2.95,0.97,8.86,1.64,15.69,1.64c6.4,0,11.98-0.59,15.09-1.46
			C289.29,197.92,282.82,196.8,274.99,196.8z"/>
	</g>
	<g>
		<path class="st5" d="M306.56,205.99c-0.05,1.54-0.36,2.85-0.72,4.17c-0.37,1.31-0.81,2.58-1.32,3.82
			c-1.03,2.49-2.41,4.88-4.34,6.95c-1.88,2.08-4.48,3.78-7.45,4.4c-0.37,0.08-0.74,0.13-1.11,0.19l-0.03,0.01
			c-0.31,0.41-2.41-0.91-2.17-1.36l-0.06-0.18l-0.04-0.18l-0.01-0.06l-0.02-0.1l-0.03-0.22l-0.03-0.29l-0.04-0.51l-0.11-1.93
			c-0.06-1.27-0.13-2.54-0.15-3.81l-0.16-7.61l0-0.24v-0.12l0-0.07c0-0.17,0.03-0.35,0.07-0.52c0.02-0.09,0.04-0.17,0.07-0.25
			l0.03-0.07l0.03-0.08c0.16-0.37,0.23-0.47,0.32-0.65c0.18-0.33,0.36-0.62,0.54-0.92c0.36-0.59,0.74-1.15,1.13-1.7
			c0.78-1.11,1.64-2.17,2.63-3.17c0.99-0.99,2.07-1.95,3.43-2.73c0.68-0.38,1.44-0.72,2.3-0.92c0.83-0.19,1.78-0.29,2.8-0.06
			c1.02,0.22,1.99,0.83,2.63,1.57c0.64,0.74,1.03,1.54,1.28,2.3C306.51,203.16,306.58,204.6,306.56,205.99z M303.06,205.99
			c-0.04-1.13-0.2-2.25-0.54-3.11c-0.17-0.43-0.39-0.77-0.6-0.97c-0.21-0.2-0.38-0.26-0.61-0.29c-0.23-0.03-0.57,0.01-0.96,0.14
			c-0.37,0.12-0.77,0.32-1.17,0.59c-0.81,0.53-1.62,1.3-2.37,2.14c-0.74,0.86-1.45,1.79-2.12,2.75c-0.33,0.48-0.65,0.98-0.94,1.48
			c-0.15,0.25-0.29,0.5-0.41,0.73c-0.05,0.09-0.13,0.27-0.1,0.19l0.01-0.02l0.01-0.04c0.03-0.07,0.05-0.15,0.06-0.22
			c0.03-0.15,0.05-0.31,0.05-0.46c0-0.05,0-0.01,0-0.01l0,0.12l0,0.24l0.02,7.58l-0.01,3.78l0.01,1.86l0.01,0.44l0.01,0.18
			c0,0.03,0,0.04,0,0.02l-0.01-0.04l-0.04-0.18l-0.05-0.15c0.24-0.45-1.86-1.76-2.15-1.34l0.02,0c0.25-0.03,0.51-0.05,0.77-0.09
			c2.03-0.31,3.97-1.34,5.58-2.91c1.61-1.57,2.9-3.57,3.9-5.71c0.49-1.08,0.89-2.2,1.18-3.34
			C302.89,208.18,303.08,206.99,303.06,205.99z"/>
	</g>
	<path class="st35" d="M144.97,160.61c-0.2-1.33-8.44-2.41-18.59-2.41c-10.28,0-18.61,1.1-18.61,2.46c0,0.09,0.04,0.18,0.11,0.26
		l-0.07-0.31H144.97z"/>
	<path class="st35" d="M144.93,160.43c0-0.02-0.02-0.03-0.02-0.05h-37.16l0.07,0.31c0.99,1.23,8.89,2.19,18.5,2.19
		C136.6,162.88,144.93,161.78,144.93,160.43z"/>
	<polygon class="st1" points="277.45,204.59 277.45,213.37 284.51,213.33 272.56,227.93 276.09,217.26 269.48,217.35 	"/>
	<g>
		
			<rect x="122.85" y="143.14" transform="matrix(1 3.023676e-03 -3.023676e-03 1 0.4673 -0.3782)" class="st36" width="4.9" height="22.45"/>
		<g>
			<polygon class="st37" points="126.15,135.49 126.13,135.51 125.24,133.88 122.88,143.13 125.2,146.95 127.79,143.13 			"/>
			<polygon class="st38" points="126.15,135.49 125.54,132.68 125.18,134.12 126.15,135.56 			"/>
		</g>
		<line class="st39" x1="125.21" y1="149.01" x2="125.17" y2="162.12"/>
	</g>
	<g>
		<path class="st40" d="M148.51,143.04l-2.15-0.64c-0.77-0.23-1.21-1.04-0.99-1.81l0.36-1.22c0.23-0.77,1.04-1.21,1.81-0.99
			l2.15,0.64c0.77,0.23,1.21,1.04,0.99,1.81l-0.36,1.22C150.09,142.82,149.28,143.26,148.51,143.04z"/>
		
			<rect x="144.67" y="141.24" transform="matrix(0.9591 0.2831 -0.2831 0.9591 46.6002 -35.821)" class="st22" width="5.16" height="4.19"/>
		
			<rect x="140.72" y="143.33" transform="matrix(0.9591 0.2831 -0.2831 0.9591 50.2518 -34.1451)" class="st36" width="5.1" height="26.96"/>
		<path class="st41" d="M145.55,141.85c0.13,0.04,3.93,1.18,3.93,1.18"/>
		<line class="st39" x1="146.07" y1="147.5" x2="140.72" y2="165.51"/>
	</g>
	<g>
		<path class="st18" d="M126.57,193.57l-11.02-37.61c-0.56-1.92-2.41-3.08-4.1-2.58l-0.25,0.07c-1.69,0.5-2.62,2.47-2.06,4.39
			l11.02,37.61C120.15,195.51,126.53,193.83,126.57,193.57z"/>
		<path class="st18" d="M102.91,139.39c-0.71-2.42,0.49-4.9,2.69-5.54c2.19-0.64,4.54,0.8,5.25,3.22
			c0.06,0.21,3.12,10.81,4.85,16.78c0.64,2.21-0.6,4.5-2.76,5.13h0c-2.17,0.64-4.45-0.63-5.1-2.84
			C106.07,150.13,102.93,139.45,102.91,139.39z"/>
		<path class="st38" d="M104.99,160.46l0.01-0.03c0.69-1.39,0.59-3.02,0.25-4.63c-0.37-1.61-0.96-3.23-1.64-4.82
			c-0.69-1.59-1.46-3.17-2.2-4.8c-0.74-1.63-1.78-4.69-1.87-5.24c-0.18-0.93-0.07-2.38,0.73-3.36c0.46-0.57,1.33-1.2,2.88-0.99
			c0.51,0.07,0.88,0.55,0.81,1.08c-0.06,0.52-0.54,0.89-1.05,0.82c-0.84-0.12-1.1,0.21-1.18,0.31c-0.4,0.5-0.39,1.47-0.22,1.94
			c0,0.01,1.02,3.08,1.68,4.63c0.71,1.6,1.47,3.2,2.16,4.86c0.68,1.66,1.34,3.38,1.63,5.24c0.32,1.81,0.23,3.98-0.95,5.61
			c-0.17,0.24-0.49,0.32-0.76,0.18C104.97,161.13,104.85,160.76,104.99,160.46z"/>
		<path class="st42" d="M114.88,156.83c0,0-1.71,2.63-4.95,1.42"/>
	</g>
	<path class="st5" d="M144.91,160.38c0,0.02,0.02,0.03,0.02,0.05c0,1.36-8.33,2.46-18.61,2.46c-9.61,0-17.51-0.96-18.5-2.19
		l7.68,45.81c0,0,6.95,3.06,11.51,3.11c5.32,0.06,10.36-2.09,10.36-2.09l7.63-47.14H144.91z"/>
	<polygon class="st43" points="145.65,220.74 126.45,213.56 126.45,207.09 145.45,213.39 	"/>
	<polygon class="st30" points="145.63,220.76 164.32,214.52 164.18,207.98 145.43,213.41 	"/>
	<polygon class="st44" points="164.18,207.98 145.43,214.36 126.45,207.09 144.32,202.43 	"/>
	<path class="st43" d="M144.33,202.41c2.59,0.25,9.61,4.71,20.7,2.95l-18.25,7.42c0,0-8.77-1-20.33-5.69L144.33,202.41z"/>
	<path class="st30" d="M144.32,202.43c0,0,9.68,2.81,21.27,0.56l-17.93,7.34c0,0-7.07,1.37-21.21-3.24L144.32,202.43z"/>
</g>
<g id="Foundations">
</g>
<g id="Utilities">
	<g id="Layer_9">
		<g id="Layer_12">
		</g>
	</g>
</g>
<g id="Designer_Basics">
	<g id="Layer_13">
	</g>
</g>
<g id="Guides">
</g>
<g id="Layer_14">
</g>
<g id="Layer_18">
</g>
<g id="Layer_15">
</g>
<g id="Layer_20">
</g>
<g id="Layer_16">
</g>
<g id="Layer_21">
</g>
<g id="Layer_22">
</g>
</svg>
