<svg width="432" height="199" xmlns="http://www.w3.org/2000/svg"><g fill="none" fill-rule="evenodd"><path d="M0 0h432v199H0z" fill="#FFF"/><g transform="matrix(-1 0 0 1 305 34)"><path d="M97.667 131.656c12.008 0 21.74-.66 21.74-1.477 0-.816-9.732-1.477-21.74-1.477-12.006 0-21.74.661-21.74 1.477 0 .816 9.734 1.477 21.74 1.477" fill="#171615"/><path fill="#DEDED9" d="M85.289 124.388h24.757l-1.236-23.993H86.524l-1.235 23.993"/><path d="M85.289 120.627l12.378.688 12.38-.688c0 2.23 3.325 5.29 5.912 6.654.936.494 1.54 1.446 1.54 2.505v.084H77.835v-.084c0-1.06.604-2.011 1.54-2.505 2.588-1.364 5.914-4.424 5.914-6.654" fill="#DEDED9"/><path fill="#989995" d="M86.114 108.347h23.106l-.17-3.312H86.285l-.057 1.11-.114 2.202"/><path d="M177.013 82.818v13.973a8.243 8.243 0 01-8.244 8.244H26.566a8.243 8.243 0 01-8.244-8.244V82.818h158.69" fill="#DEDED9"/><path d="M26.52 0h142.294a8.198 8.198 0 018.199 8.198v74.62H18.323V8.198A8.198 8.198 0 0126.52 0" fill="#1B1A19"/><path fill="#FFF" d="M171.07 76.454H24.264V6.364H171.07z"/><path fill="#404040" d="M47 14h100v62.5H47z"/><path d="M72 40.563v-3.126c0-.109.07-.207.175-.244l14.464-5.177c.175-.062.361.064.361.245v2.976a.26.26 0 01-.178.246L77.4 38.754a.259.259 0 000 .492l9.422 3.271a.26.26 0 01.178.246v2.976a.267.267 0 01-.36.245l-14.465-5.177a.261.261 0 01-.175-.244M101.894 23h3.835c.19 0 .323.19.251.364L93.36 54.831a.271.271 0 01-.253.169h-3.835a.266.266 0 01-.251-.364l12.621-31.467a.271.271 0 01.253-.169M108 45.739v-2.976c0-.11.07-.209.178-.246l9.422-3.271a.259.259 0 000-.492l-9.422-3.271a.26.26 0 01-.178-.246v-2.976c0-.181.186-.307.36-.245l14.465 5.177a.262.262 0 01.175.244v3.126c0 .11-.07.207-.175.244l-14.464 5.177a.267.267 0 01-.361-.245M124.948 60H69.053c-.58 0-1.053-.45-1.053-1s.474-1 1.053-1h55.895c.578 0 1.052.45 1.052 1s-.474 1-1.052 1M124.948 65H69.053c-.58 0-1.053-.45-1.053-1s.474-1 1.053-1h55.895c.578 0 1.052.45 1.052 1s-.474 1-1.052 1M96.951 70H69.05C68.472 70 68 69.55 68 69s.472-1 1.05-1H96.95c.577 0 1.049.45 1.049 1s-.472 1-1.049 1" fill="#FFFFFE"/><path fill="#333" d="M47 14h100v3H47z"/><circle stroke="#C8102E" fill="#C8102E" cx="144.75" cy="15.75" r="1"/><circle stroke="#EDA302" fill="#EDA302" cx="142.75" cy="15.75" r="1"/><circle stroke="#13A48E" fill="#13A48E" cx="140.75" cy="15.75" r="1"/><path d="M102.009 93.926a3.364 3.364 0 10-6.728.002 3.364 3.364 0 006.728-.002" fill="#B1B1AD"/><path fill="#6C4589" d="M8.265 65.98V44.868 65.98M128.684 76.454h26.385-26.385M128.684 76.454h-96.16 96.16zM8.265 76.454h24.26-24.26V65.978v10.475"/><path d="M98.241 142.63c35.61 0 64.476-.662 64.476-1.478 0-.079-.265-.156-.776-.23a3.124 3.124 0 01-.112.102H34.827a3.198 3.198 0 01-.133-.123c-.61.081-.928.165-.928.25 0 .817 28.866 1.478 64.475 1.478" fill="#171615"/><path fill="#DEDED9" d="M42.149 133.085h112.36l8.208 6.201H33.94l8.209-6.201M161.83 141.024H34.826c-.558-.49-.887-1.092-.887-1.738h128.777c0 .646-.328 1.248-.888 1.738"/><path fill="#1B1A19" d="M126.587 136.003h-4.383l-.853-1.824h4.213l1.023 1.824M131.372 136.003h-4.366l-1.024-1.824h4.196l1.194 1.824M102.841 134.18h4.254l.34 1.823h-4.424l-.17-1.824M121.8 136.003h-4.396l-.682-1.824h4.226l.853 1.824M117.014 136.003h-4.41l-.51-1.824h4.238l.682 1.824M107.467 134.18h4.248l.511 1.823h-4.419l-.34-1.824M140.94 136.003h-4.329l-1.365-1.824h4.158l1.535 1.824M150.504 136.003h-4.283l-1.706-1.824h4.111l1.878 1.824M136.156 136.003h-4.348l-1.194-1.824h4.177l1.365 1.824M152.756 138.192h-4.487l-1.707-1.824h4.317l1.877 1.824M102.644 136.003h-4.428l.001-1.824h4.258l.17 1.824M145.722 136.003h-4.306l-1.535-1.824h4.134l1.707 1.824M78.726 136.003h-4.397l.852-1.824h4.227l-.682 1.824M64.322 136.003h-4.348l1.365-1.824h4.177l-1.194 1.824M59.518 136.003h-4.327l1.535-1.824h4.157l-1.365 1.824M54.714 136.003h-4.306l1.707-1.824h4.134l-1.535 1.824M69.124 136.003h-4.366l1.194-1.824h4.195l-1.023 1.824M45.626 136.003l1.878-1.824h4.111l-1.707 1.824h-4.282M93.119 136.003h-4.425l.34-1.824h4.255l-.17 1.824M88.323 136.003h-4.419l.511-1.824h4.249l-.34 1.824M97.851 136.003h-4.365l.17-1.824h4.197l-.002 1.824M83.525 136.003h-4.409l.682-1.824h4.238l-.51 1.824M73.926 136.003h-4.383l1.023-1.824h4.212l-.852 1.824M141.723 136.368h4.34l1.706 1.824h-4.51l-1.536-1.824M50.067 136.368h4.34l-1.536 1.824h-4.51l1.706-1.824M64.519 136.368h4.4l-1.023 1.824h-4.571l1.194-1.824M59.7 136.368h4.383l-1.194 1.824h-4.553l1.365-1.824M69.338 136.368h4.417l-.852 1.824h-4.588l1.023-1.824M74.158 136.368h4.432l-.682 1.824h-4.602l.852-1.824M54.884 136.368h4.361l-1.364 1.824h-4.533l1.536-1.824M39.646 136.347v.02h5.082l-1.877 1.825h-5.647l2.442-1.845M151.027 136.003l-1.877-1.824h4.992l2.414 1.824h-5.53M151.402 136.368h5.636l2.415 1.824h-6.173l-1.878-1.824M78.98 136.368h4.443l-.511 1.824h-4.614l.682-1.824M45.251 136.368h4.316l-1.706 1.824h-4.487l1.877-1.824M45.103 136.003h-5.002l2.414-1.824h4.465l-1.877 1.824M136.885 136.368h4.361l1.536 1.824h-4.533l-1.364-1.824M117.54 136.368h4.431l.853 1.824h-4.602l-.682-1.824M122.374 136.368h4.418l1.023 1.824h-4.588l-.853-1.824M112.707 136.368h4.443l.682 1.824h-4.614l-.511-1.824M127.21 136.368h4.401l1.195 1.824h-4.573l-1.022-1.824M132.047 136.368h4.382l1.365 1.824h-4.553l-1.194-1.824M107.875 136.368h4.453l.511 1.824h-4.624l-.34-1.824M88.626 136.368h4.46l-.17 1.824h-4.63l.34-1.824M93.452 136.368h4.4l-.002 1.824h-4.568l.17-1.824M103.045 136.368h4.46l.34 1.824h-4.63l-.17-1.824M83.802 136.368h4.453l-.34 1.824H83.29l.511-1.824M98.216 136.368h4.462l.17 1.824h-4.633l.001-1.824"/><path d="M34.827 141.024H161.83c.56-.49.888-1.092.888-1.738H33.94c0 .646.329 1.248.887 1.738" fill="#989995"/><path d="M8.915 137.27c4.911 0 8.892-.426 8.892-.952s-3.981-.951-8.892-.951c-4.91 0-8.892.425-8.892.951s3.981.952 8.892.952" fill="#171615"/><path d="M8.467 127.153h.895a8.445 8.445 0 018.445 8.445v.641H.023v-.641a8.445 8.445 0 018.444-8.445" fill="#DEDED9"/></g></g></svg>