<svg width="432" height="199" xmlns="http://www.w3.org/2000/svg"><g fill="none" fill-rule="evenodd"><path fill="#FFF" d="M0 0h432v199H0z"/><g fill-rule="nonzero"><path d="M256.5 65v7H176v-7a7 7 0 017-7h66.5s7 0 7 7z" fill="#007DBA"/><path d="M256.5 72v59.5c0 3.866-.634 7-4.5 7h-72c-3.866 0-4-3.134-4-7V72h80.5z" fill="#BEBEBE"/><path fill="#BFECE5" d="M184.75 98.25h63v40.25h-63z"/><path d="M247.75 87.75v10.5h-63v-10.5a3.51 3.51 0 013.5-3.5h56a3.51 3.51 0 013.5 3.5z" fill="#4990C3"/><path d="M188.25 66.75h-3.5a1.75 1.75 0 010-3.5h3.5a1.75 1.75 0 010 3.5zM198.75 66.75h-3.5a1.75 1.75 0 010-3.5h3.5a1.75 1.75 0 010 3.5zM249.5 66.75H246a1.75 1.75 0 010-3.5h3.5a1.75 1.75 0 010 3.5zM195.25 93h-3.5a1.75 1.75 0 010-3.5h3.5a1.75 1.75 0 010 3.5zM205.75 93h-3.5a1.75 1.75 0 010-3.5h3.5a1.75 1.75 0 010 3.5zM240.75 93h-3.5a1.75 1.75 0 010-3.5h3.5a1.75 1.75 0 010 3.5z" fill="#A4C7E1"/><path d="M209.25 128a1.75 1.75 0 01-1.237-.513l-7-7a1.75 1.75 0 010-2.474l7-7a1.75 1.75 0 012.474 2.474l-5.762 5.763 5.762 5.763A1.75 1.75 0 01209.25 128zM223.25 128a1.75 1.75 0 01-1.237-2.987l5.763-5.763-5.763-5.763a1.75 1.75 0 012.474-2.474l7 7a1.75 1.75 0 010 2.474l-7 7a1.75 1.75 0 01-1.237.513z" fill="#BEBEBE"/></g></g></svg>