<svg enable-background="new 0 0 432 288" viewBox="0 0 432 288" xmlns="http://www.w3.org/2000/svg" xmlns:xlink="http://www.w3.org/1999/xlink"><clipPath id="a"><path d="m372.21 170.27c0-.4.6-6.12 4.4-10.91.08-.11-11.82 3.46-14.62 7.52-.02.02-.04.04-.06.06-2.06 2.59-1.73 6.28.74 8.24s5.86 1.43 7.92-1.16c.89-1.12 1.25-2.33 1.62-3.75z"/></clipPath><clipPath id="b"><path d="m187.38 203.25h126.44v16.82h-126.44z" transform="matrix(.9991 -.0423 .0423 .9991 -8.7234 10.7829)"/></clipPath><path d="m141.83 39.4c-3.08.18-5.97.95-8.62 2.16l-4.5-6.01c-1.27-1.93-3.89-2.47-5.83-1.2-1.93 1.27-2.47 3.89-1.2 5.83l4.6 6.16c-4.78 4.72-7.6 11.38-7.17 18.61.78 13.33 12.22 23.5 25.55 22.71 13.33-.78 23.5-12.22 22.71-25.55-.77-13.33-12.21-23.49-25.54-22.71z" fill="#c8102e"/><circle cx="142.93" cy="63.41" fill="#814b1c" r="20.11"/><path d="m332.94 234.13-110.51-37.31 51.01-148.33 110.51 37.31z" fill="#f3f3f3"/><path d="m274.98 64.42 52.79 17.82" fill="none" stroke="#bebebe" stroke-linecap="round" stroke-miterlimit="10" stroke-width="2.498"/><path d="m305.77 88.36 18.33 6.19" fill="none" stroke="#bebebe" stroke-linecap="round" stroke-miterlimit="10" stroke-width="2.498"/><path d="m271.31 76.72 19.79 6.69" fill="none" stroke="#bebebe" stroke-linecap="round" stroke-miterlimit="10" stroke-width="2.498"/><path d="m294.41 134.79 58.82 19.85" fill="none" stroke="#bebebe" stroke-linecap="round" stroke-miterlimit="10" stroke-width="2.6366"/><path d="m328.84 157.64 21.42 7.23" fill="none" stroke="#bebebe" stroke-linecap="round" stroke-miterlimit="10" stroke-width="2.6366"/><path d="m291.44 145.02 24.43 8.24" fill="none" stroke="#bebebe" stroke-linecap="round" stroke-miterlimit="10" stroke-width="2.6366"/><path d="m275.71 178.83 24.62 8.31" fill="none" stroke="#bebebe" stroke-linecap="round" stroke-miterlimit="10" stroke-width="2.3274"/><path d="m245.12 168.5 23.8 8.04" fill="none" stroke="#bebebe" stroke-linecap="round" stroke-miterlimit="10" stroke-width="2.3274"/><path d="m281.15 195.9 14.97 5.06" fill="none" stroke="#bebebe" stroke-linecap="round" stroke-miterlimit="10" stroke-width="2.3274"/><path d="m259.78 188.69 17.35 5.86" fill="none" stroke="#bebebe" stroke-linecap="round" stroke-miterlimit="10" stroke-width="2.3274"/><path d="m240.91 182.32 14.84 5.01" fill="none" stroke="#bebebe" stroke-linecap="round" stroke-miterlimit="10" stroke-width="2.3274"/><path d="m268.8 88.66 52.79 17.83" fill="none" stroke="#bebebe" stroke-linecap="round" stroke-miterlimit="10" stroke-width="2.498"/><path d="m365.86 90.7-16.16-5.46-12.81 11.27 3.35 16.73 16.17 5.46 12.81-11.27z" style="fill:none;stroke:#c8102e;stroke-width:2.2127;stroke-linecap:round;stroke-linejoin:round;stroke-miterlimit:10"/><path d="m309.24 178.92h30.81v30.05h-30.81z" style="fill:none;stroke:#c8102e;stroke-width:2.3598;stroke-linecap:round;stroke-linejoin:round;stroke-miterlimit:10" transform="matrix(.9475 .3199 -.3199 .9475 79.1002 -93.6613)"/><path d="m275.9 149.08-24.54-8.28 21.81-26.06z" style="fill:none;stroke:#c8102e;stroke-width:2.2212;stroke-linecap:round;stroke-linejoin:round;stroke-miterlimit:10"/><path d="m43.22 231.31c-2.84-1.66-5.03-4.4-5.92-7.82-1.78-6.85 2.35-13.84 9.23-15.62 4.92-1.27 9.92.47 13.01 4.09" fill="none" stroke="#bebebe" stroke-miterlimit="10" stroke-width="1.2696"/><path d="m46.87 216.16 24.88 7.45 7.22-23.99-24.88-7.45zm15.93-.78c-.42 1.41-1.91 2.2-3.32 1.78s-2.21-1.91-1.79-3.31c.42-1.41 1.91-2.2 3.32-1.78s2.21 1.9 1.79 3.31z" fill="#a4c7e1"/><path d="m54.09 192.17 24.88 7.44 7.21-23.99-24.88-7.45z" fill="#76acd2"/><path d="m61.3 168.17 24.88 7.45 7.1-23.6-24.88-7.45z" fill="#4990c3"/><path d="m68.52 144.18 24.88 7.44 7.1-23.6-24.88-7.44z" fill="#007dba"/><path d="m68.4 144.57 24.88 7.45.12-.4-24.88-7.44z" fill="#007dba"/><path d="m104.56 198.07-19.93 15.27-15.84-20.51 19.93-15.27z" fill="#f4c766"/><path d="m124.49 182.8-19.93 15.27-15.84-20.51 19.93-15.27z" fill="#f5be40"/><path d="m144.1 167.78-19.94 15.27-15.83-20.51 19.93-15.28z" fill="#eda302"/><path d="m48.86 208.1 15.84 20.51 19.93-15.27-15.84-20.51zm13.13 8.71c-1.17.9-2.85.68-3.74-.49-.9-1.16-.68-2.83.49-3.73s2.85-.68 3.74.49c.9 1.16.68 2.83-.49 3.73z" fill="#f7da9a"/><path d="m62.74 214.49c-.12-1.24-1.08-2.19-2.27-2.36.87 1.14 1.55 2.4 2.02 3.76.2-.43.3-.9.25-1.4z" fill="none"/><path d="m59.06 212.37.13-.11c-1.13.4-1.88 1.52-1.76 2.76.14 1.46 1.45 2.53 2.92 2.39.43-.04.82-.19 1.17-.41-.49-1.73-1.31-3.29-2.46-4.63z" fill="none"/><path d="m62.81 216.89c-.09-.34-.21-.68-.32-1.01-.47-1.36-1.14-2.62-2.02-3.76-.21-.03-.42-.04-.65-.02-.22.02-.43.08-.64.15l-.13.11c1.16 1.35 1.97 2.9 2.45 4.62.02.08.05.15.07.22.82 3.15.36 6.43-1.3 9.23-.63 1.07-1.42 2.03-2.32 2.84-1.45 1.31-3.2 2.27-5.16 2.77-3.16.82-6.46.36-9.26-1.29l-.65 1.09c.59.35 1.2.64 1.82.89 2.66 1.07 5.58 1.26 8.41.53 2.68-.69 5.02-2.15 6.79-4.19.54-.62 1.03-1.29 1.46-2.01 1.85-3.08 2.36-6.7 1.45-10.17z" fill="#bebebe"/><path d="m80.06 199.95h25.15v25.87h-25.15z" fill="#e38796" transform="matrix(.9953 -.0973 .0973 .9953 -20.2783 10.0256)"/><path d="m105.09 197.52h24.74v25.87h-24.74z" fill="#d64c62" transform="matrix(.9953 -.0973 .0973 .9953 -19.924 12.4299)"/><path d="m130.12 195.07h24.74v25.87h-24.74z" fill="#c8102e" transform="matrix(.9953 -.0973 .0973 .9953 -19.5669 14.8541)"/><path d="m129.77 196.3h.41v25.87h-.41z" fill="#c8102e" transform="matrix(.9953 -.0973 .0973 .9953 -19.7455 13.642)"/><path d="m59.92 229.09 21.46-2.1-2.52-25.75-25.03 2.45 2.52 25.75 1.62-.16c.9-.82 1.68-1.77 2.32-2.84 1.66-2.8 2.12-6.08 1.3-9.23-.02-.08-.05-.15-.07-.22-.34.22-.73.37-1.17.41-1.47.14-2.77-.93-2.92-2.39-.12-1.24.64-2.36 1.76-2.76.2-.07.41-.13.64-.15.22-.02.44-.01.65.02 1.19.17 2.15 1.12 2.27 2.36.05.5-.05.97-.25 1.39.11.33.23.66.32 1.01.9 3.48.39 7.09-1.44 10.19-.43.73-.92 1.4-1.46 2.02z" fill="#f1c3cb"/><path d="m301 254.24c-3.26-2.21 59.45-80.65 59.45-80.65 1.35-1.71 6.16 1.86 4.8 3.57.01-.01-60.98 79.29-64.25 77.08z" fill="#007dba"/><path d="m356.32 183.85c-1.59-1.26-1.86-3.59-.6-5.18l4.36-5.5c1.26-1.59 3.59-1.86 5.18-.6 1.59 1.26 1.86 3.59.6 5.18l-4.36 5.5c-1.26 1.59-3.59 1.86-5.18.6z" fill="#cfcfcf"/><path d="m372.21 170.27c0-.4.6-6.12 4.4-10.91.08-.11-11.82 3.46-14.62 7.52-.02.02-.04.04-.06.06-2.06 2.59-3.5 7.44-.27 10.01 3.22 2.56 6.83-.33 8.89-2.92.89-1.12 1.34-2.38 1.66-3.76z" fill="#333"/><path clip-path="url(#a)" d="m370 161.54c-.39.98-.61 2.02-.51 3.07.06.65.43 1.2.94 1.59.29.22.5.58.16 1.09-.68 1.03-.03 5.03 2.77 4.45 1.3-.27 3.75-3.66 5.04-7.26 1.97-5.54-6.22-8.41-8.4-2.94z" fill="#c8102e"/><path d="m248.83 79.19 1 2.05c.38.77-.12 1.76-1.12 2.21l-1.69.75c-1 .44-2.11.18-2.49-.59l-1-2.05c-.38-.77.12-1.76 1.12-2.21l1.69-.75c.99-.45 2.11-.19 2.49.59z" fill="#e38796"/><path d="m251.61 76.24 2.37 4.85-5.3 2.36-2.38-4.84z" fill="#bebebe"/><path d="m286.2 66.68 20.8-9.38-2.39-4.8-27.02 12.19-27.9 12.44 2.34 4.79 26.56-11.84.02.03 6.3-2.85 1.29-.57z" fill="#eda102"/><path d="m249.88 82.31c-.06-.13-1.86-3.87-1.86-3.87" style="opacity:.54;fill:none;stroke:#808080;stroke-width:.4206;stroke-linecap:round;stroke-miterlimit:10"/><path d="m315.86 51.31h-.03l1.62-1.81-12.84 3-3.69 4.46 6.1.34z" fill="#f8db9a"/><path d="m315.86 51.31 3.26-2.2-2 .47-1.34 1.78z" fill="#333"/><path d="m298.33 58.15-43.83 19.89" fill="none" stroke="#bd7f00" stroke-linecap="round" stroke-miterlimit="10" stroke-width=".6283"/><path d="m187.38 203.25h126.44v16.82h-126.44z" fill="#f3c766" transform="matrix(.9991 -.0423 .0423 .9991 -8.7234 10.7829)"/><path clip-path="url(#b)" d="m187.38 203.25h126.44v16.82h-126.44z" fill="#f3c766" transform="matrix(.9991 -.0423 .0423 .9991 -8.7234 10.7829)"/><g fill="#404040"><path clip-path="url(#b)" d="m200.16 201.7h.75v8.07h-.75z" transform="matrix(.9991 -.0434 .0434 .9991 -8.7451 8.9025)"/><path clip-path="url(#b)" d="m207.57 203.63h1v8.07h-1z" transform="matrix(.9991 -.0434 .0434 .9991 -8.8228 9.2328)"/><path clip-path="url(#b)" d="m215.45 200.92h.75v8.07h-.75z" transform="matrix(.9991 -.0434 .0434 .9991 -8.6978 9.5669)"/><path clip-path="url(#b)" d="m222.86 202.84h1v8.07h-1z" transform="matrix(.9991 -.0434 .0434 .9991 -8.7745 9.8962)"/><path clip-path="url(#b)" d="m229.68 199.94h.75v8.07h-.75z" transform="matrix(.9991 -.0436 .0436 .9991 -8.6654 10.2132)"/><path clip-path="url(#b)" d="m237.1 201.87h1v8.07h-1z" transform="matrix(.9991 -.0434 .0434 .9991 -8.7176 10.5123)"/><path clip-path="url(#b)" d="m244.97 199.16h.75v8.07h-.75z" transform="matrix(.9991 -.0434 .0434 .9991 -8.5936 10.8477)"/><path clip-path="url(#b)" d="m252.39 201.09h1v8.07h-1z" transform="matrix(.9991 -.0436 .0436 .9991 -8.6937 11.2085)"/><path clip-path="url(#b)" d="m257.8 198.36h.75v8.07h-.75z" transform="matrix(.9991 -.0434 .0434 .9991 -8.5467 11.4042)"/><path clip-path="url(#b)" d="m265.22 200.29h1v8.07h-1z" transform="matrix(.9991 -.0434 .0434 .9991 -8.6234 11.7334)"/><path clip-path="url(#b)" d="m273.09 197.58h.75v8.07h-.75z" transform="matrix(.9991 -.0434 .0434 .9991 -8.4974 12.0661)"/><path clip-path="url(#b)" d="m280.51 199.51h1v8.07h-1z" transform="matrix(.9991 -.0434 .0434 .9991 -8.575 12.3968)"/><path clip-path="url(#b)" d="m287.33 196.6h.75v8.07h-.75z" transform="matrix(.9991 -.0434 .0434 .9991 -8.4425 12.6849)"/><path clip-path="url(#b)" d="m294.74 198.53h1v8.07h-1z" transform="matrix(.9991 -.0434 .0434 .9991 -8.5192 13.0142)"/><path clip-path="url(#b)" d="m302.62 195.82h.75v8.07h-.75z" transform="matrix(.9991 -.0434 .0434 .9991 -8.3942 13.3483)"/><path clip-path="url(#b)" d="m310.03 197.75h1v8.07h-1z" transform="matrix(.9991 -.0434 .0434 .9991 -8.4699 13.6759)"/><path clip-path="url(#b)" d="m192.73 203.69h1v8.07h-1z" transform="matrix(.9991 -.0434 .0434 .9991 -8.8396 8.5886)"/></g><path d="m405.93 206.79v141.92h68.89v-4.68h-2.51v.53h-.6v-.53h-2.82v.56h-.59v-.56h-.79v.54h-.59v-.54h-2.82v.56h-.59v-.56h-.82v-2.43h2.51v-.56h1.66v.56h2.55v-.56h1.66v.56h11.91v-.56h1.66v.56h2.55v-.56h1.66v.56h2.58v2.43h-.97v.53h-.59v-.53h-2.82v.56h-.59v-.56h-.79v.54h-.59v-.54h-2.82v.56h-.6v-.56h-2.16v4.68h125.8v-4.14h-2.52v.53h-.59v-.53h-2.82v.56h-.59v-.56h-.79v.54h-.59v-.54h-2.82v.57h-.6v-.57h-.81v-2.43h2.5v-.56h1.67v.56h2.55v-.56h1.66v.56h11.9v-.56h1.67v.56h2.55v-.56h1.66v.56h2.58v2.43h-.97v.53h-.59v-.53h-2.82v.56h-.6v-.56h-.78v.54h-.59v-.54h-2.83v.57h-.59v-.57h-2.16v4.14h126.64v-3.49h-2.52v.53h-.59v-.53h-2.82v.56h-.6v-.56h-.78v.54h-.59v-.54h-2.82v.57h-.6v-.57h-.81v-2.43h2.5v-.56h1.67v.56h2.55v-.56h1.66v.56h11.9v-.56h1.67v.56h2.55v-.56h1.66v.56h2.58v2.43h-.97v.53h-.59v-.53h-2.83v.56h-.59v-.56h-.78v.54h-.59v-.54h-2.83v.57h-.59v-.57h-2.16v3.49h125.83v-3.17h-2.52v.54h-.59v-.54h-2.83v.56h-.59v-.56h-.78v.54h-.59v-.54h-2.83v.57h-.59v-.57h-.81v-2.43h2.5v-.55h1.66v.55h2.55v-.55h1.66v.55h11.91v-.55h1.66v.55h2.55v-.55h1.66v.55h2.58v2.43h-.96v.54h-.6v-.54h-2.82v.56h-.59v-.56h-.79v.54h-.59v-.54h-2.82v.57h-.59v-.57h-2.17v3.17h126.02v-2.79h-2.52v.53h-.59v-.53h-2.83v.56h-.59v-.56h-.78v.54h-.59v-.54h-2.83v.57h-.59v-.57h-.81v-2.43h2.5v-.56h1.66v.56h2.55v-.56h1.67v.56h11.9v-.56h1.66v.56h2.55v-.56h1.67v.56h2.57v2.43h-.96v.53h-.59v-.53h-2.83v.56h-.59v-.56h-.78v.54h-.6v-.54h-2.82v.57h-.59v-.57h-2.17v2.79h126.38v-2.27h-2.52v.53h-.59v-.53h-2.82v.56h-.6v-.56h-.78v.54h-.59v-.54h-2.82v.56h-.6v-.56h-.81v-2.43h2.5v-.56h1.67v.56h2.55v-.56h1.66v.56h11.9v-.56h1.67v.56h2.55v-.56h1.66v.56h2.58v2.43h-.97v.53h-.59v-.53h-2.83v.56h-.59v-.56h-.78v.54h-.59v-.54h-2.83v.56h-.59v-.56h-2.16v2.27h125.3v-2.48h-2.52v.53h-.6v-.53h-2.82v.56h-.59v-.56h-.79v.54h-.59v-.54h-2.82v.56h-.59v-.56h-.82v-2.43h2.51v-.56h1.66v.56h2.55v-.56h1.66v.56h11.91v-.56h1.66v.56h2.55v-.56h1.66v.56h2.58v2.43h-.97v.53h-.59v-.53h-2.82v.56h-.59v-.56h-.79v.54h-.59v-.54h-2.82v.56h-.6v-.56h-2.16v2.48h78.28v-141.92z" fill="none"/></svg>