<?xml version="1.0" encoding="utf-8"?>
<!-- Generator: Adobe Illustrator 24.0.3, SVG Export Plug-In . SVG Version: 6.00 Build 0)  -->
<svg version="1.1" xmlns="http://www.w3.org/2000/svg" xmlns:xlink="http://www.w3.org/1999/xlink" x="0px" y="0px"
	 viewBox="0 0 432 288" style="enable-background:new 0 0 432 288;" xml:space="preserve">
<style type="text/css">
	.st0{display:none;}
	.st1{fill:#FFFFFF;}
	.st2{fill:none;stroke:#8A8F91;stroke-width:5.486;stroke-linecap:round;stroke-miterlimit:10;}
	.st3{fill:none;stroke:#8A8F91;stroke-width:5.486;stroke-linecap:round;stroke-miterlimit:10;stroke-dasharray:16.4149,16.4149;}
	.st4{fill:#90374E;}
	.st5{fill:#C8102E;}
	.st6{fill:#A4C7E1;}
	.st7{fill:#F7F7F7;}
	.st8{fill:none;stroke:#75ABD2;stroke-width:2.8499;stroke-linecap:round;stroke-miterlimit:10;}
	.st9{fill:none;stroke:#BED6E5;stroke-width:2.9507;stroke-linecap:round;stroke-miterlimit:10;}
	.st10{fill:none;stroke:#8A8F91;stroke-width:5.486;stroke-linecap:round;stroke-miterlimit:10;stroke-dasharray:16.621,16.621;}
	.st11{opacity:0.62;fill:#808080;}
	.st12{fill:#EDA302;}
	.st13{fill:#246281;}
	.st14{fill:#007DBB;}
	.st15{fill:none;stroke:#FFFFFF;stroke-width:2.255;stroke-miterlimit:10;}
	.st16{fill:none;stroke:#FFFFFF;stroke-width:5.3676;stroke-miterlimit:10;}
	.st17{opacity:0.74;fill:#A4C7E1;stroke:#FFFFFF;stroke-width:2.6838;stroke-miterlimit:10;}
	.st18{fill:#404040;}
	.st19{opacity:0.67;fill:none;stroke:#FFFFFF;stroke-width:5.3676;stroke-linecap:round;stroke-miterlimit:10;}
	.st20{opacity:0.68;fill:#E8E7E5;}
	.st21{fill:#808080;}
	.st22{fill:#BEBEBE;}
	.st23{fill:#CFCFCF;}
	.st24{fill:none;stroke:#F7DA9A;stroke-width:2.3278;stroke-miterlimit:10;}
	.st25{fill:none;stroke:#C8102E;stroke-width:2.3278;stroke-linecap:round;stroke-miterlimit:10;}
	.st26{fill:none;stroke:#C8102E;stroke-width:3.0641;stroke-linecap:round;stroke-miterlimit:10;}
	.st27{fill:none;stroke:#808080;stroke-width:2.3278;stroke-linecap:round;stroke-miterlimit:10;}
	.st28{fill:none;stroke:#007DBA;stroke-width:2.3278;stroke-linecap:round;stroke-miterlimit:10;}
	.st29{fill:none;stroke:#C8102E;stroke-width:2.4803;stroke-linecap:round;stroke-miterlimit:10;}
	.st30{fill:#F8DA96;}
	.st31{fill:#770A1A;}
	.st32{fill:#8E4F16;}
	.st33{fill:#8C0727;}
	.st34{fill:#EDA102;}
	.st35{fill:#F8DB9A;}
	.st36{fill:#333333;}
	.st37{fill:none;stroke:#BD7F00;stroke-width:0.5102;stroke-linecap:round;stroke-miterlimit:10;}
	.st38{fill:#E38796;}
	.st39{opacity:0.54;fill:none;stroke:#808080;stroke-width:0.3492;stroke-linecap:round;stroke-miterlimit:10;}
	.st40{fill:none;stroke:#333333;stroke-width:0.5919;stroke-linecap:round;stroke-miterlimit:10;}
	.st41{fill:#EACA8B;}
	.st42{fill:#E5B75C;}
	.st43{fill:#814B1C;}
	.st44{fill:#F3F3F3;}
	.st45{fill:none;stroke:#BEBEBE;stroke-width:2.498;stroke-linecap:round;stroke-miterlimit:10;}
	.st46{fill:none;stroke:#BEBEBE;stroke-width:2.6366;stroke-linecap:round;stroke-miterlimit:10;}
	.st47{fill:none;stroke:#BEBEBE;stroke-width:2.3274;stroke-linecap:round;stroke-miterlimit:10;}
	.st48{fill:none;stroke:#C8102E;stroke-width:2.2127;stroke-linecap:round;stroke-linejoin:round;stroke-miterlimit:10;}
	.st49{fill:none;stroke:#C8102E;stroke-width:2.3598;stroke-linecap:round;stroke-linejoin:round;stroke-miterlimit:10;}
	.st50{fill:none;stroke:#C8102E;stroke-width:2.2212;stroke-linecap:round;stroke-linejoin:round;stroke-miterlimit:10;}
	.st51{fill:none;stroke:#BEBEBE;stroke-width:1.2696;stroke-miterlimit:10;}
	.st52{fill:#76ACD2;}
	.st53{fill:#4990C3;}
	.st54{fill:#007DBA;}
	.st55{fill:#F4C766;}
	.st56{fill:#F5BE40;}
	.st57{fill:#F7DA9A;}
	.st58{fill:none;}
	.st59{fill:#D64C62;}
	.st60{fill:#F1C3CB;}
	.st61{clip-path:url(#SVGID_2_);fill:#C8102E;}
	.st62{opacity:0.54;fill:none;stroke:#808080;stroke-width:0.4206;stroke-linecap:round;stroke-miterlimit:10;}
	.st63{fill:none;stroke:#BD7F00;stroke-width:0.6145;stroke-linecap:round;stroke-miterlimit:10;}
	.st64{fill:none;stroke:#BD7F00;stroke-width:0.6283;stroke-linecap:round;stroke-miterlimit:10;}
	.st65{fill:#F3C766;}
	.st66{clip-path:url(#SVGID_4_);fill:#F3C766;}
	.st67{clip-path:url(#SVGID_4_);fill:#404040;}
	.st68{fill:none;stroke:#808080;stroke-width:2.6723;stroke-linecap:round;stroke-miterlimit:10;}
	.st69{fill:none;stroke:#BEBEBE;stroke-width:2.6723;stroke-linecap:round;stroke-miterlimit:10;}
	.st70{fill:none;stroke:#F5BE40;stroke-width:2.6723;stroke-miterlimit:10;}
	.st71{fill:#40C6B2;}
	.st72{fill:none;stroke:#C8102E;stroke-width:2.0043;stroke-linecap:round;stroke-linejoin:round;stroke-miterlimit:10;}
	.st73{fill:none;stroke:#808080;stroke-width:1.3362;stroke-linecap:round;stroke-miterlimit:10;}
	.st74{opacity:0.54;fill:none;stroke:#808080;stroke-width:0.4873;stroke-linecap:round;stroke-miterlimit:10;}
	.st75{fill:none;stroke:#BD7F00;stroke-width:0.712;stroke-linecap:round;stroke-miterlimit:10;}
	.st76{fill:none;stroke:#BD7F00;stroke-width:0.728;stroke-linecap:round;stroke-miterlimit:10;}
	.st77{fill:#A00523;}
	.st78{fill:#D0D0D0;}
	.st79{fill:#FBFAFB;}
	.st80{fill:none;stroke:#007DBA;stroke-width:1.505;stroke-miterlimit:10;}
	.st81{fill:none;stroke:#007DBA;stroke-width:1.5157;stroke-miterlimit:10;}
	.st82{fill:#956841;}
	.st83{fill:#704C32;}
	.st84{fill:#C61833;}
	.st85{opacity:0.61;fill:#A4C7E1;}
	.st86{fill:none;stroke:#C8102E;stroke-width:2.4372;stroke-linecap:round;stroke-miterlimit:10;}
	.st87{fill:none;stroke:#D64C62;stroke-width:4.4275;stroke-linecap:square;stroke-miterlimit:10;}
	.st88{fill:#9B122C;}
	.st89{fill:#EAE8E8;}
	.st90{fill:#F2F2F2;}
	.st91{opacity:0.97;fill:#EAE8E8;}
	.st92{fill:#EAEAEA;}
	.st93{fill:#FFFDFD;}
	.st94{fill:#01947E;}
	.st95{opacity:0.35;fill:#8CB5AD;}
	.st96{fill:#A3CEC6;}
	.st97{fill:none;stroke:#CFCFCF;stroke-width:0.5;stroke-miterlimit:10;}
</style>
<g id="Layer_17" class="st0">
</g>
<g id="Layer_19">
</g>
<g id="Layer_1" class="st0">
</g>
<g id="News_And_Updates">
	<g id="Layer_2">
	</g>
</g>
<g id="Components">
	<g id="Layer_5">
	</g>
</g>
<g id="Developer_Basics">
</g>
<g id="Foundations">
	<g>
		<path class="st5" d="M141.83,39.4c-3.08,0.18-5.97,0.95-8.62,2.16l-4.5-6.01c-1.27-1.93-3.89-2.47-5.83-1.2l0,0
			c-1.93,1.27-2.47,3.89-1.2,5.83l4.6,6.16c-4.78,4.72-7.6,11.38-7.17,18.61c0.78,13.33,12.22,23.5,25.55,22.71
			c13.33-0.78,23.5-12.22,22.71-25.55C166.6,48.78,155.16,38.62,141.83,39.4z"/>
		<circle class="st43" cx="142.93" cy="63.41" r="20.11"/>
	</g>
	<g>
		<polygon class="st44" points="332.94,234.13 222.43,196.82 273.44,48.49 383.95,85.8 		"/>
		<line class="st45" x1="274.98" y1="64.42" x2="327.77" y2="82.24"/>
		<line class="st45" x1="305.77" y1="88.36" x2="324.1" y2="94.55"/>
		<line class="st45" x1="271.31" y1="76.72" x2="291.1" y2="83.41"/>
		<line class="st46" x1="294.41" y1="134.79" x2="353.23" y2="154.64"/>
		<line class="st46" x1="328.84" y1="157.64" x2="350.26" y2="164.87"/>
		<line class="st46" x1="291.44" y1="145.02" x2="315.87" y2="153.26"/>
		<line class="st47" x1="275.71" y1="178.83" x2="300.33" y2="187.14"/>
		<line class="st47" x1="245.12" y1="168.5" x2="268.92" y2="176.54"/>
		<line class="st47" x1="281.15" y1="195.9" x2="296.12" y2="200.96"/>
		<line class="st47" x1="259.78" y1="188.69" x2="277.13" y2="194.55"/>
		<line class="st47" x1="240.91" y1="182.32" x2="255.75" y2="187.33"/>
		<line class="st45" x1="268.8" y1="88.66" x2="321.59" y2="106.49"/>
		<polygon class="st48" points="365.86,90.7 349.7,85.24 336.89,96.51 340.24,113.24 356.41,118.7 369.22,107.43 		"/>
		
			<rect x="309.24" y="178.92" transform="matrix(0.9475 0.3199 -0.3199 0.9475 79.1002 -93.6613)" class="st49" width="30.81" height="30.05"/>
		<polygon class="st50" points="275.9,149.08 251.36,140.8 273.17,114.74 		"/>
	</g>
	<path class="st51" d="M43.22,231.31c-2.84-1.66-5.03-4.4-5.92-7.82c-1.78-6.85,2.35-13.84,9.23-15.62
		c4.92-1.27,9.92,0.47,13.01,4.09"/>
	<g>
		<path class="st6" d="M46.87,216.16l24.88,7.45l7.22-23.99l-24.88-7.45L46.87,216.16z M62.8,215.38c-0.42,1.41-1.91,2.2-3.32,1.78
			s-2.21-1.91-1.79-3.31c0.42-1.41,1.91-2.2,3.32-1.78C62.42,212.49,63.22,213.97,62.8,215.38z"/>
		<polygon class="st52" points="54.09,192.17 78.97,199.61 86.18,175.62 61.3,168.17 		"/>
		<polygon class="st53" points="61.3,168.17 86.18,175.62 93.28,152.02 68.4,144.57 		"/>
		<polygon class="st54" points="68.52,144.18 93.4,151.62 100.5,128.02 75.62,120.58 		"/>
		<polygon class="st54" points="68.4,144.57 93.28,152.02 93.4,151.62 68.52,144.18 		"/>
	</g>
	<g>
		<g>
			<polygon class="st55" points="104.56,198.07 84.63,213.34 68.79,192.83 88.72,177.56 			"/>
			<polygon class="st56" points="124.49,182.8 104.56,198.07 88.72,177.56 108.65,162.29 			"/>
			<polygon class="st12" points="144.1,167.78 124.16,183.05 108.33,162.54 128.26,147.26 			"/>
		</g>
		<g>
			<path class="st57" d="M48.86,208.1l15.84,20.51l19.93-15.27l-15.84-20.51L48.86,208.1z M61.99,216.81
				c-1.17,0.9-2.85,0.68-3.74-0.49c-0.9-1.16-0.68-2.83,0.49-3.73s2.85-0.68,3.74,0.49C63.38,214.24,63.16,215.91,61.99,216.81z"/>
		</g>
	</g>
	<path class="st58" d="M62.74,214.49c-0.12-1.24-1.08-2.19-2.27-2.36c0.87,1.14,1.55,2.4,2.02,3.76
		C62.69,215.46,62.79,214.99,62.74,214.49z"/>
	<path class="st58" d="M59.06,212.37l0.13-0.11c-1.13,0.4-1.88,1.52-1.76,2.76c0.14,1.46,1.45,2.53,2.92,2.39
		c0.43-0.04,0.82-0.19,1.17-0.41C61.03,215.27,60.21,213.71,59.06,212.37z"/>
	<path class="st22" d="M62.81,216.89c-0.09-0.34-0.21-0.68-0.32-1.01c-0.47-1.36-1.14-2.62-2.02-3.76
		c-0.21-0.03-0.42-0.04-0.65-0.02c-0.22,0.02-0.43,0.08-0.64,0.15l-0.13,0.11c1.16,1.35,1.97,2.9,2.45,4.62
		c0.02,0.08,0.05,0.15,0.07,0.22c0.82,3.15,0.36,6.43-1.3,9.23c-0.63,1.07-1.42,2.03-2.32,2.84c-1.45,1.31-3.2,2.27-5.16,2.77
		c-3.16,0.82-6.46,0.36-9.26-1.29l-0.65,1.09c0.59,0.35,1.2,0.64,1.82,0.89c2.66,1.07,5.58,1.26,8.41,0.53
		c2.68-0.69,5.02-2.15,6.79-4.19c0.54-0.62,1.03-1.29,1.46-2.01C63.21,223.98,63.72,220.36,62.81,216.89z"/>
	<g>
		<g>
			
				<rect x="80.06" y="199.95" transform="matrix(0.9953 -0.0973 0.0973 0.9953 -20.2783 10.0256)" class="st38" width="25.15" height="25.87"/>
			
				<rect x="105.09" y="197.52" transform="matrix(0.9953 -0.0973 0.0973 0.9953 -19.924 12.4299)" class="st59" width="24.74" height="25.87"/>
			
				<rect x="130.12" y="195.07" transform="matrix(0.9953 -0.0973 0.0973 0.9953 -19.5669 14.8541)" class="st5" width="24.74" height="25.87"/>
			
				<rect x="129.77" y="196.3" transform="matrix(0.9953 -0.0973 0.0973 0.9953 -19.7455 13.642)" class="st5" width="0.41" height="25.87"/>
		</g>
		<path class="st60" d="M59.92,229.09l21.46-2.1l-2.52-25.75l-25.03,2.45l2.52,25.75l1.62-0.16c0.9-0.82,1.68-1.77,2.32-2.84
			c1.66-2.8,2.12-6.08,1.3-9.23c-0.02-0.08-0.05-0.15-0.07-0.22c-0.34,0.22-0.73,0.37-1.17,0.41c-1.47,0.14-2.77-0.93-2.92-2.39
			c-0.12-1.24,0.64-2.36,1.76-2.76c0.2-0.07,0.41-0.13,0.64-0.15c0.22-0.02,0.44-0.01,0.65,0.02c1.19,0.17,2.15,1.12,2.27,2.36
			c0.05,0.5-0.05,0.97-0.25,1.39c0.11,0.33,0.23,0.66,0.32,1.01c0.9,3.48,0.39,7.09-1.44,10.19
			C60.95,227.8,60.46,228.47,59.92,229.09z"/>
	</g>
	<g>
		<path class="st54" d="M301,254.24c-3.26-2.21,59.45-80.65,59.45-80.65c1.35-1.71,6.16,1.86,4.8,3.57
			C365.26,177.15,304.27,256.45,301,254.24z"/>
		<path class="st23" d="M356.32,183.85L356.32,183.85c-1.59-1.26-1.86-3.59-0.6-5.18l4.36-5.5c1.26-1.59,3.59-1.86,5.18-0.6v0
			c1.59,1.26,1.86,3.59,0.6,5.18l-4.36,5.5C360.24,184.84,357.91,185.11,356.32,183.85z"/>
		<path class="st36" d="M372.21,170.27L372.21,170.27C372.21,170.27,372.21,170.27,372.21,170.27c0-0.4,0.6-6.12,4.4-10.91
			c0.08-0.11-11.82,3.46-14.62,7.52c-0.02,0.02-0.04,0.04-0.06,0.06c-2.06,2.59-3.5,7.44-0.27,10.01c3.22,2.56,6.83-0.33,8.89-2.92
			C371.44,172.91,371.89,171.65,372.21,170.27z"/>
		<g>
			<defs>
				<path id="SVGID_1_" d="M372.21,170.27L372.21,170.27C372.21,170.27,372.21,170.27,372.21,170.27c0-0.4,0.6-6.12,4.4-10.91
					c0.08-0.11-11.82,3.46-14.62,7.52c-0.02,0.02-0.04,0.04-0.06,0.06c-2.06,2.59-1.73,6.28,0.74,8.24
					c2.47,1.96,5.86,1.43,7.92-1.16C371.48,172.9,371.84,171.69,372.21,170.27z"/>
			</defs>
			<clipPath id="SVGID_2_">
				<use xlink:href="#SVGID_1_"  style="overflow:visible;"/>
			</clipPath>
			<path class="st61" d="M370,161.54c-0.39,0.98-0.61,2.02-0.51,3.07c0.06,0.65,0.43,1.2,0.94,1.59c0.29,0.22,0.5,0.58,0.16,1.09
				c-0.68,1.03-0.03,5.03,2.77,4.45c1.3-0.27,3.75-3.66,5.04-7.26C380.37,158.94,372.18,156.07,370,161.54z"/>
		</g>
	</g>
	<g>
		<g>
			<path class="st38" d="M248.83,79.19l1,2.05c0.38,0.77-0.12,1.76-1.12,2.21l-1.69,0.75c-1,0.44-2.11,0.18-2.49-0.59l-1-2.05
				c-0.38-0.77,0.12-1.76,1.12-2.21l1.69-0.75C247.33,78.15,248.45,78.41,248.83,79.19z"/>
			<polygon class="st22" points="251.61,76.24 253.98,81.09 248.68,83.45 246.3,78.61 			"/>
			<polygon class="st34" points="286.2,66.68 307,57.3 304.61,52.5 277.59,64.69 249.69,77.13 252.03,81.92 278.59,70.08 
				278.61,70.11 284.91,67.26 286.2,66.69 			"/>
			<path class="st62" d="M249.88,82.31c-0.06-0.13-1.86-3.87-1.86-3.87"/>
		</g>
		<g>
			<g>
				<polygon class="st35" points="315.86,51.31 315.83,51.31 317.45,49.5 304.61,52.5 300.92,56.96 307.02,57.3 				"/>
				<polygon class="st36" points="315.86,51.31 319.12,49.11 317.12,49.58 315.78,51.36 				"/>
			</g>
		</g>
		<line class="st64" x1="298.33" y1="58.15" x2="254.5" y2="78.04"/>
	</g>
	<g>
		
			<rect x="187.38" y="203.25" transform="matrix(0.9991 -0.0423 0.0423 0.9991 -8.7234 10.7829)" class="st65" width="126.44" height="16.82"/>
		<g>
			<defs>
				
					<rect id="SVGID_3_" x="187.38" y="203.25" transform="matrix(0.9991 -0.0423 0.0423 0.9991 -8.7234 10.7829)" width="126.44" height="16.82"/>
			</defs>
			<clipPath id="SVGID_4_">
				<use xlink:href="#SVGID_3_"  style="overflow:visible;"/>
			</clipPath>
			
				<rect x="187.38" y="203.25" transform="matrix(0.9991 -0.0423 0.0423 0.9991 -8.7234 10.7829)" class="st66" width="126.44" height="16.82"/>
			
				<rect x="200.16" y="201.7" transform="matrix(0.9991 -0.0434 0.0434 0.9991 -8.7451 8.9025)" class="st67" width="0.75" height="8.07"/>
			
				<rect x="207.57" y="203.63" transform="matrix(0.9991 -0.0434 0.0434 0.9991 -8.8228 9.2328)" class="st67" width="1" height="8.07"/>
			
				<rect x="215.45" y="200.92" transform="matrix(0.9991 -0.0434 0.0434 0.9991 -8.6978 9.5669)" class="st67" width="0.75" height="8.07"/>
			
				<rect x="222.86" y="202.84" transform="matrix(0.9991 -0.0434 0.0434 0.9991 -8.7745 9.8962)" class="st67" width="1" height="8.07"/>
			
				<rect x="229.68" y="199.94" transform="matrix(0.9991 -0.0436 0.0436 0.9991 -8.6654 10.2132)" class="st67" width="0.75" height="8.07"/>
			
				<rect x="237.1" y="201.87" transform="matrix(0.9991 -0.0434 0.0434 0.9991 -8.7176 10.5123)" class="st67" width="1" height="8.07"/>
			
				<rect x="244.97" y="199.16" transform="matrix(0.9991 -0.0434 0.0434 0.9991 -8.5936 10.8477)" class="st67" width="0.75" height="8.07"/>
			
				<rect x="252.39" y="201.09" transform="matrix(0.9991 -0.0436 0.0436 0.9991 -8.6937 11.2085)" class="st67" width="1" height="8.07"/>
			
				<rect x="257.8" y="198.36" transform="matrix(0.9991 -0.0434 0.0434 0.9991 -8.5467 11.4042)" class="st67" width="0.75" height="8.07"/>
			
				<rect x="265.22" y="200.29" transform="matrix(0.9991 -0.0434 0.0434 0.9991 -8.6234 11.7334)" class="st67" width="1" height="8.07"/>
			
				<rect x="273.09" y="197.58" transform="matrix(0.9991 -0.0434 0.0434 0.9991 -8.4974 12.0661)" class="st67" width="0.75" height="8.07"/>
			
				<rect x="280.51" y="199.51" transform="matrix(0.9991 -0.0434 0.0434 0.9991 -8.575 12.3968)" class="st67" width="1" height="8.07"/>
			
				<rect x="287.33" y="196.6" transform="matrix(0.9991 -0.0434 0.0434 0.9991 -8.4425 12.6849)" class="st67" width="0.75" height="8.07"/>
			
				<rect x="294.74" y="198.53" transform="matrix(0.9991 -0.0434 0.0434 0.9991 -8.5192 13.0142)" class="st67" width="1" height="8.07"/>
			
				<rect x="302.62" y="195.82" transform="matrix(0.9991 -0.0434 0.0434 0.9991 -8.3942 13.3483)" class="st67" width="0.75" height="8.07"/>
			
				<rect x="310.03" y="197.75" transform="matrix(0.9991 -0.0434 0.0434 0.9991 -8.4699 13.6759)" class="st67" width="1" height="8.07"/>
			
				<rect x="192.73" y="203.69" transform="matrix(0.9991 -0.0434 0.0434 0.9991 -8.8396 8.5886)" class="st67" width="1" height="8.07"/>
		</g>
	</g>
</g>
<g id="Utilities">
	<g id="Layer_9">
		<g id="Layer_12">
		</g>
	</g>
</g>
<g id="Designer_Basics">
	<g id="Layer_13">
	</g>
</g>
<g id="Guides">
</g>
<g id="Layer_14">
</g>
<g id="Layer_18">
</g>
<g id="Layer_15">
</g>
<g id="Layer_20">
</g>
<g id="Layer_16">
</g>
<g id="Layer_21">
	<g>
		<polygon class="st58" points="405.93,206.79 405.93,348.71 474.82,348.71 474.82,344.03 472.31,344.03 472.31,344.56 
			471.71,344.56 471.71,344.03 468.89,344.03 468.89,344.59 468.3,344.59 468.3,344.03 467.51,344.03 467.51,344.57 466.92,344.57 
			466.92,344.03 464.1,344.03 464.1,344.59 463.51,344.59 463.51,344.03 462.69,344.03 462.69,341.6 465.2,341.6 465.2,341.04 
			466.86,341.04 466.86,341.6 469.41,341.6 469.41,341.04 471.07,341.04 471.07,341.6 482.98,341.6 482.98,341.04 484.64,341.04 
			484.64,341.6 487.19,341.6 487.19,341.04 488.85,341.04 488.85,341.6 491.43,341.6 491.43,344.03 490.46,344.03 490.46,344.56 
			489.87,344.56 489.87,344.03 487.05,344.03 487.05,344.59 486.46,344.59 486.46,344.03 485.67,344.03 485.67,344.57 
			485.08,344.57 485.08,344.03 482.26,344.03 482.26,344.59 481.66,344.59 481.66,344.03 479.5,344.03 479.5,348.71 605.3,348.71 
			605.3,344.57 602.78,344.57 602.78,345.1 602.19,345.1 602.19,344.57 599.37,344.57 599.37,345.13 598.78,345.13 598.78,344.57 
			597.99,344.57 597.99,345.11 597.4,345.11 597.4,344.57 594.58,344.57 594.58,345.14 593.98,345.14 593.98,344.57 593.17,344.57 
			593.17,342.14 595.67,342.14 595.67,341.58 597.34,341.58 597.34,342.14 599.89,342.14 599.89,341.58 601.55,341.58 
			601.55,342.14 613.45,342.14 613.45,341.58 615.12,341.58 615.12,342.14 617.67,342.14 617.67,341.58 619.33,341.58 
			619.33,342.14 621.91,342.14 621.91,344.57 620.94,344.57 620.94,345.1 620.35,345.1 620.35,344.57 617.53,344.57 617.53,345.13 
			616.93,345.13 616.93,344.57 616.15,344.57 616.15,345.11 615.56,345.11 615.56,344.57 612.73,344.57 612.73,345.14 
			612.14,345.14 612.14,344.57 609.98,344.57 609.98,348.71 736.62,348.71 736.62,345.22 734.1,345.22 734.1,345.75 733.51,345.75 
			733.51,345.22 730.69,345.22 730.69,345.78 730.09,345.78 730.09,345.22 729.31,345.22 729.31,345.76 728.72,345.76 
			728.72,345.22 725.9,345.22 725.9,345.79 725.3,345.79 725.3,345.22 724.49,345.22 724.49,342.79 726.99,342.79 726.99,342.23 
			728.66,342.23 728.66,342.79 731.21,342.79 731.21,342.23 732.87,342.23 732.87,342.79 744.77,342.79 744.77,342.23 
			746.44,342.23 746.44,342.79 748.99,342.79 748.99,342.23 750.65,342.23 750.65,342.79 753.23,342.79 753.23,345.22 
			752.26,345.22 752.26,345.75 751.67,345.75 751.67,345.22 748.84,345.22 748.84,345.78 748.25,345.78 748.25,345.22 
			747.47,345.22 747.47,345.76 746.88,345.76 746.88,345.22 744.05,345.22 744.05,345.79 743.46,345.79 743.46,345.22 741.3,345.22 
			741.3,348.71 867.13,348.71 867.13,345.54 864.61,345.54 864.61,346.08 864.02,346.08 864.02,345.54 861.19,345.54 861.19,346.1 
			860.6,346.1 860.6,345.54 859.82,345.54 859.82,346.08 859.23,346.08 859.23,345.54 856.4,345.54 856.4,346.11 855.81,346.11 
			855.81,345.54 855,345.54 855,343.11 857.5,343.11 857.5,342.56 859.16,342.56 859.16,343.11 861.71,343.11 861.71,342.56 
			863.37,342.56 863.37,343.11 875.28,343.11 875.28,342.56 876.94,342.56 876.94,343.11 879.49,343.11 879.49,342.56 
			881.15,342.56 881.15,343.11 883.73,343.11 883.73,345.54 882.77,345.54 882.77,346.08 882.17,346.08 882.17,345.54 
			879.35,345.54 879.35,346.1 878.76,346.1 878.76,345.54 877.97,345.54 877.97,346.08 877.38,346.08 877.38,345.54 874.56,345.54 
			874.56,346.11 873.97,346.11 873.97,345.54 871.8,345.54 871.8,348.71 997.82,348.71 997.82,345.92 995.3,345.92 995.3,346.45 
			994.71,346.45 994.71,345.92 991.88,345.92 991.88,346.48 991.29,346.48 991.29,345.92 990.51,345.92 990.51,346.46 
			989.92,346.46 989.92,345.92 987.09,345.92 987.09,346.49 986.5,346.49 986.5,345.92 985.69,345.92 985.69,343.49 988.19,343.49 
			988.19,342.93 989.85,342.93 989.85,343.49 992.4,343.49 992.4,342.93 994.07,342.93 994.07,343.49 1005.97,343.49 
			1005.97,342.93 1007.63,342.93 1007.63,343.49 1010.18,343.49 1010.18,342.93 1011.85,342.93 1011.85,343.49 1014.42,343.49 
			1014.42,345.92 1013.46,345.92 1013.46,346.45 1012.87,346.45 1012.87,345.92 1010.04,345.92 1010.04,346.48 1009.45,346.48 
			1009.45,345.92 1008.67,345.92 1008.67,346.46 1008.07,346.46 1008.07,345.92 1005.25,345.92 1005.25,346.49 1004.66,346.49 
			1004.66,345.92 1002.49,345.92 1002.49,348.71 1128.87,348.71 1128.87,346.44 1126.35,346.44 1126.35,346.97 1125.76,346.97 
			1125.76,346.44 1122.94,346.44 1122.94,347 1122.34,347 1122.34,346.44 1121.56,346.44 1121.56,346.98 1120.97,346.98 
			1120.97,346.44 1118.15,346.44 1118.15,347 1117.55,347 1117.55,346.44 1116.74,346.44 1116.74,344.01 1119.24,344.01 
			1119.24,343.45 1120.91,343.45 1120.91,344.01 1123.46,344.01 1123.46,343.45 1125.12,343.45 1125.12,344.01 1137.02,344.01 
			1137.02,343.45 1138.69,343.45 1138.69,344.01 1141.24,344.01 1141.24,343.45 1142.9,343.45 1142.9,344.01 1145.48,344.01 
			1145.48,346.44 1144.51,346.44 1144.51,346.97 1143.92,346.97 1143.92,346.44 1141.09,346.44 1141.09,347 1140.5,347 
			1140.5,346.44 1139.72,346.44 1139.72,346.98 1139.13,346.98 1139.13,346.44 1136.3,346.44 1136.3,347 1135.71,347 
			1135.71,346.44 1133.55,346.44 1133.55,348.71 1258.85,348.71 1258.85,346.23 1256.33,346.23 1256.33,346.76 1255.73,346.76 
			1255.73,346.23 1252.91,346.23 1252.91,346.79 1252.32,346.79 1252.32,346.23 1251.53,346.23 1251.53,346.77 1250.94,346.77 
			1250.94,346.23 1248.12,346.23 1248.12,346.79 1247.53,346.79 1247.53,346.23 1246.71,346.23 1246.71,343.8 1249.22,343.8 
			1249.22,343.24 1250.88,343.24 1250.88,343.8 1253.43,343.8 1253.43,343.24 1255.09,343.24 1255.09,343.8 1267,343.8 1267,343.24 
			1268.66,343.24 1268.66,343.8 1271.21,343.8 1271.21,343.24 1272.87,343.24 1272.87,343.8 1275.45,343.8 1275.45,346.23 
			1274.48,346.23 1274.48,346.76 1273.89,346.76 1273.89,346.23 1271.07,346.23 1271.07,346.79 1270.48,346.79 1270.48,346.23 
			1269.69,346.23 1269.69,346.77 1269.1,346.77 1269.1,346.23 1266.28,346.23 1266.28,346.79 1265.68,346.79 1265.68,346.23 
			1263.52,346.23 1263.52,348.71 1341.8,348.71 1341.8,206.79 		"/>
	</g>
</g>
<g id="Layer_22">
</g>
</svg>
