<svg width="432" height="199" xmlns="http://www.w3.org/2000/svg"><g fill="none" fill-rule="evenodd"><path fill="#FFF" d="M0 0h432v199H0z"/><g fill-rule="nonzero"><g transform="translate(43 84.9)"><path fill="#13A48E" d="M1.372 1.1h71.156v1.1H1.372z"/><ellipse fill="#80D9CB" cx="1.253" cy="1.43" rx="1.186" ry="1.1"/><ellipse fill="#80D9CB" cx="72.647" cy="1.43" rx="1.186" ry="1.1"/></g><path d="M83.153 142.1c.259 0 .647.251.647.503v3.143c0 .377-.259.754-.776.754h-3.106c-.389 0-.518-.377-.518-.629 0-.125.13-.628.518-.628h2.588v-2.64c0-.377.388-.503.647-.503zM44.811 93.7c-.244 0-.611-.206-.611-.412v-2.372c0-.31.122-.516.611-.516h2.2c.367 0 .489.31.489.516 0 .103-.122.515-.489.515h-1.589v1.857c0 .309-.366.412-.61.412zM83.231 93.7c.228 0 .569-.206.569-.412v-2.372c0-.31-.341-.516-.797-.516h-2.048c-.341 0-.455.31-.455.516 0 .103.114.515.455.515h1.707v1.857c0 .309.341.412.569.412zM43.65 142.1c-.22 0-.55.251-.55.503v3.143c0 .377.11.754.55.754h2.31c.33 0 .44-.377.44-.629 0-.125-.11-.628-.44-.628H44.2v-2.64c0-.377-.33-.503-.55-.503z" fill="#BEBEBE"/><path fill="#F5BE40" d="M212.456 149.681l-9.08-17.446 59.263-26.586 8.125 17.922z"/><path fill="#FFB30B" d="M212.456 149.681l-7.527-13.886 55.56-24.923 10.275 12.699z"/><path fill="#F4C766" d="M227.75 142.798l-22.821-7.003 55.56-24.923 10.275 12.699z"/><path fill="#76232F" d="M260.42 110.863l4.963 10.926-6.643 2.977-4.963-10.926z"/><path fill="#9D2235" d="M251.438 114.901l4.964 10.926-6.644 2.978-4.963-10.926z"/><path fill="#C8102E" d="M240.773 132.828l-4.898-10.919 6.571-2.967 5.018 10.92z"/><path fill="#D64C62" d="M233.477 122.967l4.963 10.927-6.644 2.977-4.962-10.927z"/><path fill="#D0F0EA" d="M224.606 126.96l4.963 10.926-6.643 2.978-4.963-10.926z"/><g transform="translate(210.664 135.558)" fill="#FFE000"><circle cx="5.377" cy="1.78" r="1"/><path d="M1.912 4.154c-.359.237-.837 0-1.076-.356-.239-.356 0-.83.359-1.068.358-.238.836 0 1.075.356.24.356.12.95-.358 1.068z"/></g><g><path fill="#F5BE40" d="M223.63 149.708l-18.293-10.248 34.793-59.822 18.174 10.487z"/><path fill="#EDA302" d="M223.63 149.708l-14.706-8.103 32.522-56.127 16.858 4.647z"/><path fill="#F4C766" d="M233.076 133.502l-24.152 8.103 32.522-56.127 16.858 4.647z"/><path fill="#13A48E" d="M241.5 85.552l11.071 6.391-3.895 6.703-11.072-6.39z"/><path fill="#40C6B2" d="M236.237 94.61l11.071 6.39-3.894 6.703-11.072-6.39z"/><path fill="#80D9CB" d="M230.98 103.668l11.07 6.392-3.896 6.702-11.07-6.392z"/><path fill="#BFECE5" d="M225.718 112.727l11.07 6.392-3.896 6.702-11.07-6.392z"/><path fill="#F7F7F7" d="M220.458 121.784l11.07 6.39-3.895 6.703-11.07-6.39z"/><g transform="translate(216.26 134.217)" fill="#FFE000"><circle cx="3.304" cy="1.788" r="1"/><path d="M1.75 6.077c-.24.358-.717.596-1.196.358-.358-.238-.597-.715-.358-1.192.239-.476.717-.596 1.195-.357.479.238.598.715.359 1.191z"/></g></g><path fill="#F5BE40" d="M201.2 75h23.1v74.8h-23.1z"/><path fill="#EDA302" d="M224.3 149.714h-19.453V80.693L224.3 75.83z"/><path fill="#F4C766" d="M224.3 129.603l-19.453 20.111v-68.85l19.453-4.85z"/><g><path fill="#333" d="M204.847 80.93h14.59v8.302h-14.59z"/><path fill="#404040" d="M204.847 91.603h14.59v8.302h-14.59z"/><path fill="gray" d="M204.847 103.463h14.59v8.302h-14.59z"/><path fill="#BEBEBE" d="M204.847 114.136h14.59v8.302h-14.59z"/><path fill="#F7F7F7" d="M204.847 125.996h14.59v8.302h-14.59z"/></g><g><path fill="#D64C62" d="M329 127.8h23.1v23.1H329z"/><path fill="#E38796" d="M329 127.8h23.1v23.1"/><path fill="#4990C3" d="M341.1 86h52.8v52.8h-52.8z"/><path fill="#007DBA" d="M341.1 86h52.8v52.8"/><path d="M383.764 96.136c.315.314.315.943 0 1.257l-32.371 32.371c-.314.315-.943.315-1.257 0-.315-.314-.315-.943 0-1.257l32.371-32.371c.314-.315.943-.315 1.257 0z" fill="#A4C7E1"/><path fill="#F1C3CB" d="M341.124 126.928h11.849v11.849h-11.849z"/><g fill="#A4C7E1"><path d="M341.634 139.185h-.51a.44.44 0 01-.409-.409v-.51a.44.44 0 01.409-.409.44.44 0 01.408.409v.102h.102a.44.44 0 01.409.408.44.44 0 01-.409.409zM351.44 139.248h-1.021c-.205 0-.409-.22-.409-.44s.204-.44.409-.44h1.021c.204 0 .409.22.409.44s-.205.44-.409.44zm-1.94 0h-1.022c-.204 0-.409-.22-.409-.44s.205-.44.409-.44h1.021c.205 0 .409.22.409.44s-.204.44-.409.44zm-2.044 0h-1.021c-.204 0-.409-.22-.409-.44s.205-.44.409-.44h1.021c.205 0 .409.22.409.44s-.102.44-.409.44zm-1.94 0h-1.022c-.204 0-.408-.22-.408-.44s.204-.44.408-.44h1.022c.204 0 .408.22.408.44s-.204.44-.408.44zm-1.941 0h-1.021c-.205 0-.409-.22-.409-.44s.204-.44.409-.44h1.021c.204 0 .409.22.409.44s-.205.44-.409.44zM352.972 139.185h-.51a.44.44 0 01-.41-.409.44.44 0 01.41-.408h.102v-.102a.44.44 0 01.408-.409.44.44 0 01.409.409v.51c-.102.205-.205.409-.409.409zM353.004 137.653c-.22 0-.44-.204-.44-.409v-1.021c0-.204.22-.409.44-.409s.44.205.44.409v1.021c-.11.307-.22.409-.44.409zm0-1.94c-.22 0-.44-.205-.44-.41v-1.02c0-.205.22-.41.44-.41s.44.205.44.41v1.02c-.11.307-.22.41-.44.41zm0-1.942c-.22 0-.44-.204-.44-.408v-1.022c0-.204.22-.408.44-.408s.44.204.44.408v1.022c-.11.204-.22.408-.44.408zm0-1.94c-.22 0-.44-.205-.44-.409v-1.021c0-.205.22-.409.44-.409s.44.204.44.409v1.021c-.11.204-.22.409-.44.409zm0-2.043c-.22 0-.44-.204-.44-.409v-1.021c0-.204.22-.409.44-.409s.44.205.44.409v1.021c-.11.307-.22.409-.44.409zM352.972 127.847a.44.44 0 01-.408-.408v-.103h-.103a.44.44 0 01-.408-.408c0-.204.204-.307.408-.307h.511a.44.44 0 01.409.409v.51c-.102.103-.205.307-.409.307zM351.44 127.4h-1.021c-.205 0-.409-.22-.409-.44s.204-.33.409-.33h1.021c.204 0 .409.22.409.44s-.205.33-.409.33zm-1.94 0h-1.022c-.204 0-.409-.22-.409-.44s.205-.44.409-.44h1.021c.205 0 .409.22.409.44s-.204.44-.409.44zm-2.044 0h-1.021c-.204 0-.409-.22-.409-.44s.205-.44.409-.44h1.021c.205 0 .409.22.409.44s-.102.44-.409.44zm-1.94 0h-1.022c-.204 0-.408-.22-.408-.44s.204-.44.408-.44h1.022c.204 0 .408.22.408.44s-.204.44-.408.44zm-1.941 0h-1.021c-.205 0-.409-.22-.409-.44s.204-.44.409-.44h1.021c.204 0 .409.22.409.44s-.205.44-.409.44zM341.124 127.847a.44.44 0 01-.409-.408v-.511a.44.44 0 01.409-.409h.51a.44.44 0 01.409.409.44.44 0 01-.409.408h-.102v.103c-.102.204-.204.408-.408.408zM341.155 137.653c-.22 0-.44-.204-.44-.409v-1.021c0-.204.22-.409.44-.409s.44.205.44.409v1.021c-.11.307-.22.409-.44.409zm0-1.94c-.22 0-.44-.205-.44-.41v-1.02c0-.205.22-.41.44-.41s.44.205.44.41v1.02c-.11.307-.22.41-.44.41zm0-1.942c-.22 0-.44-.204-.44-.408v-1.022c0-.204.22-.408.44-.408s.44.204.44.408v1.022c-.11.204-.22.408-.44.408zm0-1.94c-.22 0-.44-.205-.44-.409v-1.021c0-.205.22-.409.44-.409s.44.204.44.409v1.021c-.11.204-.22.409-.44.409zm0-2.043c-.22 0-.44-.204-.44-.409v-1.021c0-.204.22-.409.44-.409s.44.205.44.409v1.021c-.11.307-.22.409-.44.409z"/></g><path fill="#A4C7E1" d="M377.4 93.7v2.6h6.2v6.2h2.6v-8.8z"/><path fill="#76ACD2" d="M383.45 96.3v6.2h2.75v-8.8"/></g></g><text font-family="RocketSansMedium, Rocket Sans" font-size="60" font-weight="400" fill="#C8102E"><tspan x="43.03" y="138">A</tspan></text><text font-family="RocketSansMedium, Rocket Sans" font-size="60" font-weight="400" fill="#C8102E"><tspan x="88.25" y="138">a</tspan></text></g></svg>