<?xml version="1.0" encoding="utf-8"?>
<!-- Generator: Adobe Illustrator 24.0.3, SVG Export Plug-In . SVG Version: 6.00 Build 0)  -->
<svg version="1.1" xmlns="http://www.w3.org/2000/svg" xmlns:xlink="http://www.w3.org/1999/xlink" x="0px" y="0px"
	 viewBox="0 0 432 288" style="enable-background:new 0 0 432 288;" xml:space="preserve">
<style type="text/css">
	.st0{display:none;}
	.st1{fill:#FFFFFF;}
	.st2{fill:none;stroke:#8A8F91;stroke-width:5.486;stroke-linecap:round;stroke-miterlimit:10;}
	.st3{fill:none;stroke:#8A8F91;stroke-width:5.486;stroke-linecap:round;stroke-miterlimit:10;stroke-dasharray:16.4149,16.4149;}
	.st4{fill:#90374E;}
	.st5{fill:#C8102E;}
	.st6{fill:#A4C7E1;}
	.st7{fill:#F7F7F7;}
	.st8{fill:none;stroke:#75ABD2;stroke-width:2.8499;stroke-linecap:round;stroke-miterlimit:10;}
	.st9{fill:none;stroke:#BED6E5;stroke-width:2.9507;stroke-linecap:round;stroke-miterlimit:10;}
	.st10{fill:none;stroke:#8A8F91;stroke-width:5.486;stroke-linecap:round;stroke-miterlimit:10;stroke-dasharray:16.621,16.621;}
	.st11{opacity:0.62;fill:#808080;}
	.st12{fill:#EDA302;}
	.st13{fill:#246281;}
	.st14{fill:#007DBB;}
	.st15{fill:none;stroke:#FFFFFF;stroke-width:2.255;stroke-miterlimit:10;}
	.st16{fill:none;stroke:#FFFFFF;stroke-width:5.3676;stroke-miterlimit:10;}
	.st17{opacity:0.74;fill:#A4C7E1;stroke:#FFFFFF;stroke-width:2.6838;stroke-miterlimit:10;}
	.st18{fill:#404040;}
	.st19{opacity:0.67;fill:none;stroke:#FFFFFF;stroke-width:5.3676;stroke-linecap:round;stroke-miterlimit:10;}
	.st20{opacity:0.68;fill:#E8E7E5;}
	.st21{fill:#808080;}
	.st22{fill:#BEBEBE;}
	.st23{fill:#CFCFCF;}
	.st24{fill:none;stroke:#F7DA9A;stroke-width:2.3278;stroke-miterlimit:10;}
	.st25{fill:none;stroke:#C8102E;stroke-width:2.3278;stroke-linecap:round;stroke-miterlimit:10;}
	.st26{fill:none;stroke:#C8102E;stroke-width:3.0641;stroke-linecap:round;stroke-miterlimit:10;}
	.st27{fill:none;stroke:#808080;stroke-width:2.3278;stroke-linecap:round;stroke-miterlimit:10;}
	.st28{fill:none;stroke:#007DBA;stroke-width:2.3278;stroke-linecap:round;stroke-miterlimit:10;}
	.st29{fill:none;stroke:#C8102E;stroke-width:2.4803;stroke-linecap:round;stroke-miterlimit:10;}
	.st30{fill:#F8DA96;}
	.st31{fill:#770A1A;}
	.st32{fill:#8E4F16;}
	.st33{fill:#8C0727;}
	.st34{fill:#EDA102;}
	.st35{fill:#F8DB9A;}
	.st36{fill:#333333;}
	.st37{fill:none;stroke:#BD7F00;stroke-width:0.5102;stroke-linecap:round;stroke-miterlimit:10;}
	.st38{fill:#E38796;}
	.st39{opacity:0.54;fill:none;stroke:#808080;stroke-width:0.3492;stroke-linecap:round;stroke-miterlimit:10;}
	.st40{fill:none;stroke:#333333;stroke-width:0.5919;stroke-linecap:round;stroke-miterlimit:10;}
	.st41{fill:#EACA8B;}
	.st42{fill:#E5B75C;}
	.st43{fill:#814B1C;}
	.st44{fill:#F3F3F3;}
	.st45{fill:none;stroke:#BEBEBE;stroke-width:2.498;stroke-linecap:round;stroke-miterlimit:10;}
	.st46{fill:none;stroke:#BEBEBE;stroke-width:2.6366;stroke-linecap:round;stroke-miterlimit:10;}
	.st47{fill:none;stroke:#BEBEBE;stroke-width:2.3274;stroke-linecap:round;stroke-miterlimit:10;}
	.st48{fill:none;stroke:#C8102E;stroke-width:2.2127;stroke-linecap:round;stroke-linejoin:round;stroke-miterlimit:10;}
	.st49{fill:none;stroke:#C8102E;stroke-width:2.3598;stroke-linecap:round;stroke-linejoin:round;stroke-miterlimit:10;}
	.st50{fill:none;stroke:#C8102E;stroke-width:2.2212;stroke-linecap:round;stroke-linejoin:round;stroke-miterlimit:10;}
	.st51{fill:none;stroke:#BEBEBE;stroke-width:1.2696;stroke-miterlimit:10;}
	.st52{fill:#76ACD2;}
	.st53{fill:#4990C3;}
	.st54{fill:#007DBA;}
	.st55{fill:#F4C766;}
	.st56{fill:#F5BE40;}
	.st57{fill:#F7DA9A;}
	.st58{fill:none;}
	.st59{fill:#D64C62;}
	.st60{fill:#F1C3CB;}
	.st61{clip-path:url(#SVGID_2_);fill:#C8102E;}
	.st62{opacity:0.54;fill:none;stroke:#808080;stroke-width:0.4206;stroke-linecap:round;stroke-miterlimit:10;}
	.st63{fill:none;stroke:#BD7F00;stroke-width:0.6145;stroke-linecap:round;stroke-miterlimit:10;}
	.st64{fill:none;stroke:#BD7F00;stroke-width:0.6283;stroke-linecap:round;stroke-miterlimit:10;}
	.st65{fill:#F3C766;}
	.st66{clip-path:url(#SVGID_4_);fill:#F3C766;}
	.st67{clip-path:url(#SVGID_4_);fill:#404040;}
	.st68{fill:none;stroke:#808080;stroke-width:2.6723;stroke-linecap:round;stroke-miterlimit:10;}
	.st69{fill:none;stroke:#BEBEBE;stroke-width:2.6723;stroke-linecap:round;stroke-miterlimit:10;}
	.st70{fill:none;stroke:#F5BE40;stroke-width:2.6723;stroke-miterlimit:10;}
	.st71{fill:#40C6B2;}
	.st72{fill:none;stroke:#C8102E;stroke-width:2.0043;stroke-linecap:round;stroke-linejoin:round;stroke-miterlimit:10;}
	.st73{fill:none;stroke:#808080;stroke-width:1.3362;stroke-linecap:round;stroke-miterlimit:10;}
	.st74{opacity:0.54;fill:none;stroke:#808080;stroke-width:0.4873;stroke-linecap:round;stroke-miterlimit:10;}
	.st75{fill:none;stroke:#BD7F00;stroke-width:0.712;stroke-linecap:round;stroke-miterlimit:10;}
	.st76{fill:none;stroke:#BD7F00;stroke-width:0.728;stroke-linecap:round;stroke-miterlimit:10;}
	.st77{fill:#A00523;}
	.st78{fill:#D0D0D0;}
	.st79{fill:#FBFAFB;}
	.st80{fill:none;stroke:#007DBA;stroke-width:1.505;stroke-miterlimit:10;}
	.st81{fill:none;stroke:#007DBA;stroke-width:1.5157;stroke-miterlimit:10;}
	.st82{fill:#956841;}
	.st83{fill:#704C32;}
	.st84{fill:#C61833;}
	.st85{opacity:0.61;fill:#A4C7E1;}
	.st86{fill:none;stroke:#C8102E;stroke-width:2.4372;stroke-linecap:round;stroke-miterlimit:10;}
	.st87{fill:none;stroke:#D64C62;stroke-width:4.4275;stroke-linecap:square;stroke-miterlimit:10;}
	.st88{fill:#9B122C;}
	.st89{fill:#EAE8E8;}
	.st90{fill:#F2F2F2;}
	.st91{opacity:0.97;fill:#EAE8E8;}
	.st92{fill:#EAEAEA;}
	.st93{fill:#FFFDFD;}
	.st94{fill:#01947E;}
	.st95{opacity:0.35;fill:#8CB5AD;}
	.st96{fill:#A3CEC6;}
	.st97{fill:none;stroke:#CFCFCF;stroke-width:0.5;stroke-miterlimit:10;}
</style>
<g id="Layer_17" class="st0">
</g>
<g id="Layer_19">
</g>
<g id="Layer_1" class="st0">
</g>
<g id="News_And_Updates">
	<g id="Layer_2">
	</g>
</g>
<g id="Components">
	<g id="Layer_5">
	</g>
</g>
<g id="Developer_Basics">
</g>
<g id="Foundations">
</g>
<g id="Utilities">
	<g id="Layer_9">
		<g id="Layer_12">
		</g>
	</g>
</g>
<g id="Designer_Basics">
	<g id="Layer_13">
	</g>
</g>
<g id="Guides">
	<g>
		<path class="st5" d="M331.09,107.26L187.33,95.8c-65.71-31.18-124.47-7.01-137.36,0.2c-0.06,0.03-0.59,3.13-0.59,3.13
			s47.43,101.69,81.13,140.32c41.32-24.04,107.72-26.57,122.63-27.34c0.15,1.08,1.79,9.61,15.45,8.2c0,0,67.74-1.68,119.27-57.69
			L331.09,107.26z"/>
		<path class="st88" d="M128.9,240.94l1.88-4.7c54.91-33.17,121.63-25.66,122.28-25.63c0.75,0.03,1.44,0.45,1.82,1.1
			c0.38,0.65,0.4,1.45,0.06,2.13l0,0c0,0-0.37,0.82,0.06,1.55c0.34,0.58,1.69,1.97,6.88,2.38c0.63,0.04,64.01,4.28,124.29-56.84
			l3.15,3.11c-60.23,63.08-127.14,58.19-127.79,58.14c-5.42-0.42-8.92-1.99-10.41-4.67c0-0.01-0.01-0.02-0.01-0.03
			c-0.83-1.51-2.37-2.49-4.1-2.43C230.05,215.68,173.5,217.2,128.9,240.94z"/>
		<path class="st59" d="M128.9,241.07c0,0-17.68-17.39-47.87-74.26c-15.83-29.82-32.28-64.39-32.39-64.63l1.2-6.24l0.72,2.14
			c0.11,0.24,10.93,24.44,26.95,54c36.39,67.13,53.28,84.16,53.28,84.16L128.9,241.07z"/>
		<path class="st89" d="M187.24,95.56c0,0,53.19,10.36,94.28-34.79l95.27,82.5c0,0-27.86,80.58-121.12,67.29L187.24,95.56z"/>
		<path class="st90" d="M187.24,95.56c0,0,49.7-1.49,58.01-70.89l107.82,92.75c0,0-21.99,83.21-97.39,93.14L187.24,95.56z"/>
		<path class="st7" d="M187.24,95.56c0,0,25.96-2.74,10.6-70.93l110.6,81.32c0,0-2.17,85.12-52.76,104.62L187.24,95.56z"/>
		<path class="st91" d="M160.06,27.36c0,0,38.12,43.41,31.78,68.2l63.84,115.01c0,0,25.39-39.01,1.28-76.14
			C243.03,112.98,160.06,27.36,160.06,27.36z"/>
		<path class="st92" d="M255.68,210.57c0,0-52.22-17.12-126.28,17.19c0.57,0-74.9-140.33-74.9-140.33s71.75-29.24,132.94,8.5
			C187.73,96.22,255.68,210.57,255.68,210.57z"/>
		<path class="st93" d="M255.67,210.57c-41.06-33.83-122.28-1.65-122.28-1.65S54.38,74.28,53.38,74.61
			c93.87-18.28,133.86,20.95,133.86,20.95s38.04,63.85,57.43,96.39C251.27,203.03,255.59,210.51,255.67,210.57z"/>
		<path class="st7" d="M159.88,27.11c0,0,33.7,43.66,27.36,68.45l68.43,115.01c0,0,0.94-1.72,2.09-4.48
			c12.39-29.66,11.71-55.66-7.57-77.58L159.88,27.11z"/>
		<g>
			<path class="st5" d="M176.76,119.49c-0.79-6.34-4.37-12.09-9.49-16.77l-22.7,15.8l-34.18-12.09
				c-4.01,11.91,4.67,23.48,15.3,29.22c10.48,5.66,24.57,8.65,36.21,5.08C170.93,137.96,177.97,129.17,176.76,119.49z"/>
			<path class="st94" d="M125.37,92.05l19.19,26.46l22.7-15.8C156.41,92.81,138.6,87.73,125.37,92.05z"/>
			<path class="st56" d="M125.34,92.06c-5.31,1.74-9.88,4.98-12.95,10.05c-0.87,1.44-1.53,2.88-2.01,4.31l34.18,12.09L125.34,92.06z
				"/>
			<path class="st56" d="M118.75,93.66c0.01,0,0.02-0.01,0.02-0.01l-2.98-4.11c-0.01,0-0.02,0.01-0.03,0.01L118.75,93.66z"/>
			<path class="st56" d="M118.75,93.66l19.22,26.46l-19.2-26.46C118.77,93.65,118.76,93.65,118.75,93.66z"/>
		</g>
		<path class="st22" d="M122.67,163.42c-0.29,0-0.57-0.18-0.69-0.46c-0.15-0.38,0.03-0.81,0.41-0.96
			c0.41-0.17,41.73-16.41,90.51-6.34c0.4,0.08,0.66,0.47,0.57,0.87s-0.47,0.66-0.87,0.57c-48.32-9.98-89.25,6.1-89.66,6.26
			C122.85,163.4,122.76,163.42,122.67,163.42z"/>
		<path class="st22" d="M131.64,176.28c-0.3,0-0.58-0.19-0.69-0.49c-0.14-0.38,0.06-0.81,0.44-0.95c7.44-2.71,16.15-4.83,25.88-6.31
			c0.4-0.06,0.78,0.21,0.84,0.62c0.06,0.4-0.22,0.78-0.62,0.84c-9.63,1.46-18.24,3.56-25.59,6.24
			C131.81,176.26,131.72,176.28,131.64,176.28z"/>
		<path class="st22" d="M164.4,169.07c-0.37,0-0.69-0.28-0.73-0.65c-0.05-0.41,0.24-0.77,0.65-0.82c7.35-0.85,15.27-1.37,23.51-1.54
			c0.42-0.03,0.74,0.31,0.75,0.72s-0.31,0.75-0.72,0.75c-8.2,0.17-16.06,0.69-23.38,1.53C164.46,169.07,164.43,169.07,164.4,169.07z
			"/>
		<path class="st22" d="M218.94,168.5c-0.02,0-0.05,0-0.08,0c-0.11-0.01-11.48-1.15-26.98-1.03c0,0,0,0-0.01,0
			c-0.41,0-0.73-0.33-0.74-0.73c0-0.41,0.32-0.74,0.73-0.74c15.58-0.1,27.02,1.02,27.14,1.04c0.41,0.04,0.7,0.4,0.66,0.81
			C219.63,168.22,219.31,168.5,218.94,168.5z"/>
		<path class="st22" d="M223.27,180.02c-0.04,0-0.07,0-0.11-0.01c-10.28-1.48-21.93-1.73-34.63-0.73c-0.4,0.05-0.76-0.27-0.79-0.68
			c-0.03-0.41,0.27-0.76,0.68-0.79c12.81-1.01,24.57-0.76,34.96,0.74c0.4,0.06,0.68,0.43,0.62,0.84
			C223.95,179.75,223.64,180.02,223.27,180.02z"/>
		<path class="st22" d="M138.51,188.54c-0.31,0-0.61-0.2-0.7-0.52c-0.12-0.39,0.1-0.8,0.48-0.92c0.19-0.06,18.78-5.82,42.13-8.51
			c0.4-0.04,0.77,0.24,0.82,0.65c0.05,0.41-0.24,0.77-0.65,0.82c-23.21,2.67-41.68,8.39-41.86,8.45
			C138.66,188.53,138.59,188.54,138.51,188.54z"/>
		<path class="st90" d="M187.79,85.11c-0.3,0-0.55-0.22-0.59-0.53c-1.08-9.69-5.68-21.68-13.65-35.62
			c-0.16-0.28-0.06-0.64,0.22-0.81c0.28-0.16,0.64-0.06,0.81,0.22c8.06,14.08,12.7,26.22,13.8,36.07c0.04,0.32-0.2,0.62-0.52,0.65
			C187.83,85.1,187.81,85.11,187.79,85.11z"/>
		<path class="st90" d="M187.24,96.15c-0.15,0-0.3-0.06-0.41-0.17c-0.31-0.3-31.3-29.83-100.82-25.12
			c-0.33,0.01-0.61-0.22-0.63-0.55c-0.02-0.33,0.22-0.61,0.55-0.63c36.6-2.48,62.28,4.56,77.39,10.9
			c16.4,6.88,24.26,14.49,24.34,14.56c0.23,0.23,0.24,0.6,0.01,0.84C187.54,96.09,187.39,96.15,187.24,96.15z"/>
	</g>
</g>
<g id="Layer_14">
</g>
<g id="Layer_18">
</g>
<g id="Layer_15">
</g>
<g id="Layer_20">
</g>
<g id="Layer_16">
</g>
<g id="Layer_21">
</g>
<g id="Layer_22">
</g>
</svg>
