<svg enable-background="new 0 0 432 288" viewBox="0 0 432 288" xmlns="http://www.w3.org/2000/svg"><path d="m331.09 107.26-143.76-11.46c-65.71-31.18-124.47-7.01-137.36.2-.06.03-.59 3.13-.59 3.13s47.43 101.69 81.13 140.32c41.32-24.04 107.72-26.57 122.63-27.34.15 1.08 1.79 9.61 15.45 8.2 0 0 67.74-1.68 119.27-57.69z" fill="#c8102e"/><path d="m128.9 240.94 1.88-4.7c54.91-33.17 121.63-25.66 122.28-25.63.75.03 1.44.45 1.82 1.1s.4 1.45.06 2.13-.37.82.06 1.55c.34.58 1.69 1.97 6.88 2.38.63.04 64.01 4.28 124.29-56.84l3.15 3.11c-60.23 63.08-127.14 58.19-127.79 58.14-5.42-.42-8.92-1.99-10.41-4.67 0-.01-.01-.02-.01-.03-.83-1.51-2.37-2.49-4.1-2.43-16.96.63-73.51 2.15-118.11 25.89z" fill="#9b122c"/><path d="m128.9 241.07s-17.68-17.39-47.87-74.26c-15.83-29.82-32.28-64.39-32.39-64.63l1.2-6.24.72 2.14c.11.24 10.93 24.44 26.95 54 36.39 67.13 53.28 84.16 53.28 84.16z" fill="#d64c62"/><path d="m187.24 95.56s53.19 10.36 94.28-34.79l95.27 82.5s-27.86 80.58-121.12 67.29z" fill="#eae8e8"/><path d="m187.24 95.56s49.7-1.49 58.01-70.89l107.82 92.75s-21.99 83.21-97.39 93.14z" fill="#f2f2f2"/><path d="m187.24 95.56s25.96-2.74 10.6-70.93l110.6 81.32s-2.17 85.12-52.76 104.62z" fill="#f7f7f7"/><path d="m160.06 27.36s38.12 43.41 31.78 68.2l63.84 115.01s25.39-39.01 1.28-76.14c-13.93-21.45-96.9-107.07-96.9-107.07z" fill="#eae8e8" opacity=".97"/><path d="m255.68 210.57s-52.22-17.12-126.28 17.19c.57 0-74.9-140.33-74.9-140.33s71.75-29.24 132.94 8.5c.29.29 68.24 114.64 68.24 114.64z" fill="#eaeaea"/><path d="m255.67 210.57c-41.06-33.83-122.28-1.65-122.28-1.65s-79.01-134.64-80.01-134.31c93.87-18.28 133.86 20.95 133.86 20.95s38.04 63.85 57.43 96.39c6.6 11.08 10.92 18.56 11 18.62z" fill="#fffdfd"/><path d="m159.88 27.11s33.7 43.66 27.36 68.45l68.43 115.01s.94-1.72 2.09-4.48c12.39-29.66 11.71-55.66-7.57-77.58z" fill="#f7f7f7"/><path d="m176.76 119.49c-.79-6.34-4.37-12.09-9.49-16.77l-22.7 15.8-34.18-12.09c-4.01 11.91 4.67 23.48 15.3 29.22 10.48 5.66 24.57 8.65 36.21 5.08 9.03-2.77 16.07-11.56 14.86-21.24z" fill="#c8102e"/><path d="m125.37 92.05 19.19 26.46 22.7-15.8c-10.85-9.9-28.66-14.98-41.89-10.66z" fill="#01947e"/><path d="m125.34 92.06c-5.31 1.74-9.88 4.98-12.95 10.05-.87 1.44-1.53 2.88-2.01 4.31l34.18 12.09z" fill="#f5be40"/><path d="m118.75 93.66c.01 0 .02-.01.02-.01l-2.98-4.11c-.01 0-.02.01-.03.01z" fill="#f5be40"/><path d="m118.75 93.66 19.22 26.46-19.2-26.46c0-.01-.01-.01-.02 0z" fill="#f5be40"/><g fill="#bebebe"><path d="m122.67 163.42c-.29 0-.57-.18-.69-.46-.15-.38.03-.81.41-.96.41-.17 41.73-16.41 90.51-6.34.4.08.66.47.57.87s-.47.66-.87.57c-48.32-9.98-89.25 6.1-89.66 6.26-.09.04-.18.06-.27.06z"/><path d="m131.64 176.28c-.3 0-.58-.19-.69-.49-.14-.38.06-.81.44-.95 7.44-2.71 16.15-4.83 25.88-6.31.4-.06.78.21.84.62.06.4-.22.78-.62.84-9.63 1.46-18.24 3.56-25.59 6.24-.09.03-.18.05-.26.05z"/><path d="m164.4 169.07c-.37 0-.69-.28-.73-.65-.05-.41.24-.77.65-.82 7.35-.85 15.27-1.37 23.51-1.54.42-.03.74.31.75.72s-.31.75-.72.75c-8.2.17-16.06.69-23.38 1.53-.02.01-.05.01-.08.01z"/><path d="m218.94 168.5c-.02 0-.05 0-.08 0-.11-.01-11.48-1.15-26.98-1.03 0 0 0 0-.01 0-.41 0-.73-.33-.74-.73 0-.41.32-.74.73-.74 15.58-.1 27.02 1.02 27.14 1.04.41.04.7.4.66.81-.03.37-.35.65-.72.65z"/><path d="m223.27 180.02c-.04 0-.07 0-.11-.01-10.28-1.48-21.93-1.73-34.63-.73-.4.05-.76-.27-.79-.68s.27-.76.68-.79c12.81-1.01 24.57-.76 34.96.74.4.06.68.43.62.84-.05.36-.36.63-.73.63z"/><path d="m138.51 188.54c-.31 0-.61-.2-.7-.52-.12-.39.1-.8.48-.92.19-.06 18.78-5.82 42.13-8.51.4-.04.77.24.82.65s-.24.77-.65.82c-23.21 2.67-41.68 8.39-41.86 8.45-.07.02-.14.03-.22.03z"/></g><path d="m187.79 85.11c-.3 0-.55-.22-.59-.53-1.08-9.69-5.68-21.68-13.65-35.62-.16-.28-.06-.64.22-.81.28-.16.64-.06.81.22 8.06 14.08 12.7 26.22 13.8 36.07.04.32-.2.62-.52.65-.03.01-.05.02-.07.02z" fill="#f2f2f2"/><path d="m187.24 96.15c-.15 0-.3-.06-.41-.17-.31-.3-31.3-29.83-100.82-25.12-.33.01-.61-.22-.63-.55s.22-.61.55-.63c36.6-2.48 62.28 4.56 77.39 10.9 16.4 6.88 24.26 14.49 24.34 14.56.23.23.24.6.01.84-.13.11-.28.17-.43.17z" fill="#f2f2f2"/></svg>