<svg width="432" height="199" xmlns="http://www.w3.org/2000/svg"><g fill="none" fill-rule="evenodd"><path fill="#FFF" d="M0 0h432v199H0z"/><path d="M183.628 162.076c-6.827 0-12.381-5.554-12.381-12.382V59.7c0-6.827 5.554-12.381 12.381-12.381h64.944c6.827 0 12.382 5.554 12.382 12.381v89.993c0 6.828-5.555 12.382-12.382 12.382h-64.944" fill="#333"/><path d="M185.506 154.601c-4.112 0-7.457-3.345-7.457-7.456v-84.73c0-4.111 3.345-7.457 7.457-7.457h61.19c4.111 0 7.455 3.346 7.455 7.457v84.73c0 4.111-3.344 7.456-7.455 7.456h-61.19" fill="#FFFFFE"/><path d="M189.607 83.294l-2.925-2.925a1.928 1.928 0 012.726-2.726l2.925 2.925a1.928 1.928 0 01-2.726 2.726" fill="#C8102E"/><path d="M198.378 77.248l-6.045 6.046a1.928 1.928 0 01-2.726-2.726l6.046-6.046a1.927 1.927 0 112.725 2.726M189.607 99.928l-2.925-2.925a1.928 1.928 0 012.726-2.726l2.925 2.925a1.928 1.928 0 01-2.726 2.726" fill="#C8102E"/><path d="M198.378 93.882l-6.045 6.046a1.928 1.928 0 01-2.726-2.726l6.046-6.046a1.927 1.927 0 112.725 2.726M189.607 116.562l-2.925-2.925a1.928 1.928 0 012.726-2.726l2.925 2.925a1.928 1.928 0 01-2.726 2.726" fill="#C8102E"/><path d="M198.378 110.516l-6.045 6.046a1.928 1.928 0 01-2.726-2.726l6.046-6.045a1.927 1.927 0 112.725 2.725" fill="#C8102E"/><path d="M241.2 81.763h-35.778a2.083 2.083 0 110-4.165H241.2a2.084 2.084 0 010 4.165M241.2 98.398h-35.778a2.083 2.083 0 110-4.165H241.2a2.083 2.083 0 110 4.165M241.2 115.032h-35.778a2.083 2.083 0 110-4.165H241.2a2.083 2.083 0 110 4.165" fill="#BEBEBE"/><path d="M189.607 133.196l-2.925-2.925a1.928 1.928 0 012.726-2.726l2.925 2.925a1.928 1.928 0 01-2.726 2.726" fill="#C8102E"/><path d="M198.378 127.15l-6.045 6.046a1.928 1.928 0 01-2.726-2.726l6.046-6.045a1.927 1.927 0 112.725 2.726" fill="#C8102E"/><path d="M241.2 131.666h-35.778a2.083 2.083 0 110-4.165H241.2a2.083 2.083 0 110 4.165" fill="#BEBEBE"/><path d="M216.1 48.567a3.65 3.65 0 110-7.302 3.65 3.65 0 010 7.302m13.776-3.956h-5.833c-.312-4.116-3.745-7.363-7.943-7.363-4.198 0-7.63 3.247-7.941 7.363h-5.835a3.16 3.16 0 00-3.16 3.161v7.978a3.16 3.16 0 003.16 3.161h27.552a3.16 3.16 0 003.16-3.16v-7.979a3.16 3.16 0 00-3.16-3.16" fill="#40C6B2"/></g></svg>