<svg enable-background="new 0 0 432 288" viewBox="0 0 432 288" xmlns="http://www.w3.org/2000/svg"><path d="m298.5 28.46c2.81 0 5.54.34 8.16.97" fill="none" stroke="#8a8f91" stroke-linecap="round" stroke-miterlimit="10" stroke-width="5.486"/><path d="m321.09 36.93c7.21 6.3 11.76 15.56 11.76 25.88 0 30.22-36.54 41.85-59.73 49.22-23.37 7.43-46.71 14.97-70.11 22.28-17.29 5.4-34.75 10.32-52 15.83-15.49 4.94-31.13 11.37-42.37 23.56-12.7 13.77-18.45 33.07-7.27 49.6 7.8 11.54 21.17 18.35 34.94 21.71" style="fill:none;stroke:#8a8f91;stroke-width:5.486;stroke-linecap:round;stroke-miterlimit:10;stroke-dasharray:16.4149 16.4149"/><path d="m144.34 246.59c2.77.41 5.51.7 8.18.86" fill="none" stroke="#8a8f91" stroke-linecap="round" stroke-miterlimit="10" stroke-width="5.486"/><path d="m273.07 27.91-5.21 14.39-67.8 11.18z" fill="#90374e"/><path d="m259.37 8.2-4.5 17.21 37.07-2.65-91.88 30.72z" fill="#c8102e"/><path d="m254.13 26.75c-3 1.59-6.04 3.11-9.08 4.62l-9.17 4.44c-3.08 1.43-6.14 2.9-9.24 4.3-3.09 1.41-6.19 2.81-9.32 4.14 2.95-1.69 5.93-3.32 8.92-4.93 2.98-1.63 6-3.18 9-4.78l9.07-4.64c3.04-1.51 6.08-3.02 9.16-4.46.36-.17.8-.01.97.35s.02.78-.31.96z" fill="#90374e"/><path d="m320.93 211.64-145.04 44.69c-5.85 1.8-12.11-1.51-13.92-7.36l-24.02-78.69c-.03.01 54.38-90.1 54.38-90.1 2.15-4.29 7.29-6.14 11.68-4.19 0 0 97.77 40.13 97.79 40.18l26.49 81.54c1.8 5.86-1.51 12.12-7.36 13.93z" fill="#a4c7e1"/><path d="m148.21 99.02h156.33v126.24h-156.33z" fill="#f7f7f7" transform="matrix(.9557 -.2945 .2945 .9557 -37.7087 73.8521)"/><path d="m312.29 142.46-7.96-22.17c-.57-1.58-1.45-2.96-2.54-4.11-.08.08-.14.14-.14.14l-55.58 69.05c-3.75-1.17-7.82-.97-11.36.22s0 0-.01 0c0 0 0 0-.01 0-3.61 1.01-7.08 3.13-9.52 6.21 0 0-87.1-21.5-87.22-21.53-.06 1.64.93 3.4 1.35 5.03l6.93 22.83 18.38 59.43c1.64 6.35 8.18 10.2 14.52 8.56l145.69-47.76c6.17-2.22 9.4-9.08 7.19-15.25z" fill="#a4c7e1"/><g fill="none" stroke-linecap="round" stroke-miterlimit="10"><path d="m185.97 250.35 33.95-47.72" stroke="#75abd2" stroke-width="2.8499"/><path d="m311.32 213.02-54.92-20.33" stroke="#75abd2" stroke-width="2.8499"/><path d="m228.22 114.69 44.06-13.57" stroke="#bed6e5" stroke-width="2.9507"/><path d="m152.74 137.95 45.39-13.98" stroke="#bed6e5" stroke-width="2.9507"/><path d="m157.67 155.44 119.54-36.83" stroke="#bed6e5" stroke-width="2.9507"/><path d="m253.63 143.07 28.42-8.76" stroke="#bed6e5" stroke-width="2.9507"/><path d="m203.61 158.48 36.59-11.27" stroke="#bed6e5" stroke-width="2.9507"/><path d="m162.51 171.15 30.56-9.42" stroke="#bed6e5" stroke-width="2.9507"/><path d="m229.26 165.51 36.01-11.09" stroke="#bed6e5" stroke-width="2.9507"/><path d="m185.07 179.13 36.01-11.1" stroke="#bed6e5" stroke-width="2.9507"/></g><ellipse cx="137.3" cy="117.64" fill="#c8102e" rx="24.69" ry="25.68" transform="matrix(.8553 -.5181 .5181 .8553 -41.0822 88.151)"/><path d="m153.45 120.63c-.04-.28-.22-.5-.48-.59-1.21-.45-5.18-2.27-8.6-8.23-3.36-7.52-6.18-7.78-10.75-6.86-.09-.35-1.54-4.76-3.16-4.13-.03.01-.05.04-.08.06-.04 0-.08 0-.11.02-1.61.65.37 4.85.55 5.17-3.96 2.48-5.82 4.6-3.08 12.37 1.61 6.68-.01 10.73-.58 11.89-.12.25-.1.53.06.76.81 1.13 3.39 2.9 11.76.06.05.16 1.06 3.47 4.33 2.23v.01c.01-.01.02-.01.03-.02h.01c3.22-1.35 1.68-4.46 1.6-4.6 8.04-3.7 8.69-6.76 8.5-8.14z" fill="#fff"/><path d="m152.53 247.46c2.75.17 5.49.26 8.22.29" fill="none" stroke="#8a8f91" stroke-linecap="round" stroke-miterlimit="10" stroke-width="5.486"/><path d="m177.35 247.07c16.63-1.47 32.99-5.19 49.15-9.99 4.82-1.43 9.61-2.97 14.37-4.6 46.06-15.77 71.21 6.02 82.78 22.07" style="fill:none;stroke:#8a8f91;stroke-width:5.486;stroke-linecap:round;stroke-miterlimit:10;stroke-dasharray:16.621 16.621"/><path d="m328.14 261.54c2.49 4.39 3.6 7.39 3.6 7.39" fill="none" stroke="#8a8f91" stroke-linecap="round" stroke-miterlimit="10" stroke-width="5.486"/><path d="m364.26 187.29-69.54 22.45c-2 .64-4.13-.45-4.78-2.45l-5.72-17.72c-.64-2 .45-4.13 2.45-4.78l69.54-22.45c2-.64 4.13.45 4.78 2.45l5.72 17.72c.64 2-.46 4.14-2.45 4.78z" fill="#808080" opacity=".62"/><path d="m366.94 182.38-70.1 22.63c-1.84.59-3.82-.42-4.41-2.26l-5.9-18.28c-.59-1.84.42-3.82 2.26-4.41l70.1-22.63c1.84-.59 3.82.42 4.41 2.26l5.9 18.28c.59 1.84-.42 3.82-2.26 4.41z" fill="#f7f7f7"/><ellipse cx="286.33" cy="183.43" fill="#c8102e" rx="6.26" ry="6.51" transform="matrix(.8553 -.5181 .5181 .8553 -53.6077 174.8789)"/><path d="m297.13 186.66 60.5-18.92" fill="none" stroke="#bed6e5" stroke-linecap="round" stroke-miterlimit="10" stroke-width="2.9507"/><path d="m335.59 184.87 24.08-7.43" fill="none" stroke="#bed6e5" stroke-linecap="round" stroke-miterlimit="10" stroke-width="2.9507"/><path d="m300.61 196.01 24.56-7.67" fill="none" stroke="#bed6e5" stroke-linecap="round" stroke-miterlimit="10" stroke-width="2.9507"/></svg>