<svg width="4296" height="372" xmlns="http://www.w3.org/2000/svg"><g fill="none" fill-rule="evenodd"><g fill="#333" transform="translate(303 127)"><path d="M24 0h6a2 2 0 012 2v243H22V2a2 2 0 012-2z"/><rect y="8" width="54" height="10" rx="5"/><rect x="13" y="29" width="29" height="6" rx="3"/><path d="M21 48h5v9h-5a3 3 0 01-3-3v-3a3 3 0 013-3zM33 92h-6v-9h6a2 2 0 012 2v5a2 2 0 01-2 2z"/></g><path stroke="#333" stroke-width="2" stroke-linecap="square" d="M314.5 143.5l8 13M346 143.5l-8 13"/><path stroke="#333" stroke-linecap="square" d="M350 143.5l-8 13M311 143.5l8 13"/><g fill="#D8D8D8"><path stroke="#404040" d="M346.5 134.5h4v1h-4z"/><path d="M348 132h1a1 1 0 011 1h-3a1 1 0 011-1zM345 133h7a1 1 0 01-1 1h-5a1 1 0 01-1-1z"/></g><g fill="#D8D8D8"><path stroke="#404040" d="M309.5 134.5h4v1h-4z"/><path d="M311 132h1a1 1 0 011 1h-3a1 1 0 011-1zM308 133h7a1 1 0 01-1 1h-5a1 1 0 01-1-1z"/></g><path d="M311.326 132.781c70.717 24.888 125.212 37.3 163.486 37.237 38.274-.063 84.836-12.402 139.688-37.018" stroke="#BEBEBE" stroke-linecap="round"/><path d="M348.5 133c48.453 22.66 91.209 33.99 128.266 33.99 37.057 0 95.394-11.33 175.01-33.99" stroke="#BEBEBE" stroke-linecap="round"/><g fill="#333" transform="translate(606 127)"><path d="M24 0h6a2 2 0 012 2v243H22V2a2 2 0 012-2z"/><rect y="8" width="54" height="10" rx="5"/><rect x="13" y="29" width="29" height="6" rx="3"/><path d="M21 48h5v9h-5a3 3 0 01-3-3v-3a3 3 0 013-3zM33 92h-6v-9h6a2 2 0 012 2v5a2 2 0 01-2 2z"/></g><path stroke="#333" stroke-width="2" stroke-linecap="square" d="M617.5 143.5l8 13M649 143.5l-8 13"/><path stroke="#333" stroke-linecap="square" d="M653 143.5l-8 13M614 143.5l8 13"/><g fill="#D8D8D8"><path stroke="#404040" d="M649.5 134.5h4v1h-4z"/><path d="M651 132h1a1 1 0 011 1h-3a1 1 0 011-1zM648 133h7a1 1 0 01-1 1h-5a1 1 0 01-1-1z"/></g><g fill="#D8D8D8"><path stroke="#404040" d="M612.5 134.5h4v1h-4z"/><path d="M614 132h1a1 1 0 011 1h-3a1 1 0 011-1zM611 133h7a1 1 0 01-1 1h-5a1 1 0 01-1-1z"/></g><g fill="#333" transform="translate(606 127)"><path d="M24 0h6a2 2 0 012 2v243H22V2a2 2 0 012-2z"/><rect y="8" width="54" height="10" rx="5"/><rect x="13" y="29" width="29" height="6" rx="3"/><path d="M21 48h5v9h-5a3 3 0 01-3-3v-3a3 3 0 013-3zM33 92h-6v-9h6a2 2 0 012 2v5a2 2 0 01-2 2z"/></g><path stroke="#333" stroke-width="2" stroke-linecap="square" d="M617.5 143.5l8 13M649 143.5l-8 13"/><path stroke="#333" stroke-linecap="square" d="M653 143.5l-8 13M614 143.5l8 13"/><g fill="#D8D8D8"><path stroke="#404040" d="M649.5 134.5h4v1h-4z"/><path d="M651 132h1a1 1 0 011 1h-3a1 1 0 011-1zM648 133h7a1 1 0 01-1 1h-5a1 1 0 01-1-1z"/></g><g fill="#D8D8D8"><path stroke="#404040" d="M612.5 134.5h4v1h-4z"/><path d="M614 132h1a1 1 0 011 1h-3a1 1 0 011-1zM611 133h7a1 1 0 01-1 1h-5a1 1 0 01-1-1z"/></g><path d="M614.326 132.781c70.717 24.888 125.212 37.3 163.486 37.237 38.274-.063 84.836-12.402 139.688-37.018" stroke="#BEBEBE" stroke-linecap="round"/><path d="M651.5 133c48.453 22.66 91.209 33.99 128.266 33.99 37.057 0 95.394-11.33 175.01-33.99" stroke="#BEBEBE" stroke-linecap="round"/><g fill="#333" transform="translate(909 127)"><path d="M24 0h6a2 2 0 012 2v243H22V2a2 2 0 012-2z"/><rect y="8" width="54" height="10" rx="5"/><rect x="13" y="29" width="29" height="6" rx="3"/><path d="M21 48h5v9h-5a3 3 0 01-3-3v-3a3 3 0 013-3zM33 92h-6v-9h6a2 2 0 012 2v5a2 2 0 01-2 2z"/></g><path stroke="#333" stroke-width="2" stroke-linecap="square" d="M920.5 143.5l8 13M952 143.5l-8 13"/><path stroke="#333" stroke-linecap="square" d="M956 143.5l-8 13M917 143.5l8 13"/><g fill="#D8D8D8"><path stroke="#404040" d="M952.5 134.5h4v1h-4z"/><path d="M954 132h1a1 1 0 011 1h-3a1 1 0 011-1zM951 133h7a1 1 0 01-1 1h-5a1 1 0 01-1-1z"/></g><g fill="#D8D8D8"><path stroke="#404040" d="M915.5 134.5h4v1h-4z"/><path d="M917 132h1a1 1 0 011 1h-3a1 1 0 011-1zM914 133h7a1 1 0 01-1 1h-5a1 1 0 01-1-1z"/></g><g fill="#333" transform="translate(909 127)"><path d="M24 0h6a2 2 0 012 2v243H22V2a2 2 0 012-2z"/><rect y="8" width="54" height="10" rx="5"/><rect x="13" y="29" width="29" height="6" rx="3"/><path d="M21 48h5v9h-5a3 3 0 01-3-3v-3a3 3 0 013-3zM33 92h-6v-9h6a2 2 0 012 2v5a2 2 0 01-2 2z"/></g><path stroke="#333" stroke-width="2" stroke-linecap="square" d="M920.5 143.5l8 13M952 143.5l-8 13"/><path stroke="#333" stroke-linecap="square" d="M956 143.5l-8 13M917 143.5l8 13"/><g fill="#D8D8D8"><path stroke="#404040" d="M952.5 134.5h4v1h-4z"/><path d="M954 132h1a1 1 0 011 1h-3a1 1 0 011-1zM951 133h7a1 1 0 01-1 1h-5a1 1 0 01-1-1z"/></g><g fill="#D8D8D8"><path stroke="#404040" d="M915.5 134.5h4v1h-4z"/><path d="M917 132h1a1 1 0 011 1h-3a1 1 0 011-1zM914 133h7a1 1 0 01-1 1h-5a1 1 0 01-1-1z"/></g><path d="M917.326 132.781c70.717 24.888 125.212 37.3 163.486 37.237 38.274-.063 84.836-12.402 139.688-37.018" stroke="#BEBEBE" stroke-linecap="round"/><path d="M954.5 133c48.453 22.66 91.209 33.99 128.266 33.99 37.057 0 95.394-11.33 175.01-33.99" stroke="#BEBEBE" stroke-linecap="round"/><g fill="#333" transform="translate(1212 127)"><path d="M24 0h6a2 2 0 012 2v243H22V2a2 2 0 012-2z"/><rect y="8" width="54" height="10" rx="5"/><rect x="13" y="29" width="29" height="6" rx="3"/><path d="M21 48h5v9h-5a3 3 0 01-3-3v-3a3 3 0 013-3zM33 92h-6v-9h6a2 2 0 012 2v5a2 2 0 01-2 2z"/></g><path stroke="#333" stroke-width="2" stroke-linecap="square" d="M1223.5 143.5l8 13M1255 143.5l-8 13"/><path stroke="#333" stroke-linecap="square" d="M1259 143.5l-8 13M1220 143.5l8 13"/><g fill="#D8D8D8"><path stroke="#404040" d="M1255.5 134.5h4v1h-4z"/><path d="M1257 132h1a1 1 0 011 1h-3a1 1 0 011-1zM1254 133h7a1 1 0 01-1 1h-5a1 1 0 01-1-1z"/></g><g fill="#D8D8D8"><path stroke="#404040" d="M1218.5 134.5h4v1h-4z"/><path d="M1220 132h1a1 1 0 011 1h-3a1 1 0 011-1zM1217 133h7a1 1 0 01-1 1h-5a1 1 0 01-1-1z"/></g><g fill="#333" transform="translate(1212 127)"><path d="M24 0h6a2 2 0 012 2v243H22V2a2 2 0 012-2z"/><rect y="8" width="54" height="10" rx="5"/><rect x="13" y="29" width="29" height="6" rx="3"/><path d="M21 48h5v9h-5a3 3 0 01-3-3v-3a3 3 0 013-3zM33 92h-6v-9h6a2 2 0 012 2v5a2 2 0 01-2 2z"/></g><path stroke="#333" stroke-width="2" stroke-linecap="square" d="M1223.5 143.5l8 13M1255 143.5l-8 13"/><path stroke="#333" stroke-linecap="square" d="M1259 143.5l-8 13M1220 143.5l8 13"/><g fill="#D8D8D8"><path stroke="#404040" d="M1255.5 134.5h4v1h-4z"/><path d="M1257 132h1a1 1 0 011 1h-3a1 1 0 011-1zM1254 133h7a1 1 0 01-1 1h-5a1 1 0 01-1-1z"/></g><g fill="#D8D8D8"><path stroke="#404040" d="M1218.5 134.5h4v1h-4z"/><path d="M1220 132h1a1 1 0 011 1h-3a1 1 0 011-1zM1217 133h7a1 1 0 01-1 1h-5a1 1 0 01-1-1z"/></g><path d="M1220.326 132.781c70.717 24.888 125.212 37.3 163.486 37.237 38.274-.063 84.836-12.402 139.688-37.018" stroke="#BEBEBE" stroke-linecap="round"/><path d="M1257.5 133c48.453 22.66 91.209 33.99 128.266 33.99 37.057 0 95.394-11.33 175.01-33.99" stroke="#BEBEBE" stroke-linecap="round"/><g><g fill="#333" transform="translate(1515 127)"><path d="M24 0h6a2 2 0 012 2v243H22V2a2 2 0 012-2z"/><rect y="8" width="54" height="10" rx="5"/><rect x="13" y="29" width="29" height="6" rx="3"/><path d="M21 48h5v9h-5a3 3 0 01-3-3v-3a3 3 0 013-3zM33 92h-6v-9h6a2 2 0 012 2v5a2 2 0 01-2 2z"/></g><path stroke="#333" stroke-width="2" stroke-linecap="square" d="M1526.5 143.5l8 13M1558 143.5l-8 13"/><path stroke="#333" stroke-linecap="square" d="M1562 143.5l-8 13M1523 143.5l8 13"/><g fill="#D8D8D8"><path stroke="#404040" d="M1558.5 134.5h4v1h-4z"/><path d="M1560 132h1a1 1 0 011 1h-3a1 1 0 011-1zM1557 133h7a1 1 0 01-1 1h-5a1 1 0 01-1-1z"/></g><g fill="#D8D8D8"><path stroke="#404040" d="M1521.5 134.5h4v1h-4z"/><path d="M1523 132h1a1 1 0 011 1h-3a1 1 0 011-1zM1520 133h7a1 1 0 01-1 1h-5a1 1 0 01-1-1z"/></g></g><g><g fill="#333" transform="translate(1515 127)"><path d="M24 0h6a2 2 0 012 2v243H22V2a2 2 0 012-2z"/><rect y="8" width="54" height="10" rx="5"/><rect x="13" y="29" width="29" height="6" rx="3"/><path d="M21 48h5v9h-5a3 3 0 01-3-3v-3a3 3 0 013-3zM33 92h-6v-9h6a2 2 0 012 2v5a2 2 0 01-2 2z"/></g><path stroke="#333" stroke-width="2" stroke-linecap="square" d="M1526.5 143.5l8 13M1558 143.5l-8 13"/><path stroke="#333" stroke-linecap="square" d="M1562 143.5l-8 13M1523 143.5l8 13"/><g fill="#D8D8D8"><path stroke="#404040" d="M1558.5 134.5h4v1h-4z"/><path d="M1560 132h1a1 1 0 011 1h-3a1 1 0 011-1zM1557 133h7a1 1 0 01-1 1h-5a1 1 0 01-1-1z"/></g><g fill="#D8D8D8"><path stroke="#404040" d="M1521.5 134.5h4v1h-4z"/><path d="M1523 132h1a1 1 0 011 1h-3a1 1 0 011-1zM1520 133h7a1 1 0 01-1 1h-5a1 1 0 01-1-1z"/></g></g><path d="M1523.326 132.781c70.717 24.888 125.212 37.3 163.486 37.237 38.274-.063 84.836-12.402 139.688-37.018" stroke="#BEBEBE" stroke-linecap="round"/><path d="M1560.5 133c48.453 22.66 91.209 33.99 128.266 33.99 37.057 0 95.394-11.33 175.01-33.99" stroke="#BEBEBE" stroke-linecap="round"/><g><g fill="#333" transform="translate(1818 127)"><path d="M24 0h6a2 2 0 012 2v243H22V2a2 2 0 012-2z"/><rect y="8" width="54" height="10" rx="5"/><rect x="13" y="29" width="29" height="6" rx="3"/><path d="M21 48h5v9h-5a3 3 0 01-3-3v-3a3 3 0 013-3zM33 92h-6v-9h6a2 2 0 012 2v5a2 2 0 01-2 2z"/></g><path stroke="#333" stroke-width="2" stroke-linecap="square" d="M1829.5 143.5l8 13M1861 143.5l-8 13"/><path stroke="#333" stroke-linecap="square" d="M1865 143.5l-8 13M1826 143.5l8 13"/><g fill="#D8D8D8"><path stroke="#404040" d="M1861.5 134.5h4v1h-4z"/><path d="M1863 132h1a1 1 0 011 1h-3a1 1 0 011-1zM1860 133h7a1 1 0 01-1 1h-5a1 1 0 01-1-1z"/></g><g fill="#D8D8D8"><path stroke="#404040" d="M1824.5 134.5h4v1h-4z"/><path d="M1826 132h1a1 1 0 011 1h-3a1 1 0 011-1zM1823 133h7a1 1 0 01-1 1h-5a1 1 0 01-1-1z"/></g></g><g><g fill="#333" transform="translate(1818 127)"><path d="M24 0h6a2 2 0 012 2v243H22V2a2 2 0 012-2z"/><rect y="8" width="54" height="10" rx="5"/><rect x="13" y="29" width="29" height="6" rx="3"/><path d="M21 48h5v9h-5a3 3 0 01-3-3v-3a3 3 0 013-3zM33 92h-6v-9h6a2 2 0 012 2v5a2 2 0 01-2 2z"/></g><path stroke="#333" stroke-width="2" stroke-linecap="square" d="M1829.5 143.5l8 13M1861 143.5l-8 13"/><path stroke="#333" stroke-linecap="square" d="M1865 143.5l-8 13M1826 143.5l8 13"/><g fill="#D8D8D8"><path stroke="#404040" d="M1861.5 134.5h4v1h-4z"/><path d="M1863 132h1a1 1 0 011 1h-3a1 1 0 011-1zM1860 133h7a1 1 0 01-1 1h-5a1 1 0 01-1-1z"/></g><g fill="#D8D8D8"><path stroke="#404040" d="M1824.5 134.5h4v1h-4z"/><path d="M1826 132h1a1 1 0 011 1h-3a1 1 0 011-1zM1823 133h7a1 1 0 01-1 1h-5a1 1 0 01-1-1z"/></g></g><path d="M1826.326 132.781c70.717 24.888 125.212 37.3 163.486 37.237 38.274-.063 84.836-12.402 139.688-37.018" stroke="#BEBEBE" stroke-linecap="round"/><path d="M1863.5 133c48.453 22.66 91.209 33.99 128.266 33.99 37.057 0 95.394-11.33 175.01-33.99M8.326 132.781c70.717 24.888 125.212 37.3 163.486 37.237 38.274-.063 84.836-12.402 139.688-37.018" stroke="#BEBEBE" stroke-linecap="round"/><path d="M45.5 133c48.453 22.66 91.209 33.99 128.266 33.99 37.057 0 95.394-11.33 175.01-33.99" stroke="#BEBEBE" stroke-linecap="round"/><g><g fill="#333" transform="translate(303 127)"><path d="M24 0h6a2 2 0 012 2v243H22V2a2 2 0 012-2z"/><rect y="8" width="54" height="10" rx="5"/><rect x="13" y="29" width="29" height="6" rx="3"/><path d="M21 48h5v9h-5a3 3 0 01-3-3v-3a3 3 0 013-3zM33 92h-6v-9h6a2 2 0 012 2v5a2 2 0 01-2 2z"/></g><path stroke="#333" stroke-width="2" stroke-linecap="square" d="M314.5 143.5l8 13M346 143.5l-8 13"/><path stroke="#333" stroke-linecap="square" d="M350 143.5l-8 13M311 143.5l8 13"/><g fill="#D8D8D8"><path stroke="#404040" d="M346.5 134.5h4v1h-4z"/><path d="M348 132h1a1 1 0 011 1h-3a1 1 0 011-1zM345 133h7a1 1 0 01-1 1h-5a1 1 0 01-1-1z"/></g><g fill="#D8D8D8"><path stroke="#404040" d="M309.5 134.5h4v1h-4z"/><path d="M311 132h1a1 1 0 011 1h-3a1 1 0 011-1zM308 133h7a1 1 0 01-1 1h-5a1 1 0 01-1-1z"/></g></g><g><g fill="#333" transform="translate(2121 127)"><path d="M24 0h6a2 2 0 012 2v243H22V2a2 2 0 012-2z"/><rect y="8" width="54" height="10" rx="5"/><rect x="13" y="29" width="29" height="6" rx="3"/><path d="M21 48h5v9h-5a3 3 0 01-3-3v-3a3 3 0 013-3zM33 92h-6v-9h6a2 2 0 012 2v5a2 2 0 01-2 2z"/></g><path stroke="#333" stroke-width="2" stroke-linecap="square" d="M2132.5 143.5l8 13M2164 143.5l-8 13"/><path stroke="#333" stroke-linecap="square" d="M2168 143.5l-8 13M2129 143.5l8 13"/><g fill="#D8D8D8"><path stroke="#404040" d="M2164.5 134.5h4v1h-4z"/><path d="M2166 132h1a1 1 0 011 1h-3a1 1 0 011-1zM2163 133h7a1 1 0 01-1 1h-5a1 1 0 01-1-1z"/></g><g fill="#D8D8D8"><path stroke="#404040" d="M2127.5 134.5h4v1h-4z"/><path d="M2129 132h1a1 1 0 011 1h-3a1 1 0 011-1zM2126 133h7a1 1 0 01-1 1h-5a1 1 0 01-1-1z"/></g></g><g><g fill="#333" transform="translate(0 127)"><path d="M24 0h6a2 2 0 012 2v243H22V2a2 2 0 012-2z"/><rect y="8" width="54" height="10" rx="5"/><rect x="13" y="29" width="29" height="6" rx="3"/><path d="M21 48h5v9h-5a3 3 0 01-3-3v-3a3 3 0 013-3zM33 92h-6v-9h6a2 2 0 012 2v5a2 2 0 01-2 2z"/></g><path stroke="#333" stroke-width="2" stroke-linecap="square" d="M11.5 143.5l8 13M43 143.5l-8 13"/><path stroke="#333" stroke-linecap="square" d="M47 143.5l-8 13M8 143.5l8 13"/><g fill="#D8D8D8"><path stroke="#404040" d="M43.5 134.5h4v1h-4z"/><path d="M45 132h1a1 1 0 011 1h-3a1 1 0 011-1zM42 133h7a1 1 0 01-1 1h-5a1 1 0 01-1-1z"/></g><g fill="#D8D8D8"><path stroke="#404040" d="M6.5 134.5h4v1h-4z"/><path d="M8 132h1a1 1 0 011 1H7a1 1 0 011-1zM5 133h7a1 1 0 01-1 1H6a1 1 0 01-1-1z"/></g></g><g><g fill="#333" transform="translate(2424 127)"><path d="M24 0h6a2 2 0 012 2v243H22V2a2 2 0 012-2z"/><rect y="8" width="54" height="10" rx="5"/><rect x="13" y="29" width="29" height="6" rx="3"/><path d="M21 48h5v9h-5a3 3 0 01-3-3v-3a3 3 0 013-3zM33 92h-6v-9h6a2 2 0 012 2v5a2 2 0 01-2 2z"/></g><path stroke="#333" stroke-width="2" stroke-linecap="square" d="M2435.5 143.5l8 13M2467 143.5l-8 13"/><path stroke="#333" stroke-linecap="square" d="M2471 143.5l-8 13M2432 143.5l8 13"/><g fill="#D8D8D8"><path stroke="#404040" d="M2467.5 134.5h4v1h-4z"/><path d="M2469 132h1a1 1 0 011 1h-3a1 1 0 011-1zM2466 133h7a1 1 0 01-1 1h-5a1 1 0 01-1-1z"/></g><g fill="#D8D8D8"><path stroke="#404040" d="M2430.5 134.5h4v1h-4z"/><path d="M2432 132h1a1 1 0 011 1h-3a1 1 0 011-1zM2429 133h7a1 1 0 01-1 1h-5a1 1 0 01-1-1z"/></g></g><path d="M2432.326 132.781c70.717 24.888 125.212 37.3 163.486 37.237 38.274-.063 84.836-12.402 139.688-37.018" stroke="#BEBEBE" stroke-linecap="round"/><path d="M2469.5 133c48.453 22.66 91.209 33.99 128.266 33.99 37.057 0 95.394-11.33 175.01-33.99" stroke="#BEBEBE" stroke-linecap="round"/><g><g fill="#333" transform="translate(2727 127)"><path d="M24 0h6a2 2 0 012 2v243H22V2a2 2 0 012-2z"/><rect y="8" width="54" height="10" rx="5"/><rect x="13" y="29" width="29" height="6" rx="3"/><path d="M21 48h5v9h-5a3 3 0 01-3-3v-3a3 3 0 013-3zM33 92h-6v-9h6a2 2 0 012 2v5a2 2 0 01-2 2z"/></g><path stroke="#333" stroke-width="2" stroke-linecap="square" d="M2738.5 143.5l8 13M2770 143.5l-8 13"/><path stroke="#333" stroke-linecap="square" d="M2774 143.5l-8 13M2735 143.5l8 13"/><g fill="#D8D8D8"><path stroke="#404040" d="M2770.5 134.5h4v1h-4z"/><path d="M2772 132h1a1 1 0 011 1h-3a1 1 0 011-1zM2769 133h7a1 1 0 01-1 1h-5a1 1 0 01-1-1z"/></g><g fill="#D8D8D8"><path stroke="#404040" d="M2733.5 134.5h4v1h-4z"/><path d="M2735 132h1a1 1 0 011 1h-3a1 1 0 011-1zM2732 133h7a1 1 0 01-1 1h-5a1 1 0 01-1-1z"/></g></g><g><g fill="#333" transform="translate(2727 127)"><path d="M24 0h6a2 2 0 012 2v243H22V2a2 2 0 012-2z"/><rect y="8" width="54" height="10" rx="5"/><rect x="13" y="29" width="29" height="6" rx="3"/><path d="M21 48h5v9h-5a3 3 0 01-3-3v-3a3 3 0 013-3zM33 92h-6v-9h6a2 2 0 012 2v5a2 2 0 01-2 2z"/></g><path stroke="#333" stroke-width="2" stroke-linecap="square" d="M2738.5 143.5l8 13M2770 143.5l-8 13"/><path stroke="#333" stroke-linecap="square" d="M2774 143.5l-8 13M2735 143.5l8 13"/><g fill="#D8D8D8"><path stroke="#404040" d="M2770.5 134.5h4v1h-4z"/><path d="M2772 132h1a1 1 0 011 1h-3a1 1 0 011-1zM2769 133h7a1 1 0 01-1 1h-5a1 1 0 01-1-1z"/></g><g fill="#D8D8D8"><path stroke="#404040" d="M2733.5 134.5h4v1h-4z"/><path d="M2735 132h1a1 1 0 011 1h-3a1 1 0 011-1zM2732 133h7a1 1 0 01-1 1h-5a1 1 0 01-1-1z"/></g></g><path d="M2735.326 132.781c70.717 24.888 125.212 37.3 163.486 37.237 38.274-.063 84.836-12.402 139.688-37.018" stroke="#BEBEBE" stroke-linecap="round"/><path d="M2772.5 133c48.453 22.66 91.209 33.99 128.266 33.99 37.057 0 95.394-11.33 175.01-33.99" stroke="#BEBEBE" stroke-linecap="round"/><g><g fill="#333" transform="translate(3030 127)"><path d="M24 0h6a2 2 0 012 2v243H22V2a2 2 0 012-2z"/><rect y="8" width="54" height="10" rx="5"/><rect x="13" y="29" width="29" height="6" rx="3"/><path d="M21 48h5v9h-5a3 3 0 01-3-3v-3a3 3 0 013-3zM33 92h-6v-9h6a2 2 0 012 2v5a2 2 0 01-2 2z"/></g><path stroke="#333" stroke-width="2" stroke-linecap="square" d="M3041.5 143.5l8 13M3073 143.5l-8 13"/><path stroke="#333" stroke-linecap="square" d="M3077 143.5l-8 13M3038 143.5l8 13"/><g fill="#D8D8D8"><path stroke="#404040" d="M3073.5 134.5h4v1h-4z"/><path d="M3075 132h1a1 1 0 011 1h-3a1 1 0 011-1zM3072 133h7a1 1 0 01-1 1h-5a1 1 0 01-1-1z"/></g><g fill="#D8D8D8"><path stroke="#404040" d="M3036.5 134.5h4v1h-4z"/><path d="M3038 132h1a1 1 0 011 1h-3a1 1 0 011-1zM3035 133h7a1 1 0 01-1 1h-5a1 1 0 01-1-1z"/></g></g><g><g fill="#333" transform="translate(3030 127)"><path d="M24 0h6a2 2 0 012 2v243H22V2a2 2 0 012-2z"/><rect y="8" width="54" height="10" rx="5"/><rect x="13" y="29" width="29" height="6" rx="3"/><path d="M21 48h5v9h-5a3 3 0 01-3-3v-3a3 3 0 013-3zM33 92h-6v-9h6a2 2 0 012 2v5a2 2 0 01-2 2z"/></g><path stroke="#333" stroke-width="2" stroke-linecap="square" d="M3041.5 143.5l8 13M3073 143.5l-8 13"/><path stroke="#333" stroke-linecap="square" d="M3077 143.5l-8 13M3038 143.5l8 13"/><g fill="#D8D8D8"><path stroke="#404040" d="M3073.5 134.5h4v1h-4z"/><path d="M3075 132h1a1 1 0 011 1h-3a1 1 0 011-1zM3072 133h7a1 1 0 01-1 1h-5a1 1 0 01-1-1z"/></g><g fill="#D8D8D8"><path stroke="#404040" d="M3036.5 134.5h4v1h-4z"/><path d="M3038 132h1a1 1 0 011 1h-3a1 1 0 011-1zM3035 133h7a1 1 0 01-1 1h-5a1 1 0 01-1-1z"/></g></g><path d="M3038.326 132.781c70.717 24.888 125.212 37.3 163.486 37.237 38.274-.063 84.836-12.402 139.688-37.018" stroke="#BEBEBE" stroke-linecap="round"/><path d="M3075.5 133c48.453 22.66 91.209 33.99 128.266 33.99 37.057 0 95.394-11.33 175.01-33.99" stroke="#BEBEBE" stroke-linecap="round"/><g><g fill="#333" transform="translate(3333 127)"><path d="M24 0h6a2 2 0 012 2v243H22V2a2 2 0 012-2z"/><rect y="8" width="54" height="10" rx="5"/><rect x="13" y="29" width="29" height="6" rx="3"/><path d="M21 48h5v9h-5a3 3 0 01-3-3v-3a3 3 0 013-3zM33 92h-6v-9h6a2 2 0 012 2v5a2 2 0 01-2 2z"/></g><path stroke="#333" stroke-width="2" stroke-linecap="square" d="M3344.5 143.5l8 13M3376 143.5l-8 13"/><path stroke="#333" stroke-linecap="square" d="M3380 143.5l-8 13M3341 143.5l8 13"/><g fill="#D8D8D8"><path stroke="#404040" d="M3376.5 134.5h4v1h-4z"/><path d="M3378 132h1a1 1 0 011 1h-3a1 1 0 011-1zM3375 133h7a1 1 0 01-1 1h-5a1 1 0 01-1-1z"/></g><g fill="#D8D8D8"><path stroke="#404040" d="M3339.5 134.5h4v1h-4z"/><path d="M3341 132h1a1 1 0 011 1h-3a1 1 0 011-1zM3338 133h7a1 1 0 01-1 1h-5a1 1 0 01-1-1z"/></g></g><g><g fill="#333" transform="translate(3333 127)"><path d="M24 0h6a2 2 0 012 2v243H22V2a2 2 0 012-2z"/><rect y="8" width="54" height="10" rx="5"/><rect x="13" y="29" width="29" height="6" rx="3"/><path d="M21 48h5v9h-5a3 3 0 01-3-3v-3a3 3 0 013-3zM33 92h-6v-9h6a2 2 0 012 2v5a2 2 0 01-2 2z"/></g><path stroke="#333" stroke-width="2" stroke-linecap="square" d="M3344.5 143.5l8 13M3376 143.5l-8 13"/><path stroke="#333" stroke-linecap="square" d="M3380 143.5l-8 13M3341 143.5l8 13"/><g fill="#D8D8D8"><path stroke="#404040" d="M3376.5 134.5h4v1h-4z"/><path d="M3378 132h1a1 1 0 011 1h-3a1 1 0 011-1zM3375 133h7a1 1 0 01-1 1h-5a1 1 0 01-1-1z"/></g><g fill="#D8D8D8"><path stroke="#404040" d="M3339.5 134.5h4v1h-4z"/><path d="M3341 132h1a1 1 0 011 1h-3a1 1 0 011-1zM3338 133h7a1 1 0 01-1 1h-5a1 1 0 01-1-1z"/></g></g><path d="M3341.326 132.781c70.717 24.888 125.212 37.3 163.486 37.237 38.274-.063 84.836-12.402 139.688-37.018" stroke="#BEBEBE" stroke-linecap="round"/><path d="M3378.5 133c48.453 22.66 91.209 33.99 128.266 33.99 37.057 0 95.394-11.33 175.01-33.99" stroke="#BEBEBE" stroke-linecap="round"/><g><g fill="#333" transform="translate(3636 127)"><path d="M24 0h6a2 2 0 012 2v243H22V2a2 2 0 012-2z"/><rect y="8" width="54" height="10" rx="5"/><rect x="13" y="29" width="29" height="6" rx="3"/><path d="M21 48h5v9h-5a3 3 0 01-3-3v-3a3 3 0 013-3zM33 92h-6v-9h6a2 2 0 012 2v5a2 2 0 01-2 2z"/></g><path stroke="#333" stroke-width="2" stroke-linecap="square" d="M3647.5 143.5l8 13M3679 143.5l-8 13"/><path stroke="#333" stroke-linecap="square" d="M3683 143.5l-8 13M3644 143.5l8 13"/><g fill="#D8D8D8"><path stroke="#404040" d="M3679.5 134.5h4v1h-4z"/><path d="M3681 132h1a1 1 0 011 1h-3a1 1 0 011-1zM3678 133h7a1 1 0 01-1 1h-5a1 1 0 01-1-1z"/></g><g fill="#D8D8D8"><path stroke="#404040" d="M3642.5 134.5h4v1h-4z"/><path d="M3644 132h1a1 1 0 011 1h-3a1 1 0 011-1zM3641 133h7a1 1 0 01-1 1h-5a1 1 0 01-1-1z"/></g></g><g><g fill="#333" transform="translate(3636 127)"><path d="M24 0h6a2 2 0 012 2v243H22V2a2 2 0 012-2z"/><rect y="8" width="54" height="10" rx="5"/><rect x="13" y="29" width="29" height="6" rx="3"/><path d="M21 48h5v9h-5a3 3 0 01-3-3v-3a3 3 0 013-3zM33 92h-6v-9h6a2 2 0 012 2v5a2 2 0 01-2 2z"/></g><path stroke="#333" stroke-width="2" stroke-linecap="square" d="M3647.5 143.5l8 13M3679 143.5l-8 13"/><path stroke="#333" stroke-linecap="square" d="M3683 143.5l-8 13M3644 143.5l8 13"/><g fill="#D8D8D8"><path stroke="#404040" d="M3679.5 134.5h4v1h-4z"/><path d="M3681 132h1a1 1 0 011 1h-3a1 1 0 011-1zM3678 133h7a1 1 0 01-1 1h-5a1 1 0 01-1-1z"/></g><g fill="#D8D8D8"><path stroke="#404040" d="M3642.5 134.5h4v1h-4z"/><path d="M3644 132h1a1 1 0 011 1h-3a1 1 0 011-1zM3641 133h7a1 1 0 01-1 1h-5a1 1 0 01-1-1z"/></g></g><path d="M3644.326 132.781c70.717 24.888 125.212 37.3 163.486 37.237 38.274-.063 84.836-12.402 139.688-37.018" stroke="#BEBEBE" stroke-linecap="round"/><path d="M3681.5 133c48.453 22.66 91.209 33.99 128.266 33.99 37.057 0 95.394-11.33 175.01-33.99" stroke="#BEBEBE" stroke-linecap="round"/><g><g fill="#333" transform="translate(3939 127)"><path d="M24 0h6a2 2 0 012 2v243H22V2a2 2 0 012-2z"/><rect y="8" width="54" height="10" rx="5"/><rect x="13" y="29" width="29" height="6" rx="3"/><path d="M21 48h5v9h-5a3 3 0 01-3-3v-3a3 3 0 013-3zM33 92h-6v-9h6a2 2 0 012 2v5a2 2 0 01-2 2z"/></g><path stroke="#333" stroke-width="2" stroke-linecap="square" d="M3950.5 143.5l8 13M3982 143.5l-8 13"/><path stroke="#333" stroke-linecap="square" d="M3986 143.5l-8 13M3947 143.5l8 13"/><g fill="#D8D8D8"><path stroke="#404040" d="M3982.5 134.5h4v1h-4z"/><path d="M3984 132h1a1 1 0 011 1h-3a1 1 0 011-1zM3981 133h7a1 1 0 01-1 1h-5a1 1 0 01-1-1z"/></g><g fill="#D8D8D8"><path stroke="#404040" d="M3945.5 134.5h4v1h-4z"/><path d="M3947 132h1a1 1 0 011 1h-3a1 1 0 011-1zM3944 133h7a1 1 0 01-1 1h-5a1 1 0 01-1-1z"/></g></g><g><g fill="#333" transform="translate(3939 127)"><path d="M24 0h6a2 2 0 012 2v243H22V2a2 2 0 012-2z"/><rect y="8" width="54" height="10" rx="5"/><rect x="13" y="29" width="29" height="6" rx="3"/><path d="M21 48h5v9h-5a3 3 0 01-3-3v-3a3 3 0 013-3zM33 92h-6v-9h6a2 2 0 012 2v5a2 2 0 01-2 2z"/></g><path stroke="#333" stroke-width="2" stroke-linecap="square" d="M3950.5 143.5l8 13M3982 143.5l-8 13"/><path stroke="#333" stroke-linecap="square" d="M3986 143.5l-8 13M3947 143.5l8 13"/><g fill="#D8D8D8"><path stroke="#404040" d="M3982.5 134.5h4v1h-4z"/><path d="M3984 132h1a1 1 0 011 1h-3a1 1 0 011-1zM3981 133h7a1 1 0 01-1 1h-5a1 1 0 01-1-1z"/></g><g fill="#D8D8D8"><path stroke="#404040" d="M3945.5 134.5h4v1h-4z"/><path d="M3947 132h1a1 1 0 011 1h-3a1 1 0 011-1zM3944 133h7a1 1 0 01-1 1h-5a1 1 0 01-1-1z"/></g></g><path d="M3947.326 132.781c70.717 24.888 125.212 37.3 163.486 37.237 38.274-.063 84.836-12.402 139.688-37.018" stroke="#BEBEBE" stroke-linecap="round"/><path d="M3984.5 133c48.453 22.66 91.209 33.99 128.266 33.99 37.057 0 95.394-11.33 175.01-33.99M2129.326 132.781c70.717 24.888 125.212 37.3 163.486 37.237 38.274-.063 84.836-12.402 139.688-37.018" stroke="#BEBEBE" stroke-linecap="round"/><path d="M2166.5 133c48.453 22.66 91.209 33.99 128.266 33.99 37.057 0 95.394-11.33 175.01-33.99" stroke="#BEBEBE" stroke-linecap="round"/><g><g fill="#333" transform="translate(2424 127)"><path d="M24 0h6a2 2 0 012 2v243H22V2a2 2 0 012-2z"/><rect y="8" width="54" height="10" rx="5"/><rect x="13" y="29" width="29" height="6" rx="3"/><path d="M21 48h5v9h-5a3 3 0 01-3-3v-3a3 3 0 013-3zM33 92h-6v-9h6a2 2 0 012 2v5a2 2 0 01-2 2z"/></g><path stroke="#333" stroke-width="2" stroke-linecap="square" d="M2435.5 143.5l8 13M2467 143.5l-8 13"/><path stroke="#333" stroke-linecap="square" d="M2471 143.5l-8 13M2432 143.5l8 13"/><g fill="#D8D8D8"><path stroke="#404040" d="M2467.5 134.5h4v1h-4z"/><path d="M2469 132h1a1 1 0 011 1h-3a1 1 0 011-1zM2466 133h7a1 1 0 01-1 1h-5a1 1 0 01-1-1z"/></g><g fill="#D8D8D8"><path stroke="#404040" d="M2430.5 134.5h4v1h-4z"/><path d="M2432 132h1a1 1 0 011 1h-3a1 1 0 011-1zM2429 133h7a1 1 0 01-1 1h-5a1 1 0 01-1-1z"/></g></g><g><g fill="#333" transform="translate(4242 127)"><path d="M24 0h6a2 2 0 012 2v243H22V2a2 2 0 012-2z"/><rect y="8" width="54" height="10" rx="5"/><rect x="13" y="29" width="29" height="6" rx="3"/><path d="M21 48h5v9h-5a3 3 0 01-3-3v-3a3 3 0 013-3zM33 92h-6v-9h6a2 2 0 012 2v5a2 2 0 01-2 2z"/></g><path stroke="#333" stroke-width="2" stroke-linecap="square" d="M4253.5 143.5l8 13M4285 143.5l-8 13"/><path stroke="#333" stroke-linecap="square" d="M4289 143.5l-8 13M4250 143.5l8 13"/><g fill="#D8D8D8"><path stroke="#404040" d="M4285.5 134.5h4v1h-4z"/><path d="M4287 132h1a1 1 0 011 1h-3a1 1 0 011-1zM4284 133h7a1 1 0 01-1 1h-5a1 1 0 01-1-1z"/></g><g fill="#D8D8D8"><path stroke="#404040" d="M4248.5 134.5h4v1h-4z"/><path d="M4250 132h1a1 1 0 011 1h-3a1 1 0 011-1zM4247 133h7a1 1 0 01-1 1h-5a1 1 0 01-1-1z"/></g></g><g><g fill="#333" transform="translate(2121 127)"><path d="M24 0h6a2 2 0 012 2v243H22V2a2 2 0 012-2z"/><rect y="8" width="54" height="10" rx="5"/><rect x="13" y="29" width="29" height="6" rx="3"/><path d="M21 48h5v9h-5a3 3 0 01-3-3v-3a3 3 0 013-3zM33 92h-6v-9h6a2 2 0 012 2v5a2 2 0 01-2 2z"/></g><path stroke="#333" stroke-width="2" stroke-linecap="square" d="M2132.5 143.5l8 13M2164 143.5l-8 13"/><path stroke="#333" stroke-linecap="square" d="M2168 143.5l-8 13M2129 143.5l8 13"/><g fill="#D8D8D8"><path stroke="#404040" d="M2164.5 134.5h4v1h-4z"/><path d="M2166 132h1a1 1 0 011 1h-3a1 1 0 011-1zM2163 133h7a1 1 0 01-1 1h-5a1 1 0 01-1-1z"/></g><g fill="#D8D8D8"><path stroke="#404040" d="M2127.5 134.5h4v1h-4z"/><path d="M2129 132h1a1 1 0 011 1h-3a1 1 0 011-1zM2126 133h7a1 1 0 01-1 1h-5a1 1 0 01-1-1z"/></g></g></g></svg>