<svg xmlns="http://www.w3.org/2000/svg" viewBox="0 0 4313.91 369.13"><path d="M4163.69,242.68a382.72,382.72,0,0,0-166.07,6.69l-31.4,8.33a223.88,223.88,0,0,1-82.7,6.08c-45.34-5.15-81.68-14.52-122.8-34.65-15.14-7.41-32.23-10.9-50.3-11.58-27.86-1.06-60.28,15-78.5,29-15.91,12.27-38.79,9.1-56.09-1.11-45.7-27-113.88-39.89-186.91-39.89-72.38,0-134.32,13.54-178.46,39.17-25.54,14.83-126.81,39.4-161.54,39.83-50.27.62-151.54-22.29-192.52-31.19-30.65-6.66-61.67-11.5-93-12.54-55.14-1.84-107.85,8.85-160.7,23.4l-1.59.44c-18.43,5-35.8-2.06-52.23-9.94-27.54-13.21-54.31-27.7-83.5-37.07-30.77-9.88-63.24-12.57-95.39-13.1-44.08-.73-86.46,13.54-128.51,24.87-40.72,11-81.58,21.48-122.68,30.93-31.09,7.15-62.8,15-94.83,18.53-31.81,3.48-62.89.44-94.47-3.42-25.46-3.11-50.84-6.82-76.15-11-34-5.58-67.63-10.76-101.24-17.9a382.19,382.19,0,0,0-93.9-8.4,325.79,325.79,0,0,0-47.75,5.36c-19.69,3.72-39.21,11.44-59.35,14.08-26.8,3.51-54-1.11-79.31-10.18-25.09-9-46.94-23.89-73.23-31.36a385.3,385.3,0,0,0-97.7-14.84v-1.69s-181.58,5.21-388.54,56.58c-152,37.74-175.88,9.81-221.53-8.59-35.3-14.22-94.71-27.25-131.5-33.39-82.61-13.77-205.5-10.29-348.42,35.39C10.61,304.93-.14,231.64-.14,231.64V372.36l1301.07.19v-2c121.9.18,2995,1,2995,1v-105Z" transform="translate(2.67 -3.42)" fill="#8cb5ad" opacity="0.35" style="isolation:isolate"/><path d="M2802.8,295.46a1.09,1.09,0,0,1-.92-.51l-3.7-5.94a1.08,1.08,0,1,1,1.84-1.14l3.7,5.94a1.08,1.08,0,0,1-.35,1.49A1.2,1.2,0,0,1,2802.8,295.46Z" transform="translate(2.67 -3.42)" fill="#a3cec6"/><path d="M2810.67,295.32a1.08,1.08,0,0,1-.92-1.65l3.7-5.94a1.08,1.08,0,1,1,1.84,1.14l-3.7,5.94A1.08,1.08,0,0,1,2810.67,295.32Z" transform="translate(2.67 -3.42)" fill="#a3cec6"/><path d="M2807,292.11a1.08,1.08,0,0,1-1.08-1.08v-7.1a1.08,1.08,0,1,1,2.16,0V291A1.08,1.08,0,0,1,2807,292.11Z" transform="translate(2.67 -3.42)" fill="#a3cec6"/><path d="M2716,329.41a1.09,1.09,0,0,1-.92-.51l-3.7-5.94a1.08,1.08,0,1,1,1.84-1.14l3.7,5.94a1.08,1.08,0,0,1-.35,1.49A1,1,0,0,1,2716,329.41Z" transform="translate(2.67 -3.42)" fill="#a3cec6"/><path d="M2723.9,329.28a1.08,1.08,0,0,1-.92-1.65l3.7-5.94a1.08,1.08,0,1,1,1.84,1.14l-3.7,5.94A1.11,1.11,0,0,1,2723.9,329.28Z" transform="translate(2.67 -3.42)" fill="#a3cec6"/><path d="M2720.18,326.07a1.08,1.08,0,0,1-1.08-1.08v-7.1a1.08,1.08,0,1,1,2.16,0V325A1.08,1.08,0,0,1,2720.18,326.07Z" transform="translate(2.67 -3.42)" fill="#a3cec6"/><path d="M3520.8,271.46a1.09,1.09,0,0,1-.92-.51l-3.7-5.94a1.08,1.08,0,1,1,1.84-1.14l3.7,5.94a1.08,1.08,0,0,1-.35,1.49A1.2,1.2,0,0,1,3520.8,271.46Z" transform="translate(2.67 -3.42)" fill="#a3cec6"/><path d="M3528.67,271.32a1.08,1.08,0,0,1-.92-1.65l3.7-5.94a1.08,1.08,0,1,1,1.84,1.14l-3.7,5.94A1.08,1.08,0,0,1,3528.67,271.32Z" transform="translate(2.67 -3.42)" fill="#a3cec6"/><path d="M3525,268.11a1.08,1.08,0,0,1-1.08-1.08v-7.1a1.08,1.08,0,1,1,2.16,0V267A1.08,1.08,0,0,1,3525,268.11Z" transform="translate(2.67 -3.42)" fill="#a3cec6"/><path d="M3273.8,252.46a1.09,1.09,0,0,1-.92-.51l-3.7-5.94a1.08,1.08,0,1,1,1.84-1.14l3.7,5.94a1.08,1.08,0,0,1-.35,1.49A1.2,1.2,0,0,1,3273.8,252.46Z" transform="translate(2.67 -3.42)" fill="#a3cec6"/><path d="M3281.67,252.32a1.08,1.08,0,0,1-.92-1.65l3.7-5.94a1.08,1.08,0,1,1,1.84,1.14l-3.7,5.94A1.08,1.08,0,0,1,3281.67,252.32Z" transform="translate(2.67 -3.42)" fill="#a3cec6"/><path d="M3278,249.11a1.08,1.08,0,0,1-1.08-1.08v-7.1a1.08,1.08,0,1,1,2.16,0V248A1.08,1.08,0,0,1,3278,249.11Z" transform="translate(2.67 -3.42)" fill="#a3cec6"/><path d="M3083.8,335.46a1.09,1.09,0,0,1-.92-.51l-3.7-5.94a1.08,1.08,0,1,1,1.84-1.14l3.7,5.94a1.08,1.08,0,0,1-.35,1.49A1.2,1.2,0,0,1,3083.8,335.46Z" transform="translate(2.67 -3.42)" fill="#a3cec6"/><path d="M3091.67,335.32a1.08,1.08,0,0,1-.92-1.65l3.7-5.94a1.08,1.08,0,1,1,1.84,1.14l-3.7,5.94A1.08,1.08,0,0,1,3091.67,335.32Z" transform="translate(2.67 -3.42)" fill="#a3cec6"/><path d="M3088,332.11a1.08,1.08,0,0,1-1.08-1.08v-7.1a1.08,1.08,0,1,1,2.16,0V331A1.08,1.08,0,0,1,3088,332.11Z" transform="translate(2.67 -3.42)" fill="#a3cec6"/><path d="M3434,305.41a1.09,1.09,0,0,1-.92-.51l-3.7-5.94a1.08,1.08,0,1,1,1.84-1.14l3.7,5.94a1.08,1.08,0,0,1-.35,1.49A1,1,0,0,1,3434,305.41Z" transform="translate(2.67 -3.42)" fill="#a3cec6"/><path d="M3441.9,305.28a1.08,1.08,0,0,1-.92-1.65l3.7-5.94a1.08,1.08,0,1,1,1.84,1.14l-3.7,5.94A1.11,1.11,0,0,1,3441.9,305.28Z" transform="translate(2.67 -3.42)" fill="#a3cec6"/><path d="M3438.18,302.07a1.08,1.08,0,0,1-1.08-1.08v-7.1a1.08,1.08,0,1,1,2.16,0V301A1.08,1.08,0,0,1,3438.18,302.07Z" transform="translate(2.67 -3.42)" fill="#a3cec6"/><path d="M3729,262.41a1.09,1.09,0,0,1-.92-.51l-3.7-5.94a1.08,1.08,0,1,1,1.84-1.14l3.7,5.94a1.08,1.08,0,0,1-.35,1.49A1,1,0,0,1,3729,262.41Z" transform="translate(2.67 -3.42)" fill="#a3cec6"/><path d="M3736.9,262.28a1.08,1.08,0,0,1-.92-1.65l3.7-5.94a1.08,1.08,0,1,1,1.84,1.14l-3.7,5.94A1.11,1.11,0,0,1,3736.9,262.28Z" transform="translate(2.67 -3.42)" fill="#a3cec6"/><path d="M3733.18,259.07a1.08,1.08,0,0,1-1.08-1.08v-7.1a1.08,1.08,0,1,1,2.16,0V258A1.08,1.08,0,0,1,3733.18,259.07Z" transform="translate(2.67 -3.42)" fill="#a3cec6"/><path d="M3638,351.41a1.09,1.09,0,0,1-.92-.51l-3.7-5.94a1.08,1.08,0,1,1,1.84-1.14l3.7,5.94a1.08,1.08,0,0,1-.35,1.49A1,1,0,0,1,3638,351.41Z" transform="translate(2.67 -3.42)" fill="#a3cec6"/><path d="M3645.9,351.28a1.08,1.08,0,0,1-.92-1.65l3.7-5.94a1.08,1.08,0,1,1,1.84,1.14l-3.7,5.94A1.11,1.11,0,0,1,3645.9,351.28Z" transform="translate(2.67 -3.42)" fill="#a3cec6"/><path d="M3642.18,348.07a1.08,1.08,0,0,1-1.08-1.08v-7.1a1.08,1.08,0,1,1,2.16,0V347A1.08,1.08,0,0,1,3642.18,348.07Z" transform="translate(2.67 -3.42)" fill="#a3cec6"/><path d="M3924,312.41a1.09,1.09,0,0,1-.92-.51l-3.7-5.94a1.08,1.08,0,1,1,1.84-1.14l3.7,5.94a1.08,1.08,0,0,1-.35,1.49A1,1,0,0,1,3924,312.41Z" transform="translate(2.67 -3.42)" fill="#a3cec6"/><path d="M3931.9,312.28a1.08,1.08,0,0,1-.92-1.65l3.7-5.94a1.08,1.08,0,1,1,1.84,1.14l-3.7,5.94A1.11,1.11,0,0,1,3931.9,312.28Z" transform="translate(2.67 -3.42)" fill="#a3cec6"/><path d="M3928.18,309.07a1.08,1.08,0,0,1-1.08-1.08v-7.1a1.08,1.08,0,0,1,2.16,0V308A1.08,1.08,0,0,1,3928.18,309.07Z" transform="translate(2.67 -3.42)" fill="#a3cec6"/><path d="M4203,282.41a1.09,1.09,0,0,1-.92-.51l-3.7-5.94a1.08,1.08,0,0,1,1.84-1.14l3.7,5.94a1.08,1.08,0,0,1-.35,1.49A1,1,0,0,1,4203,282.41Z" transform="translate(2.67 -3.42)" fill="#a3cec6"/><path d="M4210.9,282.28a1.08,1.08,0,0,1-.92-1.65l3.7-5.94a1.08,1.08,0,0,1,1.84,1.14l-3.7,5.94A1.11,1.11,0,0,1,4210.9,282.28Z" transform="translate(2.67 -3.42)" fill="#a3cec6"/><path d="M4207.18,279.07a1.08,1.08,0,0,1-1.08-1.08v-7.1a1.08,1.08,0,0,1,2.16,0V278A1.08,1.08,0,0,1,4207.18,279.07Z" transform="translate(2.67 -3.42)" fill="#a3cec6"/><path d="M4077,340.41a1.09,1.09,0,0,1-.92-.51l-3.7-5.94a1.08,1.08,0,1,1,1.84-1.14l3.7,5.94a1.08,1.08,0,0,1-.35,1.49A1,1,0,0,1,4077,340.41Z" transform="translate(2.67 -3.42)" fill="#a3cec6"/><path d="M4084.9,340.28a1.08,1.08,0,0,1-.92-1.65l3.7-5.94a1.08,1.08,0,1,1,1.84,1.14l-3.7,5.94A1.11,1.11,0,0,1,4084.9,340.28Z" transform="translate(2.67 -3.42)" fill="#a3cec6"/><path d="M4081.18,337.07a1.08,1.08,0,0,1-1.08-1.08v-7.1a1.08,1.08,0,0,1,2.16,0V336A1.08,1.08,0,0,1,4081.18,337.07Z" transform="translate(2.67 -3.42)" fill="#a3cec6"/><path d="M2063.72,323.48a1.09,1.09,0,0,1-.92-.51l-3.7-5.94a1.08,1.08,0,1,1,1.84-1.14l3.7,5.94a1.08,1.08,0,0,1-.92,1.65Z" transform="translate(2.67 -3.42)" fill="#a3cec6"/><path d="M2071.6,323.35a1.08,1.08,0,0,1-.92-1.65l3.7-5.94a1.08,1.08,0,0,1,1.84,1.14l-3.7,5.94A1.11,1.11,0,0,1,2071.6,323.35Z" transform="translate(2.67 -3.42)" fill="#a3cec6"/><path d="M2067.88,320.14a1.08,1.08,0,0,1-1.08-1.08V312a1.08,1.08,0,0,1,2.16,0v7.1A1.08,1.08,0,0,1,2067.88,320.14Z" transform="translate(2.67 -3.42)" fill="#a3cec6"/><path d="M2276.74,268.5a1.09,1.09,0,0,1-.92-.51l-3.7-5.94a1.08,1.08,0,0,1,1.84-1.14l3.7,5.94a1.08,1.08,0,0,1-.92,1.65Z" transform="translate(2.67 -3.42)" fill="#a3cec6"/><path d="M2284.62,268.36a1.08,1.08,0,0,1-.92-1.65l3.7-5.94a1.08,1.08,0,0,1,1.84,1.14l-3.7,5.94A1.09,1.09,0,0,1,2284.62,268.36Z" transform="translate(2.67 -3.42)" fill="#a3cec6"/><path d="M2280.9,265.15a1.08,1.08,0,0,1-1.08-1.08V257a1.08,1.08,0,1,1,2.16,0v7.1A1.08,1.08,0,0,1,2280.9,265.15Z" transform="translate(2.67 -3.42)" fill="#a3cec6"/><path d="M1885.32,301.08a1.09,1.09,0,0,1-.92-.51l-3.7-5.94a1.08,1.08,0,1,1,1.84-1.14l3.7,5.94a1.08,1.08,0,0,1-.92,1.65Z" transform="translate(2.67 -3.42)" fill="#a3cec6"/><path d="M1893.2,301a1.08,1.08,0,0,1-.92-1.65l3.7-5.94a1.08,1.08,0,0,1,1.84,1.14l-3.7,5.94A1.09,1.09,0,0,1,1893.2,301Z" transform="translate(2.67 -3.42)" fill="#a3cec6"/><path d="M1889.48,297.74a1.08,1.08,0,0,1-1.08-1.08v-7.1a1.08,1.08,0,0,1,2.16,0v7.1A1.08,1.08,0,0,1,1889.48,297.74Z" transform="translate(2.67 -3.42)" fill="#a3cec6"/><path d="M1700.67,331.17a1.09,1.09,0,0,1-.92-.51l-3.7-5.94a1.08,1.08,0,1,1,1.84-1.14l3.7,5.94a1.08,1.08,0,0,1-.35,1.49A1.17,1.17,0,0,1,1700.67,331.17Z" transform="translate(2.67 -3.42)" fill="#a3cec6"/><path d="M1708.55,331a1.08,1.08,0,0,1-.92-1.65l3.7-5.94a1.08,1.08,0,0,1,1.84,1.14l-3.7,5.94A1.09,1.09,0,0,1,1708.55,331Z" transform="translate(2.67 -3.42)" fill="#a3cec6"/><path d="M1704.83,327.82a1.08,1.08,0,0,1-1.08-1.08v-7.1a1.08,1.08,0,1,1,2.16,0v7.1A1.08,1.08,0,0,1,1704.83,327.82Z" transform="translate(2.67 -3.42)" fill="#a3cec6"/><path d="M1518.93,291.81a1.09,1.09,0,0,1-.92-.51l-3.7-5.94a1.08,1.08,0,1,1,1.84-1.14l3.7,5.94a1.08,1.08,0,0,1-.35,1.49A1.1,1.1,0,0,1,1518.93,291.81Z" transform="translate(2.67 -3.42)" fill="#a3cec6"/><path d="M1526.8,291.67a1.08,1.08,0,0,1-.92-1.65l3.7-5.94a1.08,1.08,0,0,1,1.84,1.14l-3.7,5.94A1.06,1.06,0,0,1,1526.8,291.67Z" transform="translate(2.67 -3.42)" fill="#a3cec6"/><path d="M1523.09,288.46a1.08,1.08,0,0,1-1.08-1.08v-7.1a1.08,1.08,0,1,1,2.16,0v7.1A1.08,1.08,0,0,1,1523.09,288.46Z" transform="translate(2.67 -3.42)" fill="#a3cec6"/><path d="M1389.51,324a1.09,1.09,0,0,1-.92-.51l-3.7-5.94a1.08,1.08,0,1,1,1.84-1.14l3.7,5.94a1.08,1.08,0,0,1-.35,1.49A1,1,0,0,1,1389.51,324Z" transform="translate(2.67 -3.42)" fill="#a3cec6"/><path d="M1397.39,323.84a1.08,1.08,0,0,1-.92-1.65l3.7-5.94a1.08,1.08,0,0,1,1.84,1.14l-3.7,5.94A1.09,1.09,0,0,1,1397.39,323.84Z" transform="translate(2.67 -3.42)" fill="#a3cec6"/><path d="M1393.67,320.63a1.08,1.08,0,0,1-1.08-1.08v-7.1a1.08,1.08,0,0,1,2.16,0v7.1A1.07,1.07,0,0,1,1393.67,320.63Z" transform="translate(2.67 -3.42)" fill="#a3cec6"/><path d="M1225.51,226a1.09,1.09,0,0,1-.92-.51l-3.7-5.94a1.08,1.08,0,0,1,1.84-1.14l3.7,5.94a1.08,1.08,0,0,1-.35,1.49A1,1,0,0,1,1225.51,226Z" transform="translate(2.67 -3.42)" fill="#a3cec6"/><path d="M1233.39,225.84a1.08,1.08,0,0,1-.92-1.65l3.7-5.94a1.08,1.08,0,1,1,1.84,1.14l-3.7,5.94A1.09,1.09,0,0,1,1233.39,225.84Z" transform="translate(2.67 -3.42)" fill="#a3cec6"/><path d="M1229.67,222.63a1.08,1.08,0,0,1-1.08-1.08v-7.1a1.08,1.08,0,1,1,2.16,0v7.1A1.07,1.07,0,0,1,1229.67,222.63Z" transform="translate(2.67 -3.42)" fill="#a3cec6"/><path d="M1132.51,297a1.09,1.09,0,0,1-.92-.51l-3.7-5.94a1.08,1.08,0,1,1,1.84-1.14l3.7,5.94a1.08,1.08,0,0,1-.35,1.49A1,1,0,0,1,1132.51,297Z" transform="translate(2.67 -3.42)" fill="#a3cec6"/><path d="M1140.39,296.84a1.08,1.08,0,0,1-.92-1.65l3.7-5.94a1.08,1.08,0,0,1,1.84,1.14l-3.7,5.94A1.09,1.09,0,0,1,1140.39,296.84Z" transform="translate(2.67 -3.42)" fill="#a3cec6"/><path d="M1136.67,293.63a1.08,1.08,0,0,1-1.08-1.08v-7.1a1.08,1.08,0,1,1,2.16,0v7.1A1.07,1.07,0,0,1,1136.67,293.63Z" transform="translate(2.67 -3.42)" fill="#a3cec6"/><path d="M894.51,356a1.09,1.09,0,0,1-.92-.51l-3.7-5.94a1.08,1.08,0,1,1,1.84-1.14l3.7,5.94a1.08,1.08,0,0,1-.35,1.49A1,1,0,0,1,894.51,356Z" transform="translate(2.67 -3.42)" fill="#a3cec6"/><path d="M902.39,355.84a1.08,1.08,0,0,1-.92-1.65l3.7-5.94a1.08,1.08,0,1,1,1.84,1.14l-3.7,5.94A1.09,1.09,0,0,1,902.39,355.84Z" transform="translate(2.67 -3.42)" fill="#a3cec6"/><path d="M898.67,352.63a1.08,1.08,0,0,1-1.08-1.08v-7.1a1.08,1.08,0,0,1,2.16,0v7.1A1.07,1.07,0,0,1,898.67,352.63Z" transform="translate(2.67 -3.42)" fill="#a3cec6"/><path d="M835.14,311.37a1.09,1.09,0,0,1-.92-.51l-3.7-5.94a1.08,1.08,0,0,1,1.84-1.14l3.7,5.94a1.08,1.08,0,0,1-.35,1.49A1.14,1.14,0,0,1,835.14,311.37Z" transform="translate(2.67 -3.42)" fill="#a3cec6"/><path d="M843,311.23a1.08,1.08,0,0,1-.92-1.65l3.7-5.94a1.08,1.08,0,0,1,1.84,1.14l-3.7,5.94A1.09,1.09,0,0,1,843,311.23Z" transform="translate(2.67 -3.42)" fill="#a3cec6"/><path d="M839.3,308a1.08,1.08,0,0,1-1.08-1.08v-7.1a1.08,1.08,0,0,1,2.16,0v7.1A1.07,1.07,0,0,1,839.3,308Z" transform="translate(2.67 -3.42)" fill="#a3cec6"/><path d="M555.4,244.28a1.09,1.09,0,0,1-.92-.51l-3.7-5.94a1.08,1.08,0,0,1,1.84-1.14l3.7,5.94a1.08,1.08,0,0,1-.92,1.65Z" transform="translate(2.67 -3.42)" fill="#a3cec6"/><path d="M563.28,244.15a1.08,1.08,0,0,1-.92-1.65l3.7-5.94a1.08,1.08,0,1,1,1.84,1.14l-3.7,5.94A1.11,1.11,0,0,1,563.28,244.15Z" transform="translate(2.67 -3.42)" fill="#a3cec6"/><path d="M559.56,240.94a1.08,1.08,0,0,1-1.08-1.08v-7.1a1.08,1.08,0,0,1,2.16,0v7.1A1.08,1.08,0,0,1,559.56,240.94Z" transform="translate(2.67 -3.42)" fill="#a3cec6"/><path d="M993.51,281a1.09,1.09,0,0,1-.92-.51l-3.7-5.94a1.08,1.08,0,1,1,1.84-1.14l3.7,5.94a1.08,1.08,0,0,1-.35,1.49A1,1,0,0,1,993.51,281Z" transform="translate(2.67 -3.42)" fill="#a3cec6"/><path d="M1001.39,280.84a1.08,1.08,0,0,1-.92-1.65l3.7-5.94a1.08,1.08,0,0,1,1.84,1.14l-3.7,5.94A1.09,1.09,0,0,1,1001.39,280.84Z" transform="translate(2.67 -3.42)" fill="#a3cec6"/><path d="M997.67,277.63a1.08,1.08,0,0,1-1.08-1.08v-7.1a1.08,1.08,0,0,1,2.16,0v7.1A1.07,1.07,0,0,1,997.67,277.63Z" transform="translate(2.67 -3.42)" fill="#a3cec6"/><path d="M697.51,339a1.09,1.09,0,0,1-.92-.51l-3.7-5.94a1.08,1.08,0,0,1,1.84-1.14l3.7,5.94a1.08,1.08,0,0,1-.35,1.49A1,1,0,0,1,697.51,339Z" transform="translate(2.67 -3.42)" fill="#a3cec6"/><path d="M705.39,338.84a1.08,1.08,0,0,1-.92-1.65l3.7-5.94a1.08,1.08,0,0,1,1.84,1.14l-3.7,5.94A1.09,1.09,0,0,1,705.39,338.84Z" transform="translate(2.67 -3.42)" fill="#a3cec6"/><path d="M701.67,335.63a1.08,1.08,0,0,1-1.08-1.08v-7.1a1.08,1.08,0,0,1,2.16,0v7.1A1.07,1.07,0,0,1,701.67,335.63Z" transform="translate(2.67 -3.42)" fill="#a3cec6"/><path d="M478.51,352a1.09,1.09,0,0,1-.92-.51l-3.7-5.94a1.08,1.08,0,0,1,1.84-1.14l3.7,5.94a1.08,1.08,0,0,1-.35,1.49A1,1,0,0,1,478.51,352Z" transform="translate(2.67 -3.42)" fill="#a3cec6"/><path d="M486.39,351.84a1.08,1.08,0,0,1-.92-1.65l3.7-5.94a1.08,1.08,0,1,1,1.84,1.14l-3.7,5.94A1.09,1.09,0,0,1,486.39,351.84Z" transform="translate(2.67 -3.42)" fill="#a3cec6"/><path d="M482.67,348.63a1.08,1.08,0,0,1-1.08-1.08v-7.1a1.08,1.08,0,0,1,2.16,0v7.1A1.07,1.07,0,0,1,482.67,348.63Z" transform="translate(2.67 -3.42)" fill="#a3cec6"/><path d="M192.51,343a1.09,1.09,0,0,1-.92-.51l-3.7-5.94a1.08,1.08,0,1,1,1.84-1.14l3.7,5.94a1.08,1.08,0,0,1-.35,1.49A1,1,0,0,1,192.51,343Z" transform="translate(2.67 -3.42)" fill="#a3cec6"/><path d="M200.39,342.84a1.08,1.08,0,0,1-.92-1.65l3.7-5.94a1.08,1.08,0,0,1,1.84,1.14l-3.7,5.94A1.09,1.09,0,0,1,200.39,342.84Z" transform="translate(2.67 -3.42)" fill="#a3cec6"/><path d="M196.67,339.63a1.08,1.08,0,0,1-1.08-1.08v-7.1a1.08,1.08,0,0,1,2.16,0v7.1A1.07,1.07,0,0,1,196.67,339.63Z" transform="translate(2.67 -3.42)" fill="#a3cec6"/><path d="M327.51,261a1.09,1.09,0,0,1-.92-.51l-3.7-5.94a1.08,1.08,0,0,1,1.84-1.14l3.7,5.94a1.08,1.08,0,0,1-.35,1.49A1,1,0,0,1,327.51,261Z" transform="translate(2.67 -3.42)" fill="#a3cec6"/><path d="M335.39,260.84a1.08,1.08,0,0,1-.92-1.65l3.7-5.94a1.08,1.08,0,1,1,1.84,1.14l-3.7,5.94A1.09,1.09,0,0,1,335.39,260.84Z" transform="translate(2.67 -3.42)" fill="#a3cec6"/><path d="M331.67,257.63a1.08,1.08,0,0,1-1.08-1.08v-7.1a1.08,1.08,0,0,1,2.16,0v7.1A1.07,1.07,0,0,1,331.67,257.63Z" transform="translate(2.67 -3.42)" fill="#a3cec6"/><path d="M2441.2,259.36a1.09,1.09,0,0,1-.92-.51l-3.7-5.94a1.08,1.08,0,0,1,1.84-1.14l3.7,5.94a1.08,1.08,0,0,1-.35,1.49A1.1,1.1,0,0,1,2441.2,259.36Z" transform="translate(2.67 -3.42)" fill="#a3cec6"/><path d="M2449.07,259.22a1.08,1.08,0,0,1-.92-1.65l3.7-5.94a1.08,1.08,0,1,1,1.84,1.14l-3.7,5.94A1.08,1.08,0,0,1,2449.07,259.22Z" transform="translate(2.67 -3.42)" fill="#a3cec6"/><path d="M2445.36,256a1.08,1.08,0,0,1-1.08-1.08v-7.1a1.08,1.08,0,1,1,2.16,0v7.1A1.08,1.08,0,0,1,2445.36,256Z" transform="translate(2.67 -3.42)" fill="#a3cec6"/><path d="M2466.69,314.11a1.09,1.09,0,0,1-.92-.51l-3.7-5.94a1.08,1.08,0,1,1,1.84-1.14l3.7,5.94a1.08,1.08,0,0,1-.35,1.49A1.1,1.1,0,0,1,2466.69,314.11Z" transform="translate(2.67 -3.42)" fill="#a3cec6"/><path d="M2474.56,314a1.08,1.08,0,0,1-.92-1.65l3.7-5.94a1.08,1.08,0,0,1,1.84,1.14l-3.7,5.94A1.06,1.06,0,0,1,2474.56,314Z" transform="translate(2.67 -3.42)" fill="#a3cec6"/><path d="M2470.85,310.76a1.08,1.08,0,0,1-1.08-1.08v-7.1a1.08,1.08,0,1,1,2.16,0v7.1A1.08,1.08,0,0,1,2470.85,310.76Z" transform="translate(2.67 -3.42)" fill="#a3cec6"/><path d="M2783.54,147.09c-49.32,0-99.57-23.9-149.57-71.2l.7-.74c54.46,51.52,109.16,75.17,162.61,70.3,75.7-6.91,122.54-69.86,123-70.5l.83.6c-.12.16-11.93,16.17-33,32.82-19.44,15.37-51,34.46-90.76,38.09C2792.78,146.88,2788.16,147.09,2783.54,147.09Z" transform="translate(2.67 -3.42)" fill="#cfcfcf"/><path d="M2785.18,152.66c-51.58,0-104.71-25.75-158.13-76.69l.71-.74c57.2,54.53,114,80.09,168.89,76,68.51-5.14,114-54.86,130.4-76l.22-.28.81.63-.22.28c-16.47,21.25-62.21,71.22-131.13,76.39Q2791,152.65,2785.18,152.66Z" transform="translate(2.67 -3.42)" fill="#cfcfcf"/><path d="M2249.39,145.47c-49.74,0-100.29-24-150.49-71.48l.7-.74c54.47,51.52,109.34,75.29,163,70.62,76.08-6.6,123.47-69.14,123.94-69.77l.82.61c-.12.16-12.06,16.06-33.3,32.57-19.6,15.24-51.37,34.13-91.37,37.6Q2256.07,145.48,2249.39,145.47Z" transform="translate(2.67 -3.42)" fill="#cfcfcf"/><path d="M2251.06,151.05c-52,0-105.46-25.85-159.09-77l.71-.74c57.42,54.74,114.6,80.4,170,76.27,71.23-5.32,118.22-59.14,130.92-75.51l.81.63c-12.77,16.45-60,70.55-131.65,75.9Q2256.89,151.06,2251.06,151.05Z" transform="translate(2.67 -3.42)" fill="#cfcfcf"/><path d="M1714.78,143.94c-50.11,0-100.91-24.06-151.22-71.65l.7-.74c54.41,51.47,109.37,75.3,163.34,70.84,76.59-6.34,124.62-68.7,125.09-69.33l.82.62c-.12.16-12.23,16-33.68,32.45-19.81,15.17-51.87,34-92.13,37.28Q1721.25,143.94,1714.78,143.94Z" transform="translate(2.67 -3.42)" fill="#cfcfcf"/><path d="M1716.4,149.38c-52.38,0-106.09-25.91-159.85-77.16l.71-.74c57.58,54.89,115.07,80.62,170.86,76.44,72.11-5.39,118.83-58.79,131.43-75l.81.63c-12.67,16.32-59.64,70-132.17,75.42C1724.27,149.23,1720.33,149.38,1716.4,149.38Z" transform="translate(2.67 -3.42)" fill="#cfcfcf"/><path d="M1180.91,142.08c-49.46,0-99.84-24-150-71.39l.7-.74c54.54,51.59,109.33,75.31,162.85,70.5,75.58-6.79,122.39-69.36,122.85-70l.82.61c-.12.16-11.91,16.07-32.94,32.61-19.41,15.27-50.89,34.22-90.64,37.79C1190.05,141.87,1185.48,142.08,1180.91,142.08Z" transform="translate(2.67 -3.42)" fill="#cfcfcf"/><path d="M1182.73,148.13c-51.57,0-104.93-26-158.79-77.32l.71-.74c56.9,54.25,113.22,80.06,167.36,76.76,33.5-2.05,83.41-16.67,131-74.69l1.3-1.58.78.66-1.29,1.57c-47.82,58.3-98,73-131.73,75.06Q1187.41,148.14,1182.73,148.13Z" transform="translate(2.67 -3.42)" fill="#cfcfcf"/><path d="M3051.3,147.8c-49.82,0-100.69-24.25-151.42-72.24l.7-.74c55,52.06,110.17,76.07,163.92,71.39,74.44-6.49,120.25-67,120.71-67.64l.82.61c-.11.15-11.66,15.56-32.3,31.55-19.05,14.77-50,33.08-89.13,36.5C3060.18,147.6,3055.74,147.8,3051.3,147.8Z" transform="translate(2.67 -3.42)" fill="#cfcfcf"/><path d="M3054.41,153.5a172.83,172.83,0,0,1-55.11-9.32c-35.17-11.79-71-34.9-106.42-68.7l.71-.74c35.34,33.69,71,56.73,106,68.47,29.29,9.81,58.36,11.84,86.42,6,65.76-13.64,103.28-64.36,106-70.7l.94.4c-2.71,6.4-40.52,57.58-106.7,71.3A156.21,156.21,0,0,1,3054.41,153.5Z" transform="translate(2.67 -3.42)" fill="#cfcfcf"/><path d="M2401,69.06V67.92h-3.4v1.14h-5.22V67.92H2389v1.14h-24.34V67.92h-3.4v1.14H2356V67.92h-3.4v1.14h-5.12v5h1.66v1.16h1.21V74h5.77v1.11h1.21V74h1.6v1.14h1.21V74h5.77v1.09h1.21V74h5.15V275.21a18.27,18.27,0,0,1,9.56-.41V74h4.43v1.16h1.21V74h5.77v1.11h1.21V74h1.6v1.14h1.21V74H2403v1.09h1.21V74h2v-5Z" transform="translate(2.67 -3.42)" fill="#404040"/><path d="M2668.93,70.12V69h-3.4v1.14h-5.22V69h-3.4v1.14h-24.34V69h-3.4v1.14H2624V69h-3.4v1.14h-5.12v5h1.66v1.16h1.21V75.09h5.77V76.2h1.21V75.09h1.6v1.14h1.21V75.09h5.77v1.09h1.21V75.09h5.15v203.2a24.06,24.06,0,0,1,7.93-1.27c.55,0,1.09,0,1.63.05v-202h4.43v1.16h1.21V75.09h5.77V76.2h1.21V75.09h1.6v1.14h1.21V75.09H2671v1.09h1.21V75.09h2v-5Z" transform="translate(2.67 -3.42)" fill="#404040"/><path d="M2934.68,69.69V68.55h-3.4v1.14h-5.22V68.55h-3.4v1.14h-24.34V68.55h-3.4v1.14h-5.22V68.55h-3.4v1.14h-5.12v5h1.66v1.16h1.21V74.66h5.77v1.11H2891V74.66h1.6V75.8h1.21V74.66h5.77v1.09h1.21V74.66H2906l-.18,199.43c2.89-.3,8.32,1.12,9.74,1.43V74.66H2920v1.16h1.21V74.66h5.77v1.11h1.21V74.66h1.6V75.8H2931V74.66h5.77v1.09h1.21V74.66h2v-5Z" transform="translate(2.67 -3.42)" fill="#404040"/><path d="M2133.75,68.29V67.15h-3.4v1.14h-5.22V67.15h-3.4v1.14h-24.34V67.15H2094v1.14h-5.22V67.15h-3.4v1.14h-5.12v5h1.66v1.16h1.21V73.26h5.77v1.11h1.21V73.26h1.6V74.4h1.21V73.26h5.77v1.09h1.21V73.26H2105V279.44a4.53,4.53,0,0,0,.07.74,55.71,55.71,0,0,1,7.37-.47c.71,0,1.4,0,2.09,0a3,3,0,0,0,0-.31V73.26H2119v1.16h1.21V73.26H2126v1.11h1.21V73.26h1.6V74.4H2130V73.26h5.77v1.09H2137V73.26h2v-5Z" transform="translate(2.67 -3.42)" fill="#404040"/><path d="M1866.91,67.63V66.49h-3.4v1.14h-5.22V66.49h-3.4v1.14h-24.34V66.49h-3.4v1.14h-5.22V66.49h-3.4v1.14h-5.12v5h1.66v1.16h1.21V72.6h5.77v1.11h1.21V72.6h1.6v1.14h1.21V72.6h5.77v1.09h1.21V72.6h5.15V274.14a1.45,1.45,0,0,0,1.71,1.41,35.31,35.31,0,0,1,5.67-.45c.74,0,1.47,0,2.18.07V72.6h4.43v1.16h1.21V72.6h5.77v1.11h1.21V72.6h1.6v1.14h1.21V72.6H1869v1.09h1.21V72.6h2v-5Z" transform="translate(2.67 -3.42)" fill="#404040"/><path d="M1598.4,66.29V65.15H1595v1.14h-5.22V65.15h-3.4v1.14H1562V65.15h-3.4v1.14h-5.22V65.15H1550v1.14h-5.12v5h1.66v1.16h1.21V71.26h5.77v1.11h1.21V71.26h1.6V72.4h1.21V71.26h5.77v1.09h1.21V71.26h5.15s-.65,190-.33,204a.42.42,0,0,0,.63.36c2.24-1.39,5.73-.5,9.26-.92V71.27h4.43v1.16h1.21V71.27h5.77v1.11h1.21V71.27h1.6v1.14h1.21V71.27h5.77v1.09h1.21V71.27h2v-5Z" transform="translate(2.67 -3.42)" fill="#404040"/><path d="M1331.62,65.19V64.05h-3.4v1.14H1323V64.05h-3.4v1.14h-24.34V64.05h-3.4v1.14h-5.22V64.05h-3.4v1.14h-5.12v5h1.66v1.16H1281V70.16h5.77v1.11H1288V70.16h1.6V71.3h1.21V70.16h5.77v1.09h1.21V70.16h5.15V272.61c.54,0,1.09-.05,1.65-.05,3,0,5.58-.52,7.81.22l.09-202.61h4.43v1.16h1.21V70.17h5.77v1.11h1.21V70.17h1.6v1.14h1.21V70.17h5.77v1.09h1.21V70.17h2v-5Z" transform="translate(2.67 -3.42)" fill="#404040"/><path d="M2256.9,127.13c-1.45,0-2.91,0-4.37-.07-59.89-1.87-117.08-43.39-123.51-53l.85-.57c2.49,3.71,17.29,16.27,40.22,28.5,19.47,10.38,49.58,23,82.47,24,41.67,1.3,76.68-16.1,104-51.72l.81.62C2330.79,109.58,2297,127.13,2256.9,127.13Z" transform="translate(2.67 -3.42)" fill="#cfcfcf"/><path d="M2240.31,127.07c-37.56,0-72.61-17.82-104.29-53.06l.76-.68c33.84,37.64,71.52,55.27,112,52.42,28.81-2,53.28-14.31,68.73-24.25C2335.54,89.9,2347,78,2349.43,74.35l.85.57c-6.67,9.93-49,48.14-101.45,51.85Q2244.56,127.07,2240.31,127.07Z" transform="translate(2.67 -3.42)" fill="#cfcfcf"/><path d="M1982.39,145c-49.7,0-100.24-24-150.42-71.48l.7-.74c54.48,51.54,109.33,75.3,163,70.62,76-6.63,123.3-69.16,123.77-69.79l.82.61c-.12.16-12,16.06-33.25,32.57-19.57,15.24-51.3,34.14-91.26,37.63Q1989.11,144.94,1982.39,145Z" transform="translate(2.67 -3.42)" fill="#cfcfcf"/><path d="M1983.64,148.41c-52,0-105.26-25.13-158.5-74.85l.7-.75c57.41,53.61,114.79,78.52,170.55,74.07,74.22-5.94,121.36-62.14,130.06-73.35l.81.63c-8.74,11.27-56.14,67.77-130.79,73.74Q1990.05,148.41,1983.64,148.41Z" transform="translate(2.67 -3.42)" fill="#cfcfcf"/><path d="M1983,125.45q-5.33,0-10.74-.41c-58-4.39-105.06-43.69-110.22-51.38l.85-.57c5.12,7.62,51.77,46.58,109.45,50.93,43.85,3.31,83.22-13.68,117-50.5l.75.69C2058.82,108.24,2022.84,125.45,1983,125.45Z" transform="translate(2.67 -3.42)" fill="#cfcfcf"/><path d="M1975,125.81c-37.32,0-72.93-17.48-106-52.09l.74-.71c35.89,37.56,74.76,54.83,115.54,51.33,28.15-2.42,51.62-14.52,66.35-24.24,17.12-11.3,27.9-22.77,30.44-26.55l.85.57c-6.73,10-46.59,46.86-97.55,51.24C1982,125.66,1978.48,125.81,1975,125.81Z" transform="translate(2.67 -3.42)" fill="#cfcfcf"/><path d="M1723,125.77c-1.46,0-2.93,0-4.41-.07-33.44-1-64.11-13.87-84-24.44-23.44-12.49-38.58-25.34-41.14-29.14l.85-.57c2.5,3.73,17.49,16.41,40.77,28.81,19.75,10.52,50.27,23.28,83.51,24.32,41.77,1.31,76.71-16,103.88-51.47l.81.62C1796.86,108.31,1763.12,125.77,1723,125.77Z" transform="translate(2.67 -3.42)" fill="#cfcfcf"/><path d="M1716.06,125.47c-37.42,0-76.22-17.84-115.56-53.19l.68-.76c44.18,39.7,87.64,57.21,129.16,52.05,54.3-6.75,84.81-50.12,85.1-50.56l.85.57c-8.22,12.24-39.66,45.26-85.83,51A117.32,117.32,0,0,1,1716.06,125.47Z" transform="translate(2.67 -3.42)" fill="#cfcfcf"/><path d="M2516.88,146.57c-50,0-100.74-24-151-71.59l.7-.74C2421,125.72,2475.9,149.53,2529.81,145c40-3.35,71.78-22.06,91.43-37.17,21.31-16.38,33.32-32.18,33.44-32.33l.82.62c-.12.16-12.19,16-33.61,32.51-19.77,15.2-51.77,34-92,37.4C2525.58,146.39,2521.23,146.57,2516.88,146.57Z" transform="translate(2.67 -3.42)" fill="#cfcfcf"/><path d="M2518.59,152.05c-52.33,0-106-25.9-159.74-77.14l.71-.74c57.56,54.87,115,80.59,170.73,76.42,72-5.38,118.75-58.85,131.37-75.1l.81.63c-12.68,16.34-59.69,70.08-132.1,75.5Q2524.49,152,2518.59,152.05Z" transform="translate(2.67 -3.42)" fill="#cfcfcf"/><path d="M2524.91,128.15c-1.46,0-2.92,0-4.4-.07-60.4-1.89-118-43.7-124.51-53.34l.85-.57c2.5,3.72,17.41,16.36,40.57,28.69,19.64,10.47,50,23.16,83.13,24.2,41.75,1.3,76.71-16,103.93-51.56l.81.62C2598.81,110.66,2565.06,128.15,2524.91,128.15Z" transform="translate(2.67 -3.42)" fill="#cfcfcf"/><path d="M2518.31,128c-37.3,0-76-17.83-115.34-53.16l.68-.76c44.14,39.66,87.49,57.17,128.84,52,45.52-5.66,76.68-38.47,84.84-50.64l.85.57c-8.24,12.27-39.67,45.37-85.57,51.08A113.56,113.56,0,0,1,2518.31,128Z" transform="translate(2.67 -3.42)" fill="#cfcfcf"/><path d="M2790.09,128.15c-1.45,0-2.9,0-4.36-.07-63-2-116.93-45.06-121.65-52.09l.85-.57c2.46,3.67,17,16.06,39.57,28.06,19.14,10.19,48.77,22.56,81.27,23.57,41.72,1.3,76.82-16.21,104.29-52.06l.81.62C2864.15,110.49,2830.26,128.15,2790.09,128.15Z" transform="translate(2.67 -3.42)" fill="#cfcfcf"/><path d="M2774.27,128.62c-37,0-71.7-17.7-103.17-52.7l.76-.68c33.6,37.37,70.82,54.89,110.66,52.07,55.91-4,96.38-46.07,100.56-52.28l.85.57c-4.21,6.27-45,48.76-101.34,52.73C2779.8,128.53,2777,128.62,2774.27,128.62Z" transform="translate(2.67 -3.42)" fill="#cfcfcf"/><path d="M1447.06,142.72c-49.7,0-100.25-24-150.46-71.51l.7-.74c54.51,51.56,109.38,75.33,163.06,70.65,75.91-6.62,123.13-69.06,123.6-69.69l.82.61c-.12.16-12,16-33.19,32.52-19.54,15.22-51.22,34.09-91.13,37.58Q1453.77,142.71,1447.06,142.72Z" transform="translate(2.67 -3.42)" fill="#cfcfcf"/><path d="M1448.87,148.25c-51.95,0-105.4-25.87-159.07-77l.71-.74c57.45,54.77,114.62,80.46,169.9,76.32,32.12-2.4,62.89-14.73,91.47-36.65a218.51,218.51,0,0,0,39-38.7l.43.28.38.34A219.49,219.49,0,0,1,1552.5,111c-28.74,22-59.7,34.44-92,36.86Q1454.7,148.26,1448.87,148.25Z" transform="translate(2.67 -3.42)" fill="#cfcfcf"/><path d="M1459.44,126c-33.8,0-66.19-13-87.55-23.95-24.7-12.69-42.24-26.63-45.13-30.86l.84-.58c2.83,4.16,20.2,17.92,44.75,30.53,21.59,11.09,54.47,24.24,88.63,23.82,39.06-.46,70.33-18.43,92.93-53.39l.86.55C1532,107.38,1500.42,125.5,1461,126Z" transform="translate(2.67 -3.42)" fill="#cfcfcf"/><path d="M1438.45,124.32c-37.75,0-72.91-17.86-104.71-53.22l.76-.68c34.88,38.79,73.82,56.38,115.73,52.31,52.11-5.07,92.09-43.08,96.72-50.85l.88.52c-4.68,7.84-45,46.23-97.5,51.34Q1444.34,124.32,1438.45,124.32Z" transform="translate(2.67 -3.42)" fill="#cfcfcf"/><polygon points="2121.73 69.84 2121.73 71 2122.94 71 2122.94 69.84 2128.71 69.84 2128.71 70.95 2129.92 70.95 2129.92 69.84 2131.52 69.84 2131.52 70.98 2132.73 70.98 2132.73 69.84 2138.51 69.84 2138.51 70.94 2139.72 70.94 2139.72 69.84 2141.69 69.84 2141.69 64.88 2136.42 64.88 2136.42 63.73 2133.02 63.73 2133.02 64.88 2127.81 64.88 2127.81 63.73 2124.41 63.73 2124.41 64.88 2100.07 64.88 2100.07 63.73 2096.67 63.73 2096.67 64.88 2091.45 64.88 2091.45 63.73 2088.06 63.73 2088.06 64.88 2082.94 64.88 2082.94 69.84 2084.6 69.84 2084.6 71 2085.81 71 2085.81 69.84 2091.58 69.84 2091.58 70.95 2092.79 70.95 2092.79 69.84 2094.4 69.84 2094.4 70.98 2095.61 70.98 2095.61 69.84 2101.38 69.84 2101.38 70.94 2102.59 70.94 2102.59 69.84 2107.74 69.84 2107.77 74.14 2117.33 74.14 2117.3 69.84 2121.73 69.84" fill="#404040"/><polygon points="1854.88 69.19 1854.88 70.34 1856.09 70.34 1856.09 69.19 1861.87 69.19 1861.87 70.28 1863.08 70.28 1863.08 69.19 1864.68 69.19 1864.68 70.33 1865.89 70.33 1865.89 69.19 1871.66 69.19 1871.66 70.28 1872.87 70.28 1872.87 69.19 1874.85 69.19 1874.85 64.22 1869.58 64.22 1869.58 63.08 1866.18 63.08 1866.18 64.22 1860.96 64.22 1860.96 63.08 1857.57 63.08 1857.57 64.22 1833.22 64.22 1833.22 63.08 1829.83 63.08 1829.83 64.22 1824.61 64.22 1824.61 63.08 1821.21 63.08 1821.21 64.22 1816.09 64.22 1816.09 69.19 1817.76 69.19 1817.76 70.34 1818.97 70.34 1818.97 69.19 1824.74 69.19 1824.74 70.28 1825.95 70.28 1825.95 69.19 1827.55 69.19 1827.55 70.33 1828.76 70.33 1828.76 69.19 1834.54 69.19 1834.54 70.28 1835.75 70.28 1835.75 69.19 1840.9 69.19 1840.9 73.33 1850.46 73.33 1850.46 69.19 1854.88 69.19" fill="#404040"/><polygon points="1586.38 67.86 1586.38 69 1587.59 69 1587.59 67.86 1593.36 67.86 1593.36 68.95 1594.57 68.95 1594.57 67.86 1596.18 67.86 1596.18 69 1597.39 69 1597.39 67.86 1603.16 67.86 1603.16 68.94 1604.37 68.94 1604.37 67.86 1606.34 67.86 1606.34 62.88 1601.07 62.88 1601.07 61.74 1597.68 61.74 1597.68 62.88 1592.46 62.88 1592.46 61.74 1589.06 61.74 1589.06 62.88 1564.72 62.88 1564.72 61.74 1561.32 61.74 1561.32 62.88 1556.11 62.88 1556.11 61.74 1552.71 61.74 1552.71 62.88 1547.59 62.88 1547.59 67.86 1549.25 67.86 1549.25 69 1550.46 69 1550.46 67.86 1556.24 67.86 1556.24 68.95 1557.44 68.95 1557.44 67.86 1559.05 67.86 1559.05 69 1560.26 69 1560.26 67.86 1566.03 67.86 1566.03 68.94 1567.24 68.94 1567.24 67.86 1572.39 67.86 1572.4 73.39 1581.96 73.39 1581.95 67.86 1586.38 67.86" fill="#404040"/><polygon points="2656.91 71.67 2656.91 72.83 2658.12 72.83 2658.12 71.67 2663.89 71.67 2663.89 72.78 2665.1 72.78 2665.1 71.67 2666.7 71.67 2666.7 72.81 2667.91 72.81 2667.91 71.67 2673.69 71.67 2673.69 72.77 2674.9 72.77 2674.9 71.67 2676.87 71.67 2676.87 66.7 2671.6 66.7 2671.6 65.56 2668.2 65.56 2668.2 66.7 2662.99 66.7 2662.99 65.56 2659.59 65.56 2659.59 66.7 2635.25 66.7 2635.25 65.56 2631.85 65.56 2631.85 66.7 2626.63 66.7 2626.63 65.56 2623.24 65.56 2623.24 66.7 2618.12 66.7 2618.12 71.67 2619.78 71.67 2619.78 72.83 2620.99 72.83 2620.99 71.67 2626.76 71.67 2626.76 72.78 2627.97 72.78 2627.97 71.67 2629.58 71.67 2629.58 72.81 2630.79 72.81 2630.79 71.67 2636.56 71.67 2636.56 72.77 2637.77 72.77 2637.77 71.67 2642.92 71.67 2642.92 76.31 2652.48 76.31 2652.48 71.67 2656.91 71.67" fill="#404040"/><polygon points="2388.95 70.61 2388.95 71.77 2390.16 71.77 2390.16 70.61 2395.93 70.61 2395.93 71.72 2397.14 71.72 2397.14 70.61 2398.74 70.61 2398.74 71.75 2399.95 71.75 2399.95 70.61 2405.73 70.61 2405.73 71.7 2406.94 71.7 2406.94 70.61 2408.91 70.61 2408.91 65.64 2403.64 65.64 2403.64 64.5 2400.24 64.5 2400.24 65.64 2395.03 65.64 2395.03 64.5 2391.63 64.5 2391.63 65.64 2367.29 65.64 2367.29 64.5 2363.89 64.5 2363.89 65.64 2358.67 65.64 2358.67 64.5 2355.28 64.5 2355.28 65.64 2350.16 65.64 2350.16 70.61 2351.82 70.61 2351.82 71.77 2353.03 71.77 2353.03 70.61 2358.8 70.61 2358.8 71.72 2360.01 71.72 2360.01 70.61 2361.62 70.61 2361.62 71.75 2362.83 71.75 2362.83 70.61 2368.6 70.61 2368.6 71.7 2369.81 71.7 2369.81 70.61 2374.96 70.61 2374.91 74.72 2384.47 74.72 2384.52 70.61 2388.95 70.61" fill="#404040"/><polygon points="1319.59 66.75 1319.59 67.91 1320.8 67.91 1320.8 66.75 1326.58 66.75 1326.58 67.84 1327.79 67.84 1327.79 66.75 1329.39 66.75 1329.39 67.89 1330.6 67.89 1330.6 66.75 1336.37 66.75 1336.37 67.83 1337.58 67.83 1337.58 66.75 1339.56 66.75 1339.56 61.77 1334.29 61.77 1334.29 60.63 1330.89 60.63 1330.89 61.77 1325.68 61.77 1325.68 60.63 1322.28 60.63 1322.28 61.77 1297.93 61.77 1297.93 60.63 1294.54 60.63 1294.54 61.77 1289.32 61.77 1289.32 60.63 1285.92 60.63 1285.92 61.77 1280.8 61.77 1280.8 66.75 1282.47 66.75 1282.47 67.91 1283.68 67.91 1283.68 66.75 1289.45 66.75 1289.45 67.84 1290.66 67.84 1290.66 66.75 1292.26 66.75 1292.26 67.89 1293.47 67.89 1293.47 66.75 1299.25 66.75 1299.25 67.83 1300.46 67.83 1300.46 66.75 1305.61 66.75 1305.61 71.25 1315.11 71.2 1315.17 66.75 1319.59 66.75" fill="#404040"/><polygon points="475.62 1.74 462.11 26.48 472.45 25.95 470.34 49.22 483.16 19.66 473.48 20.16 475.62 1.74" fill="#eda302"/><polygon points="508.03 27.66 492.92 36.42 498.58 39.47 489.98 51.13 506.27 39.58 500.98 36.73 508.03 27.66" fill="#eda302"/><polygon points="441.22 25.82 442 43.27 447.32 39.66 453.67 52.69 450.97 32.9 446 36.27 441.22 25.82" fill="#eda302"/><path d="M877.54,142.09c-49.32,0-99.57-23.9-149.57-71.2l.7-.74c54.46,51.52,109.18,75.17,162.6,70.3,75.69-6.9,122.55-69.86,123-70.5l.83.6c-.12.16-11.93,16.17-33,32.82-19.44,15.37-51,34.46-90.76,38.09C886.78,141.88,882.16,142.09,877.54,142.09Z" transform="translate(2.67 -3.42)" fill="#cfcfcf"/><path d="M879.18,147.66c-51.57,0-104.71-25.75-158.13-76.69l.71-.74c57.2,54.53,114,80.1,168.89,76,68.51-5.14,114-54.86,130.4-76l.22-.28.81.63-.22.28c-16.47,21.25-62.21,71.22-131.13,76.39Q885,147.65,879.18,147.66Z" transform="translate(2.67 -3.42)" fill="#cfcfcf"/><path d="M343.42,140.76c-49.82,0-100.44-24-150.68-71.55l.7-.74C247.92,120,302.8,143.8,356.58,139.18c76.12-6.54,123.58-69,124.05-69.59l.82.61c-.12.16-12.08,16-33.34,32.5-19.62,15.2-51.42,34.05-91.44,37.49C352.27,140.57,347.84,140.76,343.42,140.76Z" transform="translate(2.67 -3.42)" fill="#cfcfcf"/><path d="M345,146.3c-52.11,0-105.64-25.87-159.3-77l.71-.74C243.9,123.32,301.16,149,356.64,144.84c71.46-5.34,118.36-59,131-75.36l.81.63c-12.74,16.41-59.89,70.38-131.78,75.76Q350.88,146.29,345,146.3Z" transform="translate(2.67 -3.42)" fill="#cfcfcf"/><path d="M1146.52,143.64a159.22,159.22,0,0,1-28.19-2.55c-41.21-7.41-83.15-31.07-124.65-70.34l.7-.74c51.36,48.58,130.76,98.08,217.34,57.95,43.83-20.31,68.31-54.78,68.19-57l1-.06c.21,3.37-24.89,37.51-68.27,57.79A155,155,0,0,1,1146.52,143.64Z" transform="translate(2.67 -3.42)" fill="#cfcfcf"/><path d="M1147,147.89a171.71,171.71,0,0,1-52.27-8.39c-35.74-11.39-72-34.5-107.91-68.69l.71-.74c35.75,34.09,71.92,57.12,107.51,68.46,29.67,9.45,59.13,10.88,87.59,4.24,62-14.47,101.14-63.33,104.39-72.2l1,.35c-3.28,9-42.69,58.28-105.11,72.84A157.74,157.74,0,0,1,1147,147.89Z" transform="translate(2.67 -3.42)" fill="#cfcfcf"/><path d="M495,64.06V62.92h-3.4v1.14h-5.22V62.92H483v1.14H458.61V62.92h-3.4v1.14H450V62.92h-3.4v1.14h-5.12v5h1.66v1.16h1.21V69h5.77v1.11h1.21V69h1.6v1.14h1.21V69h5.77v1.09h1.21V69h5.15V270.21a18.27,18.27,0,0,1,9.56-.41V69h4.43v1.16h1.21V69h5.77v1.11h1.21V69h1.6v1.14h1.21V69H497v1.09h1.21V69h2v-5Z" transform="translate(2.67 -3.42)" fill="#404040"/><path d="M762.93,65.12V64h-3.4v1.14h-5.22V64h-3.4v1.14H726.57V64h-3.4v1.14H718V64h-3.4v1.14h-5.12v5h1.66v1.16h1.21V70.09h5.77V71.2h1.21V70.09h1.6v1.14h1.21V70.09h5.77v1.09h1.21V70.09h5.15l.17,212.4a24.06,24.06,0,0,1,7.93-1.27c.55,0,1.09,0,1.63,0l-.17-211.18h4.43v1.16h1.21V70.09h5.77V71.2h1.21V70.09H758v1.14h1.21V70.09H765v1.09h1.21V70.09h2v-5Z" transform="translate(2.67 -3.42)" fill="#404040"/><path d="M1028.68,64.69V63.55h-3.4v1.14h-5.22V63.55h-3.4v1.14H992.32V63.55h-3.4v1.14H983.7V63.55h-3.4v1.14h-5.12v5h1.66v1.16h1.21V69.66h5.77v1.11H985V69.66h1.6V70.8h1.21V69.66h5.77v1.09h1.21V69.66H1000l-.18,199.43c2.89-.3,8.32,1.12,9.74,1.43V69.66H1014v1.16h1.21V69.66h5.77v1.11h1.21V69.66h1.6V70.8H1025V69.66h5.77v1.09h1.21V69.66h2v-5Z" transform="translate(2.67 -3.42)" fill="#404040"/><path d="M227.75,63.29V62.15h-3.4v1.14h-5.22V62.15h-3.4v1.14H191.4V62.15H188v1.14h-5.22V62.15h-3.4v1.14h-5.12v5h1.66v1.16h1.21V68.26h5.77v1.11h1.21V68.26h1.6V69.4h1.21V68.26h5.77v1.09h1.21V68.26h5.15V274.44a4.53,4.53,0,0,0,.07.74,55.71,55.71,0,0,1,7.37-.47c.71,0,1.4,0,2.09,0a3,3,0,0,0,0-.31V68.26H213v1.16h1.21V68.26H220v1.11h1.21V68.26h1.6V69.4H224V68.26h5.77v1.09H231V68.26h2v-5Z" transform="translate(2.67 -3.42)" fill="#404040"/><path d="M350.9,122.13c-1.45,0-2.91,0-4.38-.07-59.89-1.87-117.08-43.39-123.51-53l.85-.57c2.49,3.71,17.29,16.27,40.22,28.5,19.47,10.38,49.58,23,82.47,24,41.71,1.3,76.68-16.1,104-51.72l.81.62C424.79,104.58,391,122.13,350.9,122.13Z" transform="translate(2.67 -3.42)" fill="#cfcfcf"/><path d="M334.31,122.07C296.75,122.07,261.7,104.25,230,69l.76-.68c33.84,37.64,71.52,55.27,112,52.42,28.81-2,53.28-14.31,68.73-24.25C429.53,84.9,441,73,443.42,69.35l.85.57c-6.67,9.93-49,48.14-101.45,51.85Q338.56,122.07,334.31,122.07Z" transform="translate(2.67 -3.42)" fill="#cfcfcf"/><path d="M76.53,139.94c-26.12,0-52.69-6.67-79.14-19.89l.46-.91c29.61,14.79,59.37,21.34,88.44,19.46,23.26-1.5,46.14-8.37,68-20.41,37.27-20.52,59-49.35,59.17-49.64l.82.61c-.22.29-22,29.27-59.46,49.9-22,12.12-45,19-68.45,20.55Q81.46,139.94,76.53,139.94Z" transform="translate(2.67 -3.42)" fill="#cfcfcf"/><path d="M77.76,143.41c-26.44,0-53.46-6.55-80.43-19.52l.44-.92c29.54,14.2,59.13,20.67,87.93,19.22a166.1,166.1,0,0,0,68.44-19,210.34,210.34,0,0,0,66.29-54.67l.81.63a211.56,211.56,0,0,1-66.63,55C132.47,135.6,109.3,142,85.75,143.21,83.1,143.34,80.43,143.41,77.76,143.41Z" transform="translate(2.67 -3.42)" fill="#cfcfcf"/><path d="M77.26,120.4c-31.68,0-59.76-11-79.08-21.2l.48-.9c39.59,21,116.23,45,184.78-29.74l.75.69C148.64,108,110.92,120.4,77.26,120.4Z" transform="translate(2.67 -3.42)" fill="#cfcfcf"/><path d="M69.49,120.5c-21.44,0-45.67-5.73-71-22.27l.56-.86c47.65,31.1,91.4,23.69,119.72,12C150,96.47,172,74.63,176.12,68.55l.85.57c-1.86,2.77-8.26,9.79-18.27,17.76a167,167,0,0,1-39.54,23.43A130.14,130.14,0,0,1,69.49,120.5Z" transform="translate(2.67 -3.42)" fill="#cfcfcf"/><path d="M610.88,141.57c-50,0-100.74-24-151-71.59l.7-.74C515,120.72,569.91,144.53,623.81,140c40-3.35,71.78-22.06,91.44-37.17,21.31-16.38,33.32-32.18,33.44-32.33l.82.62c-.12.16-12.19,16-33.61,32.51-19.77,15.2-51.77,34-92,37.4Q617.42,141.57,610.88,141.57Z" transform="translate(2.67 -3.42)" fill="#cfcfcf"/><path d="M612.59,147.05c-52.33,0-106-25.9-159.74-77.14l.71-.74c57.56,54.88,115,80.59,170.73,76.42,72-5.38,118.75-58.85,131.37-75.1l.81.63c-12.68,16.34-59.69,70.08-132.1,75.5Q618.49,147,612.59,147.05Z" transform="translate(2.67 -3.42)" fill="#cfcfcf"/><path d="M618.91,123.15c-1.46,0-2.92,0-4.4-.07-60.4-1.89-118-43.7-124.51-53.34l.85-.57c2.5,3.72,17.41,16.36,40.57,28.69,19.64,10.47,50,23.16,83.13,24.2,41.73,1.31,76.71-16,103.92-51.56l.81.62C692.81,105.66,659.06,123.15,618.91,123.15Z" transform="translate(2.67 -3.42)" fill="#cfcfcf"/><path d="M612.34,123.18c-37.23,0-75.89-17.81-115.17-53.11l.68-.76c44.09,39.62,87.36,57.1,128.63,52,45.45-5.65,76.67-38.57,84.86-50.78l.85.57c-.3.44-30.36,44.35-85.58,51.22A115.22,115.22,0,0,1,612.34,123.18Z" transform="translate(2.67 -3.42)" fill="#cfcfcf"/><path d="M884.16,123.2c-1.44,0-2.89,0-4.35-.07-63-2-117-45.1-121.72-52.14l.85-.57c2.47,3.68,17,16.08,39.59,28.09,19.15,10.21,48.8,22.58,81.31,23.6,41.71,1.31,76.79-16.21,104.25-52l.81.62C958.19,105.55,924.31,123.2,884.16,123.2Z" transform="translate(2.67 -3.42)" fill="#cfcfcf"/><path d="M868.42,123.68c-37.1,0-71.81-17.72-103.32-52.76l.76-.68c33.63,37.41,70.92,55,110.83,52.12,56-4,96.36-45.95,100.53-52.15l.85.57c-4.2,6.25-44.94,48.62-101.3,52.6Q872.57,123.68,868.42,123.68Z" transform="translate(2.67 -3.42)" fill="#cfcfcf"/><polygon points="215.73 64.84 215.73 66 216.94 66 216.94 64.84 222.71 64.84 222.71 65.95 223.92 65.95 223.92 64.84 225.52 64.84 225.52 65.98 226.73 65.98 226.73 64.84 232.51 64.84 232.51 65.94 233.72 65.94 233.72 64.84 235.69 64.84 235.69 59.88 230.42 59.88 230.42 58.73 227.02 58.73 227.02 59.88 221.81 59.88 221.81 58.73 218.41 58.73 218.41 59.88 194.07 59.88 194.07 58.73 190.67 58.73 190.67 59.88 185.45 59.88 185.45 58.73 182.05 58.73 182.05 59.88 176.94 59.88 176.94 64.84 178.6 64.84 178.6 66 179.81 66 179.81 64.84 185.58 64.84 185.58 65.95 186.79 65.95 186.79 64.84 188.4 64.84 188.4 65.98 189.61 65.98 189.61 64.84 195.38 64.84 195.38 65.94 196.59 65.94 196.59 64.84 201.74 64.84 201.71 70.5 211.27 70.5 211.3 64.84 215.73 64.84" fill="#404040"/><polygon points="1016.66 66.25 1016.66 67.41 1017.87 67.41 1017.87 66.25 1023.64 66.25 1023.64 67.36 1024.85 67.36 1024.85 66.25 1026.46 66.25 1026.46 67.39 1027.67 67.39 1027.67 66.25 1033.44 66.25 1033.44 67.33 1034.65 67.33 1034.65 66.25 1036.63 66.25 1036.63 61.27 1031.35 61.27 1031.35 60.13 1027.96 60.13 1027.96 61.27 1022.74 61.27 1022.74 60.13 1019.34 60.13 1019.34 61.27 995 61.27 995 60.13 991.6 60.13 991.6 61.27 986.39 61.27 986.39 60.13 982.99 60.13 982.99 61.27 977.87 61.27 977.87 66.25 979.53 66.25 979.53 67.41 980.74 67.41 980.74 66.25 986.52 66.25 986.52 67.36 987.73 67.36 987.73 66.25 989.33 66.25 989.33 67.39 990.54 67.39 990.54 66.25 996.31 66.25 996.31 67.33 997.52 67.33 997.52 66.25 1002.67 66.25 1002.67 71.31 1012.23 71.31 1012.23 66.25 1016.66 66.25" fill="#404040"/><polygon points="750.91 66.67 750.91 67.83 752.12 67.83 752.12 66.67 757.89 66.67 757.89 67.78 759.1 67.78 759.1 66.67 760.7 66.67 760.7 67.81 761.91 67.81 761.91 66.67 767.69 66.67 767.69 67.77 768.9 67.77 768.9 66.67 770.87 66.67 770.87 61.7 765.6 61.7 765.6 60.56 762.2 60.56 762.2 61.7 756.99 61.7 756.99 60.56 753.59 60.56 753.59 61.7 729.25 61.7 729.25 60.56 725.85 60.56 725.85 61.7 720.63 61.7 720.63 60.56 717.24 60.56 717.24 61.7 712.12 61.7 712.12 66.67 713.78 66.67 713.78 67.83 714.99 67.83 714.99 66.67 720.76 66.67 720.76 67.78 721.97 67.78 721.97 66.67 723.58 66.67 723.58 67.81 724.79 67.81 724.79 66.67 730.56 66.67 730.56 67.77 731.77 67.77 731.77 66.67 736.92 66.67 736.92 71.31 746.48 71.31 746.48 66.67 750.91 66.67" fill="#404040"/><polygon points="482.95 65.61 482.95 66.77 484.16 66.77 484.16 65.61 489.93 65.61 489.93 66.72 491.14 66.72 491.14 65.61 492.74 65.61 492.74 66.75 493.95 66.75 493.95 65.61 499.73 65.61 499.73 66.7 500.94 66.7 500.94 65.61 502.91 65.61 502.91 60.65 497.64 60.65 497.64 59.51 494.24 59.51 494.24 60.65 489.03 60.65 489.03 59.51 485.63 59.51 485.63 60.65 461.29 60.65 461.29 59.51 457.89 59.51 457.89 60.65 452.67 60.65 452.67 59.51 449.28 59.51 449.28 60.65 444.16 60.65 444.16 65.61 445.82 65.61 445.82 66.77 447.03 66.77 447.03 65.61 452.8 65.61 452.8 66.72 454.01 66.72 454.01 65.61 455.62 65.61 455.62 66.75 456.83 66.75 456.83 65.61 462.6 65.61 462.6 66.7 463.81 66.7 463.81 65.61 468.96 65.61 468.93 69.47 478.49 69.47 478.52 65.61 482.95 65.61" fill="#404040"/><path d="M4154.39,153.47c-49.74,0-100.29-24-150.49-71.48l.7-.74c54.46,51.52,109.33,75.28,163,70.62,76.08-6.6,123.47-69.14,123.94-69.77l.82.61c-.12.16-12.06,16.06-33.3,32.57-19.6,15.24-51.37,34.13-91.37,37.6Q4161.08,153.48,4154.39,153.47Z" transform="translate(2.67 -3.42)" fill="#cfcfcf"/><path d="M4140.2,157.12c-52.58,0-100.76-25.24-143.27-75.09l.78-.66c43.32,50.8,92.51,75.91,146.28,74.68,43.29-1,81.36-19.31,105.67-34.49,27-16.88,45.29-34.84,48.88-39.47l.81.63c-3.62,4.67-22,22.76-49.15,39.71-24.42,15.25-62.67,33.64-106.19,34.65C4142.74,157.1,4141.46,157.12,4140.2,157.12Z" transform="translate(2.67 -3.42)" fill="#cfcfcf"/><path d="M3619.57,151.88c-50,0-100.74-24-151-71.59l.7-.74c54.42,51.48,109.33,75.29,163.24,70.77,40-3.35,71.78-22.06,91.44-37.17,21.31-16.38,33.32-32.18,33.44-32.33l.82.62c-.12.16-12.19,16-33.61,32.51-19.77,15.2-51.77,34-92,37.4Q3626.11,151.88,3619.57,151.88Z" transform="translate(2.67 -3.42)" fill="#cfcfcf"/><path d="M3621.29,157.36c-52.33,0-106-25.9-159.74-77.14l.71-.74c57.56,54.87,115,80.58,170.72,76.42,72-5.38,118.75-58.84,131.37-75.1l.81.63c-12.68,16.34-59.7,70.08-132.1,75.5Q3627.18,157.35,3621.29,157.36Z" transform="translate(2.67 -3.42)" fill="#cfcfcf"/><path d="M3088.28,147.78c-49.74,0-100.54-24.22-151.2-72.14l.7-.74c55,52,110.12,76,163.79,71.28,74.49-6.55,120.29-67.28,120.75-67.89l.82.61c-.11.15-11.66,15.6-32.31,31.66-19.06,14.82-50,33.2-89.17,36.65C3097.21,147.58,3092.75,147.78,3088.28,147.78Z" transform="translate(2.67 -3.42)" fill="#cfcfcf"/><path d="M3089.61,153.8c-51.91,0-105.51-26-159.53-77.54l.71-.74c57.8,55.11,115.07,81,170.26,76.83,67.83-5.07,112.25-53.43,128.2-74l.07-.1.81.63-.07.1c-16,20.66-60.69,69.28-128.93,74.38Q3095.37,153.81,3089.61,153.8Z" transform="translate(2.67 -3.42)" fill="#cfcfcf"/><path d="M4306,77.06V75.92h-3.4v1.14h-5.22V75.92H4294v1.14h-24.34V75.92h-3.4v1.14H4261V75.92h-3.4v1.14h-5.12v5h1.66v1.16h1.21V82h5.77v1.11h1.21V82h1.6v1.14h1.21V82h5.77v1.09h1.21V82h5.15V283.21a18.27,18.27,0,0,1,9.56-.41V82h4.43v1.16h1.21V82h5.77v1.11h1.21V82h1.6v1.14h1.21V82H4308v1.09h1.21V82h2v-5Z" transform="translate(2.67 -3.42)" fill="#404040"/><path d="M4038.75,76.29V75.15h-3.4v1.14h-5.22V75.15h-3.4v1.14h-24.34V75.15H3999v1.14h-5.22V75.15h-3.4v1.14h-5.12v5h1.66v1.16h1.21V81.26h5.77v1.11h1.21V81.26h1.6V82.4h1.21V81.26h5.77v1.09h1.21V81.26H4010V287.44a4.53,4.53,0,0,0,.07.74,55.71,55.71,0,0,1,7.37-.47c.71,0,1.4,0,2.09,0a3,3,0,0,0,0-.31V81.26H4024v1.16h1.21V81.26H4031v1.11h1.21V81.26h1.6V82.4H4035V81.26h5.77v1.09H4042V81.26h2v-5Z" transform="translate(2.67 -3.42)" fill="#404040"/><path d="M3771.91,75.63V74.49h-3.4v1.14h-5.22V74.49h-3.4v1.14h-24.34V74.49h-3.4v1.14h-5.22V74.49h-3.4v1.14h-5.12v5h1.66v1.16h1.21V80.6h5.77v1.11h1.21V80.6h1.6v1.14h1.21V80.6h5.77v1.09h1.21V80.6h5.15V282.14a1.45,1.45,0,0,0,1.71,1.41,35.31,35.31,0,0,1,5.67-.45c.74,0,1.47,0,2.18.07V80.6h4.43v1.16h1.21V80.6h5.77v1.11h1.21V80.6h1.6v1.14h1.21V80.6H3774v1.09h1.21V80.6h2v-5Z" transform="translate(2.67 -3.42)" fill="#404040"/><path d="M3503.4,74.29V73.15H3500v1.14h-5.22V73.15h-3.4v1.14H3467V73.15h-3.4v1.14h-5.22V73.15H3455v1.14h-5.12v5h1.66v1.16h1.21V79.26h5.77v1.11h1.21V79.26h1.6V80.4h1.21V79.26h5.77v1.09h1.21V79.26h5.15s-.65,190-.32,204a.42.42,0,0,0,.63.36c2.24-1.39,5.73-.5,9.26-.92V79.27h4.43v1.16h1.21V79.27h5.77v1.11h1.21V79.27h1.6v1.14h1.21V79.27h5.77v1.09h1.21V79.27h2v-5Z" transform="translate(2.67 -3.42)" fill="#404040"/><path d="M3236.62,73.19V72.05h-3.4v1.14H3228V72.05h-3.4v1.14h-24.34V72.05h-3.4v1.14h-5.22V72.05h-3.4v1.14h-5.12v5h1.66v1.16H3186V78.16h5.77v1.11H3193V78.16h1.6V79.3h1.21V78.16h5.77v1.09h1.21V78.16h5.15V280.61c.54,0,1.09-.05,1.65-.05,3,0,5.58-.52,7.81.22l.09-202.61h4.43v1.16h1.21V78.17h5.77v1.11h1.21V78.17h1.6v1.14h1.21V78.17h5.77v1.09h1.21V78.17h2v-5Z" transform="translate(2.67 -3.42)" fill="#404040"/><path d="M4151.34,140.91a129.84,129.84,0,0,1-14.55-.83c-54.2-6.13-95.5-44-102.8-58l.91-.47c7.23,13.9,48.19,51.4,102,57.49a123.61,123.61,0,0,0,61.07-8.34c22.71-9.24,44.1-25.53,63.57-48.42l.78.66c-19.59,23-41.11,39.41-64,48.71A124.18,124.18,0,0,1,4151.34,140.91Z" transform="translate(2.67 -3.42)" fill="#cfcfcf"/><path d="M4147.8,139.27c-37.31,0-73.19-19.23-106.78-57.26l.77-.68c35.53,40.23,73.6,59.3,113.18,56.68,28.89-1.91,53.06-15.33,68.26-26.25,16.72-12,28.24-25,31.2-29.41l.85.57c-3,4.46-14.62,17.57-31.45,29.67-15.31,11-39.66,24.52-68.79,26.44C4152.62,139.19,4150.2,139.27,4147.8,139.27Z" transform="translate(2.67 -3.42)" fill="#cfcfcf"/><path d="M3887.39,153c-49.7,0-100.24-24-150.42-71.48l.7-.74c54.48,51.54,109.33,75.3,163,70.62,76-6.63,123.3-69.16,123.77-69.79l.82.61c-.12.16-12,16.06-33.25,32.57-19.58,15.24-51.3,34.14-91.26,37.63C3896.33,152.75,3891.86,153,3887.39,153Z" transform="translate(2.67 -3.42)" fill="#cfcfcf"/><path d="M3888.64,156.41c-52,0-105.26-25.13-158.5-74.85l.7-.75c57.41,53.61,114.79,78.52,170.55,74.07,74.22-5.94,121.36-62.14,130.06-73.35l.81.63c-8.74,11.27-56.14,67.77-130.79,73.74Q3895.05,156.41,3888.64,156.41Z" transform="translate(2.67 -3.42)" fill="#cfcfcf"/><path d="M3888.19,133.37q-5.31,0-10.71-.41c-58-4.39-105.18-43.88-110.38-51.61l.85-.57c5.15,7.66,51.92,46.81,109.6,51.16,43.75,3.3,83-13.66,116.71-50.41l.75.69C3963.87,116.19,3928,133.37,3888.19,133.37Z" transform="translate(2.67 -3.42)" fill="#cfcfcf"/><path d="M3869.77,134c-31.18,0-67.69-11.16-95.64-52.64l.85-.57c34.79,51.64,83,55.87,117.28,50.33,51.51-8.33,92.24-40.22,94.8-49.39l1,.28c-3,10.83-46.24,42.14-95.63,50.13A143.18,143.18,0,0,1,3869.77,134Z" transform="translate(2.67 -3.42)" fill="#cfcfcf"/><path d="M3604.47,134.06a150,150,0,0,1-40-5.39c-36.62-10.18-60.84-32.24-65.84-48.77l1-.3c4.92,16.26,28.88,38,65.14,48.08,31.55,8.77,94.62,14.34,162.48-46.95l.69.76C3681.82,123.12,3637.91,134.06,3604.47,134.06Z" transform="translate(2.67 -3.42)" fill="#cfcfcf"/><path d="M3603.63,129.81a133.17,133.17,0,0,1-44.79-7.31c-23.8-8.52-40.2-20.19-53.28-42.43l.88-.52c12.95,22,29.17,33.56,52.74,42,19.85,7.1,43.28,9,67.74,5.57,21.68-3.06,43.3-10.2,60.88-20.09,16.69-9.39,28.09-17.37,32.36-25.67l1,.25c-4.59,8.71-15.91,16.78-32.85,26.31-17.69,10-39.44,17.13-61.24,20.21A166.46,166.46,0,0,1,3603.63,129.81Z" transform="translate(2.67 -3.42)" fill="#cfcfcf"/><path d="M4298.43,106.66c-9.16-7.08-18.43-15-27.56-23.68l.7-.74c9.1,8.61,18.35,16.55,27.48,23.61Z" transform="translate(2.67 -3.42)" fill="#cfcfcf"/><path d="M4297.53,111.71a393.28,393.28,0,0,1-33.67-28.8l.71-.74a391.13,391.13,0,0,0,33.58,28.72Z" transform="translate(2.67 -3.42)" fill="#cfcfcf"/><path d="M3352.28,150.66c-49.67,0-100.21-24-150.44-71.53l.7-.74c54.54,51.59,109.4,75.37,163.07,70.66,75.79-6.64,122.88-69,123.35-69.63l.82.61c-.12.16-12,16-33.11,32.48-19.5,15.2-51.11,34.06-91,37.55Q3359,150.66,3352.28,150.66Z" transform="translate(2.67 -3.42)" fill="#cfcfcf"/><path d="M3356.14,156.63a172.29,172.29,0,0,1-47.55-6.85c-37.85-10.83-76.21-34.6-114-70.66l.71-.74c37.7,35.94,75.92,59.63,113.61,70.42,31,8.88,61.74,9.08,91.31.61,56.92-16.3,93.34-60.74,95.67-69.8l1,.25c-2.36,9.17-39.08,54.12-96.38,70.53A160.57,160.57,0,0,1,3356.14,156.63Z" transform="translate(2.67 -3.42)" fill="#cfcfcf"/><path d="M3353.58,136.63q-4.73,0-9.53-.34c-54.62-3.82-102-39.12-112.09-57l.89-.5c10,17.69,57,52.67,111.27,56.46a123,123,0,0,0,58.58-9.79c20.94-9.18,39.84-24.65,56.18-46l.81.62c-16.44,21.46-35.48,37-56.58,46.29A122.47,122.47,0,0,1,3353.58,136.63Z" transform="translate(2.67 -3.42)" fill="#cfcfcf"/><path d="M3351.63,128.33c-4,0-7.93-.16-11.64-.44-47.09-3.57-89.22-28.15-101.24-48.89l.88-.51c11.89,20.51,53.67,44.84,100.43,48.38,31.69,2.4,76.82-3.87,111.75-47.37l.8.64C3421.49,118.89,3382.36,128.33,3351.63,128.33Z" transform="translate(2.67 -3.42)" fill="#cfcfcf"/><polygon points="4026.73 77.84 4026.73 79 4027.94 79 4027.94 77.84 4033.71 77.84 4033.71 78.95 4034.92 78.95 4034.92 77.84 4036.52 77.84 4036.52 78.98 4037.73 78.98 4037.73 77.84 4043.51 77.84 4043.51 78.94 4044.72 78.94 4044.72 77.84 4046.69 77.84 4046.69 72.88 4041.42 72.88 4041.42 71.73 4038.02 71.73 4038.02 72.88 4032.81 72.88 4032.81 71.73 4029.41 71.73 4029.41 72.88 4005.07 72.88 4005.07 71.73 4001.67 71.73 4001.67 72.88 3996.45 72.88 3996.45 71.73 3993.06 71.73 3993.06 72.88 3987.94 72.88 3987.94 77.84 3989.6 77.84 3989.6 79 3990.81 79 3990.81 77.84 3996.58 77.84 3996.58 78.95 3997.79 78.95 3997.79 77.84 3999.4 77.84 3999.4 78.98 4000.61 78.98 4000.61 77.84 4006.38 77.84 4006.38 78.94 4007.59 78.94 4007.59 77.84 4012.74 77.84 4012.72 83.67 4022.28 83.67 4022.3 77.84 4026.73 77.84" fill="#404040"/><polygon points="3759.88 77.19 3759.88 78.34 3761.09 78.34 3761.09 77.19 3766.87 77.19 3766.87 78.28 3768.08 78.28 3768.08 77.19 3769.68 77.19 3769.68 78.33 3770.89 78.33 3770.89 77.19 3776.66 77.19 3776.66 78.28 3777.87 78.28 3777.87 77.19 3779.85 77.19 3779.85 72.22 3774.58 72.22 3774.58 71.08 3771.18 71.08 3771.18 72.22 3765.96 72.22 3765.96 71.08 3762.57 71.08 3762.57 72.22 3738.22 72.22 3738.22 71.08 3734.83 71.08 3734.83 72.22 3729.61 72.22 3729.61 71.08 3726.21 71.08 3726.21 72.22 3721.09 72.22 3721.09 77.19 3722.76 77.19 3722.76 78.34 3723.97 78.34 3723.97 77.19 3729.74 77.19 3729.74 78.28 3730.95 78.28 3730.95 77.19 3732.55 77.19 3732.55 78.33 3733.76 78.33 3733.76 77.19 3739.54 77.19 3739.54 78.28 3740.75 78.28 3740.75 77.19 3745.9 77.19 3745.9 82.14 3755.46 82.14 3755.46 77.19 3759.88 77.19" fill="#404040"/><polygon points="3491.38 75.86 3491.38 77 3492.59 77 3492.59 75.86 3498.36 75.86 3498.36 76.95 3499.57 76.95 3499.57 75.86 3501.18 75.86 3501.18 77 3502.39 77 3502.39 75.86 3508.16 75.86 3508.16 76.94 3509.37 76.94 3509.37 75.86 3511.34 75.86 3511.34 70.88 3506.07 70.88 3506.07 69.75 3502.68 69.75 3502.68 70.88 3497.46 70.88 3497.46 69.75 3494.06 69.75 3494.06 70.88 3469.72 70.88 3469.72 69.75 3466.32 69.75 3466.32 70.88 3461.11 70.88 3461.11 69.75 3457.71 69.75 3457.71 70.88 3452.59 70.88 3452.59 75.86 3454.25 75.86 3454.25 77 3455.46 77 3455.46 75.86 3461.24 75.86 3461.24 76.95 3462.44 76.95 3462.44 75.86 3464.05 75.86 3464.05 77 3465.26 77 3465.26 75.86 3471.03 75.86 3471.03 76.94 3472.24 76.94 3472.24 75.86 3477.39 75.86 3477.39 81.14 3486.95 81.14 3486.95 75.86 3491.38 75.86" fill="#404040"/><polygon points="4293.95 78.61 4293.95 79.77 4295.16 79.77 4295.16 78.61 4300.93 78.61 4300.93 79.72 4302.14 79.72 4302.14 78.61 4303.74 78.61 4303.74 79.75 4304.95 79.75 4304.95 78.61 4310.73 78.61 4310.73 79.7 4311.94 79.7 4311.94 78.61 4313.91 78.61 4313.91 73.64 4308.64 73.64 4308.64 72.5 4305.24 72.5 4305.24 73.64 4300.03 73.64 4300.03 72.5 4296.63 72.5 4296.63 73.64 4272.29 73.64 4272.29 72.5 4268.89 72.5 4268.89 73.64 4263.67 73.64 4263.67 72.5 4260.28 72.5 4260.28 73.64 4255.16 73.64 4255.16 78.61 4256.82 78.61 4256.82 79.77 4258.03 79.77 4258.03 78.61 4263.8 78.61 4263.8 79.72 4265.01 79.72 4265.01 78.61 4266.62 78.61 4266.62 79.75 4267.83 79.75 4267.83 78.61 4273.6 78.61 4273.6 79.7 4274.81 79.7 4274.81 78.61 4279.96 78.61 4279.96 84.31 4289.52 84.31 4289.52 78.61 4293.95 78.61" fill="#404040"/><polygon points="3224.59 74.75 3224.59 75.91 3225.8 75.91 3225.8 74.75 3231.58 74.75 3231.58 75.84 3232.79 75.84 3232.79 74.75 3234.39 74.75 3234.39 75.89 3235.6 75.89 3235.6 74.75 3241.37 74.75 3241.37 75.83 3242.58 75.83 3242.58 74.75 3244.56 74.75 3244.56 69.78 3239.29 69.78 3239.29 68.64 3235.89 68.64 3235.89 69.78 3230.68 69.78 3230.68 68.64 3227.28 68.64 3227.28 69.78 3202.93 69.78 3202.93 68.64 3199.54 68.64 3199.54 69.78 3194.32 69.78 3194.32 68.64 3190.92 68.64 3190.92 69.78 3185.8 69.78 3185.8 74.75 3187.47 74.75 3187.47 75.91 3188.68 75.91 3188.68 74.75 3194.45 74.75 3194.45 75.84 3195.66 75.84 3195.66 74.75 3197.26 74.75 3197.26 75.89 3198.47 75.89 3198.47 74.75 3204.25 74.75 3204.25 75.83 3205.46 75.83 3205.46 74.75 3210.61 74.75 3210.59 78.84 3220.15 78.84 3220.17 74.75 3224.59 74.75" fill="#404040"/><polygon points="2922.59 71.42 2922.59 72.58 2923.8 72.58 2923.8 71.42 2929.57 71.42 2929.57 72.53 2930.78 72.53 2930.78 71.42 2932.38 71.42 2932.38 72.56 2933.59 72.56 2933.59 71.42 2939.37 71.42 2939.37 72.5 2940.58 72.5 2940.58 71.42 2942.55 71.42 2942.55 66.44 2937.28 66.44 2937.28 65.31 2933.89 65.31 2933.89 66.44 2928.67 66.44 2928.67 65.31 2925.27 65.31 2925.27 66.44 2900.93 66.44 2900.93 65.31 2897.53 65.31 2897.53 66.44 2892.31 66.44 2892.31 65.31 2888.92 65.31 2888.92 66.44 2883.8 66.44 2883.8 71.42 2885.46 71.42 2885.46 72.58 2886.67 72.58 2886.67 71.42 2892.44 71.42 2892.44 72.53 2893.65 72.53 2893.65 71.42 2895.26 71.42 2895.26 72.56 2896.47 72.56 2896.47 71.42 2902.24 71.42 2902.24 72.5 2903.45 72.5 2903.45 71.42 2908.6 71.42 2908.59 75.52 2918.15 75.52 2918.16 71.42 2922.59 71.42" fill="#404040"/><polygon points="1319.59 66.73 1319.59 67.89 1320.8 67.89 1320.8 66.73 1326.57 66.73 1326.57 67.84 1327.78 67.84 1327.78 66.73 1329.39 66.73 1329.39 67.89 1330.6 67.89 1330.6 66.73 1336.37 66.73 1336.37 67.83 1337.58 67.83 1337.58 66.73 1339.55 66.73 1339.55 61.77 1334.28 61.77 1334.28 60.63 1330.89 60.63 1330.89 61.77 1325.67 61.77 1325.67 60.63 1322.27 60.63 1322.27 61.77 1297.93 61.77 1297.93 60.63 1294.53 60.63 1294.53 61.77 1289.32 61.77 1289.32 60.63 1285.92 60.63 1285.92 61.77 1280.8 61.77 1280.8 66.73 1282.46 66.73 1282.46 67.89 1283.67 67.89 1283.67 66.73 1289.45 66.73 1289.45 67.84 1290.66 67.84 1290.66 66.73 1292.26 66.73 1292.26 67.89 1293.47 67.89 1293.47 66.73 1299.24 66.73 1299.24 67.83 1300.45 67.83 1300.45 66.73 1305.6 66.73 1305.61 72.28 1315.17 72.28 1315.16 66.73 1319.59 66.73" fill="#404040"/><polygon points="1311.17 0 1297.66 24.74 1308.01 24.21 1305.89 47.48 1318.71 17.93 1309.04 18.42 1311.17 0" fill="#eda302"/><polygon points="1343.59 25.92 1328.47 34.69 1334.13 37.73 1325.54 49.39 1341.83 37.84 1336.54 34.99 1343.59 25.92" fill="#eda302"/><polygon points="1276.78 24.08 1277.56 41.53 1282.88 37.93 1289.22 50.95 1286.53 31.16 1281.56 34.53 1276.78 24.08" fill="#eda302"/><polygon points="2113.31 4.26 2099.8 29 2110.14 28.48 2108.03 51.74 2120.85 22.2 2111.17 22.68 2113.31 4.26" fill="#eda302"/><polygon points="2145.72 30.18 2130.61 38.95 2136.27 41.99 2127.67 53.66 2143.96 42.1 2138.67 39.26 2145.72 30.18" fill="#eda302"/><polygon points="2078.91 28.34 2079.69 45.8 2085.01 42.2 2091.36 55.22 2088.66 35.42 2083.69 38.8 2078.91 28.34" fill="#eda302"/><polygon points="2914.97 4.82 2901.45 29.55 2911.8 29.02 2909.68 52.3 2922.51 22.75 2912.82 23.23 2914.97 4.82" fill="#eda302"/><polygon points="2947.38 30.73 2932.27 39.51 2937.93 42.55 2929.32 54.2 2945.61 42.66 2940.32 39.8 2947.38 30.73" fill="#eda302"/><polygon points="2880.57 28.89 2881.34 46.34 2886.66 42.74 2893.02 55.77 2890.32 35.98 2885.34 39.34 2880.57 28.89" fill="#eda302"/><polygon points="3751.45 5.26 3737.93 30 3748.28 29.47 3746.16 52.74 3758.99 23.19 3749.3 23.68 3751.45 5.26" fill="#eda302"/><polygon points="3783.86 31.18 3768.74 39.95 3774.41 42.99 3765.8 54.65 3782.09 43.1 3776.8 40.25 3783.86 31.18" fill="#eda302"/><polygon points="3717.05 29.34 3717.82 46.79 3723.14 43.19 3729.49 56.21 3726.8 36.42 3721.82 39.79 3717.05 29.34" fill="#eda302"/></svg>