<svg xmlns="http://www.w3.org/2000/svg" width="112.3" height="101.35" viewBox="0 0 112.3 101.35"><title>spark-red-mark</title><path d="M90.36,93l19.77-34.47a16.46,16.46,0,0,0,0-16.42l-5.54-9.53L90.77,56.26A18.38,18.38,0,0,1,80.1,74.63L64.63,101.26l11.53,0A16.48,16.48,0,0,0,90.36,93Z" fill="#a31e28"/><path d="M80.1,74.63a1.19,1.19,0,0,1-.16.08L45.86,90.3l-6.42,11,25.19-.08Z" fill="#b6202d"/><path d="M91.2,12.25l-16,27.53A18.21,18.21,0,0,1,90.77,56.26l13.77-23.7L93.45,13.47A2.47,2.47,0,0,0,91.2,12.25Z" fill="#b6202d"/><path d="M44.7,90.83,32.6,96.36a2.47,2.47,0,0,0,.56,4.66,15.71,15.71,0,0,0,3.22.33h3.06l6.42-11Z" fill="#c7202f"/><path d="M75.21,39.78l16-27.53a2.31,2.31,0,0,0-.88.21l-7.63,3.38L57.47,27,43.84,50.5l20.91-9.33A18.68,18.68,0,0,1,75.21,39.78Z" fill="#c7202f"/><path d="M36.83,36.18a8.11,8.11,0,0,0-4.26,10.41A8,8,0,0,0,43.16,50.8l.68-.3L57.47,27Z" fill="#cd2442"/><path d="M79.73,54.75a8,8,0,0,0-10.59-4.2l-.25.11L55.26,74.12l20.2-9A8.1,8.1,0,0,0,79.73,54.75Z" fill="#b6202d"/><path d="M37.39,61.6,21.45,89.05a3.56,3.56,0,0,0,.53-.16l7.63-3.39L55.26,74.12,68.89,50.66,47.55,60.17A18.57,18.57,0,0,1,37.39,61.6Z" fill="#c7202f"/><path d="M67.6,10.52,79.7,5A2.47,2.47,0,0,0,79.14.32,16.46,16.46,0,0,0,75.91,0H73.18l-6.3,10.84Z" fill="#c7202f"/><path d="M23.11,51.11a18.5,18.5,0,0,1-1.54-5.52L7.92,69.08l10.93,18.8a2.47,2.47,0,0,0,2.61,1.17L37.41,61.6A18.36,18.36,0,0,1,23.11,51.11Z" fill="#cd2442"/><polygon points="32.66 26.49 66.9 10.84 73.19 0.01 48.01 0.08 32.66 26.49" fill="#cd2442"/><path d="M22.64,37a18.29,18.29,0,0,1,9.72-10.32l.28-.12L48,.08,36.14.12a16.44,16.44,0,0,0-14.2,8.25L2.17,42.83a16.48,16.48,0,0,0,.05,16.43l5.69,9.8,13.66-23.5A18.31,18.31,0,0,1,22.64,37Z" fill="#d23c54"/></svg>