<svg width="432" height="199" xmlns="http://www.w3.org/2000/svg"><g fill="none" fill-rule="evenodd"><path fill="#FFF" d="M0 0h432v199H0z"/><path fill="#13A48E" d="M232.757 146.35l15.613-98.577 54.026 8.557 14.088 19.547-12.938 81.686-70.79-11.212"/><path fill="#80D9CB" d="M301.94 56.257l-2.735 17.412 17.279 2.208-14.088-19.547z"/><path d="M251.061 113.083c2.01-12.687 13.916-21.343 26.597-19.335 12.68 2.009 21.33 13.92 19.32 26.607-2.009 12.688-13.916 21.341-26.596 19.333-12.68-2.009-21.33-13.918-19.32-26.605" fill-opacity=".344" fill="#40C6B2"/><path d="M283.43 128.286c-.135-.022-.23-.134-.211-.251l1.454-9.186c.037-.23.53-.153.493.078l-1.455 9.186c-.018.117-.143.194-.28.173M261.23 123.448c-.135-.021-.23-.136-.212-.252l1.303-8.226c.037-.233.53-.155.493.078l-1.303 8.226c-.018.116-.144.196-.28.174M272.93 118.608c-.136-.021-.231-.134-.212-.253l1.15-7.266c.038-.235.53-.157.492.078l-1.15 7.266c-.02.12-.144.197-.28.175" fill="#BFECE5"/><path d="M286.198 119.461l-25.402-4.023c-.117-.019-.196-.145-.175-.28.022-.138.136-.232.254-.214l25.4 4.023c.12.02.197.144.175.281-.022.136-.134.232-.252.213" fill="#BFECE5"/><path fill="#A4C7E1" d="M288.797 145.905l-15.306-2.426 3.183-20.096 15.306 2.424-3.183 20.098"/><path d="M273.272 142.821l14.843 2.351 3.117-19.678-14.843-2.35-3.117 19.677zm15.087 3.098l-15.552-2.464a.355.355 0 01-.3-.401l3.226-20.366c.03-.19.214-.32.41-.288l15.55 2.463c.197.031.333.21.303.4l-3.226 20.367a.356.356 0 01-.41.289z" fill="#007DBA"/><path d="M283.023 135.654l4.152.657c.173.028.341-.115.373-.32.032-.201-.082-.392-.256-.42l-4.152-.657c-.174-.028-.343.118-.375.32-.032.204.083.392.258.42M282.849 137.294l4.582.726c.054.009.108-.034.117-.09.01-.06-.029-.115-.083-.123l-4.582-.726c-.056-.009-.108.032-.118.091-.009.057.028.114.084.122M284.754 139.382l2.706.428c.045.007.09-.033.1-.093.01-.058-.02-.115-.065-.122l-2.706-.429c-.045-.007-.09.038-.099.097-.01.059.02.112.064.119M286.442 132.588l-9.384-1.487c-.05-.007-.083-.063-.073-.123.009-.058.058-.1.107-.092l9.384 1.486c.05.008.084.064.075.121-.01.06-.058.103-.109.095M288.374 131.693l-10.343-1.638c-.048-.008-.082-.06-.072-.12.01-.06.057-.1.106-.093l10.343 1.638c.049.008.083.06.074.121-.01.06-.059.1-.108.092M288.374 129.756l-10.343-1.638c-.048-.007-.081-.064-.072-.122.01-.06.058-.1.106-.093l10.343 1.638c.05.008.083.062.074.122-.01.058-.059.101-.108.093M282.333 127.59l-4.152-.657c-.175-.028-.29-.218-.257-.424.032-.201.199-.343.374-.316l4.152.658c.174.028.289.215.257.416-.033.205-.2.351-.374.324M275.46 140.446l5.74.91 1.062-6.7-5.74-.91z" fill="#007DBA"/><path d="M278.986 137.582l2.066-1.79a.203.203 0 00.01-.298.239.239 0 00-.322-.016l-1.985 1.719-1.018-1.687a.237.237 0 00-.31-.085.203.203 0 00-.083.29l1.071 1.776-1.686 1.461a.203.203 0 00-.012.301.239.239 0 00.134.065.231.231 0 00.187-.05l1.61-1.393 1.344 2.224a.23.23 0 00.31.084.207.207 0 00.083-.29l-1.399-2.311" fill="#79C8D5"/><path fill="#E78281" d="M266.363 143.064l-16.262-2.577 3.486-22.012 16.262 2.578-3.486 22.01"/><path d="M249.933 140.743l15.714 2.49 3.4-21.467-15.714-2.489-3.4 21.466zm15.973 3.3l-16.467-2.608a.382.382 0 01-.317-.436l3.519-22.217a.382.382 0 01.436-.317l16.467 2.608c.207.033.348.23.316.436l-3.52 22.217a.38.38 0 01-.434.317z" fill="#C8102E"/><path d="M253.825 137.822l10.327 1.635c.053.009.105-.037.115-.103.01-.062-.025-.124-.078-.132l-10.326-1.636c-.054-.008-.108.039-.118.101-.01.065.027.126.08.135M252.873 135.73l12.23 1.938c.056.009.11-.036.12-.098.01-.064-.027-.125-.083-.134l-12.23-1.937c-.056-.009-.112.037-.122.099-.01.065.03.123.085.132M259.773 135.685l4.151.658c.176.027.344-.128.38-.35.034-.22-.078-.422-.253-.45l-4.152-.657c-.174-.028-.344.128-.379.35-.035.221.078.421.253.45M260.305 132.371l-6.507-1.03c-.052-.008-.087-.07-.077-.132.01-.067.062-.11.114-.103l6.507 1.03c.052.01.086.066.075.133-.01.063-.06.11-.112.102M266.074 131.855l-12.234-1.94c-.055-.008-.093-.068-.083-.128.01-.065.065-.112.12-.103l12.234 1.938c.056.008.092.067.082.134-.01.064-.063.108-.119.1M257.403 126.327l-3.607-.572c-.06-.01-.102-.073-.091-.138a.114.114 0 01.127-.094l3.608.572c.06.01.1.069.091.128-.01.065-.068.113-.128.104M259.343 125.435l-4.583-.726c-.054-.008-.091-.07-.082-.132.01-.064.065-.109.12-.1l4.582.725c.056.01.091.069.081.132-.01.062-.062.11-.118.101M259.068 122.775l-4.12-.652c-.185-.03-.305-.23-.27-.455.036-.219.212-.375.396-.345l4.12.652c.182.029.303.232.268.45-.036.226-.213.379-.394.35M265.705 129.729l-5.74-.91 1.061-6.699 5.74.91-1.061 6.699" fill="#C8102E"/><path d="M265.58 123.882a.206.206 0 00-.304-.03l-2.014 1.778-.98-1.651a.201.201 0 00-.296-.065.246.246 0 00-.066.324l1.005 1.69-1.703 1.497a.248.248 0 00-.035.329c.032.046.08.073.131.081a.205.205 0 00.17-.052l1.666-1.467 1.28 2.15c.034.06.087.094.145.103a.21.21 0 00.153-.037.252.252 0 00.066-.324l-1.305-2.191 2.049-1.808a.25.25 0 00.038-.327" fill="#E78281"/><path fill="#F7DA9A" d="M282.749 115.032l-17.22-2.728 3.639-22.97 17.219 2.73-3.638 22.968"/><path d="M266.307 112.496l16.588 2.628 3.683-23.253-16.588-2.628-3.683 23.253zm16.859 3.506l-17.386-2.754a.407.407 0 01-.331-.47l3.812-24.069a.406.406 0 01.46-.344l17.386 2.753a.407.407 0 01.33.47l-3.813 24.07a.407.407 0 01-.458.344z" fill="#F5BE40"/><path d="M275.781 111.135l-7.435-1.178c-.06-.01-.1-.07-.09-.142.012-.069.07-.12.13-.11l7.435 1.178c.06.01.1.075.089.144-.012.071-.069.117-.129.108M281.557 109.65l-13.175-2.087c-.059-.01-.1-.074-.089-.142.01-.07.07-.117.129-.108l13.174 2.087c.062.01.1.073.09.142-.011.068-.068.118-.13.108M281.557 108.68l-13.175-2.086c-.059-.01-.1-.073-.09-.141.012-.072.07-.118.13-.109l13.175 2.087c.061.01.1.07.089.143-.011.068-.068.117-.129.107M274.492 105.504l-5.918-.938c-.216-.034-.36-.253-.323-.49.038-.239.243-.401.459-.367l5.918.937c.214.034.357.252.32.49-.038.238-.242.402-.456.368M269.549 100.1l13.392 2.121 1.365-8.614-13.393-2.12z" fill="#EDA302"/><path d="M282.175 94.448a.273.273 0 00-.35-.136l-5.18 2.173-2.924-2.57a.273.273 0 00-.375.017.254.254 0 00.02.364l2.744 2.413-5.263 2.21a.25.25 0 00-.135.339.266.266 0 00.35.136l5.484-2.3 3.462 3.041a.266.266 0 00.136.062.264.264 0 00.238-.081.254.254 0 00-.021-.364l-3.281-2.882 4.958-2.08a.258.258 0 00.137-.342" fill="#F6C381"/><path d="M295.54 86.14l-42.218-6.686c-.229-.036-.38-.28-.339-.544.042-.266.262-.45.49-.413l42.218 6.687c.23.036.382.278.34.544-.042.263-.262.45-.491.413M305.17 81.008l-50.823-8.05c-.23-.036-.383-.283-.34-.547.04-.262.262-.446.492-.41l50.822 8.05c.23.036.384.28.342.542-.042.264-.264.451-.493.415M280.787 68.187L257.12 64.44c-.861-.137-1.456-.893-1.33-1.686.124-.79.923-1.322 1.785-1.185l23.667 3.748c.86.136 1.457.89 1.332 1.68-.125.792-.927 1.328-1.787 1.191" fill="#FFF"/><g><path fill="#D9DAD7" d="M127.722 154.63l-13.89-98.836 54.899-7.715 19.415 14.544 11.51 81.898-71.934 10.11"/><path fill="#F7F7F7" d="M168.687 46.709l2.428 17.272 17.264-2.426-19.692-14.846"/><path d="M127.74 154.617l71.897-10.104L188.125 62.6l-19.382-14.514-54.892 7.714 13.888 98.816zm73.135-8.31l-73.833 10.376a.975.975 0 01-1.104-.828L111.78 55.11a.975.975 0 01.832-1.101l56.261-7.907a.982.982 0 01.724.186l20.027 14.997a.982.982 0 01.38.644l11.704 83.277a.975.975 0 01-.833 1.1z" fill="#D9DAD7"/><path d="M178.059 133.76l-25.057 3.522c-.232.033-.45-.157-.487-.42-.037-.265.12-.507.352-.54l25.057-3.52c.232-.033.45.155.487.421.037.263-.12.505-.352.538M185.761 125.403l-33.683 4.734c-.233.033-.453-.157-.49-.42-.037-.265.122-.507.355-.54l33.683-4.734c.234-.032.453.157.49.42.037.265-.122.507-.355.54" fill="#333"/><path d="M142.701 134.836l2.203-2.924a1.038 1.038 0 00-1.656-1.25l-2.203 2.926-2.924-2.205a1.036 1.036 0 10-1.247 1.657l2.924 2.204-2.203 2.927a1.034 1.034 0 00.973 1.65 1.03 1.03 0 00.683-.403l2.202-2.926 2.924 2.206c.227.173.505.235.768.198a1.036 1.036 0 00.48-1.854l-2.924-2.206" fill="#C8102E"/><path d="M175.152 114.38l-25.057 3.522c-.232.033-.45-.157-.487-.42-.037-.264.12-.507.352-.54l25.057-3.52c.232-.033.45.156.487.42.037.264-.12.506-.352.539M182.854 106.023l-33.683 4.734c-.233.033-.453-.158-.49-.423-.037-.264.122-.504.355-.537l33.684-4.734c.233-.032.452.154.49.419.036.265-.122.508-.356.54" fill="#333"/><path d="M137.87 112.292a3.404 3.404 0 00-2.894 3.842 3.405 3.405 0 003.84 2.895 3.405 3.405 0 002.893-3.842 3.403 3.403 0 00-3.84-2.895zm1.215 8.646a5.335 5.335 0 01-6.018-4.536 5.335 5.335 0 014.534-6.02 5.334 5.334 0 016.017 4.537 5.334 5.334 0 01-4.533 6.019z" fill="#EDA302"/><path d="M172.245 95.97l-25.057 3.521c-.232.033-.45-.158-.487-.422-.037-.264.12-.505.352-.537l25.057-3.522c.232-.032.45.155.487.42.037.264-.12.507-.352.54M180.916 87.612l-33.683 4.734c-.233.033-.453-.157-.49-.422-.037-.262.122-.505.355-.538l33.683-4.734c.233-.032.453.157.49.42.037.265-.122.507-.355.54" fill="#333"/><path d="M135.564 100.733a1.08 1.08 0 01-.66-.11l-3.095-1.625c-.488-.257-.648-.834-.355-1.287.29-.456.923-.617 1.412-.36l2.121 1.114 3.299-6.481c.244-.477.858-.693 1.371-.483.515.212.736.771.492 1.249l-3.785 7.433c-.123.244-.354.43-.631.513a.866.866 0 01-.169.037" fill="#13A48E"/><path d="M179.866 76.708l-50.955 7.16c-.232.034-.449-.155-.486-.42-.037-.265.12-.506.351-.539l50.955-7.16c.232-.033.449.155.486.42.037.265-.12.506-.351.539M177.928 69.925l-50.955 7.16c-.231.033-.449-.158-.486-.42-.037-.265.12-.506.352-.539l50.954-7.16c.232-.034.45.155.486.42.037.262-.119.506-.35.539M150.898 65.95l-24.577 3.453c-.895.126-1.74-.634-1.89-1.693-.148-1.058.456-2.02 1.35-2.145l24.577-3.454c.894-.126 1.74.632 1.888 1.69.149 1.06-.454 2.023-1.348 2.148" fill="#333"/></g><g><path fill="#007DBA" d="M178.146 154.959V40.12h63.142L260.88 59.8v95.159h-82.734"/><path fill="#FFF" d="M236.641 138.79l-1.852-3.27 2.379-.46-5.44-3.65.338 6.53 1.624-1.8 1.849 3.27 1.102-.62"/><path d="M224.647 140.55c0 .47-.384.86-.853.86h-31.941a.858.858 0 01-.853-.86v-8.29c0-.47.38-.85.853-.85h31.941c.469 0 .853.38.853.85v8.29" fill="#F6C381"/><path d="M207.592 138.48c.48 0 .864.38.864.87a.86.86 0 01-.864.87.862.862 0 01-.875-.87c0-.49.384-.87.875-.87zm.225-4.09a.429.429 0 00-.421.4c-.051.49-.384.76-.767.76-.373 0-.746-.27-.746-.84 0-1.22 1.031-1.85 1.975-1.85 1.03 0 1.973.68 1.973 2 0 .91-.884 2.01-1.699 2.84-.148.13-.373.23-.55.23-.462 0-.747-.31-.747-.76 0-.19.098-.41.304-.63.688-.69 1.139-1.2 1.139-1.68 0-.33-.235-.47-.461-.47z" fill="#F1A948"/><path d="M241.631 127.09c0 .62-.497 1.11-1.11 1.11h-41.525c-.614 0-1.111-.49-1.111-1.11v-10.78c0-.61.497-1.11 1.111-1.11h41.525c.613 0 1.11.5 1.11 1.11v10.78" fill="#DD5E57"/><path d="M218.685 125.84a.877.877 0 01-.554-.2l-2.469-1.93a.9.9 0 01-.152-1.26.895.895 0 011.261-.15l1.692 1.32 3.626-5.66a.902.902 0 011.238-.28.91.91 0 01.274 1.25l-4.16 6.49a.87.87 0 01-.605.4c-.051.01-.101.02-.151.02" fill="#FFFFFE"/><path d="M248.519 111.15c0 .47-.384.85-.855.85h-31.945a.852.852 0 01-.853-.85v-8.29c0-.48.383-.86.853-.86h31.945c.471 0 .855.38.855.86v8.29" fill="#F6C381"/><path d="M231.462 109.07c.481 0 .864.38.864.87s-.383.88-.864.88a.87.87 0 01-.875-.88c0-.49.383-.87.875-.87zm.226-4.09a.432.432 0 00-.424.4c-.047.5-.381.76-.765.76-.374 0-.746-.26-.746-.83 0-1.22 1.03-1.86 1.974-1.86 1.031 0 1.975.69 1.975 2 0 .92-.885 2.02-1.701 2.84-.147.13-.372.24-.549.24-.463 0-.747-.32-.747-.77 0-.18.097-.41.305-.63.687-.68 1.139-1.19 1.139-1.68 0-.33-.235-.47-.461-.47z" fill="#F1A948"/><path fill="#A4C7E1" d="M241.188 40.12v19.766h19.692L241.288 40.12z"/><path d="M223.236 83.412h-33.195a.486.486 0 010-.972h33.195c.266 0 .48.215.48.486a.485.485 0 01-.48.486M248.808 75.611H190.04a.485.485 0 010-.972h58.767a.486.486 0 010 .972M248.808 67.81H190.04a.485.485 0 010-.973h58.767a.486.486 0 010 .972M219.238 57.522H191.39a1.842 1.842 0 01-1.833-1.851c0-1.017.82-1.844 1.833-1.844h27.847c1.012 0 1.835.827 1.835 1.844a1.844 1.844 0 01-1.835 1.851" fill="#FFF"/></g></g></svg>