<svg enable-background="new 0 0 432 288" viewBox="0 0 432 288" xmlns="http://www.w3.org/2000/svg"><path d="m255.93 24.68h125.8v195.9h-125.8z" fill="#f7da9a" transform="matrix(1 -.00148862 .00148862 1 -.1822 .4748)"/><path d="m327.54 52.72 39.43-.16" fill="none" stroke="#808080" stroke-linecap="round" stroke-miterlimit="10" stroke-width="2.6723"/><path d="m266.18 52.97 38.72-.16" fill="none" stroke="#808080" stroke-linecap="round" stroke-miterlimit="10" stroke-width="2.6723"/><path d="m268.23 87.44 99.08-.17" fill="none" stroke="#808080" stroke-linecap="round" stroke-miterlimit="10" stroke-width="2.6723"/><path d="m268.77 122.82 100.8-.4" fill="none" stroke="#808080" stroke-linecap="round" stroke-miterlimit="10" stroke-width="2.6723"/><path d="m346.91 153.95 22.92-.09" fill="none" stroke="#808080" stroke-linecap="round" stroke-miterlimit="10" stroke-width="2.6723"/><path d="m269.04 154.26 66.55-.26" fill="none" stroke="#808080" stroke-linecap="round" stroke-miterlimit="10" stroke-width="2.6723"/><path d="m270.27 186.38 100.8-.4" fill="none" stroke="#808080" stroke-linecap="round" stroke-miterlimit="10" stroke-width="2.6723"/><path d="m156.81 29.26-55.26 136.19-8.62-3.19-12.79 34.58 7.54 2.79-8.46 20.87 126.68 51.4 77.6-191.24z" fill="#eda302"/><path d="m310.19 252.16-37.78-8.04c-4.04-.86-6.64-4.87-5.78-8.9l20.18-94.8c.86-4.04 4.87-6.64 8.9-5.78l37.78 8.04c4.04.86 6.64 4.87 5.78 8.9l-20.18 94.8c-.85 4.04-4.86 6.64-8.9 5.78z" fill="#404040"/><path d="m328.95 146.74-1.24-.26-.67 3.14c-.14.66-.8 1.09-1.46.94l-24.17-5.18c-.66-.14-1.08-.8-.94-1.46l.67-3.11-3.68-.78c-3.56-.76-7.1 1.54-7.86 5.1l-18.64 87.57c-.76 3.56 1.54 7.1 5.1 7.86l31.5 6.71c3.56.76 7.1-1.54 7.86-5.1l18.64-87.57c.75-3.57-1.54-7.1-5.11-7.86z" fill="#fff"/><circle cx="292.65" cy="177.72" fill="none" r="4.46" stroke="#f5be40" stroke-miterlimit="10" stroke-width="2.6723"/><path d="m284.52 199.08 1.35 6.3-1.49-.32 7.09-9.67c.15-.21.45-.26.66-.1.2.15.25.43.12.64l-6.5 10.07c-.24.38-.75.49-1.13.24-.2-.13-.33-.34-.36-.57l-.96-6.35v-.02c-.05-.34.19-.66.53-.72.31-.04.62.18.69.5z" fill="#40c6b2"/><g fill="none" stroke-linecap="round" stroke-miterlimit="10"><path d="m280.18 218.81 3.97 9.23" stroke="#c8102e" stroke-linejoin="round" stroke-width="2.0043"/><path d="m278.36 226.65 7.97-6.62" stroke="#c8102e" stroke-linejoin="round" stroke-width="2.0043"/><path d="m294.03 158.59 29.8 6.71" stroke="#808080" stroke-width="2.6723"/><path d="m304 176.23 17.32 4.08" stroke="#bebebe" stroke-width="2.6723"/><path d="m299.42 196.64 17.32 4.07" stroke="#bebebe" stroke-width="2.6723"/><path d="m297.69 203.75 17.32 4.08" stroke="#bebebe" stroke-width="2.6723"/><path d="m291.05 228.87 17.32 4.08" stroke="#bebebe" stroke-width="2.6723"/><path d="m311.82 185.15 7.76 1.82" stroke="#bebebe" stroke-width="2.6723"/><path d="m302.26 182.9 5.45 1.32" stroke="#bebebe" stroke-width="2.6723"/><path d="m302.84 224.16 7.75 1.83" stroke="#bebebe" stroke-width="2.6723"/><path d="m293.27 221.91 5.46 1.33" stroke="#bebebe" stroke-width="2.6723"/></g><path d="m118.83 42.76h125.8v195.9h-125.8z" fill="#fff" transform="matrix(.9899 -.1419 .1419 .9899 -18.1315 27.2163)"/><path d="m119.81 79.13 99.74-14.55" fill="none" stroke="#bebebe" stroke-linecap="round" stroke-miterlimit="10" stroke-width="2.6723"/><path d="m185.59 104.38 40.84-5.96" fill="none" stroke="#bebebe" stroke-linecap="round" stroke-miterlimit="10" stroke-width="2.6723"/><path d="m126.69 112.98 44.26-6.46" fill="none" stroke="#bebebe" stroke-linecap="round" stroke-miterlimit="10" stroke-width="2.6723"/><path d="m132.19 147.93 99.74-14.56" fill="none" stroke="#bebebe" stroke-linecap="round" stroke-miterlimit="10" stroke-width="2.6723"/><path d="m213.93 167.78 22.68-3.31" fill="none" stroke="#bebebe" stroke-linecap="round" stroke-miterlimit="10" stroke-width="2.6723"/><path d="m136.87 179.02 65.86-9.61" fill="none" stroke="#bebebe" stroke-linecap="round" stroke-miterlimit="10" stroke-width="2.6723"/><path d="m142.6 210.65 99.74-14.56" fill="none" stroke="#bebebe" stroke-linecap="round" stroke-miterlimit="10" stroke-width="2.6723"/><path d="m117.67 51.14c1.15 10.22 1.3 12.89 2.94 12.77 1.83-.13 1.62-1.68.15-11.87-1.49-10.33-6.76-8.22-5.7 1.48 0 0 1.37 14.52 6.31 13.58 2.56-.49 3.48-4.65 1.85-13.9" fill="none" stroke="#808080" stroke-linecap="round" stroke-miterlimit="10" stroke-width="1.3362"/><path d="m191.68 262.32c1.15 10.22 1.3 12.89 2.94 12.77 1.83-.13 1.62-1.68.15-11.87-1.49-10.33-6.76-8.22-5.7 1.48 0 0 1.37 14.52 6.31 13.58 2.56-.49 3.48-4.65 1.85-13.9" fill="none" stroke="#808080" stroke-linecap="round" stroke-miterlimit="10" stroke-width="1.3362"/><path d="m53.8 96.76-.78 2.22c-.29.84-1.6 1.09-2.92.57l-2.24-.89c-1.32-.53-2.15-1.63-1.86-2.47l.78-2.22c.29-.84 1.6-1.09 2.92-.57l2.24.89c1.33.53 2.16 1.63 1.86 2.47z" fill="#e38796"/><path d="m58.92 97.07-1.84 5.27-7.01-2.8 1.84-5.26z" fill="#bebebe"/><path d="m99.71 119.3 27.58 10.89 1.79-5.24-35.84-14.16-36.88-14.71-1.83 5.2 35.11 14.01v.03l8.36 3.3z" fill="#c8102e"/><path d="m52.18 99.76c.05-.14 1.5-4.17 1.5-4.17" style="opacity:.54;fill:none;stroke:#808080;stroke-width:.4873;stroke-linecap:round;stroke-miterlimit:10"/><path d="m140.73 133.48-.03-.03 3.06.12-14.68-8.62-7.25-.04 5.48 5.29z" fill="#f8db9a"/><path d="m140.73 133.48 4.94 1.21-2.29-1.34-2.77.09z" fill="#333"/><path d="m118.43 123.91c-.05 0-.11-.01-.17-.04l-58.24-22.88c-.21-.08-.33-.28-.26-.45.06-.17.28-.24.5-.15l58.24 22.88c.21.08.33.28.26.45-.05.12-.18.19-.33.19z" fill="#a00523"/></svg>