<svg xmlns="http://www.w3.org/2000/svg" xmlns:xlink="http://www.w3.org/1999/xlink" id="Layer_1" viewBox="0 0 542.4 154.8">
        <title>Spark Design System</title>
        <style>
            .st1{fill:#FF721E}.st2{fill:#FF8920}.st3{fill:#FFA022}.st4{fill:#FF5C1C}.st5{fill:#FF451A}.st7{fill:#FFFFFF}
        </style>
        <defs>
            <path id="SVGID_1_" d="M113.9 98.2c5.8-2.6 8.6-9.4 6.2-15.1-1.2-2.9-3.5-5.1-6.4-6.3-2.9-1.2-6.1-1.1-9 .2L73.3 91c-13.5 6-29.4.1-35.5-13.2-3-6.5-3.2-13.8-.7-20.6 2.5-6.7 7.6-12.1 14.1-15l51.2-23.4 17.6-8c3.2-1.4 2.6-6.1-.8-6.8-1.5-.3-3.1-.5-4.7-.5h-.1l-57.7.2c-8.5 0-16.4 4.6-20.6 12l-28.7 50c-4.2 7.4-4.2 16.5.1 23.9l24.2 41.6c.9 1.6 2.9 2.2 4.5 1.5l11.1-4.9 66.6-29.6z"/>
        </defs>
        <clipPath id="SVGID_2_">
            <use overflow="visible" xlink:href="#SVGID_1_"/>
        </clipPath>
        <g clip-path="url(#SVGID_2_)">
            <path d="M70.2-10.5h31.6V165H70.2z" class="st1" transform="rotate(30.152 85.967 77.249)"/>
            <path d="M42.9-26.4h31.6v175.5H42.9z" class="st2" transform="rotate(30.152 58.666 61.387)"/>
            <path d="M15.6-42.2h31.6v175.5H15.6z" class="st3" transform="rotate(30.152 31.364 45.525)"/>
            <path d="M97.5 5.4h31.6v175.5H97.5z" class="st4" transform="rotate(30.152 113.269 93.11)"/>
            <path d="M124.8 21.2h31.6v175.5h-31.6z" class="st5" transform="rotate(30.152 140.57 108.973)"/>
        </g>
        <g>
            <defs>
                <path id="SVGID_3_" d="M57.7 56.1c-5.8 2.6-8.6 9.4-6.2 15.1 1.2 2.9 3.5 5.1 6.4 6.3 2.9 1.2 6.1 1.1 9-.2l31.4-14c13.5-6 29.4-.1 35.5 13.2 3 6.5 3.2 13.8.7 20.6-2.5 6.7-7.6 12.1-14.1 15l-51.2 23.4-17.6 8c-3.2 1.4-2.6 6.1.8 6.8 1.5.3 3.1.5 4.7.5h.1l57.7-.2c8.5 0 16.4-4.6 20.6-12l28.7-50.1c4.2-7.4 4.2-16.5-.1-23.9L140 23.1c-.9-1.6-2.9-2.2-4.5-1.5l-11.1 4.9-66.7 29.6z"/>
            </defs>
            <clipPath id="SVGID_4_">
                <use overflow="visible" xlink:href="#SVGID_3_"/>
            </clipPath>
            <g clip-path="url(#SVGID_4_)">
                <path d="M69.8-10.7h31.6v175.5H69.8z" class="st1" transform="rotate(-149.848 85.633 77.019)"/>
                <path d="M97.1 5.1h31.6v175.5H97.1z" class="st4" transform="rotate(-149.848 112.932 92.88)"/>
                <path d="M124.4 21H156v175.5h-31.6z" class="st5" transform="rotate(-149.848 140.232 108.74)"/>
                <path d="M42.5-26.6h31.6v175.5H42.5z" class="st2" transform="rotate(-149.848 58.333 61.158)"/>
                <path d="M15.2-42.4h31.6v175.5H15.2z" class="st3" transform="rotate(-149.848 31.034 45.298)"/>
            </g>
        </g>
        <g>
            <path d="M236 91.8h-45.9c-2.8 0-5.1-2.3-5.1-5.1s2.3-5.1 5.1-5.1H236c6.8 0 12.5-5.3 12.6-12.1.2-7-5.5-12.7-12.4-12.7h-31.4c-12.5 0-22.8-9.9-22.9-22.4-.1-12.6 10.1-22.9 22.6-22.9h45.8c2.8 0 5.1 2.3 5.1 5.1s-2.3 5.1-5.1 5.1h-45.6c-6.8 0-12.5 5.3-12.6 12.1-.2 7 5.5 12.7 12.4 12.7h31.7c12.6 0 22.8 10.3 22.6 22.9 0 12.5-10.3 22.4-22.8 22.4zM309.8 11.3h-39.1v75.6c0 2.8 2.3 5.2 5.2 5.2 2.8 0 5.2-2.3 5.2-5.2V21.6H310c7 0 12.8 5.7 13 12.7.1 3.4-1.3 6.7-3.7 9.2-2.5 2.5-5.9 4-9.5 4h-15.2c-2.8 0-5.2 2.3-5.2 5.2 0 2.8 2.3 5.2 5.2 5.2H310c6.3 0 12.1-2.5 16.5-6.9 4.4-4.5 6.8-10.3 6.7-16.6 0-12.7-10.6-23.1-23.4-23.1zM471.1 83.3l-24.8-25.4h3c6.3 0 12.1-2.5 16.5-6.9 4.4-4.5 6.8-10.3 6.7-16.6-.1-12.7-10.7-23.1-23.6-23.1h-39.1v75.6c0 2.8 2.3 5.2 5.2 5.2 2.8 0 5.2-2.3 5.2-5.2V21.6h29.1c7 0 12.8 5.7 13 12.7.1 3.4-1.3 6.7-3.7 9.2-2.5 2.5-5.9 4-9.5 4h-14.5c-.7-.1-1.4 0-2 .2-2.2.6-3.7 2.7-3.7 5 0 1.7.8 3.3 2.2 4.2L464 90.6c1 1 2.3 1.5 3.6 1.5 1.4 0 2.7-.5 3.6-1.5 1-1 1.5-2.3 1.5-3.6-.1-1.5-.7-2.8-1.6-3.7zM538.8 83.9l-29.3-35.4L535.1 20c1.9-2.1 1.7-5.4-.4-7.3-1-.9-2.4-1.4-3.7-1.3-1.4.1-2.6.7-3.6 1.7l-36.2 40.3V16.2c0-2.8-2.3-5.2-5.2-5.2s-5.2 2.3-5.2 5.2v70.7c0 2.8 2.3 5.2 5.2 5.2s5.2-2.3 5.2-5.2v-18l11.3-12.6 28.3 34.2c.9 1.1 2.1 1.7 3.5 1.9h.5c1.2 0 2.3-.4 3.3-1.2 1.1-.9 1.7-2.1 1.9-3.5.1-1.4-.3-2.7-1.2-3.8zM399.5 85.5l-30.8-70.1c-1.3-2.9-4-4.7-7.2-4.7s-5.9 1.8-7.2 4.7l-30.8 70.1c-1.1 2.6 0 5.6 2.6 6.7.7.3 1.4.4 2 .4 2 0 3.8-1.1 4.7-3l28.7-65.3 10.1 23h-10.2c-3 0-5.4 2.4-5.4 5.4s2.4 5.4 5.4 5.4h14.9l13.8 31.5c1.1 2.6 4.1 3.7 6.7 2.6 2.6-1.1 3.8-4.1 2.7-6.7z" class="st7"/>
            <g>
                <path d="M193.5 107.9c10.6 0 16.5 6.6 16.5 17.4 0 10.8-5.9 17.4-16.5 17.4H182v-34.8h11.5zm-8.2 31.9h8c8.5 0 13.3-5.4 13.3-14.4s-4.9-14.4-13.3-14.4h-8v28.8zM236.6 142.7h-21v-34.8h21v3h-17.7v12.5h16.8v2.9h-16.8v13.4h17.7v3zM244.1 133.7c.5 4 4.4 6.8 9.7 6.8 5.2 0 9-2.9 9-6.8 0-3.3-2.4-5.4-7.8-6.7l-4-1c-6.5-1.6-9.3-4.3-9.3-9.1 0-5.6 4.9-9.7 11.9-9.7 6.7 0 11.6 3.9 11.9 9.2h-3.3c-.5-3.7-3.9-6.2-8.7-6.2-5 0-8.4 2.8-8.4 6.5 0 3 2.1 4.8 7.5 6.1l3.5.9c7.2 1.8 10.1 4.6 10.1 9.6 0 6.1-5 10.2-12.6 10.2-7.2 0-12.4-4-12.8-9.8h3.3zM271.4 142.7v-34.8h3.3v34.8h-3.3zM295.9 143.5c-9.4 0-15.6-7.2-15.6-18.1 0-10.9 6.2-18.1 15.5-18.1 7.4 0 13 4.3 14.3 10.9h-3.4c-1.4-5-5.4-7.8-10.9-7.8-7.4 0-12.1 5.9-12.1 15.1 0 9.1 4.8 15.1 12.2 15.1 6.8 0 11.2-4.3 11.2-10.9v-1.2h-10.6v-2.9h13.9v3.9c0 8.4-5.7 14-14.5 14zM316.1 142.7v-34.8h3.3l20.3 28.9h.3v-28.9h3.3v34.8H340l-20.4-28.9h-.3v28.9h-3.2zM363.2 133.7c.5 4 4.4 6.8 9.7 6.8 5.2 0 9-2.9 9-6.8 0-3.3-2.4-5.4-7.8-6.7l-4-1c-6.5-1.6-9.3-4.3-9.3-9.1 0-5.6 4.9-9.7 11.9-9.7 6.7 0 11.6 3.9 11.9 9.2h-3.3c-.5-3.7-3.9-6.2-8.7-6.2-5 0-8.4 2.8-8.4 6.5 0 3 2.1 4.8 7.5 6.1l3.5.9c7.2 1.8 10.1 4.6 10.1 9.6 0 6.1-5 10.2-12.6 10.2-7.2 0-12.4-4-12.8-9.8h3.3zM399.9 142.7v-15.1l-12.5-19.8h3.8l10.2 16.4h.3l10.2-16.4h3.8l-12.5 19.8v15.1h-3.3zM421.1 133.7c.5 4 4.4 6.8 9.7 6.8 5.2 0 9-2.9 9-6.8 0-3.3-2.4-5.4-7.8-6.7l-4-1c-6.5-1.6-9.3-4.3-9.3-9.1 0-5.6 4.9-9.7 11.9-9.7 6.7 0 11.6 3.9 11.9 9.2h-3.3c-.5-3.7-3.9-6.2-8.7-6.2-5 0-8.4 2.8-8.4 6.5 0 3 2.1 4.8 7.5 6.1l3.5.9c7.2 1.8 10.1 4.6 10.1 9.6 0 6.1-5 10.2-12.6 10.2-7.2 0-12.4-4-12.8-9.8h3.3zM457.8 142.7v-31.8h-11.7v-3h26.6v3H461v31.8h-3.2zM498.5 142.7h-21v-34.8h21v3h-17.7v12.5h16.8v2.9h-16.8v13.4h17.7v3zM504.3 142.7v-34.8h3.8l12.9 30.3h.3l12.8-30.3h3.8v34.8h-3.1v-28.4h-.2l-12 28.2h-2.9l-12-28.2h-.2v28.4h-3.2z" class="st7"/>
            </g>
        </g>
    </svg>