<svg xmlns="http://www.w3.org/2000/svg" viewBox="0 0 993.01 272.83"><title>Spark Design System</title><path d="M243.26 250.3l53.21-92.78a44.36 44.36 0 0 0-.13-44.22l-14.91-25.65-37.08 63.82a49.46 49.46 0 0 1-28.73 49.45l-41.65 71.69 31.06-.09a44.35 44.35 0 0 0 38.23-22.22z" fill="#ff451a"/><path d="M429.63 163.7h-85.06a9.47 9.47 0 0 1-9.48-9.48 9.47 9.47 0 0 1 9.48-9.47h85.16c12.56 0 23.12-9.89 23.42-22.44a23 23 0 0 0-23-23.55H371.9c-23.09 0-42.25-18.44-42.48-41.54a42 42 0 0 1 41.98-42.39h84.89a9.49 9.49 0 0 1 9.48 9.48 9.49 9.49 0 0 1-9.48 9.52h-84.46c-12.56 0-23.12 9.88-23.42 22.44a23 23 0 0 0 22.99 23.56h58.76a42 42 0 0 1 41.95 42.37c-.21 23.06-19.39 41.5-42.48 41.5zM566.25 14.44h-72.47v140.11a9.57 9.57 0 1 0 19.13 0v-121h53.89a24.13 24.13 0 0 1 24 23.6 23.6 23.6 0 0 1-6.89 17 24.78 24.78 0 0 1-17.56 7.39h-28.1a9.57 9.57 0 0 0 0 19.13h28.55a43.19 43.19 0 0 0 43.1-43.5c-.19-23.56-19.78-42.73-43.65-42.73zM865.24 147.83l-46-47.05h5.66a43.19 43.19 0 0 0 43.15-43.57c-.23-23.56-19.82-42.73-43.69-42.73H751.9v140.07a9.57 9.57 0 1 0 19.13 0v-121h53.87a24.13 24.13 0 0 1 24 23.6 23.6 23.6 0 0 1-6.89 17 24.78 24.78 0 0 1-17.56 7.39H797.5a9.6 9.6 0 0 0-6.72 17.33l60.92 62.38a9.57 9.57 0 0 0 13.54-13.42zM990.81 148.95l-54.32-65.64 47.48-52.82a9.564 9.564 0 1 0-14.25-12.76l-67.11 74.75v-69a9.57 9.57 0 1 0-19.13 0v131a9.57 9.57 0 1 0 19.13 0v-33.31l21-23.44 52.48 63.41a9.49 9.49 0 0 0 6.47 3.43h.92a9.57 9.57 0 0 0 7.36-15.66zM732.51 151.99l-57-129.91a14.63 14.63 0 0 0-26.78 0l-57 129.91a9.441 9.441 0 0 0 17.29 7.59l53.11-121 18.67 42.57h-18.9a10 10 0 0 0 0 20h27.7l25.64 58.43a9.45 9.45 0 0 0 17.3-7.59zM350.7 193.49c19.68 0 30.63 12.21 30.63 32.25s-10.91 32.29-30.63 32.29h-21.25v-64.54zm-15.12 59h14.76c15.79 0 24.73-10 24.73-26.71s-9-26.74-24.73-26.74h-14.76zM430.59 258.03h-39v-64.54h39v5.55h-32.87v23.21h31.18v5.46h-31.18v24.78h32.87zM444.51 241.26c.85 7.42 8.23 12.52 18.07 12.52 9.66 0 16.59-5.41 16.59-12.57 0-6.08-4.42-10-14.4-12.47l-7.38-1.91c-12.12-3-17.22-8.05-17.22-16.82 0-10.42 9-17.89 22.1-17.89 12.34 0 21.47 7.29 22.14 17.13h-6.18c-1-6.89-7.2-11.54-16.14-11.54-9.26 0-15.66 5.1-15.66 12.12 0 5.64 4 8.9 13.82 11.36l6.4 1.61c13.33 3.31 18.79 8.59 18.79 17.71 0 11.27-9.26 18.83-23.4 18.83-13.32 0-22.94-7.33-23.7-18.11zM495.24 258.03v-64.54h6.13v64.54zM540.56 259.37c-17.49 0-28.9-13.28-28.9-33.63s11.41-33.59 28.76-33.59c13.78 0 24.11 7.92 26.43 20.22h-6.21c-2.69-9.22-10-14.54-20.22-14.54-13.64 0-22.5 11-22.5 27.91s8.86 28 22.64 28c12.65 0 20.84-8 20.84-20.17v-2.23h-19.68v-5.51h25.76v7.16c0 16.01-10.58 26.38-26.92 26.38zM577.96 258.03v-64.54h6l37.61 53.58h.58v-53.58h6v64.54h-5.9L584.5 204.4h-.58v53.63zM665.29 241.26c.84 7.42 8.22 12.52 18.06 12.52 9.67 0 16.6-5.41 16.6-12.57 0-6.08-4.43-10-14.4-12.47l-7.38-1.91c-12.12-3-17.22-8.05-17.22-16.82 0-10.42 9-17.89 22.09-17.89 12.35 0 21.47 7.29 22.14 17.13h-6.17c-1-6.89-7.2-11.54-16.15-11.54-9.26 0-15.65 5.1-15.65 12.12 0 5.64 4 8.9 13.82 11.36l6.39 1.61c13.33 3.31 18.79 8.59 18.79 17.71 0 11.27-9.26 18.83-23.39 18.83-13.33 0-22.95-7.33-23.71-18.11zM733.37 258.03v-27.91l-23.17-36.63h7l18.92 30.42h.54l18.92-30.42h7l-23.13 36.63v27.91zM772.7 241.26c.85 7.42 8.22 12.52 18.06 12.52 9.67 0 16.6-5.41 16.6-12.57 0-6.08-4.43-10-14.4-12.47l-7.38-1.91c-12.12-3-17.22-8.05-17.22-16.82 0-10.42 9-17.89 22.09-17.89 12.35 0 21.47 7.29 22.14 17.13h-6.17c-1-6.89-7.2-11.54-16.15-11.54-9.26 0-15.65 5.1-15.65 12.12 0 5.64 4 8.9 13.82 11.36l6.39 1.61c13.33 3.31 18.79 8.59 18.79 17.71 0 11.27-9.26 18.83-23.39 18.83-13.33 0-23-7.33-23.71-18.11zM840.74 258.03v-59h-21.65v-5.55h49.37v5.55h-21.64v59zM916.02 258.03h-39v-64.54h39v5.55h-32.87v23.21h31.22v5.46h-31.22v24.78h32.87zM926.9 258.03v-64.54h7l23.84 56.18h.54l23.75-56.18h7.06v64.54h-5.72v-52.64h-.47l-22.27 52.33h-5.32l-22.28-52.33h-.4v52.64z" fill="#fff"/><path d="M215.62 200.92c-.14.06-.27.15-.41.21l-91.77 42-17.26 29.7 67.79-.2zM245.51 32.98l-43.06 74.11a49 49 0 0 1 41.9 44.38l37.08-63.82-29.86-51.38a6.63 6.63 0 0 0-6.06-3.29z" fill="#ff5c1c"/><path d="M120.32 244.52l-32.57 14.9a6.63 6.63 0 0 0 1.52 12.54 43.91 43.91 0 0 0 8.68.87H106.18l17.26-29.71zM202.45 107.09l43.06-74.11a6.57 6.57 0 0 0-2.36.56l-20.54 9.11-67.9 30.12-36.69 63.17 56.3-25.1a50.15 50.15 0 0 1 28.13-3.75z" fill="#ff721e"/><path d="M99.15 97.41c-10.77 4.81-15.93 17.38-11.48 28a21.47 21.47 0 0 0 28.51 11.33l1.84-.82 36.69-63.17z" fill="#ff8920"/><path d="M214.64 147.4a21.45 21.45 0 0 0-28.51-11.32l-.67.29-36.7 63.18 54.39-24.13c10.75-4.81 15.93-17.37 11.49-28.02z" fill="#ff5c1c"/><path d="M100.66 165.83l-42.92 73.89a6.25 6.25 0 0 0 1.42-.43l20.54-9.11 69.06-30.63 36.7-63.18-57.47 25.62a50 50 0 0 1-27.33 3.84zM181.98 28.31l32.57-14.89A6.64 6.64 0 0 0 213.04.83a44 44 0 0 0-8.68-.87h-7.37l-17 29.17z" fill="#ff721e"/><path d="M62.21 137.59a49.58 49.58 0 0 1-4.14-14.86l-36.74 63.23 29.41 50.61a6.63 6.63 0 0 0 7 3.15l42.96-73.89a49.5 49.5 0 0 1-38.49-28.24zM87.93 71.32l92.16-42.15L197.03.02l-67.79.2-41.31 71.1z" fill="#ff8920"/><path d="M60.9 99.47a49.15 49.15 0 0 1 26.2-27.76l.76-.35L129.18.22l-31.9.09a44.34 44.34 0 0 0-38.23 22.22L5.84 115.31a44.34 44.34 0 0 0 .13 44.22l15.33 26.39 36.76-63.28a49.3 49.3 0 0 1 2.84-23.17z" fill="#ffa022"/></svg>
