<?xml version="1.0" encoding="UTF-8"?>
<svg width="993px" height="274px" viewBox="0 0 993 274" version="1.1" xmlns="http://www.w3.org/2000/svg" xmlns:xlink="http://www.w3.org/1999/xlink">
    <!-- Generator: Sketch 49.3 (51167) - http://www.bohemiancoding.com/sketch -->
    <title>spark_logo_v1a</title>
    <desc>Created with Sketch.</desc>
    <defs></defs>
    <g id="Page-1" stroke="none" stroke-width="1" fill="none" fill-rule="evenodd">
        <g id="spark_logo_v1a" transform="translate(-1.000000, 0.000000)" fill-rule="nonzero">
            <path d="M244.26,251.3 L297.47,158.52 C305.300173,144.807464 305.250662,127.966261 297.34,114.3 L282.43,88.65 L245.35,152.47 C247.239765,173.380471 235.721681,193.205368 216.62,201.92 L174.97,273.61 L206.03,273.52 C221.820285,273.44721 236.380963,264.984267 244.26,251.3 Z" id="Shape" fill="#FF451A"></path>
            <path d="M430.63,164.7 L345.57,164.7 C343.054934,164.702657 340.642115,163.704728 338.863693,161.926307 C337.085272,160.147885 336.087343,157.735066 336.09,155.22 C336.089999,152.706666 337.0891,150.296418 338.867233,148.520161 C340.645366,146.743904 343.056668,145.747346 345.57,145.75 L430.73,145.75 C443.29,145.75 453.85,135.86 454.15,123.31 C454.298177,117.115292 451.940543,111.122855 447.611041,106.689822 C443.28154,102.256789 437.34648,99.7582281 431.15,99.76 L372.9,99.76 C349.81,99.76 330.65,81.32 330.42,58.22 C330.315966,47.0169543 334.692235,36.2366763 342.575736,28.2761814 C350.459236,20.3156865 361.196472,15.834852 372.4,15.83 L457.29,15.83 C462.523375,15.8355117 466.764488,20.0766253 466.77,25.31 C466.777969,27.8303664 465.783024,30.2503814 464.004603,32.0363065 C462.226182,33.8222316 459.810378,34.8273568 457.29,34.83 L372.83,34.83 C360.27,34.83 349.71,44.71 349.41,57.27 C349.259128,63.4646853 351.614189,69.4581849 355.941815,73.8931076 C360.269441,78.3280303 366.203478,80.8291428 372.4,80.83 L431.16,80.83 C442.354827,80.8428927 453.081257,85.3245084 460.957673,93.2797828 C468.83409,101.235057 473.208629,112.0056 473.11,123.2 C472.9,146.26 453.72,164.7 430.63,164.7 Z" id="Shape" fill="#FFFFFF"></path>
            <path d="M567.25,15.44 L494.78,15.44 L494.78,155.55 C494.667108,159.040998 496.465093,162.316231 499.470973,164.095135 C502.476853,165.87404 506.213147,165.87404 509.219027,164.095135 C512.224907,162.316231 514.022892,159.040998 513.91,155.55 L513.91,34.55 L567.8,34.55 C580.871801,34.6172753 591.513056,45.0811755 591.8,58.15 C591.889601,64.5139022 589.40502,70.6442178 584.91,75.15 C580.275317,79.8549294 573.954243,82.5151081 567.35,82.54 L539.25,82.54 C534.087749,82.7069373 529.989314,86.94005 529.989314,92.105 C529.989314,97.26995 534.087749,101.503063 539.25,101.67 L567.8,101.67 C579.293007,101.646347 590.302613,97.0428977 598.39179,88.878647 C606.480967,80.7143963 610.982517,69.6627355 610.9,58.17 C610.71,34.61 591.12,15.44 567.25,15.44 Z" id="Shape" fill="#FFFFFF"></path>
            <path d="M866.24,148.83 L820.24,101.78 L825.9,101.78 C837.41391,101.769782 848.447123,97.162594 856.549164,88.9816922 C864.651205,80.8007904 869.151308,69.7234684 869.05,58.21 C868.82,34.65 849.23,15.48 825.36,15.48 L752.9,15.48 L752.9,155.55 C752.787108,159.040998 754.585093,162.316231 757.590973,164.095135 C760.596853,165.87404 764.333147,165.87404 767.339027,164.095135 C770.344907,162.316231 772.142892,159.040998 772.03,155.55 L772.03,34.55 L825.9,34.55 C838.971801,34.6172753 849.613056,45.0811755 849.9,58.15 C849.989601,64.5139022 847.50502,70.6442178 843.01,75.15 C838.375317,79.8549294 832.054243,82.5151081 825.45,82.54 L798.5,82.54 C794.154382,82.0309689 790.014336,84.5246789 788.432491,88.6040503 C786.850646,92.6834217 788.227237,97.3163007 791.78,99.87 L852.7,162.25 C856.487742,165.444129 862.087144,165.219004 865.606233,161.731103 C869.125323,158.243202 869.400284,152.646025 866.24,148.83 Z" id="Shape" fill="#FFFFFF"></path>
            <path d="M991.81,149.95 L937.49,84.31 L984.97,31.49 C988.493577,27.5549712 988.160029,21.5085767 984.225,17.985 C980.289971,14.4614233 974.243577,14.7949712 970.72,18.73 L903.61,93.48 L903.61,24.48 C903.722892,20.9890017 901.924907,17.713769 898.919027,15.9348646 C895.913147,14.1559601 892.176853,14.1559601 889.170973,15.9348646 C886.165093,17.713769 884.367108,20.9890017 884.48,24.48 L884.48,155.48 C884.367108,158.970998 886.165093,162.246231 889.170973,164.025135 C892.176853,165.80404 895.913147,165.80404 898.919027,164.025135 C901.924907,162.246231 903.722892,158.970998 903.61,155.48 L903.61,122.17 L924.61,98.73 L977.09,162.14 C978.700918,164.102895 981.031297,165.33832 983.56,165.57 C983.87,165.57 984.17,165.57 984.48,165.57 C988.180733,165.561425 991.544829,163.419918 993.118946,160.070641 C994.693063,156.721364 994.195028,152.764705 991.84,149.91 L991.81,149.95 Z" id="Shape" fill="#FFFFFF"></path>
            <path d="M733.51,152.99 L676.51,23.08 C674.173007,17.7712412 668.920384,14.344472 663.12,14.344472 C657.319616,14.344472 652.066993,17.7712412 649.73,23.08 L592.73,152.99 C590.63408,157.764502 592.805499,163.334079 597.58,165.429999 C602.354502,167.52592 607.924079,165.354501 610.02,160.58 L663.13,39.58 L681.8,82.15 L662.9,82.15 C657.377153,82.15 652.9,86.6271525 652.9,92.15 C652.9,97.6728475 657.377153,102.15 662.9,102.15 L690.6,102.15 L716.24,160.58 C718.430538,165.197064 723.894693,167.236217 728.57447,165.183067 C733.254246,163.129916 735.45397,157.728402 733.54,152.99 L733.51,152.99 Z" id="Shape" fill="#FFFFFF"></path>
            <path d="M351.7,194.49 C371.38,194.49 382.33,206.7 382.33,226.74 C382.33,246.78 371.42,259.03 351.7,259.03 L330.45,259.03 L330.45,194.49 L351.7,194.49 Z M336.58,253.49 L351.34,253.49 C367.13,253.49 376.07,243.49 376.07,226.78 C376.07,210.07 367.07,200.04 351.34,200.04 L336.58,200.04 L336.58,253.49 Z" id="Shape" fill="#FFFFFF"></path>
            <polygon id="Shape" fill="#FFFFFF" points="431.59 259.03 392.59 259.03 392.59 194.49 431.59 194.49 431.59 200.04 398.72 200.04 398.72 223.25 429.9 223.25 429.9 228.71 398.72 228.71 398.72 253.49 431.59 253.49"></polygon>
            <path d="M445.51,242.26 C446.36,249.68 453.74,254.78 463.58,254.78 C473.24,254.78 480.17,249.37 480.17,242.21 C480.17,236.13 475.75,232.21 465.77,229.74 L458.39,227.83 C446.27,224.83 441.17,219.78 441.17,211.01 C441.17,200.59 450.17,193.12 463.27,193.12 C475.61,193.12 484.74,200.41 485.41,210.25 L479.23,210.25 C478.23,203.36 472.03,198.71 463.09,198.71 C453.83,198.71 447.43,203.81 447.43,210.83 C447.43,216.47 451.43,219.73 461.25,222.19 L467.65,223.8 C480.98,227.11 486.44,232.39 486.44,241.51 C486.44,252.78 477.18,260.34 463.04,260.34 C449.72,260.34 440.1,253.01 439.34,242.23 L445.51,242.26 Z" id="Shape" fill="#FFFFFF"></path>
            <polygon id="Shape" fill="#FFFFFF" points="496.24 259.03 496.24 194.49 502.37 194.49 502.37 259.03"></polygon>
            <path d="M541.56,260.37 C524.07,260.37 512.66,247.09 512.66,226.74 C512.66,206.39 524.07,193.15 541.42,193.15 C555.2,193.15 565.53,201.07 567.85,213.37 L561.64,213.37 C558.95,204.15 551.64,198.83 541.42,198.83 C527.78,198.83 518.92,209.83 518.92,226.74 C518.92,243.65 527.78,254.74 541.56,254.74 C554.21,254.74 562.4,246.74 562.4,234.57 L562.4,232.34 L542.72,232.34 L542.72,226.83 L568.48,226.83 L568.48,233.99 C568.48,250 557.9,260.37 541.56,260.37 Z" id="Shape" fill="#FFFFFF"></path>
            <polygon id="Shape" fill="#FFFFFF" points="578.96 259.03 578.96 194.49 584.96 194.49 622.57 248.07 623.15 248.07 623.15 194.49 629.15 194.49 629.15 259.03 623.25 259.03 585.5 205.4 584.92 205.4 584.92 259.03"></polygon>
            <path d="M666.29,242.26 C667.13,249.68 674.51,254.78 684.35,254.78 C694.02,254.78 700.95,249.37 700.95,242.21 C700.95,236.13 696.52,232.21 686.55,229.74 L679.17,227.83 C667.05,224.83 661.95,219.78 661.95,211.01 C661.95,200.59 670.95,193.12 684.04,193.12 C696.39,193.12 705.51,200.41 706.18,210.25 L700.01,210.25 C699.01,203.36 692.81,198.71 683.86,198.71 C674.6,198.71 668.21,203.81 668.21,210.83 C668.21,216.47 672.21,219.73 682.03,222.19 L688.42,223.8 C701.75,227.11 707.21,232.39 707.21,241.51 C707.21,252.78 697.95,260.34 683.82,260.34 C670.49,260.34 660.87,253.01 660.11,242.23 L666.29,242.26 Z" id="Shape" fill="#FFFFFF"></path>
            <polygon id="Shape" fill="#FFFFFF" points="734.37 259.03 734.37 231.12 711.2 194.49 718.2 194.49 737.12 224.91 737.66 224.91 756.58 194.49 763.58 194.49 740.45 231.12 740.45 259.03"></polygon>
            <path d="M773.7,242.26 C774.55,249.68 781.92,254.78 791.76,254.78 C801.43,254.78 808.36,249.37 808.36,242.21 C808.36,236.13 803.93,232.21 793.96,229.74 L786.58,227.83 C774.46,224.83 769.36,219.78 769.36,211.01 C769.36,200.59 778.36,193.12 791.45,193.12 C803.8,193.12 812.92,200.41 813.59,210.25 L807.42,210.25 C806.42,203.36 800.22,198.71 791.27,198.71 C782.01,198.71 775.62,203.81 775.62,210.83 C775.62,216.47 779.62,219.73 789.44,222.19 L795.83,223.8 C809.16,227.11 814.62,232.39 814.62,241.51 C814.62,252.78 805.36,260.34 791.23,260.34 C777.9,260.34 768.23,253.01 767.52,242.23 L773.7,242.26 Z" id="Shape" fill="#FFFFFF"></path>
            <polygon id="Shape" fill="#FFFFFF" points="841.74 259.03 841.74 200.03 820.09 200.03 820.09 194.48 869.46 194.48 869.46 200.03 847.82 200.03 847.82 259.03"></polygon>
            <polygon id="Shape" fill="#FFFFFF" points="917.02 259.03 878.02 259.03 878.02 194.49 917.02 194.49 917.02 200.04 884.15 200.04 884.15 223.25 915.37 223.25 915.37 228.71 884.15 228.71 884.15 253.49 917.02 253.49"></polygon>
            <polygon id="Shape" fill="#FFFFFF" points="927.9 259.03 927.9 194.49 934.9 194.49 958.74 250.67 959.28 250.67 983.03 194.49 990.09 194.49 990.09 259.03 984.37 259.03 984.37 206.39 983.9 206.39 961.63 258.72 956.31 258.72 934.03 206.39 933.63 206.39 933.63 259.03"></polygon>
            <path d="M216.62,201.92 C216.48,201.98 216.35,202.07 216.21,202.13 L124.44,244.13 L107.18,273.83 L174.97,273.63 L216.62,201.92 Z" id="Shape" fill="#FF5C1C"></path>
            <path d="M246.51,33.98 L203.45,108.09 C226.049589,111.316685 243.426758,129.722383 245.35,152.47 L282.43,88.65 L252.57,37.27 C251.324041,35.126526 248.986257,33.8573328 246.51,33.98 Z" id="Shape" fill="#FF5C1C"></path>
            <path d="M121.32,245.52 L88.75,260.42 C86.1274382,261.621722 84.5829244,264.381324 84.9300541,267.245145 C85.2771839,270.108965 87.4362774,272.419645 90.27,272.96 C93.1272824,273.537399 96.0349612,273.828837 98.95,273.83 L99.07,273.83 L107.18,273.83 L124.44,244.12 L121.32,245.52 Z" id="Shape" fill="#FF721E"></path>
            <path d="M203.45,108.09 L246.51,33.98 C245.695396,34.0185785 244.895093,34.2084807 244.15,34.54 L223.61,43.65 L155.71,73.77 L119.02,136.94 L175.32,111.84 C184.140043,107.907705 193.907854,106.605562 203.45,108.09 Z" id="Shape" fill="#FF721E"></path>
            <path d="M100.15,98.41 C89.38,103.22 84.22,115.79 88.67,126.41 C90.9000608,131.733782 95.1797833,135.935413 100.543726,138.067068 C105.907668,140.198722 111.903986,140.080835 117.18,137.74 L119.02,136.92 L155.71,73.75 L100.15,98.41 Z" id="Shape" fill="#FF8920"></path>
            <path d="M215.64,148.4 C213.412436,143.074311 209.132262,138.871297 203.766935,136.740974 C198.401608,134.610652 192.404086,134.732868 187.13,137.08 L186.46,137.37 L149.76,200.55 L204.15,176.42 C214.9,171.61 220.08,159.05 215.64,148.4 Z" id="Shape" fill="#FF5C1C"></path>
            <path d="M101.66,166.83 L58.74,240.72 C59.2287276,240.633556 59.7054188,240.489206 60.16,240.29 L80.7,231.18 L149.76,200.55 L186.46,137.37 L128.99,162.99 C120.420666,166.808661 110.949846,168.139358 101.66,166.83 Z" id="Shape" fill="#FF721E"></path>
            <path d="M182.98,29.31 L215.55,14.42 C218.203256,13.231774 219.775031,10.4557199 219.428836,7.56923412 C219.082641,4.68274834 216.898987,2.35710699 214.04,1.83 C211.182629,1.25319004 208.275009,0.961758096 205.36,0.96 L205.23,0.96 L197.99,0.96 L180.99,30.13 L182.98,29.31 Z" id="Shape" fill="#FF721E"></path>
            <path d="M63.21,138.59 C61.0631621,133.882999 59.6662584,128.868992 59.07,123.73 L22.33,186.96 L51.74,237.57 C53.1664313,240.001327 55.974284,241.264861 58.74,240.72 L101.7,166.83 C84.8785514,164.634035 70.3532984,153.9769 63.21,138.59 Z" id="Shape" fill="#FF8920"></path>
            <polygon id="Shape" fill="#FF8920" points="88.93 72.32 181.09 30.17 198.03 1.02 130.24 1.22"></polygon>
            <path d="M61.9,100.47 C66.5367136,88.0647781 75.9833712,78.0556478 88.1,72.71 L88.86,72.36 L130.18,1.22 L98.28,1.31 C82.489159,1.38074492 67.9275345,9.84423684 60.05,23.53 L6.84,116.31 C-0.994271112,130.021455 -0.944754134,146.864845 6.97,160.53 L22.3,186.92 L59.06,123.64 C58.1381627,115.800679 59.1121302,107.854613 61.9,100.47 Z" id="Shape" fill="#FFA022"></path>
        </g>
    </g>
</svg>