<svg version="1.0" xmlns="http://www.w3.org/2000/svg" width="1194.667" height="1194.667" viewBox="0 0 896 896"><path d="M330.7 44.7c-.1.1-13 .3-28.7.4-15.6.1-30 .6-31.9 1-21.9 4.7-27.6 6.6-39.6 12.6-24.9 12.5-42 29.1-57.8 56.1-3.7 6.3-6.7 11.6-6.7 11.8 0 .3-1.6 3-3.5 6s-3.5 5.6-3.5 5.9c0 .4-7.7 13.9-10 17.5-2.8 4.5-6 10.4-6 11.1 0 .5-.4.9-1 .9-.5 0-1 .5-1 1 0 .6-3.3 6.8-7.3 13.8-4.1 7-8.5 14.7-9.9 17.2-4 7.2-8.8 15.4-9.8 17-.5.8-2.5 4.2-4.2 7.4-1.8 3.2-3.8 6.6-4.3 7.5-.6.9-3 5.2-5.5 9.5-2.5 4.4-5.7 10-7.2 12.5s-3.3 5.7-4 7.1c-.6 1.4-1.9 3.6-2.9 5-.9 1.4-2.7 4.5-4.1 7-1.4 2.5-3.6 6.3-4.8 8.5-1.3 2.2-4 6.9-6 10.5-2 3.6-5 8.7-6.6 11.5-1.7 2.7-3.3 5.7-3.7 6.5-.5.8-1.3 2.4-2 3.5s-3 5.1-5.2 9c-2.1 3.8-4.5 7.6-5.2 8.3-.7.8-1.1 1.8-.8 2.3.4.5.2.9-.3.9s-1.2.8-1.5 1.7c-.4 1-1.8 3.8-3.3 6.3-6.2 10.3-17.4 29.9-19.2 33.5-.9 1.6-1.9 3.2-2.3 3.5-1.8 1.3-13.1 26.5-15.4 34.5-4.5 15.3-5 19.2-5 37 .1 15 1 22.9 3.9 33.5 3.4 12.6 10.4 29.3 13.1 31.2.5.4.6.8.1.8s-.2.8.6 1.7c.9 1 2.8 4 4.3 6.8 1.5 2.7 4.4 7.9 6.6 11.5 2.2 3.6 4.5 7.6 5.1 9 .7 1.4 1.6 2.7 2 3 .4.3 1.2 1.7 1.8 3 .6 1.4 2.1 4.1 3.3 6.2 1.8 3 10.7 18.2 16.7 28.7.8 1.4 3.2 5.5 5.3 9.1 2.1 3.6 4.2 7.2 4.7 8 .5.8 4.5 7.7 8.9 15.4 4.5 7.6 8.1 14.2 8.1 14.7s.5.9 1 .9c.6 0 1 .4 1 .9s3.7 7.1 8.1 14.7c4.5 7.7 9.3 15.9 10.7 18.4 1.4 2.5 3.6 6.2 4.9 8.2 1.2 2.1 2.3 4.2 2.3 4.8 0 .5.5 1 1 1 .6 0 1 .4 1 .9 0 .7 5.2 10.1 11.1 19.9 1.7 2.9 11.6 20.1 14 24.2.8 1.4 1.6 2.7 1.9 3 .9.9 5.1 8.4 6.3 11.3.6 1.5 1.5 2.7 1.9 2.7.4 0 .8.5.8 1 0 1.7 5.1 6.1 8.7 7.6 4.9 2.1 14.6 1.8 16.3-.4.3-.4 1.2-.8 2-1 .8-.2 4.8-1.9 8.8-3.8 4.1-1.9 8-3.4 8.7-3.4.7 0 1.8-.7 2.5-1.5s1.8-1.5 2.5-1.5 4.3-1.4 8.1-3.1c6.9-3.1 11.6-5.2 19.7-8.8 2.3-1 6.5-2.9 9.2-4.1 2.8-1.2 6.4-2.8 8-3.5 1.7-.8 5.5-2.4 8.5-3.8 3-1.3 11.4-5 18.5-8.2 7.2-3.1 14.8-6.5 17-7.5 2.2-1 9.9-4.4 17-7.5 7.2-3.1 15.1-6.8 17.8-8.1 2.6-1.3 4.7-2.1 4.7-1.7 0 .3.6.1 1.3-.5.6-.5 4-2.2 7.4-3.6 3.5-1.4 8.7-3.7 11.5-5.1 15.7-7.2 27.7-12.2 28.2-11.7.3.3.6 0 .6-.6 0-.7.4-1.2 1-1.2.5 0 3.3-1.1 6.2-2.4 8.3-3.7 13.3-6 27.3-12.1 15.8-7 20.5-9.1 27-12 4.4-2 17.2-7.7 27.5-12.3 1.9-.9 3.7-1.6 4-1.7.3 0 3.6-1.5 7.3-3.3 3.8-1.8 7-3.2 7.2-3.2.2 0 3.6-1.5 7.7-3.4 4-1.8 12.7-5.7 19.3-8.6 6.6-2.9 15.3-6.8 19.3-8.6 4.1-1.9 7.5-3.4 7.7-3.4.2 0 4.3-1.8 9-4s8.8-4 9-4c.2 0 3.6-1.5 7.7-3.4 4-1.8 11.1-5 15.8-7.1 24.6-10.8 28.9-13 35.4-18.1 27.7-21.7 32.1-63.3 9.7-90.2-3.9-4.6-14.3-13.2-16-13.2-.6 0-1.1-.3-1.1-.8 0-.6-10.8-5.4-13-5.8-.3 0-1.2-.4-2-.7-.8-.4-3.2-.8-5.2-1-2.1-.2-4-.6-4.2-.8-.7-.6-14.3-.2-18.6.6-4.2.8-11.4 3.1-15.5 5-9.9 4.5-14.7 6.5-15.5 6.5-.6 0-1 .4-1 .8 0 .5-.6.9-1.2.9-.7 0-4 1.3-7.3 2.9-3.3 1.5-6.2 2.9-6.5 2.9-1.7.5-12.2 5.1-20.4 9.1-1.6.8-3.5 1.4-4.3 1.4-.7 0-1.3.4-1.3.9s-2 1.5-4.5 2.2c-2.5.7-4.5 1.7-4.5 2.1 0 .4-.7.8-1.6.8-.9 0-2.8.6-4.2 1.4-3.9 2.2-16.2 7.8-17.6 8-.6.2-4.5 1.8-8.6 3.8-11.3 5.3-19 8.8-19.5 8.8s-17.5 7.8-19.7 9c-1 .6-2.5 1-3.3 1-.8 0-1.5.5-1.5 1.2 0 .6-.2.9-.6.6-.3-.3-3.2.7-6.5 2.3-3.2 1.6-6.2 2.9-6.5 2.9-.5 0-7.5 3.1-16.9 7.5-8.9 4.2-28.9 9.6-41.1 11-6.1.8-26.2.9-32.9.2-15.5-1.6-38.1-7.7-47.3-12.8-1.8-1.1-3.9-1.9-4.7-1.9-.8 0-1.5-.3-1.5-.8 0-.4-1.4-1.3-3.2-2.1-7.6-3.4-21.3-13.5-31.7-23.4-4.8-4.6-15.4-17.2-18.9-22.3-7.5-11.3-17-31-17.7-36.4 0-.3-.3-1-.7-1.6-.4-.6-.9-2.1-1.2-3.5-.3-1.3-1.2-5.6-2.1-9.4-2.3-10.5-2.8-15.7-2.9-30 0-12.9.7-21.3 2.3-28.7.5-2.1.7-3.8.4-3.8-.3 0 0-.7.7-1.5s1-1.5.7-1.5c-1.5 0 8.7-28.2 10.4-28.8.5-.2.7-.7.5-1.1-.3-.4.6-2.5 2-4.6 1.3-2.2 2.9-5.2 3.6-6.8.7-1.5 1.6-2.7 2-2.7.4 0 .8-.6.8-1.3 0-.7 1.1-2.4 2.5-3.9s2.5-3.2 2.5-3.7c0-.6.6-1.4 1.3-1.8.6-.4 2.4-2.4 3.8-4.3 4.9-6.4 17.3-18.4 23.9-23 1.9-1.3 3.7-2.7 4-3 1-1.3 15.6-9.8 22.2-12.9 3.7-1.7 7-3.6 7.3-4.1.3-.6 1.5-1 2.6-1 1 0 1.9-.5 1.9-1.2 0-.6.3-.9.6-.6.3.3 7.3-2.5 15.5-6.3s15.4-6.9 15.9-6.9c.6 0 1-.4 1-.8 0-.5.6-.9 1.3-.9.6 0 6.5-2.6 13-5.7s12-5.6 12.2-5.6c.2 0 4.5-2 9.7-4.4 9.4-4.4 16.2-7.5 25.3-11.6 2.8-1.2 7.7-3.5 11-5 8.9-4.1 18.9-8.6 19.7-8.9.4-.1 5.6-2.5 11.5-5.3 22.4-10.4 24.9-11.6 28.6-12.9 2-.7 3.7-1.7 3.7-2.1 0-.4.9-.8 2-.8s2-.5 2-1.2c0-.6.3-.9.6-.5.4.3 2.5-.4 4.8-1.5 2.2-1.2 4.6-2.3 5.1-2.4.6-.1 5.3-2.2 10.5-4.7 15.7-7.3 21-9.7 22-9.7.6 0 1-.5 1-1 0-.6.5-1 1.1-1 1.2 0 11.2-4.4 27.7-12.1 5.7-2.7 10.5-4.9 10.7-4.9.2 0 4.5-2 9.7-4.3 5.1-2.4 13.1-6.1 17.8-8.2 4.7-2 12.3-5.5 17-7.7 7.8-3.7 12.7-5.9 14-6.3.3-.1 3.2-1.4 6.5-3s6.2-3 6.5-3c.3-.1 4.1-1.8 8.5-3.9 4.4-2 8.9-4.1 10-4.6 1.1-.5 6.4-2.9 11.9-5.4 5.4-2.6 10.2-4.6 10.7-4.6.4 0 2.4-1.4 4.3-3 9.6-8.5 9.1-22.9-1.1-30.6-8-6.1-3.3-5.9-163.1-5.9-80 0-145.4.1-145.5.2z"/><path d="M722 143c-4.7 1.7-23.2 9.8-35.8 15.6-4.1 1.9-7.5 3.4-7.7 3.4-.2 0-3.2 1.3-6.7 2.9-3.5 1.5-11.7 5.2-18.3 8.1-6.6 2.9-14.2 6.3-17 7.5-2.7 1.2-8.8 3.9-13.5 6-4.7 2.1-10.3 4.6-12.5 5.5-2.2 1-8.3 3.7-13.5 6-5.2 2.3-11.5 5.2-14 6.3-2.5 1.1-4.7 2.1-5 2.2-1.4.5-22.4 9.6-28.5 12.5-7.1 3.3-15.4 6.9-21.8 9.6-3.4 1.5-9.5 4.2-13.5 6-4.1 1.9-7.6 3.4-7.8 3.4-.3 0-3.2 1.3-6.5 3-3.3 1.6-6.3 3-6.7 3-.4.1-3.1 1.3-6 2.6s-5.4 2.4-5.7 2.4c-.2 0-3.9 1.6-8.2 3.6-4.3 2-9.3 4.2-11 5-7.6 3.3-10.1 4.4-15.8 6.9-3.3 1.5-8.8 4-12.3 5.6-3.5 1.6-7 2.9-7.8 2.9-.8 0-1.4.4-1.4 1 0 .5-.5 1-1.1 1-.6 0-4 1.3-7.6 3-3.5 1.6-6.6 3-6.8 3-.2 0-3.2 1.3-6.7 2.9-3.5 1.6-16.6 7.5-29.3 13.1-12.6 5.6-25.8 11.5-29.3 13.1-3.4 1.6-6.4 2.9-6.6 2.9-.3 0-3.3 1.3-6.8 2.9-6.1 2.8-8.1 3.7-21.3 9.6-9.5 4.3-11 4.8-11.7 4.7-.3-.1-1.2.5-1.8 1.3-.7.8-1.8 1.5-2.6 1.5-2 0-11.6 6.1-16.6 10.5-6.1 5.5-11.4 12.7-15.1 20.5-1.7 3.6-3.2 6.9-3.3 7.5-.1.5-.7 3-1.4 5.5-3 11-1.4 28.5 3.6 39.7 7.4 16.8 21.7 29.2 40.9 35.3 5 1.6 8.2 2 17.5 2.1 11.9.2 19.5-2.3 48-15.2 2.5-1.2 5.9-2.7 7.5-3.4 2.9-1.3 9.1-4.1 19-8.5 2.8-1.3 8.6-3.8 13-5.8 4.4-1.9 9.6-4.1 11.5-5 1.9-.9 3.7-1.6 4-1.7.3-.1 3.4-1.5 7-3.2 3.6-1.6 8.8-4 11.5-5.2 2.8-1.2 6.4-2.9 8-3.8 1.7-1 3-1.5 3-1.3 0 .2 3.1-1.1 6.8-2.8 3.8-1.8 7-3.2 7.2-3.2.2 0 3.6-1.5 7.7-3.4 4-1.8 11.6-5.3 16.8-7.6 12.8-5.7 14.6-6.4 21.5-9.5 11.1-5 27.5-10.9 27.5-9.9 0 .3.8 0 1.8-.5.9-.5 3.3-1.2 5.2-1.5 1.9-.3 4.6-.8 6-1.1 9.3-2.2 44.1-2.3 50-.2.8.3 3.1.8 5 1.2 7.5 1.4 8.7 1.7 14 3.3 3 .9 5.7 1.7 6 1.7.3.1 1.8.7 3.3 1.3 1.6.7 3.1 1.2 3.4 1.2 1.6 0 19.9 9.9 26.8 14.5 10.6 7 22.4 17.5 30.5 27.1 8.8 10.5 21.3 32.4 25 43.9.7 2.2 1.6 4.9 2 6 1.7 4.4 3.7 13.2 5.6 24 1 6.2 1.2 30.6.3 36.7-.5 3.1-1.1 7.1-1.3 8.9-.3 1.9-.5 3.4-.6 3.4-.1 0-.3 1.1-.6 2.5-.2 1.4-1.2 5-2.1 8-.9 3-1.7 5.7-1.8 6-1.2 5.3-9.4 23.2-13.8 30.4-2.8 4.5-11.2 16.3-13.6 19-11 12.1-28.9 27.6-31.9 27.6-.7 0-1.2.3-1.2.7 0 1.4-24.1 14-30 15.8-.3.1-3 1.3-6 2.7-12.1 5.7-23.2 10.8-23.6 10.8-1.2 0-10 4.5-10.6 5.4-.4.6-.8.7-.8.3 0-.5-1.2-.1-2.7.7-1.6.9-5.9 3-9.8 4.7-3.8 1.7-8.8 4-10.9 5-2.2 1-4.6 1.9-5.3 1.9-.7 0-1.3.4-1.3 1 0 .5-.9 1-2 1s-2 .4-2 1c0 .5-.3.9-.7.8-.9-.3-21.3 8.7-46.8 20.8-2.7 1.2-9.9 4.5-16 7.3-6 2.7-14.4 6.5-18.5 8.4-4.1 1.9-9.7 4.5-12.5 5.7-2.7 1.2-8.4 3.8-12.5 5.7-4.1 1.9-14.5 6.6-23 10.5-8.5 3.9-18.9 8.6-23 10.5-4.1 1.9-11.8 5.4-17 7.8-5.2 2.3-12.3 5.7-15.6 7.4-3.4 1.7-6.5 3.1-6.8 3.1-.4 0-4.5 1.8-9.2 4-4.7 2.2-8.7 4-8.9 4-.1 0-4.1 1.7-8.7 3.9-4.5 2.1-10.8 5-13.8 6.4-13.8 6.3-19.9 9.1-25.5 11.7-6.3 2.9-14 6.4-26.7 12-12.6 5.7-17.9 11.8-18 21.1-.1 5.4 3.9 12.7 8.7 16 7.9 5.6 6.2 5.6 189.1 5.3 91.8-.2 169.6-.6 172.9-.9 7.8-.7 12.6-1.4 14.4-2 .8-.3 2.9-.8 4.8-1.1 1.9-.3 6.4-1.7 10.1-3 3.7-1.4 8.1-3 9.7-3.6 1.7-.6 4.6-2 6.5-3.1 1.9-1 5.3-2.9 7.5-4 10.5-5.7 27.1-19.5 35.4-29.7 1.1-1.4 2.5-3 3-3.6 1.4-1.7 9.8-14 10.2-15 .2-.5 3.3-6 6.9-12.2 3.6-6.2 8-14.1 9.9-17.5 1.9-3.4 3.7-6.4 4-6.7.3-.3 1.5-2.3 2.6-4.5s2.2-4.2 2.5-4.5c.3-.3 1.1-1.6 1.8-3 .6-1.4 1.6-3.2 2.2-4 .5-.8 2.4-4 4.1-7 1.8-3 4.1-7.1 5.2-9 1.1-1.9 2.5-4.4 3.1-5.5.6-1.1 5.9-10.2 11.6-20.2 5.8-10.1 11.1-19.5 11.9-21 .8-1.6 1.9-3.1 2.5-3.5.6-.4.7-.8.2-.8-.5 0-.2-.8.6-1.8.9-.9 3.7-5.5 6.2-10.2 5.1-9.3 6.8-12.2 7.6-13 .3-.3 1.4-2.3 2.5-4.5s2.9-5.4 4-7c1.1-1.7 2.1-3.7 2.3-4.5.2-.8.7-1.7 1.1-2 .4-.3 2.1-3 3.8-6 1.6-3 4.2-7.4 5.6-9.7 1.5-2.4 2.7-4.5 2.7-4.7 0-.3 1.4-2.9 3.1-5.8 1.8-2.9 4.2-7.1 5.5-9.3 10.9-19.4 15.5-27.2 16.4-28.2.5-.7 1-1.6 1-2 0-.5 1.1-2.5 2.5-4.6 1.4-2 2.2-3.7 1.8-3.7-.4 0-.3-.4.3-.8s2.2-2.7 3.6-5.2c5.4-9.7 14.6-25.7 16.9-29.5 5.3-8.5 11.2-22.2 14.3-33.5 1.5-5.3 1.8-6.8 3.4-15.5.4-2.2.7-10.8.7-19 0-18.7-.8-24.9-5.3-39-1.3-4.4-2.9-8.6-3.5-9.3-.5-.6-.7-1.2-.3-1.2.9 0-8.4-17.9-16-30.7-1.1-1.7-5.5-9.4-9.9-16.9-4.4-7.6-9.2-15.9-10.7-18.4-1.5-2.5-3.7-6.3-5-8.5-1.2-2.2-2.8-4.9-3.5-6-.7-1.1-1.6-2.8-1.9-3.8-.3-.9-1-1.7-1.5-1.7s-.9-.4-.9-1c0-.5-1.6-3.4-3.5-6.5-1.9-3-4-6.5-4.5-7.7-.6-1.3-2.3-4.3-3.9-6.8s-3-5.1-3-5.8c-.1-.6-.5-1.2-1.1-1.2-.5 0-1-.4-1-1 0-.5-2.5-5-5.5-10.1-3-5-5.5-9.3-5.5-9.4 0-.2-3.7-6.5-8.1-14.1-4.5-7.7-9.3-15.9-10.7-18.4-1.4-2.5-3.6-6.2-4.9-8.2-1.2-2.1-2.3-4.2-2.3-4.8 0-.5-.4-1-1-1-.5 0-1-.4-1-.9 0-.7-6.1-11.7-10-18.1-4.9-8-9.3-15.7-10.1-17.7-.4-1.2-1.3-2.3-1.9-2.3-.5 0-1-.7-1-1.5s-1.6-3.9-3.5-6.9c-1.9-3-3.5-5.7-3.5-6 0-.9-6.6-10.9-8.8-13.3-2.3-2.7-8.1-5.3-12.5-5.6-1.8-.2-5.2.4-7.7 1.3zm107.3 169.5c-.3.9-.8 1.4-1 1.1-.3-.3-.2-.9.2-1.5.9-1.6 1.5-1.3.8.4zm-7.2 12.8c-1 .9-1.1.8-.5-.6.3-1 .9-1.5 1.2-1.2.3.3 0 1.1-.7 1.8z"/></svg>