<?xml version="1.0" standalone="no"?>
<!DOCTYPE svg PUBLIC "-//W3C//DTD SVG 20010904//EN"
 "http://www.w3.org/TR/2001/REC-SVG-20010904/DTD/svg10.dtd">
<svg version="1.0" xmlns="http://www.w3.org/2000/svg"
 width="896.000000pt" height="896.000000pt" viewBox="0 0 896.000000 896.000000"
 preserveAspectRatio="xMidYMid meet">
<metadata>
Created by potrace 1.11, written by Peter Selinger 2001-2013
</metadata>
<g transform="translate(0.000000,896.000000) scale(0.100000,-0.100000)"
fill="#000000" stroke="none">
<path d="M3307 8513 c-1 -1 -130 -3 -287 -4 -156 -1 -300 -6 -319 -10 -219
-47 -276 -66 -396 -126 -249 -125 -420 -291 -578 -561 -37 -63 -67 -116 -67
-118 0 -3 -16 -30 -35 -60 -19 -30 -35 -56 -35 -59 0 -4 -77 -139 -100 -175
-28 -45 -60 -104 -60 -111 0 -5 -4 -9 -10 -9 -5 0 -10 -5 -10 -10 0 -6 -33
-68 -73 -138 -41 -70 -85 -147 -99 -172 -40 -72 -88 -154 -98 -170 -5 -8 -25
-42 -42 -74 -18 -32 -38 -66 -43 -75 -6 -9 -30 -52 -55 -95 -25 -44 -57 -100
-72 -125 -15 -25 -33 -57 -40 -71 -6 -14 -19 -36 -29 -50 -9 -14 -27 -45 -41
-70 -14 -25 -36 -63 -48 -85 -13 -22 -40 -69 -60 -105 -20 -36 -50 -87 -66
-115 -17 -27 -33 -57 -37 -65 -5 -8 -13 -24 -20 -35 -7 -11 -30 -51 -52 -90
-21 -38 -45 -76 -52 -83 -7 -8 -11 -18 -8 -23 4 -5 2 -9 -3 -9 -5 0 -12 -8
-15 -17 -4 -10 -18 -38 -33 -63 -62 -103 -174 -299 -192 -335 -9 -16 -19 -32
-23 -35 -18 -13 -131 -265 -154 -345 -45 -153 -50 -192 -50 -370 1 -150 10
-229 39 -335 34 -126 104 -293 131 -312 5 -4 6 -8 1 -8 -5 0 -2 -8 6 -17 9
-10 28 -40 43 -68 15 -27 44 -79 66 -115 22 -36 45 -76 51 -90 7 -14 16 -27
20 -30 4 -3 12 -17 18 -30 6 -14 21 -41 33 -62 18 -30 107 -182 167 -287 8
-14 32 -55 53 -91 21 -36 42 -72 47 -80 5 -8 45 -77 89 -154 45 -76 81 -142
81 -147 0 -5 5 -9 10 -9 6 0 10 -4 10 -9 0 -5 37 -71 81 -147 45 -77 93 -159
107 -184 14 -25 36 -62 49 -82 12 -21 23 -42 23 -48 0 -5 5 -10 10 -10 6 0 10
-4 10 -9 0 -7 52 -101 111 -199 17 -29 116 -201 140 -242 8 -14 16 -27 19 -30
9 -9 51 -84 63 -113 6 -15 15 -27 19 -27 4 0 8 -5 8 -10 0 -17 51 -61 87 -76
49 -21 146 -18 163 4 3 4 12 8 20 10 8 2 48 19 88 38 41 19 80 34 87 34 7 0
18 7 25 15 7 8 18 15 25 15 7 0 43 14 81 31 69 31 116 52 197 88 23 10 65 29
92 41 28 12 64 28 80 35 17 8 55 24 85 38 30 13 114 50 185 82 72 31 148 65
170 75 22 10 99 44 170 75 72 31 151 68 178 81 26 13 47 21 47 17 0 -3 6 -1
13 5 6 5 40 22 74 36 35 14 87 37 115 51 157 72 277 122 282 117 3 -3 6 0 6 6
0 7 4 12 10 12 5 0 33 11 62 24 83 37 133 60 273 121 158 70 205 91 270 120
44 20 172 77 275 123 19 9 37 16 40 17 3 0 36 15 73 33 38 18 70 32 72 32 2 0
36 15 77 34 40 18 127 57 193 86 66 29 153 68 193 86 41 19 75 34 77 34 2 0
43 18 90 40 47 22 88 40 90 40 2 0 36 15 77 34 40 18 111 50 158 71 246 108
289 130 354 181 277 217 321 633 97 902 -39 46 -143 132 -160 132 -6 0 -11 3
-11 8 0 6 -108 54 -130 58 -3 0 -12 4 -20 7 -8 4 -32 8 -52 10 -21 2 -40 6
-42 8 -7 6 -143 2 -186 -6 -42 -8 -114 -31 -155 -50 -99 -45 -147 -65 -155
-65 -6 0 -10 -4 -10 -8 0 -5 -6 -9 -12 -9 -7 0 -40 -13 -73 -29 -33 -15 -62
-29 -65 -29 -17 -5 -122 -51 -204 -91 -16 -8 -35 -14 -43 -14 -7 0 -13 -4 -13
-9 0 -5 -20 -15 -45 -22 -25 -7 -45 -17 -45 -21 0 -4 -7 -8 -16 -8 -9 0 -28
-6 -42 -14 -39 -22 -162 -78 -176 -80 -6 -2 -45 -18 -86 -38 -113 -53 -190
-88 -195 -88 -5 0 -175 -78 -197 -90 -10 -6 -25 -10 -33 -10 -8 0 -15 -5 -15
-12 0 -6 -2 -9 -6 -6 -3 3 -32 -7 -65 -23 -32 -16 -62 -29 -65 -29 -5 0 -75
-31 -169 -75 -89 -42 -289 -96 -411 -110 -61 -8 -262 -9 -329 -2 -155 16 -381
77 -473 128 -18 11 -39 19 -47 19 -8 0 -15 3 -15 8 0 4 -14 13 -32 21 -76 34
-213 135 -317 234 -48 46 -154 172 -189 223 -75 113 -170 310 -177 364 0 3 -3
10 -7 16 -4 6 -9 21 -12 35 -3 13 -12 56 -21 94 -23 105 -28 157 -29 300 0
129 7 213 23 287 5 21 7 38 4 38 -3 0 0 7 7 15 7 8 10 15 7 15 -15 0 87 282
104 288 5 2 7 7 5 11 -3 4 6 25 20 46 13 22 29 52 36 68 7 15 16 27 20 27 4 0
8 6 8 13 0 7 11 24 25 39 14 15 25 32 25 37 0 6 6 14 13 18 6 4 24 24 38 43
49 64 173 184 239 230 19 13 37 27 40 30 10 13 156 98 222 129 37 17 70 36 73
41 3 6 15 10 26 10 10 0 19 5 19 12 0 6 3 9 6 6 3 -3 73 25 155 63 82 38 154
69 159 69 6 0 10 4 10 8 0 5 6 9 13 9 6 0 65 26 130 57 65 31 120 56 122 56 2
0 45 20 97 44 94 44 162 75 253 116 28 12 77 35 110 50 89 41 189 86 197 89 4
1 56 25 115 53 224 104 249 116 286 129 20 7 37 17 37 21 0 4 9 8 20 8 11 0
20 5 20 12 0 6 3 9 6 5 4 -3 25 4 48 15 22 12 46 23 51 24 6 1 53 22 105 47
157 73 210 97 220 97 6 0 10 5 10 10 0 6 5 10 11 10 12 0 112 44 277 121 57
27 105 49 107 49 2 0 45 20 97 43 51 24 131 61 178 82 47 20 123 55 170 77 78
37 127 59 140 63 3 1 32 14 65 30 33 16 62 30 65 30 3 1 41 18 85 39 44 20 89
41 100 46 11 5 64 29 119 54 54 26 102 46 107 46 4 0 24 14 43 30 96 85 91
229 -11 306 -80 61 -33 59 -1631 59 -800 0 -1454 -1 -1455 -2z"/>
<path d="M7220 7530 c-47 -17 -232 -98 -358 -156 -41 -19 -75 -34 -77 -34 -2
0 -32 -13 -67 -29 -35 -15 -117 -52 -183 -81 -66 -29 -142 -63 -170 -75 -27
-12 -88 -39 -135 -60 -47 -21 -103 -46 -125 -55 -22 -10 -83 -37 -135 -60 -52
-23 -115 -52 -140 -63 -25 -11 -47 -21 -50 -22 -14 -5 -224 -96 -285 -125 -71
-33 -154 -69 -218 -96 -34 -15 -95 -42 -135 -60 -41 -19 -76 -34 -78 -34 -3 0
-32 -13 -65 -30 -33 -16 -63 -30 -67 -30 -4 -1 -31 -13 -60 -26 -29 -13 -54
-24 -57 -24 -2 0 -39 -16 -82 -36 -43 -20 -93 -42 -110 -50 -76 -33 -101 -44
-158 -69 -33 -15 -88 -40 -123 -56 -35 -16 -70 -29 -78 -29 -8 0 -14 -4 -14
-10 0 -5 -5 -10 -11 -10 -6 0 -40 -13 -76 -30 -35 -16 -66 -30 -68 -30 -2 0
-32 -13 -67 -29 -35 -16 -166 -75 -293 -131 -126 -56 -258 -115 -293 -131 -34
-16 -64 -29 -66 -29 -3 0 -33 -13 -68 -29 -61 -28 -81 -37 -213 -96 -95 -43
-110 -48 -117 -47 -3 1 -12 -5 -18 -13 -7 -8 -18 -15 -26 -15 -20 0 -116 -61
-166 -105 -61 -55 -114 -127 -151 -205 -17 -36 -32 -69 -33 -75 -1 -5 -7 -30
-14 -55 -30 -110 -14 -285 36 -397 74 -168 217 -292 409 -353 50 -16 82 -20
175 -21 119 -2 195 23 480 152 25 12 59 27 75 34 29 13 91 41 190 85 28 13 86
38 130 58 44 19 96 41 115 50 19 9 37 16 40 17 3 1 34 15 70 32 36 16 88 40
115 52 28 12 64 29 80 38 17 10 30 15 30 13 0 -2 31 11 68 28 38 18 70 32 72
32 2 0 36 15 77 34 40 18 116 53 168 76 128 57 146 64 215 95 111 50 275 109
275 99 0 -3 8 0 18 5 9 5 33 12 52 15 19 3 46 8 60 11 93 22 441 23 500 2 8
-3 31 -8 50 -12 75 -14 87 -17 140 -33 30 -9 57 -17 60 -17 3 -1 18 -7 33 -13
16 -7 31 -12 34 -12 16 0 199 -99 268 -145 106 -70 224 -175 305 -271 88 -105
213 -324 250 -439 7 -22 16 -49 20 -60 17 -44 37 -132 56 -240 10 -62 12 -306
3 -367 -5 -31 -11 -71 -13 -89 -3 -19 -5 -34 -6 -34 -1 0 -3 -11 -6 -25 -2
-14 -12 -50 -21 -80 -9 -30 -17 -57 -18 -60 -12 -53 -94 -232 -138 -304 -28
-45 -112 -163 -136 -190 -110 -121 -289 -276 -319 -276 -7 0 -12 -3 -12 -7 0
-14 -241 -140 -300 -158 -3 -1 -30 -13 -60 -27 -121 -57 -232 -108 -236 -108
-12 0 -100 -45 -106 -54 -4 -6 -8 -7 -8 -3 0 5 -12 1 -27 -7 -16 -9 -59 -30
-98 -47 -38 -17 -88 -40 -109 -50 -22 -10 -46 -19 -53 -19 -7 0 -13 -4 -13
-10 0 -5 -9 -10 -20 -10 -11 0 -20 -4 -20 -10 0 -5 -3 -9 -7 -8 -9 3 -213 -87
-468 -208 -27 -12 -99 -45 -160 -73 -60 -27 -144 -65 -185 -84 -41 -19 -97
-45 -125 -57 -27 -12 -84 -38 -125 -57 -41 -19 -145 -66 -230 -105 -85 -39
-189 -86 -230 -105 -41 -19 -118 -54 -170 -78 -52 -23 -123 -57 -156 -74 -34
-17 -65 -31 -68 -31 -4 0 -45 -18 -92 -40 -47 -22 -87 -40 -89 -40 -1 0 -41
-17 -87 -39 -45 -21 -108 -50 -138 -64 -138 -63 -199 -91 -255 -117 -63 -29
-140 -64 -267 -120 -126 -57 -179 -118 -180 -211 -1 -54 39 -127 87 -160 79
-56 62 -56 1891 -53 918 2 1696 6 1729 9 78 7 126 14 144 20 8 3 29 8 48 11
19 3 64 17 101 30 37 14 81 30 97 36 17 6 46 20 65 31 19 10 53 29 75 40 105
57 271 195 354 297 11 14 25 30 30 36 14 17 98 140 102 150 2 5 33 60 69 122
36 62 80 141 99 175 19 34 37 64 40 67 3 3 15 23 26 45 11 22 22 42 25 45 3 3
11 16 18 30 6 14 16 32 22 40 5 8 24 40 41 70 18 30 41 71 52 90 11 19 25 44
31 55 6 11 59 102 116 202 58 101 111 195 119 210 8 16 19 31 25 35 6 4 7 8 2
8 -5 0 -2 8 6 18 9 9 37 55 62 102 51 93 68 122 76 130 3 3 14 23 25 45 11 22
29 54 40 70 11 17 21 37 23 45 2 8 7 17 11 20 4 3 21 30 38 60 16 30 42 74 56
97 15 24 27 45 27 47 0 3 14 29 31 58 18 29 42 71 55 93 109 194 155 272 164
282 5 7 10 16 10 20 0 5 11 25 25 46 14 20 22 37 18 37 -4 0 -3 4 3 8 6 4 22
27 36 52 54 97 146 257 169 295 53 85 112 222 143 335 15 53 18 68 34 155 4
22 7 108 7 190 0 187 -8 249 -53 390 -13 44 -29 86 -35 93 -5 6 -7 12 -3 12 9
0 -84 179 -160 307 -11 17 -55 94 -99 169 -44 76 -92 159 -107 184 -15 25 -37
63 -50 85 -12 22 -28 49 -35 60 -7 11 -16 28 -19 38 -3 9 -10 17 -15 17 -5 0
-9 4 -9 10 0 5 -16 34 -35 65 -19 30 -40 65 -45 77 -6 13 -23 43 -39 68 -16
25 -30 51 -30 58 -1 6 -5 12 -11 12 -5 0 -10 4 -10 10 0 5 -25 50 -55 101 -30
50 -55 93 -55 94 0 2 -37 65 -81 141 -45 77 -93 159 -107 184 -14 25 -36 62
-49 82 -12 21 -23 42 -23 48 0 5 -4 10 -10 10 -5 0 -10 4 -10 9 0 7 -61 117
-100 181 -49 80 -93 157 -101 177 -4 12 -13 23 -19 23 -5 0 -10 7 -10 15 0 8
-16 39 -35 69 -19 30 -35 57 -35 60 0 9 -66 109 -88 133 -23 27 -81 53 -125
56 -18 2 -52 -4 -77 -13z m1073 -1695 c-3 -9 -8 -14 -10 -11 -3 3 -2 9 2 15 9
16 15 13 8 -4z m-72 -128 c-10 -9 -11 -8 -5 6 3 10 9 15 12 12 3 -3 0 -11 -7
-18z"/>
</g>
</svg>
