<svg version="1.1" xmlns="http://www.w3.org/2000/svg" xmlns:xlink="http://www.w3.org/1999/xlink" x="0px" y="0px"
	 viewBox="0 0 100 100" style="enable-background:new 0 0 100 100; max-height: 100px; max-width: 100px;" xml:space="preserve">
<path d="M100,85v10c0,1.4-0.4,2.5-1.2,3.5c-0.8,1-1.8,1.5-2.9,1.5H4.2c-1.1,0-2.1-0.5-2.9-1.5S0,96.4,0,95V85c0-1.4,0.4-2.5,1.2-3.5
	S3,80,4.2,80h91.7c1.1,0,2.1,0.5,2.9,1.5C99.6,82.5,100,83.6,100,85z M100,45v10c0,1.4-0.4,2.5-1.2,3.5c-0.8,1-1.8,1.5-2.9,1.5H4.2
	c-1.1,0-2.1-0.5-2.9-1.5S0,56.4,0,55V45c0-1.4,0.4-2.5,1.2-3.5S3,40,4.2,40h91.7c1.1,0,2.1,0.5,2.9,1.5C99.6,42.5,100,43.6,100,45z
	 M100,5v10c0,1.4-0.4,2.5-1.2,3.5c-0.8,1-1.8,1.5-2.9,1.5H4.2c-1.1,0-2.1-0.5-2.9-1.5S0,16.4,0,15V5c0-1.4,0.4-2.5,1.2-3.5
	S3,0,4.2,0h91.7c1.1,0,2.1,0.5,2.9,1.5C99.6,2.5,100,3.6,100,5z"/>
</svg>
