<svg xmlns="http://www.w3.org/2000/svg" viewBox="0 0 246.21 219.77"><title>Asset 4</title><g id="Layer_2" data-name="Layer 2"><g id="Layer_3" data-name="Layer 3"><g id="spark_shape" data-name="spark shape"><path d="M172.52,217.74l-98.77,0a22.33,22.33,0,0,1-19.34-11.16L5,121.09A22.33,22.33,0,0,1,5,98.76L54.35,13.2A22.33,22.33,0,0,1,73.68,2l98.77,0A22.33,22.33,0,0,1,191.8,13.16l49.41,85.52a22.33,22.33,0,0,1,0,22.33l-49.36,85.56A22.33,22.33,0,0,1,172.52,217.74Z" fill="#fff" stroke="#ef4136" stroke-miterlimit="10" stroke-width="4"/></g><g id="flashlight"><path id="light" d="M131,12.93" fill="#fff" stroke="#ef4136" stroke-miterlimit="10" stroke-width="4"/><path id="light-2" data-name="light" d="M133,24.77l20.19,92.48c2.4,4,.53,6.64-3.44,9L121.5,143.38c-4,2.4-7.84-.06-11.12-2.51l-71-62.16" fill="#fff" stroke="#ef4136" stroke-miterlimit="10" stroke-width="4"/><rect id="handle" x="134.72" y="169.23" width="59.72" height="16.12" rx="5.08" ry="5.08" transform="translate(227.73 -56.23) rotate(58)" fill="#ef866a" stroke="#ef4136" stroke-miterlimit="10" stroke-width="4"/><path id="base" d="M119,148.29c-6.73-6.56,28.73-43.94,37.23-26.53C172.31,154.65,146.3,174.85,119,148.29Z" fill="#ef866a" stroke="#ef4136" stroke-miterlimit="10" stroke-width="4"/><path id="ring" d="M144.82,141.71c-10.09,7.68-21.5,8.25-27.85,5-7.5-3.79-2.37-17.86,8.7-25.28s23.79-10.2,29-3.61C159.06,123.41,154.75,134.15,144.82,141.71Z" fill="#fff" stroke="#ef4136" stroke-miterlimit="10" stroke-width="4"/><line id="battery_door" data-name="battery door" x1="184.16" y1="192.69" x2="171.11" y2="200.84" fill="none" stroke="#ef4136" stroke-miterlimit="10" stroke-width="4"/><circle id="on_off" data-name="on/off" cx="159.9" cy="168.38" r="2.77" transform="translate(-29.34 33.81) rotate(-11.06)" fill="#fff" stroke="#ef4136" stroke-miterlimit="10" stroke-width="4"/></g><path id="light-3" data-name="light" d="M90.32,19.5l46.22,96.13" fill="#fff" stroke="#ef4136" stroke-miterlimit="10" stroke-width="4"/><path id="light-4" data-name="light" d="M58.27,36.5l59.92,92.38" fill="#fff" stroke="#ef4136" stroke-miterlimit="10" stroke-width="4"/></g></g></svg>