<svg xmlns="http://www.w3.org/2000/svg" viewBox="0 0 246.21 219.77"><g data-name="Layer 2"><g data-name="Layer 3"><path d="M172.52 217.74H73.75a22.33 22.33 0 0 1-19.34-11.16L5 121.09a22.33 22.33 0 0 1 0-22.33L54.35 13.2A22.33 22.33 0 0 1 73.68 2h98.77a22.33 22.33 0 0 1 19.35 11.16l49.41 85.52a22.33 22.33 0 0 1 0 22.33l-49.36 85.56a22.33 22.33 0 0 1-19.33 11.17z" fill="#fff" stroke="#f15c27" stroke-miterlimit="10" stroke-width="4" data-name="spark shape"/><g stroke="#f15c27" stroke-miterlimit="10" stroke-width="4"><path data-name="light" d="M116.16 23.21L96 115.69c-2.4 4-.53 6.64 3.44 9l28.26 17.08c4 2.4 7.84-.06 11.12-2.51l71-62.16" fill="#fff"/><rect x="54.74" y="167.67" width="59.72" height="16.12" rx="5.08" ry="5.08" transform="rotate(122 84.61 175.724)" fill="#ef866a"/><path d="M130.15 146.73c6.73-6.56-28.73-43.94-37.23-26.53-16.04 32.89 9.97 53.09 37.23 26.53z" fill="#ef866a"/><path d="M104.36 140.15c10.09 7.68 21.5 8.25 27.85 5 7.5-3.79 2.37-17.86-8.7-25.28s-23.79-10.2-29-3.61c-4.38 5.59-.08 16.33 9.85 23.89z" fill="#fff"/><path data-name="battery door" fill="none" d="M65.02 191.13l13.05 8.15"/><circle data-name="on/off" cx="89.28" cy="166.82" r="2.77" transform="rotate(-78.94 89.274 166.816)" fill="#fff"/></g><path data-name="light" d="M158.86 17.94l-46.22 96.13M190.91 34.94L131 127.31" fill="#fff" stroke="#f15c27" stroke-miterlimit="10" stroke-width="4"/></g></g></svg>
