<svg xmlns="http://www.w3.org/2000/svg" viewBox="0 0 246.21 219.77"><g data-name="Layer 2"><path d="M172.52 217.74H73.75a22.33 22.33 0 0 1-19.34-11.16L5 121.09a22.33 22.33 0 0 1 0-22.33L54.35 13.2A22.33 22.33 0 0 1 73.68 2h98.77a22.33 22.33 0 0 1 19.35 11.16l49.41 85.52a22.33 22.33 0 0 1 0 22.33l-49.36 85.56a22.33 22.33 0 0 1-19.33 11.17z" fill="#fff" stroke="#f15c27" stroke-miterlimit="10" stroke-width="4" data-name="spark shape"/><path d="M46.65 133.31c11.9 32.05 58.66 48.26 75.36 58.77 16.12 10.14 19.37-57.47 7.46-89.53s-40.09-51.15-63-42.66C53.68 64.66 45.25 77.1 42.42 92.77c-2.21 12.23-.99 26.47 4.23 40.54z" fill="#f15c27" stroke="#f15c27" stroke-miterlimit="10" stroke-width="4"/><path d="M204.41 133.68c-11.9 32.05-58.66 48.26-75.36 58.77-16.12 10.14-19.37-57.47-7.46-89.53s40.09-51.15 63-42.66c12.83 4.77 21.27 17.21 24.09 32.87 2.17 12.26.95 26.48-4.27 40.55z" fill="#ee8569" stroke="#f15c27" stroke-miterlimit="10" stroke-width="4"/></g></svg>
