<svg xmlns="http://www.w3.org/2000/svg" viewBox="0 0 220.63 197.62"><title>Asset 1</title><g id="Layer_2" data-name="Layer 2"><g id="Layer_1-2" data-name="Layer 1"><g id="spark_shape" data-name="spark shape"><path d="M153.34,195.59l-86,0A22.33,22.33,0,0,1,48,184.46L5,110A22.33,22.33,0,0,1,5,87.68L48,13.2A22.33,22.33,0,0,1,67.29,2l86,0a22.33,22.33,0,0,1,19.34,11.16l43,74.45a22.33,22.33,0,0,1,0,22.33l-43,74.48A22.33,22.33,0,0,1,153.34,195.59Z" fill="#fff" stroke="#ef4136" stroke-miterlimit="10" stroke-width="4"/></g><path id="big_leaf" data-name="big leaf" d="M183.4,135.86c-2.88,37.48-57.57,42.11-76.21,27.43s-20.82-60.51,8.7-80.61c30.14-20.52,78.47-40.83,73-23.21C183.47,76.78,188.22,73.13,183.4,135.86Z" fill="#ef876b" stroke="#ef4136" stroke-miterlimit="10" stroke-width="4"/><path id="big_leaf_line" data-name="big leaf line" d="M187.82,54.25,159.59,80.49q-.28.26-.53.54l-21.94,24.39c-2.09,2.22-3.91,4.65-5.93,6.94a35.4,35.4,0,0,0-3,5.79l-18.66,46.71" fill="#ef866a" stroke="#ef4136" stroke-miterlimit="10" stroke-width="4"/><path id="little_leaf" data-name="little leaf" d="M54.09,156.94c9.12,22.81,43.76,20,52.38,9s1-39.48-21.16-48.78c-22.61-9.5-56.39-17-49.55-6.69C42.47,120.52,38.83,118.77,54.09,156.94Z" fill="#ef866a" stroke="#ef4136" stroke-miterlimit="10" stroke-width="4"/><path id="little_leaf_line" data-name="little leaf line" d="M35.37,107.09l22.55,13.23.43.27,18.31,12.75c.62.41,1.22.85,1.82,1.29A37.84,37.84,0,0,1,86,142l19.34,25.13" fill="#ef866a" stroke="#ef4136" stroke-miterlimit="10" stroke-width="4"/></g></g></svg>