<svg xmlns="http://www.w3.org/2000/svg" viewBox="0 0 220.63 197.62"><g data-name="Layer 2"><g data-name="Layer 1"><path d="M153.34 195.59h-86A22.33 22.33 0 0 1 48 184.46L5 110a22.33 22.33 0 0 1 0-22.32L48 13.2A22.33 22.33 0 0 1 67.29 2h86a22.33 22.33 0 0 1 19.34 11.16l43 74.45a22.33 22.33 0 0 1 0 22.33l-43 74.48a22.33 22.33 0 0 1-19.29 11.17z" fill="#fff" stroke="#f15c27" stroke-miterlimit="10" stroke-width="4" data-name="spark shape"/><path data-name="big leaf" d="M177.4 135.86c-2.88 37.48-57.57 42.11-76.21 27.43s-20.82-60.51 8.7-80.61c30.14-20.52 78.47-40.83 73-23.21-5.42 17.31-.67 13.66-5.49 76.39z" fill="#ef876b" stroke="#f15c27" stroke-miterlimit="10" stroke-width="4"/><path data-name="big leaf line" d="M181.82 54.25l-28.23 26.24q-.28.26-.53.54l-21.94 24.39c-2.09 2.22-3.91 4.65-5.93 6.94a35.4 35.4 0 0 0-3 5.79l-18.66 46.71" fill="#ef866a" stroke="#f15c27" stroke-miterlimit="10" stroke-width="4"/><path data-name="little leaf" d="M48.09 156.94c9.12 22.81 43.76 20 52.38 9s1-39.48-21.16-48.78c-22.61-9.5-56.39-17-49.55-6.69 6.71 10.05 3.07 8.3 18.33 46.47z" fill="#ef866a" stroke="#f15c27" stroke-miterlimit="10" stroke-width="4"/><path data-name="little leaf line" d="M29.37 107.09l22.55 13.23.43.27 18.31 12.75c.62.41 1.22.85 1.82 1.29A37.84 37.84 0 0 1 80 142l19.32 25.1" fill="#ef866a" stroke="#f15c27" stroke-miterlimit="10" stroke-width="4"/></g></g></svg>
