<svg xmlns="http://www.w3.org/2000/svg" viewBox="0 0 220.63 197.62"><title>Asset 2</title><g id="Layer_2" data-name="Layer 2"><g id="Layer_1-2" data-name="Layer 1"><g id="spark_shape" data-name="spark shape"><path d="M153.34,195.59l-86,0A22.33,22.33,0,0,1,48,184.46L5,110A22.33,22.33,0,0,1,5,87.68L48,13.2A22.33,22.33,0,0,1,67.29,2l86,0a22.33,22.33,0,0,1,19.34,11.16l43,74.45a22.33,22.33,0,0,1,0,22.33l-43,74.48A22.33,22.33,0,0,1,153.34,195.59Z" fill="#fff" stroke="#ef4136" stroke-miterlimit="10" stroke-width="4"/></g><line x1="109.19" y1="98.99" x2="158.94" y2="184.97" fill="none" stroke="#ef4136" stroke-miterlimit="10" stroke-width="4"/><path d="M143.29,158.47h0a5.18,5.18,0,0,1-6.34-1.87L98.07,88.47c-1.13-2-.14-4.4,2.22-5.36h0A5.18,5.18,0,0,1,106.63,85l38.88,68.12C146.64,155.1,145.65,157.51,143.29,158.47Z" fill="#ef866a" stroke="#ef4136" stroke-miterlimit="10" stroke-width="4"/><line x1="73.9" y1="43.08" x2="95.9" y2="78.83" fill="none" stroke="#ef4136" stroke-miterlimit="10" stroke-width="4"/><line x1="103.08" y1="77.14" x2="106.06" y2="48.77" fill="none" stroke="#ef4136" stroke-miterlimit="10" stroke-width="4"/><line x1="91.91" y1="84.8" x2="56.21" y2="76.77" fill="none" stroke="#ef4136" stroke-miterlimit="10" stroke-width="4"/><line x1="92.16" y1="91.47" x2="35.79" y2="99.14" fill="none" stroke="#ef4136" stroke-miterlimit="10" stroke-width="4"/><line x1="110.58" y1="80.66" x2="136.64" y2="41.25" fill="none" stroke="#ef4136" stroke-miterlimit="10" stroke-width="4"/><line x1="96.09" y1="95.43" x2="83.83" y2="122.21" fill="none" stroke="#ef4136" stroke-miterlimit="10" stroke-width="4"/><line x1="113.36" y1="86.41" x2="141.87" y2="92.82" fill="none" stroke="#ef4136" stroke-miterlimit="10" stroke-width="4"/><line x1="106.38" y1="43.37" x2="107.29" y2="34.65" fill="none" stroke="#ef4136" stroke-miterlimit="10" stroke-width="4"/><line x1="70.34" y1="38.18" x2="63.59" y2="27.68" fill="none" stroke="#ef4136" stroke-miterlimit="10" stroke-width="4"/><line x1="82.56" y1="125.72" x2="78.24" y2="133.97" fill="none" stroke="#ef4136" stroke-miterlimit="10" stroke-width="4"/><line x1="146.36" y1="94.15" x2="156.6" y2="96.46" fill="none" stroke="#ef4136" stroke-miterlimit="10" stroke-width="4"/><line x1="39.9" y1="72.54" x2="51.01" y2="75.32" fill="none" stroke="#ef4136" stroke-miterlimit="10" stroke-width="4"/></g></g></svg>