<svg xmlns="http://www.w3.org/2000/svg" viewBox="0 0 220.63 197.62"><g data-name="Layer 2"><g data-name="Layer 1"><path d="M153.34 195.59h-86A22.33 22.33 0 0 1 48 184.46L5 110a22.33 22.33 0 0 1 0-22.32L48 13.2A22.33 22.33 0 0 1 67.29 2h86a22.33 22.33 0 0 1 19.34 11.16l43 74.45a22.33 22.33 0 0 1 0 22.33l-43 74.48a22.33 22.33 0 0 1-19.29 11.17z" fill="#fff" stroke="#f15c27" stroke-miterlimit="10" stroke-width="4" data-name="spark shape"/><path fill="none" stroke="#f15c27" stroke-miterlimit="10" stroke-width="4" d="M112.9 96.85l-38.25 91.68"/><path d="M86.75 160.23a5.18 5.18 0 0 0 6-2.67L122.57 85c.87-2.12-.43-4.38-2.89-5a5.18 5.18 0 0 0-6 2.67L83.86 155.2c-.86 2.12.43 4.38 2.89 5.03z" fill="#ef866a" stroke="#f15c27" stroke-miterlimit="10" stroke-width="4"/><path fill="none" stroke="#f15c27" stroke-miterlimit="10" stroke-width="4" d="M140.69 36.86l-17.21 38.29M116.14 74.4l-7.32-30.72M128.2 80.55l34.37-12.57M128.56 86.44l70.59 4.98M110.4 77.69L64.18 31.48M125.43 91.63l15.61 24.98M107.14 83.92L79.69 93.95M142.44 33.41l5.12-11.38M143.1 119.7l4.65 8.07M75.41 95.85l-9.85 3.6M66.82 59.04l-2.74-9.98M70.49 52.86l-10.08 2.37M140.67 102.16l9.51-4.07"/><path fill="none" stroke="#ef4136" stroke-miterlimit="10" stroke-width="4" d="M147.01 105.05l-3.17-9.85"/><path fill="none" stroke="#f15c27" stroke-miterlimit="10" stroke-width="4" d="M88.66 79.26l-2.74-9.98M92.33 73.08l-10.08 2.37"/><path fill="none" stroke="#ef4136" stroke-miterlimit="10" stroke-width="4" d="M169.82 106.16l9.52-4.08"/><path fill="none" stroke="#f15c27" stroke-miterlimit="10" stroke-width="4" d="M176.17 109.05l-3.18-9.86"/><circle cx="105.74" cy="31.3" r="4.58" fill="#fff" stroke="#f15c27" stroke-miterlimit="10" stroke-width="4"/><circle cx="56.02" cy="102.6" r="4.58" fill="#fff" stroke="#f15c27" stroke-miterlimit="10" stroke-width="4"/><circle cx="152.67" cy="135.22" r="4.58" fill="#fff" stroke="#f15c27" stroke-miterlimit="10" stroke-width="4"/><circle cx="175.34" cy="63.32" r="4.58" fill="#fff" stroke="#f15c27" stroke-miterlimit="10" stroke-width="4"/></g></g></svg>
