<svg xmlns="http://www.w3.org/2000/svg" viewBox="0 0 246.21 219.77"><g data-name="Layer 2"><path d="M172.52 217.74H73.75a22.33 22.33 0 0 1-19.34-11.16L5 121.09a22.33 22.33 0 0 1 0-22.33L54.35 13.2A22.33 22.33 0 0 1 73.68 2h98.77a22.33 22.33 0 0 1 19.35 11.16l49.41 85.52a22.33 22.33 0 0 1 0 22.33l-49.36 85.56a22.33 22.33 0 0 1-19.33 11.17z" fill="#fff" stroke="#f15c27" stroke-miterlimit="10" stroke-width="4" data-name="spark shape"/><path fill="#fff" stroke="#f15c27" stroke-miterlimit="10" stroke-width="4" d="M76.02 72.27h84.49v92.68H76.02z"/><path fill="#ed8569" stroke="#f15c27" stroke-miterlimit="10" stroke-width="4" d="M57.02 47.01h44v46.67h-44zM139.36 47.01h44v46.67h-44zM57.02 134.35h44v46.67h-44zM140.36 134.35h44v46.67h-44z"/></g></svg>
