<svg version="1.1" xmlns="http://www.w3.org/2000/svg" xmlns:xlink="http://www.w3.org/1999/xlink" width="30" height="32" viewBox="0 0 30 32">
    <path d="M22.857 26.571q0-0.464-0.339-0.804t-0.804-0.339-0.804 0.339-0.339 0.804 0.339 0.804 0.804 0.339 0.804-0.339 0.339-0.804zM27.429 26.571q0-0.464-0.339-0.804t-0.804-0.339-0.804 0.339-0.339 0.804 0.339 0.804 0.804 0.339 0.804-0.339 0.339-0.804zM29.714 22.571v5.714q0 0.714-0.5 1.214t-1.214 0.5h-26.286q-0.714 0-1.214-0.5t-0.5-1.214v-5.714q0-0.714 0.5-1.214t1.214-0.5h7.625q0.375 1 1.259 1.643t1.973 0.643h4.571q1.089 0 1.973-0.643t1.259-1.643h7.625q0.714 0 1.214 0.5t0.5 1.214zM23.911 11q-0.304 0.714-1.054 0.714h-4.571v8q0 0.464-0.339 0.804t-0.804 0.339h-4.571q-0.464 0-0.804-0.339t-0.339-0.804v-8h-4.571q-0.75 0-1.054-0.714-0.304-0.696 0.25-1.232l8-8q0.321-0.339 0.804-0.339t0.804 0.339l8 8q0.554 0.536 0.25 1.232z"></path>
</svg>